  0
SECTION
  2
HEADER
  9
$ACADVER
  1
AC1032
  9
$ACADMAINTVER
 90
      197
  9
$DWGCODEPAGE
  3
ANSI_1252
  9
$REQUIREDVERSIONS
160
                 0
  9
$INSBASE
 10
0.0
 20
0.0
 30
0.0
  9
$EXTMIN
 10
1.000000000000000E+20
 20
1.000000000000000E+20
 30
1.000000000000000E+20
  9
$EXTMAX
 10
-1.000000000000000E+20
 20
-1.000000000000000E+20
 30
-1.000000000000000E+20
  9
$LIMMIN
 10
0.0
 20
0.0
  9
$LIMMAX
 10
12.0
 20
9.0
  9
$ORTHOMODE
 70
     0
  9
$REGENMODE
 70
     1
  9
$FILLMODE
 70
     1
  9
$QTEXTMODE
 70
     0
  9
$MIRRTEXT
 70
     0
  9
$LTSCALE
 40
1.0
  9
$ATTMODE
 70
     1
  9
$TEXTSIZE
 40
0.2
  9
$TRACEWID
 40
0.05
  9
$TEXTSTYLE
  7
Standard
  9
$CLAYER
  8
0
  9
$CELTYPE
  6
ByLayer
  9
$CECOLOR
 62
   256
  9
$CELTSCALE
 40
1.0
  9
$DISPSILH
 70
     0
  9
$DIMSCALE
 40
1.0
  9
$DIMASZ
 40
0.18
  9
$DIMEXO
 40
0.0625
  9
$DIMDLI
 40
0.38
  9
$DIMRND
 40
0.0
  9
$DIMDLE
 40
0.0
  9
$DIMEXE
 40
0.18
  9
$DIMTP
 40
0.0
  9
$DIMTM
 40
0.0
  9
$DIMTXT
 40
0.18
  9
$DIMCEN
 40
0.09
  9
$DIMTSZ
 40
0.0
  9
$DIMTOL
 70
     0
  9
$DIMLIM
 70
     0
  9
$DIMTIH
 70
     1
  9
$DIMTOH
 70
     1
  9
$DIMSE1
 70
     0
  9
$DIMSE2
 70
     0
  9
$DIMTAD
 70
     0
  9
$DIMZIN
 70
     0
  9
$DIMBLK
  1

  9
$DIMASO
 70
     1
  9
$DIMSHO
 70
     1
  9
$DIMPOST
  1

  9
$DIMAPOST
  1

  9
$DIMALT
 70
     0
  9
$DIMALTD
 70
     2
  9
$DIMALTF
 40
25.4
  9
$DIMLFAC
 40
1.0
  9
$DIMTOFL
 70
     0
  9
$DIMTVP
 40
0.0
  9
$DIMTIX
 70
     0
  9
$DIMSOXD
 70
     0
  9
$DIMSAH
 70
     0
  9
$DIMBLK1
  1

  9
$DIMBLK2
  1

  9
$DIMSTYLE
  2
Standard
  9
$DIMCLRD
 70
     0
  9
$DIMCLRE
 70
     0
  9
$DIMCLRT
 70
     0
  9
$DIMTFAC
 40
1.0
  9
$DIMGAP
 40
0.09
  9
$DIMJUST
 70
     0
  9
$DIMSD1
 70
     0
  9
$DIMSD2
 70
     0
  9
$DIMTOLJ
 70
     1
  9
$DIMTZIN
 70
     0
  9
$DIMALTZ
 70
     0
  9
$DIMALTTZ
 70
     0
  9
$DIMUPT
 70
     0
  9
$DIMDEC
 70
     4
  9
$DIMTDEC
 70
     4
  9
$DIMALTU
 70
     2
  9
$DIMALTTD
 70
     2
  9
$DIMTXSTY
  7
Standard
  9
$DIMAUNIT
 70
     0
  9
$DIMADEC
 70
     0
  9
$DIMALTRND
 40
0.0
  9
$DIMAZIN
 70
     0
  9
$DIMDSEP
 70
    46
  9
$DIMATFIT
 70
     3
  9
$DIMFRAC
 70
     0
  9
$DIMLDRBLK
  1

  9
$DIMLUNIT
 70
     2
  9
$DIMLWD
 70
    -2
  9
$DIMLWE
 70
    -2
  9
$DIMTMOVE
 70
     0
  9
$DIMFXL
 40
1.0
  9
$DIMFXLON
 70
     0
  9
$DIMJOGANG
 40
0.7853981633974483
  9
$DIMTFILL
 70
     0
  9
$DIMTFILLCLR
 70
     0
  9
$DIMARCSYM
 70
     0
  9
$DIMLTYPE
  6

  9
$DIMLTEX1
  6

  9
$DIMLTEX2
  6

  9
$DIMTXTDIRECTION
 70
     0
  9
$LUNITS
 70
     2
  9
$LUPREC
 70
     4
  9
$SKETCHINC
 40
0.1
  9
$FILLETRAD
 40
0.0
  9
$AUNITS
 70
     0
  9
$AUPREC
 70
     0
  9
$MENU
  1
.
  9
$ELEVATION
 40
0.0
  9
$PELEVATION
 40
0.0
  9
$THICKNESS
 40
0.0
  9
$LIMCHECK
 70
     0
  9
$CHAMFERA
 40
0.0
  9
$CHAMFERB
 40
0.0
  9
$CHAMFERC
 40
0.0
  9
$CHAMFERD
 40
0.0
  9
$SKPOLY
 70
     0
  9
$TDCREATE
 40
2459550.692997685
  9
$TDUCREATE
 40
2459550.692997685
  9
$TDUPDATE
 40
2459550.692997685
  9
$TDUUPDATE
 40
2459550.692997685
  9
$TDINDWG
 40
0.0000000000
  9
$TDUSRTIMER
 40
0.0000000000
  9
$USRTIMER
 70
     1
  9
$ANGBASE
 50
0.0
  9
$ANGDIR
 70
     0
  9
$PDMODE
 70
     0
  9
$PDSIZE
 40
0.0
  9
$PLINEWID
 40
0.0
  9
$SPLFRAME
 70
     0
  9
$SPLINETYPE
 70
     6
  9
$SPLINESEGS
 70
     8
  9
$HANDSEED
  5
BF
  9
$SURFTAB1
 70
     6
  9
$SURFTAB2
 70
     6
  9
$SURFTYPE
 70
     6
  9
$SURFU
 70
     6
  9
$SURFV
 70
     6
  9
$UCSBASE
  2

  9
$UCSNAME
  2

  9
$UCSORG
 10
0.0
 20
0.0
 30
0.0
  9
$UCSXDIR
 10
1.0
 20
0.0
 30
0.0
  9
$UCSYDIR
 10
0.0
 20
1.0
 30
0.0
  9
$UCSORTHOREF
  2

  9
$UCSORTHOVIEW
 70
     0
  9
$UCSORGTOP
 10
0.0
 20
0.0
 30
0.0
  9
$UCSORGBOTTOM
 10
0.0
 20
0.0
 30
0.0
  9
$UCSORGLEFT
 10
0.0
 20
0.0
 30
0.0
  9
$UCSORGRIGHT
 10
0.0
 20
0.0
 30
0.0
  9
$UCSORGFRONT
 10
0.0
 20
0.0
 30
0.0
  9
$UCSORGBACK
 10
0.0
 20
0.0
 30
0.0
  9
$PUCSBASE
  2

  9
$PUCSNAME
  2

  9
$PUCSORG
 10
0.0
 20
0.0
 30
0.0
  9
$PUCSXDIR
 10
1.0
 20
0.0
 30
0.0
  9
$PUCSYDIR
 10
0.0
 20
1.0
 30
0.0
  9
$PUCSORTHOREF
  2

  9
$PUCSORTHOVIEW
 70
     0
  9
$PUCSORGTOP
 10
0.0
 20
0.0
 30
0.0
  9
$PUCSORGBOTTOM
 10
0.0
 20
0.0
 30
0.0
  9
$PUCSORGLEFT
 10
0.0
 20
0.0
 30
0.0
  9
$PUCSORGRIGHT
 10
0.0
 20
0.0
 30
0.0
  9
$PUCSORGFRONT
 10
0.0
 20
0.0
 30
0.0
  9
$PUCSORGBACK
 10
0.0
 20
0.0
 30
0.0
  9
$USERI1
 70
     0
  9
$USERI2
 70
     0
  9
$USERI3
 70
     0
  9
$USERI4
 70
     0
  9
$USERI5
 70
     0
  9
$USERR1
 40
0.0
  9
$USERR2
 40
0.0
  9
$USERR3
 40
0.0
  9
$USERR4
 40
0.0
  9
$USERR5
 40
0.0
  9
$WORLDVIEW
 70
     1
  9
$SHADEDGE
 70
     3
  9
$SHADEDIF
 70
    70
  9
$TILEMODE
 70
     1
  9
$MAXACTVP
 70
    64
  9
$PINSBASE
 10
0.0
 20
0.0
 30
0.0
  9
$PLIMCHECK
 70
     0
  9
$PEXTMIN
 10
1.000000000000000E+20
 20
1.000000000000000E+20
 30
1.000000000000000E+20
  9
$PEXTMAX
 10
-1.000000000000000E+20
 20
-1.000000000000000E+20
 30
-1.000000000000000E+20
  9
$PLIMMIN
 10
0.0
 20
0.0
  9
$PLIMMAX
 10
12.0
 20
9.0
  9
$UNITMODE
 70
     0
  9
$VISRETAIN
 70
     1
  9
$PLINEGEN
 70
     0
  9
$PSLTSCALE
 70
     1
  9
$TREEDEPTH
 70
  3020
  9
$CMLSTYLE
  2
Standard
  9
$CMLJUST
 70
     0
  9
$CMLSCALE
 40
1.0
  9
$PROXYGRAPHICS
 70
     1
  9
$MEASUREMENT
 70
     0
  9
$CELWEIGHT
370
    -1
  9
$ENDCAPS
280
     0
  9
$JOINSTYLE
280
     0
  9
$LWDISPLAY
290
     1
  9
$INSUNITS
 70
     4
  9
$HYPERLINKBASE
  1

  9
$STYLESHEET
  1

  9
$XEDIT
290
     1
  9
$CEPSNTYPE
380
     0
  9
$PSTYLEMODE
290
     1
  9
$FINGERPRINTGUID
  2
{876FB446-8546-2E4C-AC3D-4A4BB7EE6B4C}
  9
$VERSIONGUID
  2
{0E97931B-4D61-7647-88B7-EA09B64D2C8A}
  9
$EXTNAMES
290
     1
  9
$PSVPSCALE
 40
0.0
  9
$OLESTARTUP
290
     0
  9
$SORTENTS
280
   127
  9
$INDEXCTL
280
     0
  9
$HIDETEXT
280
     1
  9
$XCLIPFRAME
280
     2
  9
$HALOGAP
280
     0
  9
$OBSCOLOR
 70
   257
  9
$OBSLTYPE
280
     0
  9
$INTERSECTIONDISPLAY
280
     0
  9
$INTERSECTIONCOLOR
 70
   257
  9
$DIMASSOC
280
     2
  9
$PROJECTNAME
  1

  9
$CAMERADISPLAY
290
     0
  9
$LENSLENGTH
 40
50.0
  9
$CAMERAHEIGHT
 40
0.0
  9
$STEPSPERSEC
 40
2.0
  9
$STEPSIZE
 40
6.0
  9
$3DDWFPREC
 40
2.0
  9
$PSOLWIDTH
 40
0.25
  9
$PSOLHEIGHT
 40
4.0
  9
$LOFTANG1
 40
1.570796326794896
  9
$LOFTANG2
 40
1.570796326794896
  9
$LOFTMAG1
 40
0.0
  9
$LOFTMAG2
 40
0.0
  9
$LOFTPARAM
 70
     7
  9
$LOFTNORMALS
280
     1
  9
$LATITUDE
 40
37.795
  9
$LONGITUDE
 40
-122.394
  9
$NORTHDIRECTION
 40
0.0
  9
$TIMEZONE
 70
 -8000
  9
$LIGHTGLYPHDISPLAY
280
     1
  9
$TILEMODELIGHTSYNCH
280
     1
  9
$CMATERIAL
347
11
  9
$SOLIDHIST
280
     0
  9
$SHOWHIST
280
     1
  9
$DWFFRAME
280
     2
  9
$DGNFRAME
280
     0
  9
$REALWORLDSCALE
290
     1
  9
$INTERFERECOLOR
 62
     1
  9
$INTERFEREOBJVS
345
33
  9
$INTERFEREVPVS
346
30
  9
$CSHADOW
280
     0
  9
$SHADOWPLANELOCATION
 40
0.0
  0
ENDSEC
  0
SECTION
  2
CLASSES
  0
CLASS
  1
ACDBDICTIONARYWDFLT
  2
AcDbDictionaryWithDefault
  3
ObjectDBX Classes
 90
        0
 91
        1
280
     0
281
     0
  0
CLASS
  1
MATERIAL
  2
AcDbMaterial
  3
ObjectDBX Classes
 90
     1153
 91
        3
280
     0
281
     0
  0
CLASS
  1
VISUALSTYLE
  2
AcDbVisualStyle
  3
ObjectDBX Classes
 90
     4095
 91
       24
280
     0
281
     0
  0
CLASS
  1
SCALE
  2
AcDbScale
  3
ObjectDBX Classes
 90
     1153
 91
       17
280
     0
281
     0
  0
CLASS
  1
TABLESTYLE
  2
AcDbTableStyle
  3
ObjectDBX Classes
 90
     4095
 91
        1
280
     0
281
     0
  0
CLASS
  1
MLEADERSTYLE
  2
AcDbMLeaderStyle
  3
ACDB_MLEADERSTYLE_CLASS
 90
     4095
 91
        1
280
     0
281
     0
  0
CLASS
  1
ACDBSECTIONVIEWSTYLE
  2
AcDbSectionViewStyle
  3
ObjectDBX Classes
 90
     1025
 91
        1
280
     0
281
     0
  0
CLASS
  1
ACDBDETAILVIEWSTYLE
  2
AcDbDetailViewStyle
  3
ObjectDBX Classes
 90
     1025
 91
        1
280
     0
281
     0
  0
CLASS
  1
DICTIONARYVAR
  2
AcDbDictionaryVar
  3
ObjectDBX Classes
 90
        0
 91
        5
280
     0
281
     0
  0
CLASS
  1
CELLSTYLEMAP
  2
AcDbCellStyleMap
  3
ObjectDBX Classes
 90
     1152
 91
        1
280
     0
281
     0
  0
ENDSEC
  0
SECTION
  2
TABLES
  0
TABLE
  2
VPORT
  5
8
330
0
100
AcDbSymbolTable
 70
     1
  0
VPORT
  5
57
330
8
100
AcDbSymbolTableRecord
100
AcDbViewportTableRecord
  2
*Active
 70
     0
 10
0.0
 20
0.0
 11
1.0
 21
1.0
 12
0.0
 22
0.0
 13
0.0
 23
0.0
 14
1.0
 24
1.0
 15
0.0
 25
0.0
 16
0.0
 26
0.0
 36
1.0
 17
204.9999999487499
 27
-139.9999999649999
 37
0.0
 40
285.5999999285999
 41
1.464285714285714
 42
50.0
 43
0.0
 44
0.0
 50
0.0
 51
0.0
 71
     0
 72
   100
 73
     1
 74
     1
 75
     0
 76
     0
 77
     0
 78
     0
281
     0
 65
     1
110
0.0
120
0.0
130
0.0
111
1.0
121
0.0
131
0.0
112
0.0
122
1.0
132
0.0
 79
     0
146
0.0
 60
     3
 61
     5
292
     1
282
     1
141
0.0
142
0.0
 63
   250
421
  3355443
  0
ENDTAB
  0
TABLE
  2
LTYPE
  5
5
330
0
100
AcDbSymbolTable
 70
     1
  0
LTYPE
  5
5B
330
5
100
AcDbSymbolTableRecord
100
AcDbLinetypeTableRecord
  2
ByBlock
 70
     0
  3

 72
    65
 73
     0
 40
0.0
  0
LTYPE
  5
5C
330
5
100
AcDbSymbolTableRecord
100
AcDbLinetypeTableRecord
  2
ByLayer
 70
     0
  3

 72
    65
 73
     0
 40
0.0
  0
LTYPE
  5
5D
330
5
100
AcDbSymbolTableRecord
100
AcDbLinetypeTableRecord
  2
Continuous
 70
     0
  3
Solid line
 72
    65
 73
     0
 40
0.0
  0
ENDTAB
  0
TABLE
  2
LAYER
  5
2
330
0
100
AcDbSymbolTable
 70
     2
  0
LAYER
  5
54
330
2
100
AcDbSymbolTableRecord
100
AcDbLayerTableRecord
  2
0
 70
     0
 62
     7
  6
Continuous
370
    -3
390
F
347
21
348
0
  0
LAYER
  5
78
330
2
100
AcDbSymbolTableRecord
100
AcDbLayerTableRecord
  2
Layer 1
 70
     0
 62
     7
  6
Continuous
370
     0
390
F
347
21
348
0
  0
ENDTAB
  0
TABLE
  2
STYLE
  5
3
330
0
100
AcDbSymbolTable
 70
     2
  0
STYLE
  5
55
330
3
100
AcDbSymbolTableRecord
100
AcDbTextStyleTableRecord
  2
Standard
 70
     0
 40
0.0
 41
1.0
 50
0.0
 71
     0
 42
0.2
  3
txt
  4

  0
STYLE
  5
5A
330
3
100
AcDbSymbolTableRecord
100
AcDbTextStyleTableRecord
  2
Annotative
 70
     0
 40
0.0
 41
1.0
 50
0.0
 71
     0
 42
0.2
  3
txt
  4

1001
AcadAnnotative
1000
AnnotativeData
1002
{
1070
     1
1070
     1
1002
}
  0
ENDTAB
  0
TABLE
  2
VIEW
  5
6
330
0
100
AcDbSymbolTable
 70
     0
  0
ENDTAB
  0
TABLE
  2
UCS
  5
7
330
0
100
AcDbSymbolTable
 70
     0
  0
ENDTAB
  0
TABLE
  2
APPID
  5
9
330
0
100
AcDbSymbolTable
 70
     2
  0
APPID
  5
56
330
9
100
AcDbSymbolTableRecord
100
AcDbRegAppTableRecord
  2
ACAD
 70
     0
  0
APPID
  5
5E
330
9
100
AcDbSymbolTableRecord
100
AcDbRegAppTableRecord
  2
AcadAnnotative
 70
     0
  0
ENDTAB
  0
TABLE
  2
DIMSTYLE
  5
A
330
0
100
AcDbSymbolTable
 70
     2
100
AcDbDimStyleTable
 71
     0
  0
DIMSTYLE
105
58
330
A
100
AcDbSymbolTableRecord
100
AcDbDimStyleTableRecord
  2
Standard
 70
     0
340
55
  0
DIMSTYLE
105
59
330
A
100
AcDbSymbolTableRecord
100
AcDbDimStyleTableRecord
  2
Annotative
 70
     0
340
55
1001
AcadAnnotative
1000
AnnotativeData
1002
{
1070
     1
1070
     1
1002
}
  0
ENDTAB
  0
TABLE
  2
BLOCK_RECORD
  5
1
330
0
100
AcDbSymbolTable
 70
     6
  0
BLOCK_RECORD
  5
70
330
1
100
AcDbSymbolTableRecord
100
AcDbBlockTableRecord
  2
*Model_Space
340
73
 70
     0
280
     1
281
     0
  0
BLOCK_RECORD
  5
6C
330
1
100
AcDbSymbolTableRecord
100
AcDbBlockTableRecord
  2
*Paper_Space
340
6F
 70
     0
280
     1
281
     0
  0
BLOCK_RECORD
  5
74
330
1
100
AcDbSymbolTableRecord
100
AcDbBlockTableRecord
  2
*Paper_Space0
340
77
 70
     0
280
     1
281
     0
  0
BLOCK_RECORD
  5
7A
330
1
100
AcDbSymbolTableRecord
100
AcDbBlockTableRecord
  2
Block_0
340
0
102
{BLKREFS
331
7B
102
}
 70
     0
280
     1
281
     0
  0
BLOCK_RECORD
  5
81
330
1
100
AcDbSymbolTableRecord
100
AcDbBlockTableRecord
  2
Block_1
340
0
102
{BLKREFS
331
82
102
}
 70
     0
280
     1
281
     0
  0
BLOCK_RECORD
  5
88
330
1
100
AcDbSymbolTableRecord
100
AcDbBlockTableRecord
  2
Block_2
340
0
102
{BLKREFS
331
89
102
}
 70
     0
280
     1
281
     0
  0
BLOCK_RECORD
  5
95
330
1
100
AcDbSymbolTableRecord
100
AcDbBlockTableRecord
  2
Block_3
340
0
102
{BLKREFS
331
96
102
}
 70
     0
280
     1
281
     0
  0
BLOCK_RECORD
  5
A3
330
1
100
AcDbSymbolTableRecord
100
AcDbBlockTableRecord
  2
Block_4
340
0
102
{BLKREFS
331
A4
102
}
 70
     0
280
     1
281
     0
  0
ENDTAB
  0
ENDSEC
  0
SECTION
  2
BLOCKS
  0
BLOCK
  5
71
330
70
100
AcDbEntity
  8
0
100
AcDbBlockBegin
  2
*Model_Space
 70
     0
 10
0.0
 20
0.0
 30
0.0
  3
*Model_Space
  1

  0
ENDBLK
  5
72
330
70
100
AcDbEntity
  8
0
100
AcDbBlockEnd
  0
BLOCK
  5
6D
330
6C
100
AcDbEntity
 67
     1
  8
0
100
AcDbBlockBegin
  2
*Paper_Space
 70
     0
 10
0.0
 20
0.0
 30
0.0
  3
*Paper_Space
  1

  0
ENDBLK
  5
6E
330
6C
100
AcDbEntity
 67
     1
  8
0
100
AcDbBlockEnd
  0
BLOCK
  5
75
330
74
100
AcDbEntity
 67
     1
  8
0
100
AcDbBlockBegin
  2
*Paper_Space0
 70
     0
 10
0.0
 20
0.0
 30
0.0
  3
*Paper_Space0
  1

  0
ENDBLK
  5
76
330
74
100
AcDbEntity
 67
     1
  8
0
100
AcDbBlockEnd
  0
BLOCK
  5
7C
330
7A
100
AcDbEntity
  8
0
100
AcDbBlockBegin
  2
Block_0
 70
     0
 10
0.0
 20
0.0
 30
0.0
  3
Block_0
  1

  0
LWPOLYLINE
  5
7E
330
7A
100
AcDbEntity
  8
Layer 1
 62
    12
420
 14878227
370
     9
100
AcDbPolyline
 90
        4
 70
     1
 43
0.0
 10
270.1150906157186
 20
-143.729421022982
 10
270.1150906157186
 20
-113.7294210304814
 10
274.115090614719
 20
-113.7294210304814
 10
274.115090614719
 20
-143.729421022982
  0
LWPOLYLINE
  5
7F
330
7A
100
AcDbEntity
  8
Layer 1
 62
    12
420
 14878227
370
     9
100
AcDbPolyline
 90
        4
 70
     1
 43
0.0
 10
270.1150906157186
 20
-73.72945705251743
 10
270.1150906157186
 20
-43.72945706001718
 10
274.115090614719
 20
-43.72945706001718
 10
274.115090614719
 20
-73.72945705251743
  0
LWPOLYLINE
  5
80
330
7A
100
AcDbEntity
  8
Layer 1
 62
    12
420
 14878227
370
     9
100
AcDbPolyline
 90
        4
 70
     1
 43
0.0
 10
270.1150906157186
 20
-214.7564570172603
 10
270.1150906157186
 20
-184.7564570247607
 10
274.115090614719
 20
-184.7564570247607
 10
274.115090614719
 20
-214.7564570172603
  0
INSERT
  5
82
330
7A
100
AcDbEntity
  8
Layer 1
100
AcDbBlockReference
  2
Block_1
 10
0.0
 20
0.0
 30
0.0
  0
ENDBLK
  5
7D
330
7A
100
AcDbEntity
  8
0
100
AcDbBlockEnd
  0
BLOCK
  5
83
330
81
100
AcDbEntity
  8
0
100
AcDbBlockBegin
  2
Block_1
 70
     0
 10
0.0
 20
0.0
 30
0.0
  3
Block_1
  1

  0
LWPOLYLINE
  5
85
330
81
100
AcDbEntity
  8
Layer 1
 62
    12
420
 14878227
370
     9
100
AcDbPolyline
 90
       80
 70
     1
 43
0.0
 10
352.1090900482429
 20
-249.7294225575628
 10
364.1030392572127
 20
-249.7294225575628
 10
364.1030392572127
 20
-227.7296887441608
 10
368.1030319659024
 20
-227.7296887441608
 10
368.1030319659024
 20
-205.7296750167507
 10
364.1030392572127
 20
-205.7296750167507
 10
364.1030392572127
 20
-183.7296828211873
 10
368.1030319659024
 20
-183.7296828211873
 10
368.1030319659024
 20
-161.7296906256239
 10
364.1030392572127
 20
-161.7296906256239
 10
364.1030392572127
 20
-139.7296768982137
 10
368.1030319659024
 20
-139.7296768982137
 10
368.1030319659024
 20
-117.7296847026501
 10
368.1030319659024
 20
-117.7292325338676
 10
364.1030392572127
 20
-117.7292325338676
 10
364.1030392572127
 20
-95.72924033830426
 10
368.1030319659024
 20
-95.72924033830426
 10
368.1030319659024
 20
-73.72922661089411
 10
364.1030392572127
 20
-73.72922661089411
 10
364.1030392572127
 20
-51.72923441533074
 10
368.1030319659024
 20
-51.72923441533074
 10
368.1030319659024
 20
-29.72924221976738
 10
364.1030392572127
 20
-29.72924221976738
 10
364.1030392572127
 20
-7.729400747131482
 10
352.1090900482429
 20
-7.729400747131482
 10
352.1090900482429
 20
-3.72940803844181
 10
352.103039599297
 20
-3.72940803844181
 10
336.1090761497907
 20
-3.72940803844181
 10
336.1090761497907
 20
-7.729400747131482
 10
320.1090407194916
 20
-7.729400747131482
 10
320.1090407194916
 20
-3.72940803844181
 10
304.1090698847329
 20
-3.72940803844181
 10
304.1090698847329
 20
-7.729400747131482
 10
288.1090990499743
 20
-7.729400747131482
 10
288.1090990499743
 20
-3.72940803844181
 10
272.1090420878284
 20
-3.72940803844181
 10
272.1090420878284
 20
-7.729400747131482
 10
256.1090712530697
 20
-7.729400747131482
 10
256.1090712530697
 20
-3.72940803844181
 10
240.109100418311
 20
-3.72940803844181
 10
240.109100418311
 20
-7.729400747131482
 10
224.1090434561652
 20
-7.729400747131482
 10
224.1090434561652
 20
-3.72940803844181
 10
208.1090726214065
 20
-3.72940803844181
 10
208.1090726214065
 20
-7.729400747131482
 10
192.1091017866395
 20
-7.729400747131482
 10
192.1091017866395
 20
-3.72940803844181
 10
192.1030728695403
 20
-3.72940803844181
 10
188.1030586290038
 20
-3.72940803844181
 10
188.1030586290038
 20
-53.72939225852645
 10
192.1030728695403
 20
-53.72939225852645
 10
192.1030728695403
 20
-103.7293980104578
 10
188.1030586290038
 20
-103.7293980104578
 10
188.1030586290038
 20
-153.7294037623896
 10
192.1030728695403
 20
-153.7294037623896
 10
192.1030728695403
 20
-203.729409514321
 10
188.1030586290038
 20
-203.729409514321
 10
188.1030586290038
 20
-253.7294367980992
 10
192.1091017866395
 20
-253.7294367980992
 10
192.1091017866395
 20
-249.7294225575628
 10
208.1090726214065
 20
-249.7294225575628
 10
208.1090726214065
 20
-253.7294367980992
 10
224.1090434561652
 20
-253.7294367980992
 10
224.1090434561652
 20
-249.7294225575628
 10
240.109100418311
 20
-249.7294225575628
 10
240.109100418311
 20
-253.7294367980992
 10
256.1090712530697
 20
-253.7294367980992
 10
256.1090712530697
 20
-249.7294225575628
 10
272.1090420878284
 20
-249.7294225575628
 10
272.1090420878284
 20
-253.7294367980992
 10
288.1090990499743
 20
-253.7294367980992
 10
288.1090990499743
 20
-249.7294225575628
 10
304.1090698847329
 20
-249.7294225575628
 10
304.1090698847329
 20
-253.7294367980992
 10
320.1090407194916
 20
-253.7294367980992
 10
320.1090407194916
 20
-249.7294225575628
 10
336.1090761497907
 20
-249.7294225575628
 10
336.1090761497907
 20
-253.7294367980992
 10
352.103039599297
 20
-253.7294367980992
 10
352.1090900482429
 20
-253.7294367980992
  0
LINE
  5
86
330
81
100
AcDbEntity
  8
Layer 1
 62
    12
420
 14878227
370
     9
100
AcDbLine
 10
364.1030392572127
 20
-7.729228492357219
 30
0.0
 11
364.1030392572127
 21
-7.729400747131482
 31
0.0
  0
LINE
  5
87
330
81
100
AcDbEntity
  8
Layer 1
 62
    12
420
 14878227
370
     9
100
AcDbLine
 10
364.1030392572127
 20
-249.7294225575628
 30
0.0
 11
364.1030392572127
 21
-249.7296809397242
 31
0.0
  0
ENDBLK
  5
84
330
81
100
AcDbEntity
  8
0
100
AcDbBlockEnd
  0
BLOCK
  5
8A
330
88
100
AcDbEntity
  8
0
100
AcDbBlockBegin
  2
Block_2
 70
     0
 10
0.0
 20
0.0
 30
0.0
  3
Block_2
  1

  0
SPLINE
  5
8C
330
88
100
AcDbEntity
  8
Layer 1
 62
   250
420
  1907995
370
    35
100
AcDbSpline
210
0.0
220
0.0
230
1.0
 70
     9
 71
     3
 72
    23
 73
    19
 74
     0
 42
0.0000000001
 43
0.0000000001
 40
0.0
 40
0.0
 40
0.0
 40
0.0
 40
1.0
 40
1.0
 40
1.0
 40
2.0
 40
2.0
 40
2.0
 40
3.0
 40
3.0
 40
3.0
 40
4.0
 40
4.0
 40
4.0
 40
5.0
 40
5.0
 40
5.0
 40
6.0
 40
6.0
 40
6.0
 40
6.0
 10
227.6677944428993
 20
-120.8789546637905
 30
0.0
 10
228.236579707514
 20
-120.9798959615083
 30
0.0
 10
228.4291605451395
 20
-120.7597543600009
 30
0.0
 10
228.4291605451395
 20
-120.2736513870321
 30
0.0
 10
228.4291605451395
 20
-120.2736513870321
 30
0.0
 10
228.4291605451395
 20
-119.5674068125559
 30
0.0
 10
228.4291605451395
 20
-119.5674068125559
 30
0.0
 10
228.4291605451395
 20
-119.5674068125559
 30
0.0
 10
226.099242468465
 20
-119.1636416216846
 30
0.0
 10
226.099242468465
 20
-119.1636416216846
 30
0.0
 10
226.099242468465
 20
-119.1636416216846
 30
0.0
 10
226.099242468465
 20
-119.8698861961608
 30
0.0
 10
226.099242468465
 20
-119.8698861961608
 30
0.0
 10
226.099242468465
 20
-120.3470319208679
 30
0.0
 10
226.2918233060905
 20
-120.6405540562112
 30
0.0
 10
226.851306812895
 20
-120.741495353929
 30
0.0
 10
226.851306812895
 20
-120.741495353929
 30
0.0
 10
227.6677944428993
 20
-120.8789546637905
 30
0.0
 10
227.6677944428993
 20
-120.8789546637905
 30
0.0
  0
SPLINE
  5
8D
330
88
100
AcDbEntity
  8
Layer 1
 62
   250
420
  1907995
370
    35
100
AcDbSpline
210
0.0
220
0.0
230
1.0
 70
     9
 71
     3
 72
    29
 73
    25
 74
     0
 42
0.0000000001
 43
0.0000000001
 40
0.0
 40
0.0
 40
0.0
 40
0.0
 40
1.0
 40
1.0
 40
1.0
 40
2.0
 40
2.0
 40
2.0
 40
3.0
 40
3.0
 40
3.0
 40
4.0
 40
4.0
 40
4.0
 40
5.0
 40
5.0
 40
5.0
 40
6.0
 40
6.0
 40
6.0
 40
7.0
 40
7.0
 40
7.0
 40
8.0
 40
8.0
 40
8.0
 40
8.0
 10
227.8328145166427
 20
-121.7688228276305
 30
0.0
 10
227.8328145166427
 20
-121.7688228276305
 30
0.0
 10
226.6862867391516
 20
-121.5762419900051
 30
0.0
 10
226.6862867391516
 20
-121.5762419900051
 30
0.0
 10
225.7416415570961
 20
-121.4019201584514
 30
0.0
 10
225.3285746084146
 20
-120.8331348938367
 30
0.0
 10
225.3285746084146
 20
-119.7692894079915
 30
0.0
 10
225.3285746084146
 20
-119.7692894079915
 30
0.0
 10
225.3285746084146
 20
-119.0261823118231
 30
0.0
 10
225.3285746084146
 20
-119.0261823118231
 30
0.0
 10
225.3285746084146
 20
-119.0261823118231
 30
0.0
 10
222.769557681971
 20
-118.5765973509981
 30
0.0
 10
222.769557681971
 20
-118.5765973509981
 30
0.0
 10
222.769557681971
 20
-118.5765973509981
 30
0.0
 10
222.769557681971
 20
-117.7146344605885
 30
0.0
 10
222.769557681971
 20
-117.7146344605885
 30
0.0
 10
222.769557681971
 20
-117.7146344605885
 30
0.0
 10
229.1901821378312
 20
-118.8425587224593
 30
0.0
 10
229.1901821378312
 20
-118.8425587224593
 30
0.0
 10
229.1901821378312
 20
-118.8425587224593
 30
0.0
 10
229.1901821378312
 20
-120.4479732185858
 30
0.0
 10
229.1901821378312
 20
-120.4479732185858
 30
0.0
 10
229.1901821378312
 20
-121.3285396246156
 30
0.0
 10
228.7774596986982
 20
-121.9431446591842
 30
0.0
 10
227.8328145166427
 20
-121.7688228276305
 30
0.0
  0
SPLINE
  5
8E
330
88
100
AcDbEntity
  8
Layer 1
 62
   250
420
  1907995
370
    35
100
AcDbSpline
210
0.0
220
0.0
230
1.0
 70
     9
 71
     3
 72
    23
 73
    19
 74
     0
 42
0.0000000001
 43
0.0000000001
 40
0.0
 40
0.0
 40
0.0
 40
0.0
 40
1.0
 40
1.0
 40
1.0
 40
2.0
 40
2.0
 40
2.0
 40
3.0
 40
3.0
 40
3.0
 40
4.0
 40
4.0
 40
4.0
 40
5.0
 40
5.0
 40
5.0
 40
6.0
 40
6.0
 40
6.0
 40
6.0
 10
223.4575432503754
 20
-123.3556338081366
 30
0.0
 10
223.4575432503754
 20
-123.8324350232952
 30
0.0
 10
223.6501240880009
 20
-124.1166554008283
 30
0.0
 10
224.2189093526156
 20
-124.2175966985461
 30
0.0
 10
224.2189093526156
 20
-124.2175966985461
 30
0.0
 10
227.7411749767351
 20
-124.8415034909249
 30
0.0
 10
227.7411749767351
 20
-124.8415034909249
 30
0.0
 10
228.3096157318013
 20
-124.9331430308325
 30
0.0
 10
228.5025410789753
 20
-124.7223031871352
 30
0.0
 10
228.5025410789753
 20
-124.2362002141665
 30
0.0
 10
228.5025410789753
 20
-123.7590544894594
 30
0.0
 10
228.3096157318013
 20
-123.4655323541161
 30
0.0
 10
227.7411749767351
 20
-123.3738928142084
 30
0.0
 10
227.7411749767351
 20
-123.3738928142084
 30
0.0
 10
224.2189093526156
 20
-122.7499860218297
 30
0.0
 10
224.2189093526156
 20
-122.7499860218297
 30
0.0
 10
223.6501240880009
 20
-122.6490447241119
 30
0.0
 10
223.4575432503754
 20
-122.8691863256193
 30
0.0
 10
223.4575432503754
 20
-123.3556338081366
 30
0.0
  0
SPLINE
  5
8F
330
88
100
AcDbEntity
  8
Layer 1
 62
   250
420
  1907995
370
    35
100
AcDbSpline
210
0.0
220
0.0
230
1.0
 70
     9
 71
     3
 72
    29
 73
    25
 74
     0
 42
0.0000000001
 43
0.0000000001
 40
0.0
 40
0.0
 40
0.0
 40
0.0
 40
1.0
 40
1.0
 40
1.0
 40
2.0
 40
2.0
 40
2.0
 40
3.0
 40
3.0
 40
3.0
 40
4.0
 40
4.0
 40
4.0
 40
5.0
 40
5.0
 40
5.0
 40
6.0
 40
6.0
 40
6.0
 40
7.0
 40
7.0
 40
7.0
 40
8.0
 40
8.0
 40
8.0
 40
8.0
 10
229.2639071812155
 20
-124.3367970023358
 30
0.0
 10
229.2639071812155
 20
-124.3367970023358
 30
0.0
 10
229.2639071812155
 20
-124.4101775361716
 30
0.0
 10
229.2639071812155
 20
-124.4101775361716
 30
0.0
 10
229.2639071812155
 20
-125.2907439422014
 30
0.0
 10
228.850840232534
 20
-125.8963917285084
 30
0.0
 10
227.9061950504785
 20
-125.7310271452164
 30
0.0
 10
227.9061950504785
 20
-125.7310271452164
 30
0.0
 10
224.0535447693237
 20
-125.0523433346222
 30
0.0
 10
224.0535447693237
 20
-125.0523433346222
 30
0.0
 10
223.1088995872681
 20
-124.8873232608787
 30
0.0
 10
222.6961771481352
 20
-124.318537996264
 30
0.0
 10
222.6961771481352
 20
-123.2546925104188
 30
0.0
 10
222.6961771481352
 20
-123.2546925104188
 30
0.0
 10
222.6961771481352
 20
-123.181311976583
 30
0.0
 10
222.6961771481352
 20
-123.181311976583
 30
0.0
 10
222.6961771481352
 20
-122.3007455705531
 30
0.0
 10
223.1088995872681
 20
-121.6861405359845
 30
0.0
 10
224.0535447693237
 20
-121.8604623675382
 30
0.0
 10
224.0535447693237
 20
-121.8604623675382
 30
0.0
 10
227.9061950504785
 20
-122.5391461781324
 30
0.0
 10
227.9061950504785
 20
-122.5391461781324
 30
0.0
 10
228.8601419903442
 20
-122.7041662518759
 30
0.0
 10
229.2639071812155
 20
-123.2729515164906
 30
0.0
 10
229.2639071812155
 20
-124.3367970023358
 30
0.0
  0
SPLINE
  5
90
330
88
100
AcDbEntity
  8
Layer 1
 62
   250
420
  1907995
370
    35
100
AcDbSpline
210
0.0
220
0.0
230
1.0
 70
    11
 71
     3
 72
    44
 73
    40
 74
     0
 42
0.0000000001
 43
0.0000000001
 40
0.0
 40
0.0
 40
0.0
 40
0.0
 40
1.0
 40
1.0
 40
1.0
 40
2.0
 40
2.0
 40
2.0
 40
3.0
 40
3.0
 40
3.0
 40
4.0
 40
4.0
 40
4.0
 40
5.0
 40
5.0
 40
5.0
 40
6.0
 40
6.0
 40
6.0
 40
7.0
 40
7.0
 40
7.0
 40
8.0
 40
8.0
 40
8.0
 40
9.0
 40
9.0
 40
9.0
 40
10.0
 40
10.0
 40
10.0
 40
11.0
 40
11.0
 40
11.0
 40
12.0
 40
12.0
 40
12.0
 40
13.0
 40
13.0
 40
13.0
 40
13.0
 10
222.769557681971
 20
-129.9502355860018
 30
0.0
 10
222.769557681971
 20
-129.9502355860018
 30
0.0
 10
222.769557681971
 20
-129.1337479559977
 30
0.0
 10
222.769557681971
 20
-129.1337479559977
 30
0.0
 10
222.769557681971
 20
-129.1337479559977
 30
0.0
 10
227.5485941391096
 20
-129.0514101739002
 30
0.0
 10
227.5485941391096
 20
-129.0514101739002
 30
0.0
 10
227.5485941391096
 20
-129.0514101739002
 30
0.0
 10
222.769557681971
 20
-127.2720183557686
 30
0.0
 10
222.769557681971
 20
-127.2720183557686
 30
0.0
 10
222.769557681971
 20
-127.2720183557686
 30
0.0
 10
222.769557681971
 20
-126.4279699618824
 30
0.0
 10
222.769557681971
 20
-126.4279699618824
 30
0.0
 10
222.769557681971
 20
-126.4279699618824
 30
0.0
 10
229.1901821378312
 20
-126.5196095017901
 30
0.0
 10
229.1901821378312
 20
-126.5196095017901
 30
0.0
 10
229.1901821378312
 20
-126.5196095017901
 30
0.0
 10
229.1901821378312
 20
-127.3543561378661
 30
0.0
 10
229.1901821378312
 20
-127.3543561378661
 30
0.0
 10
229.1901821378312
 20
-127.3543561378661
 30
0.0
 10
224.3105488925233
 20
-127.1435162941688
 30
0.0
 10
224.3105488925233
 20
-127.1435162941688
 30
0.0
 10
224.3105488925233
 20
-127.1435162941688
 30
0.0
 10
229.1901821378312
 20
-128.9229081123004
 30
0.0
 10
229.1901821378312
 20
-128.9229081123004
 30
0.0
 10
229.1901821378312
 20
-128.9229081123004
 30
0.0
 10
229.1901821378312
 20
-129.7118349784226
 30
0.0
 10
229.1901821378312
 20
-129.7118349784226
 30
0.0
 10
229.1901821378312
 20
-129.7118349784226
 30
0.0
 10
224.3105488925233
 20
-129.7759137544482
 30
0.0
 10
224.3105488925233
 20
-129.7759137544482
 30
0.0
 10
224.3105488925233
 20
-129.7759137544482
 30
0.0
 10
229.1901821378312
 20
-131.2803869528568
 30
0.0
 10
229.1901821378312
 20
-131.2803869528568
 30
0.0
 10
229.1901821378312
 20
-131.2803869528568
 30
0.0
 10
229.1901821378312
 20
-132.1151335889328
 30
0.0
 10
229.1901821378312
 20
-132.1151335889328
 30
0.0
 10
229.1901821378312
 20
-132.1151335889328
 30
0.0
 10
222.769557681971
 20
-129.9502355860018
 30
0.0
 10
222.769557681971
 20
-129.9502355860018
 30
0.0
  0
SPLINE
  5
91
330
88
100
AcDbEntity
  8
Layer 1
 62
   250
420
  1907995
370
    35
100
AcDbSpline
210
0.0
220
0.0
230
1.0
 70
    11
 71
     3
 72
    41
 73
    37
 74
     0
 42
0.0000000001
 43
0.0000000001
 40
0.0
 40
0.0
 40
0.0
 40
0.0
 40
1.0
 40
1.0
 40
1.0
 40
2.0
 40
2.0
 40
2.0
 40
3.0
 40
3.0
 40
3.0
 40
4.0
 40
4.0
 40
4.0
 40
5.0
 40
5.0
 40
5.0
 40
6.0
 40
6.0
 40
6.0
 40
7.0
 40
7.0
 40
7.0
 40
8.0
 40
8.0
 40
8.0
 40
9.0
 40
9.0
 40
9.0
 40
10.0
 40
10.0
 40
10.0
 40
11.0
 40
11.0
 40
11.0
 40
12.0
 40
12.0
 40
12.0
 40
12.0
 10
222.769557681971
 20
-131.6472896220359
 30
0.0
 10
222.769557681971
 20
-131.6472896220359
 30
0.0
 10
229.1901821378312
 20
-132.7752138839067
 30
0.0
 10
229.1901821378312
 20
-132.7752138839067
 30
0.0
 10
229.1901821378312
 20
-132.7752138839067
 30
0.0
 10
229.1901821378312
 20
-135.4813363875704
 30
0.0
 10
229.1901821378312
 20
-135.4813363875704
 30
0.0
 10
229.1901821378312
 20
-135.4813363875704
 30
0.0
 10
228.4291605451395
 20
-135.3528343259706
 30
0.0
 10
228.4291605451395
 20
-135.3528343259706
 30
0.0
 10
228.4291605451395
 20
-135.3528343259706
 30
0.0
 10
228.4291605451395
 20
-133.5000619740033
 30
0.0
 10
228.4291605451395
 20
-133.5000619740033
 30
0.0
 10
228.4291605451395
 20
-133.5000619740033
 30
0.0
 10
226.4110236098801
 20
-133.151418310896
 30
0.0
 10
226.4110236098801
 20
-133.151418310896
 30
0.0
 10
226.4110236098801
 20
-133.151418310896
 30
0.0
 10
226.4110236098801
 20
-134.7106685275201
 30
0.0
 10
226.4110236098801
 20
-134.7106685275201
 30
0.0
 10
226.4110236098801
 20
-134.7106685275201
 30
0.0
 10
225.6407002593782
 20
-134.5825109754688
 30
0.0
 10
225.6407002593782
 20
-134.5825109754688
 30
0.0
 10
225.6407002593782
 20
-134.5825109754688
 30
0.0
 10
225.6407002593782
 20
-133.0139590010345
 30
0.0
 10
225.6407002593782
 20
-133.0139590010345
 30
0.0
 10
225.6407002593782
 20
-133.0139590010345
 30
0.0
 10
223.5309237842113
 20
-132.6470563318554
 30
0.0
 10
223.5309237842113
 20
-132.6470563318554
 30
0.0
 10
223.5309237842113
 20
-132.6470563318554
 30
0.0
 10
223.5309237842113
 20
-134.5180876898946
 30
0.0
 10
223.5309237842113
 20
-134.5180876898946
 30
0.0
 10
223.5309237842113
 20
-134.5180876898946
 30
0.0
 10
222.769557681971
 20
-134.3806283800331
 30
0.0
 10
222.769557681971
 20
-134.3806283800331
 30
0.0
 10
222.769557681971
 20
-134.3806283800331
 30
0.0
 10
222.769557681971
 20
-131.6472896220359
 30
0.0
 10
222.769557681971
 20
-131.6472896220359
 30
0.0
  0
SPLINE
  5
92
330
88
100
AcDbEntity
  8
Layer 1
 62
   250
420
  1907995
370
    35
100
AcDbSpline
210
0.0
220
0.0
230
1.0
 70
     9
 71
     3
 72
    23
 73
    19
 74
     0
 42
0.0000000001
 43
0.0000000001
 40
0.0
 40
0.0
 40
0.0
 40
0.0
 40
1.0
 40
1.0
 40
1.0
 40
2.0
 40
2.0
 40
2.0
 40
3.0
 40
3.0
 40
3.0
 40
4.0
 40
4.0
 40
4.0
 40
5.0
 40
5.0
 40
5.0
 40
6.0
 40
6.0
 40
6.0
 40
6.0
 10
228.4291605451395
 20
-137.7743919425528
 30
0.0
 10
228.4291605451395
 20
-137.7743919425528
 30
0.0
 10
228.4291605451395
 20
-137.0681473680765
 30
0.0
 10
228.4291605451395
 20
-137.0681473680765
 30
0.0
 10
228.4291605451395
 20
-137.0681473680765
 30
0.0
 10
226.154363996229
 20
-136.6736839350155
 30
0.0
 10
226.154363996229
 20
-136.6736839350155
 30
0.0
 10
226.154363996229
 20
-136.6736839350155
 30
0.0
 10
226.154363996229
 20
-137.3799285094917
 30
0.0
 10
226.154363996229
 20
-137.3799285094917
 30
0.0
 10
226.154363996229
 20
-137.8660314824604
 30
0.0
 10
226.3469448338545
 20
-138.1502518599935
 30
0.0
 10
226.9157300984692
 20
-138.2511931577113
 30
0.0
 10
226.9157300984692
 20
-138.2511931577113
 30
0.0
 10
227.6677944428993
 20
-138.3796952193111
 30
0.0
 10
227.6677944428993
 20
-138.3796952193111
 30
0.0
 10
228.236579707514
 20
-138.480636517029
 30
0.0
 10
228.4291605451395
 20
-138.2604949155215
 30
0.0
 10
228.4291605451395
 20
-137.7743919425528
 30
0.0
  0
SPLINE
  5
93
330
88
100
AcDbEntity
  8
Layer 1
 62
   250
420
  1907995
370
    35
100
AcDbSpline
210
0.0
220
0.0
230
1.0
 70
     9
 71
     3
 72
    41
 73
    37
 74
     0
 42
0.0000000001
 43
0.0000000001
 40
0.0
 40
0.0
 40
0.0
 40
0.0
 40
1.0
 40
1.0
 40
1.0
 40
2.0
 40
2.0
 40
2.0
 40
3.0
 40
3.0
 40
3.0
 40
4.0
 40
4.0
 40
4.0
 40
5.0
 40
5.0
 40
5.0
 40
6.0
 40
6.0
 40
6.0
 40
7.0
 40
7.0
 40
7.0
 40
8.0
 40
8.0
 40
8.0
 40
9.0
 40
9.0
 40
9.0
 40
10.0
 40
10.0
 40
10.0
 40
11.0
 40
11.0
 40
11.0
 40
12.0
 40
12.0
 40
12.0
 40
12.0
 10
227.8328145166427
 20
-139.2695633831512
 30
0.0
 10
227.8328145166427
 20
-139.2695633831512
 30
0.0
 10
226.7596672729874
 20
-139.0859397937874
 30
0.0
 10
226.7596672729874
 20
-139.0859397937874
 30
0.0
 10
226.099242468465
 20
-138.9667394899977
 30
0.0
 10
225.7047790354039
 20
-138.6549583485826
 30
0.0
 10
225.5211554460401
 20
-138.1137338478499
 30
0.0
 10
225.5211554460401
 20
-138.1137338478499
 30
0.0
 10
222.769557681971
 20
-138.5998368208186
 30
0.0
 10
222.769557681971
 20
-138.5998368208186
 30
0.0
 10
222.769557681971
 20
-138.5998368208186
 30
0.0
 10
222.769557681971
 20
-137.7375294208606
 30
0.0
 10
222.769557681971
 20
-137.7375294208606
 30
0.0
 10
222.769557681971
 20
-137.7375294208606
 30
0.0
 10
225.4019551422504
 20
-137.3065479756558
 30
0.0
 10
225.4019551422504
 20
-137.3065479756558
 30
0.0
 10
225.4019551422504
 20
-137.3065479756558
 30
0.0
 10
225.4019551422504
 20
-137.2789872117738
 30
0.0
 10
225.4019551422504
 20
-137.2789872117738
 30
0.0
 10
225.4019551422504
 20
-137.2789872117738
 30
0.0
 10
225.4019551422504
 20
-136.5358801156054
 30
0.0
 10
225.4019551422504
 20
-136.5358801156054
 30
0.0
 10
225.4019551422504
 20
-136.5358801156054
 30
0.0
 10
222.769557681971
 20
-136.0773379065187
 30
0.0
 10
222.769557681971
 20
-136.0773379065187
 30
0.0
 10
222.769557681971
 20
-136.0773379065187
 30
0.0
 10
222.769557681971
 20
-135.2150305065606
 30
0.0
 10
222.769557681971
 20
-135.2150305065606
 30
0.0
 10
222.769557681971
 20
-135.2150305065606
 30
0.0
 10
229.1901821378312
 20
-136.34329927798
 30
0.0
 10
229.1901821378312
 20
-136.34329927798
 30
0.0
 10
229.1901821378312
 20
-136.34329927798
 30
0.0
 10
229.1901821378312
 20
-137.9487137741064
 30
0.0
 10
229.1901821378312
 20
-137.9487137741064
 30
0.0
 10
229.1901821378312
 20
-138.8292801801363
 30
0.0
 10
228.7774596986982
 20
-139.4438852147048
 30
0.0
 10
227.8328145166427
 20
-139.2695633831512
 30
0.0
  0
ENDBLK
  5
8B
330
88
100
AcDbEntity
  8
0
100
AcDbBlockEnd
  0
BLOCK
  5
97
330
95
100
AcDbEntity
  8
0
100
AcDbBlockBegin
  2
Block_3
 70
     0
 10
0.0
 20
0.0
 30
0.0
  3
Block_3
  1

  0
SPLINE
  5
99
330
95
100
AcDbEntity
  8
Layer 1
 62
   250
420
  1907995
370
    35
100
AcDbSpline
210
0.0
220
0.0
230
1.0
 70
    11
 71
     3
 72
    14
 73
    10
 74
     0
 42
0.0000000001
 43
0.0000000001
 40
0.0
 40
0.0
 40
0.0
 40
0.0
 40
1.0
 40
1.0
 40
1.0
 40
2.0
 40
2.0
 40
2.0
 40
3.0
 40
3.0
 40
3.0
 40
3.0
 10
225.0078362187378
 20
-63.62146769893823
 30
0.0
 10
225.0078362187378
 20
-63.62146769893823
 30
0.0
 10
228.1080776459142
 20
-63.60320869286641
 30
0.0
 10
228.1080776459142
 20
-63.60320869286641
 30
0.0
 10
228.1080776459142
 20
-63.60320869286641
 30
0.0
 10
225.0078362187378
 20
-62.50250068532909
 30
0.0
 10
225.0078362187378
 20
-62.50250068532909
 30
0.0
 10
225.0078362187378
 20
-62.50250068532909
 30
0.0
 10
225.0078362187378
 20
-63.62146769893823
 30
0.0
 10
225.0078362187378
 20
-63.62146769893823
 30
0.0
  0
SPLINE
  5
9A
330
95
100
AcDbEntity
  8
Layer 1
 62
   250
420
  1907995
370
    35
100
AcDbSpline
210
0.0
220
0.0
230
1.0
 70
    11
 71
     3
 72
    29
 73
    25
 74
     0
 42
0.0000000001
 43
0.0000000001
 40
0.0
 40
0.0
 40
0.0
 40
0.0
 40
1.0
 40
1.0
 40
1.0
 40
2.0
 40
2.0
 40
2.0
 40
3.0
 40
3.0
 40
3.0
 40
4.0
 40
4.0
 40
4.0
 40
5.0
 40
5.0
 40
5.0
 40
6.0
 40
6.0
 40
6.0
 40
7.0
 40
7.0
 40
7.0
 40
8.0
 40
8.0
 40
8.0
 40
8.0
 10
224.2829881286413
 20
-63.62146769893823
 30
0.0
 10
224.2829881286413
 20
-63.62146769893823
 30
0.0
 10
224.2829881286413
 20
-62.24549656212945
 30
0.0
 10
224.2829881286413
 20
-62.24549656212945
 30
0.0
 10
224.2829881286413
 20
-62.24549656212945
 30
0.0
 10
222.769557681971
 20
-61.7042720613967
 30
0.0
 10
222.769557681971
 20
-61.7042720613967
 30
0.0
 10
222.769557681971
 20
-61.7042720613967
 30
0.0
 10
222.769557681971
 20
-60.85126641924884
 30
0.0
 10
222.769557681971
 20
-60.85126641924884
 30
0.0
 10
222.769557681971
 20
-60.85126641924884
 30
0.0
 10
229.1901821378312
 20
-63.25456502975913
 30
0.0
 10
229.1901821378312
 20
-63.25456502975913
 30
0.0
 10
229.1901821378312
 20
-63.25456502975913
 30
0.0
 10
229.1901821378312
 20
-64.31875502515279
 30
0.0
 10
229.1901821378312
 20
-64.31875502515279
 30
0.0
 10
229.1901821378312
 20
-64.31875502515279
 30
0.0
 10
222.769557681971
 20
-64.48377509889628
 30
0.0
 10
222.769557681971
 20
-64.48377509889628
 30
0.0
 10
222.769557681971
 20
-64.48377509889628
 30
0.0
 10
222.769557681971
 20
-63.63076945674841
 30
0.0
 10
222.769557681971
 20
-63.63076945674841
 30
0.0
 10
222.769557681971
 20
-63.63076945674841
 30
0.0
 10
224.2829881286413
 20
-63.62146769893823
 30
0.0
 10
224.2829881286413
 20
-63.62146769893823
 30
0.0
  0
SPLINE
  5
9B
330
95
100
AcDbEntity
  8
Layer 1
 62
   250
420
  1907995
370
    35
100
AcDbSpline
210
0.0
220
0.0
230
1.0
 70
     9
 71
     3
 72
    38
 73
    34
 74
     0
 42
0.0000000001
 43
0.0000000001
 40
0.0
 40
0.0
 40
0.0
 40
0.0
 40
1.0
 40
1.0
 40
1.0
 40
2.0
 40
2.0
 40
2.0
 40
3.0
 40
3.0
 40
3.0
 40
4.0
 40
4.0
 40
4.0
 40
5.0
 40
5.0
 40
5.0
 40
6.0
 40
6.0
 40
6.0
 40
7.0
 40
7.0
 40
7.0
 40
8.0
 40
8.0
 40
8.0
 40
9.0
 40
9.0
 40
9.0
 40
10.0
 40
10.0
 40
10.0
 40
11.0
 40
11.0
 40
11.0
 40
11.0
 10
224.0535447693237
 20
-68.39981513697975
 30
0.0
 10
223.0906405811963
 20
-68.23479506323629
 30
0.0
 10
222.6961771481352
 20
-67.68461331424188
 30
0.0
 10
222.6961771481352
 20
-66.62042331884823
 30
0.0
 10
222.6961771481352
 20
-66.62042331884823
 30
0.0
 10
222.6961771481352
 20
-66.58390530670456
 30
0.0
 10
222.6961771481352
 20
-66.58390530670456
 30
0.0
 10
222.6961771481352
 20
-65.70333890067471
 30
0.0
 10
223.0813388233861
 20
-65.09769111436779
 30
0.0
 10
224.0535447693237
 20
-65.2813147037316
 30
0.0
 10
224.0535447693237
 20
-65.2813147037316
 30
0.0
 10
229.1901821378312
 20
-66.18014011583328
 30
0.0
 10
229.1901821378312
 20
-66.18014011583328
 30
0.0
 10
229.1901821378312
 20
-66.18014011583328
 30
0.0
 10
229.1901821378312
 20
-67.04244751579132
 30
0.0
 10
229.1901821378312
 20
-67.04244751579132
 30
0.0
 10
229.1901821378312
 20
-67.04244751579132
 30
0.0
 10
224.2189093526156
 20
-66.17083835802311
 30
0.0
 10
224.2189093526156
 20
-66.17083835802311
 30
0.0
 10
223.6501240880009
 20
-66.07024156985382
 30
0.0
 10
223.4575432503754
 20
-66.25352064966911
 30
0.0
 10
223.4575432503754
 20
-66.73962362263786
 30
0.0
 10
223.4575432503754
 20
-67.21676934734496
 30
0.0
 10
223.6501240880009
 20
-67.46447171273442
 30
0.0
 10
224.2189093526156
 20
-67.56541301045224
 30
0.0
 10
224.2189093526156
 20
-67.56541301045224
 30
0.0
 10
229.1901821378312
 20
-68.43667765867194
 30
0.0
 10
229.1901821378312
 20
-68.43667765867194
 30
0.0
 10
229.1901821378312
 20
-68.43667765867194
 30
0.0
 10
229.1901821378312
 20
-69.29898505862997
 30
0.0
 10
229.1901821378312
 20
-69.29898505862997
 30
0.0
 10
229.1901821378312
 20
-69.29898505862997
 30
0.0
 10
224.0535447693237
 20
-68.39981513697975
 30
0.0
 10
224.0535447693237
 20
-68.39981513697975
 30
0.0
  0
SPLINE
  5
9C
330
95
100
AcDbEntity
  8
Layer 1
 62
   250
420
  1907995
370
    35
100
AcDbSpline
210
0.0
220
0.0
230
1.0
 70
     9
 71
     3
 72
    23
 73
    19
 74
     0
 42
0.0000000001
 43
0.0000000001
 40
0.0
 40
0.0
 40
0.0
 40
0.0
 40
1.0
 40
1.0
 40
1.0
 40
2.0
 40
2.0
 40
2.0
 40
3.0
 40
3.0
 40
3.0
 40
4.0
 40
4.0
 40
4.0
 40
5.0
 40
5.0
 40
5.0
 40
6.0
 40
6.0
 40
6.0
 40
6.0
 10
228.4291605451395
 20
-71.72054267521208
 30
0.0
 10
228.4291605451395
 20
-71.72054267521208
 30
0.0
 10
228.4291605451395
 20
-71.03255710680769
 30
0.0
 10
228.4291605451395
 20
-71.03255710680769
 30
0.0
 10
228.4291605451395
 20
-71.03255710680769
 30
0.0
 10
223.5309237842113
 20
-70.17955146465983
 30
0.0
 10
223.5309237842113
 20
-70.17955146465983
 30
0.0
 10
223.5309237842113
 20
-70.17955146465983
 30
0.0
 10
223.5309237842113
 20
-70.8671925235157
 30
0.0
 10
223.5309237842113
 20
-70.8671925235157
 30
0.0
 10
223.5309237842113
 20
-71.3443382482228
 30
0.0
 10
223.7235046218367
 20
-71.6285586257559
 30
0.0
 10
224.2922898864514
 20
-71.72949992347373
 30
0.0
 10
224.2922898864514
 20
-71.72949992347373
 30
0.0
 10
227.6677944428993
 20
-72.32584595197048
 30
0.0
 10
227.6677944428993
 20
-72.32584595197048
 30
0.0
 10
228.236579707514
 20
-72.42678724968829
 30
0.0
 10
228.4291605451395
 20
-72.20664564818083
 30
0.0
 10
228.4291605451395
 20
-71.72054267521208
 30
0.0
  0
SPLINE
  5
9D
330
95
100
AcDbEntity
  8
Layer 1
 62
   250
420
  1907995
370
    35
100
AcDbSpline
210
0.0
220
0.0
230
1.0
 70
     9
 71
     3
 72
    23
 73
    19
 74
     0
 42
0.0000000001
 43
0.0000000001
 40
0.0
 40
0.0
 40
0.0
 40
0.0
 40
1.0
 40
1.0
 40
1.0
 40
2.0
 40
2.0
 40
2.0
 40
3.0
 40
3.0
 40
3.0
 40
4.0
 40
4.0
 40
4.0
 40
5.0
 40
5.0
 40
5.0
 40
6.0
 40
6.0
 40
6.0
 40
6.0
 10
227.8328145166427
 20
-73.21536960626199
 30
0.0
 10
227.8328145166427
 20
-73.21536960626199
 30
0.0
 10
224.127269812708
 20
-72.56424655954976
 30
0.0
 10
224.127269812708
 20
-72.56424655954976
 30
0.0
 10
223.1822801211039
 20
-72.3992264858063
 30
0.0
 10
222.769557681971
 20
-71.83044122119155
 30
0.0
 10
222.769557681971
 20
-70.7665957353464
 30
0.0
 10
222.769557681971
 20
-70.7665957353464
 30
0.0
 10
222.769557681971
 20
-69.17978475484033
 30
0.0
 10
222.769557681971
 20
-69.17978475484033
 30
0.0
 10
222.769557681971
 20
-69.17978475484033
 30
0.0
 10
229.1901821378312
 20
-70.30770901671111
 30
0.0
 10
229.1901821378312
 20
-70.30770901671111
 30
0.0
 10
229.1901821378312
 20
-70.30770901671111
 30
0.0
 10
229.1901821378312
 20
-71.89451999721718
 30
0.0
 10
229.1901821378312
 20
-71.89451999721718
 30
0.0
 10
229.1901821378312
 20
-72.77508640324706
 30
0.0
 10
228.7774596986982
 20
-73.38969143781563
 30
0.0
 10
227.8328145166427
 20
-73.21536960626199
 30
0.0
  0
SPLINE
  5
9E
330
95
100
AcDbEntity
  8
Layer 1
 62
   250
420
  1907995
370
    35
100
AcDbSpline
210
0.0
220
0.0
230
1.0
 70
    11
 71
     3
 72
    17
 73
    13
 74
     0
 42
0.0000000001
 43
0.0000000001
 40
0.0
 40
0.0
 40
0.0
 40
0.0
 40
1.0
 40
1.0
 40
1.0
 40
2.0
 40
2.0
 40
2.0
 40
3.0
 40
3.0
 40
3.0
 40
4.0
 40
4.0
 40
4.0
 40
4.0
 10
222.769557681971
 20
-73.35282891612346
 30
0.0
 10
222.769557681971
 20
-73.35282891612346
 30
0.0
 10
229.1901821378312
 20
-74.48109768754277
 30
0.0
 10
229.1901821378312
 20
-74.48109768754277
 30
0.0
 10
229.1901821378312
 20
-74.48109768754277
 30
0.0
 10
229.1901821378312
 20
-75.34340508750081
 30
0.0
 10
229.1901821378312
 20
-75.34340508750081
 30
0.0
 10
229.1901821378312
 20
-75.34340508750081
 30
0.0
 10
222.769557681971
 20
-74.21513631608148
 30
0.0
 10
222.769557681971
 20
-74.21513631608148
 30
0.0
 10
222.769557681971
 20
-74.21513631608148
 30
0.0
 10
222.769557681971
 20
-73.35282891612346
 30
0.0
 10
222.769557681971
 20
-73.35282891612346
 30
0.0
  0
SPLINE
  5
9F
330
95
100
AcDbEntity
  8
Layer 1
 62
   250
420
  1907995
370
    35
100
AcDbSpline
210
0.0
220
0.0
230
1.0
 70
     9
 71
     3
 72
    23
 73
    19
 74
     0
 42
0.0000000001
 43
0.0000000001
 40
0.0
 40
0.0
 40
0.0
 40
0.0
 40
1.0
 40
1.0
 40
1.0
 40
2.0
 40
2.0
 40
2.0
 40
3.0
 40
3.0
 40
3.0
 40
4.0
 40
4.0
 40
4.0
 40
5.0
 40
5.0
 40
5.0
 40
6.0
 40
6.0
 40
6.0
 40
6.0
 10
223.4575432503754
 20
-76.966389570602
 30
0.0
 10
223.4575432503754
 20
-77.4435352953091
 30
0.0
 10
223.6501240880009
 20
-77.72775567284222
 30
0.0
 10
224.2189093526156
 20
-77.82869697056004
 30
0.0
 10
224.2189093526156
 20
-77.82869697056004
 30
0.0
 10
227.7411749767351
 20
-78.45260376293878
 30
0.0
 10
227.7411749767351
 20
-78.45260376293878
 30
0.0
 10
228.3096157318013
 20
-78.54424330284643
 30
0.0
 10
228.5025410789753
 20
-78.33340345914914
 30
0.0
 10
228.5025410789753
 20
-77.84695597663186
 30
0.0
 10
228.5025410789753
 20
-77.37015476147329
 30
0.0
 10
228.3096157318013
 20
-77.07663262613
 30
0.0
 10
227.7411749767351
 20
-76.98499308622236
 30
0.0
 10
227.7411749767351
 20
-76.98499308622236
 30
0.0
 10
224.2189093526156
 20
-76.36108629384361
 30
0.0
 10
224.2189093526156
 20
-76.36108629384361
 30
0.0
 10
223.6501240880009
 20
-76.26014499612579
 30
0.0
 10
223.4575432503754
 20
-76.48028659763325
 30
0.0
 10
223.4575432503754
 20
-76.966389570602
 30
0.0
  0
SPLINE
  5
A0
330
95
100
AcDbEntity
  8
Layer 1
 62
   250
420
  1907995
370
    35
100
AcDbSpline
210
0.0
220
0.0
230
1.0
 70
     9
 71
     3
 72
    29
 73
    25
 74
     0
 42
0.0000000001
 43
0.0000000001
 40
0.0
 40
0.0
 40
0.0
 40
0.0
 40
1.0
 40
1.0
 40
1.0
 40
2.0
 40
2.0
 40
2.0
 40
3.0
 40
3.0
 40
3.0
 40
4.0
 40
4.0
 40
4.0
 40
5.0
 40
5.0
 40
5.0
 40
6.0
 40
6.0
 40
6.0
 40
7.0
 40
7.0
 40
7.0
 40
8.0
 40
8.0
 40
8.0
 40
8.0
 10
229.2639071812155
 20
-77.94789727434968
 30
0.0
 10
229.2639071812155
 20
-77.94789727434968
 30
0.0
 10
229.2639071812155
 20
-78.0212778081855
 30
0.0
 10
229.2639071812155
 20
-78.0212778081855
 30
0.0
 10
229.2639071812155
 20
-78.90184421421536
 30
0.0
 10
228.850840232534
 20
-79.50749200052229
 30
0.0
 10
227.9061950504785
 20
-79.34212741723029
 30
0.0
 10
227.9061950504785
 20
-79.34212741723029
 30
0.0
 10
224.0535447693237
 20
-78.66344360663608
 30
0.0
 10
224.0535447693237
 20
-78.66344360663608
 30
0.0
 10
223.1088995872681
 20
-78.4984235328926
 30
0.0
 10
222.6961771481352
 20
-77.92963826827786
 30
0.0
 10
222.6961771481352
 20
-76.86579278243271
 30
0.0
 10
222.6961771481352
 20
-76.86579278243271
 30
0.0
 10
222.6961771481352
 20
-76.79241224859689
 30
0.0
 10
222.6961771481352
 20
-76.79241224859689
 30
0.0
 10
222.6961771481352
 20
-75.91184584256703
 30
0.0
 10
223.1088995872681
 20
-75.29724080799846
 30
0.0
 10
224.0535447693237
 20
-75.4715626395521
 30
0.0
 10
224.0535447693237
 20
-75.4715626395521
 30
0.0
 10
227.9061950504785
 20
-76.15024645014631
 30
0.0
 10
227.9061950504785
 20
-76.15024645014631
 30
0.0
 10
228.8601419903442
 20
-76.31526652388979
 30
0.0
 10
229.2639071812155
 20
-76.88405178850453
 30
0.0
 10
229.2639071812155
 20
-77.94789727434968
 30
0.0
  0
SPLINE
  5
A1
330
95
100
AcDbEntity
  8
Layer 1
 62
   250
420
  1907995
370
    35
100
AcDbSpline
210
0.0
220
0.0
230
1.0
 70
    11
 71
     3
 72
    17
 73
    13
 74
     0
 42
0.0000000001
 43
0.0000000001
 40
0.0
 40
0.0
 40
0.0
 40
0.0
 40
1.0
 40
1.0
 40
1.0
 40
2.0
 40
2.0
 40
2.0
 40
3.0
 40
3.0
 40
3.0
 40
4.0
 40
4.0
 40
4.0
 40
4.0
 10
222.769557681971
 20
-80.92893839773637
 30
0.0
 10
222.769557681971
 20
-80.92893839773637
 30
0.0
 10
229.1901821378312
 20
-82.05720716915569
 30
0.0
 10
229.1901821378312
 20
-82.05720716915569
 30
0.0
 10
229.1901821378312
 20
-82.05720716915569
 30
0.0
 10
229.1901821378312
 20
-82.91951456911373
 30
0.0
 10
229.1901821378312
 20
-82.91951456911373
 30
0.0
 10
229.1901821378312
 20
-82.91951456911373
 30
0.0
 10
222.769557681971
 20
-81.79124579769441
 30
0.0
 10
222.769557681971
 20
-81.79124579769441
 30
0.0
 10
222.769557681971
 20
-81.79124579769441
 30
0.0
 10
222.769557681971
 20
-80.92893839773637
 30
0.0
 10
222.769557681971
 20
-80.92893839773637
 30
0.0
  0
SPLINE
  5
A2
330
95
100
AcDbEntity
  8
Layer 1
 62
   250
420
  1907995
370
    35
100
AcDbSpline
210
0.0
220
0.0
230
1.0
 70
    11
 71
     3
 72
    35
 73
    31
 74
     0
 42
0.0000000001
 43
0.0000000001
 40
0.0
 40
0.0
 40
0.0
 40
0.0
 40
1.0
 40
1.0
 40
1.0
 40
2.0
 40
2.0
 40
2.0
 40
3.0
 40
3.0
 40
3.0
 40
4.0
 40
4.0
 40
4.0
 40
5.0
 40
5.0
 40
5.0
 40
6.0
 40
6.0
 40
6.0
 40
7.0
 40
7.0
 40
7.0
 40
8.0
 40
8.0
 40
8.0
 40
9.0
 40
9.0
 40
9.0
 40
10.0
 40
10.0
 40
10.0
 40
10.0
 10
222.769557681971
 20
-82.85474677399102
 30
0.0
 10
222.769557681971
 20
-82.85474677399102
 30
0.0
 10
229.1901821378312
 20
-83.98301554541035
 30
0.0
 10
229.1901821378312
 20
-83.98301554541035
 30
0.0
 10
229.1901821378312
 20
-83.98301554541035
 30
0.0
 10
229.1901821378312
 20
-84.83636569710673
 30
0.0
 10
229.1901821378312
 20
-84.83636569710673
 30
0.0
 10
229.1901821378312
 20
-84.83636569710673
 30
0.0
 10
224.76909110161
 20
-85.68937133925459
 30
0.0
 10
224.76909110161
 20
-85.68937133925459
 30
0.0
 10
224.76909110161
 20
-85.68937133925459
 30
0.0
 10
229.1901821378312
 20
-86.45969468975646
 30
0.0
 10
229.1901821378312
 20
-86.45969468975646
 30
0.0
 10
229.1901821378312
 20
-86.45969468975646
 30
0.0
 10
229.1901821378312
 20
-87.25757880414032
 30
0.0
 10
229.1901821378312
 20
-87.25757880414032
 30
0.0
 10
229.1901821378312
 20
-87.25757880414032
 30
0.0
 10
222.769557681971
 20
-86.12965454226952
 30
0.0
 10
222.769557681971
 20
-86.12965454226952
 30
0.0
 10
222.769557681971
 20
-86.12965454226952
 30
0.0
 10
222.769557681971
 20
-85.32246867007549
 30
0.0
 10
222.769557681971
 20
-85.32246867007549
 30
0.0
 10
222.769557681971
 20
-85.32246867007549
 30
0.0
 10
227.3374097858638
 20
-84.45085951230728
 30
0.0
 10
227.3374097858638
 20
-84.45085951230728
 30
0.0
 10
227.3374097858638
 20
-84.45085951230728
 30
0.0
 10
222.769557681971
 20
-83.65297539792342
 30
0.0
 10
222.769557681971
 20
-83.65297539792342
 30
0.0
 10
222.769557681971
 20
-83.65297539792342
 30
0.0
 10
222.769557681971
 20
-82.85474677399102
 30
0.0
 10
222.769557681971
 20
-82.85474677399102
 30
0.0
  0
ENDBLK
  5
98
330
95
100
AcDbEntity
  8
0
100
AcDbBlockEnd
  0
BLOCK
  5
A5
330
A3
100
AcDbEntity
  8
0
100
AcDbBlockBegin
  2
Block_4
 70
     0
 10
0.0
 20
0.0
 30
0.0
  3
Block_4
  1

  0
SPLINE
  5
A7
330
A3
100
AcDbEntity
  8
Layer 1
 62
   250
420
  1907995
370
    35
100
AcDbSpline
210
0.0
220
0.0
230
1.0
 70
    11
 71
     3
 72
    14
 73
    10
 74
     0
 42
0.0000000001
 43
0.0000000001
 40
0.0
 40
0.0
 40
0.0
 40
0.0
 40
1.0
 40
1.0
 40
1.0
 40
2.0
 40
2.0
 40
2.0
 40
3.0
 40
3.0
 40
3.0
 40
3.0
 10
225.2021396041059
 20
-170.7591141565288
 30
0.0
 10
225.2021396041059
 20
-170.7591141565288
 30
0.0
 10
228.3027255408308
 20
-170.740855150457
 30
0.0
 10
228.3027255408308
 20
-170.740855150457
 30
0.0
 10
228.3027255408308
 20
-170.740855150457
 30
0.0
 10
225.2021396041059
 20
-169.6401471429197
 30
0.0
 10
225.2021396041059
 20
-169.6401471429197
 30
0.0
 10
225.2021396041059
 20
-169.6401471429197
 30
0.0
 10
225.2021396041059
 20
-170.7591141565288
 30
0.0
 10
225.2021396041059
 20
-170.7591141565288
 30
0.0
  0
SPLINE
  5
A8
330
A3
100
AcDbEntity
  8
Layer 1
 62
   250
420
  1907995
370
    35
100
AcDbSpline
210
0.0
220
0.0
230
1.0
 70
    11
 71
     3
 72
    29
 73
    25
 74
     0
 42
0.0000000001
 43
0.0000000001
 40
0.0
 40
0.0
 40
0.0
 40
0.0
 40
1.0
 40
1.0
 40
1.0
 40
2.0
 40
2.0
 40
2.0
 40
3.0
 40
3.0
 40
3.0
 40
4.0
 40
4.0
 40
4.0
 40
5.0
 40
5.0
 40
5.0
 40
6.0
 40
6.0
 40
6.0
 40
7.0
 40
7.0
 40
7.0
 40
8.0
 40
8.0
 40
8.0
 40
8.0
 10
224.4776360235579
 20
-170.7591141565288
 30
0.0
 10
224.4776360235579
 20
-170.7591141565288
 30
0.0
 10
224.4776360235579
 20
-169.38314301972
 30
0.0
 10
224.4776360235579
 20
-169.38314301972
 30
0.0
 10
224.4776360235579
 20
-169.38314301972
 30
0.0
 10
222.9642055768877
 20
-168.8419185189873
 30
0.0
 10
222.9642055768877
 20
-168.8419185189873
 30
0.0
 10
222.9642055768877
 20
-168.8419185189873
 30
0.0
 10
222.9642055768877
 20
-167.9889128768394
 30
0.0
 10
222.9642055768877
 20
-167.9889128768394
 30
0.0
 10
222.9642055768877
 20
-167.9889128768394
 30
0.0
 10
229.3851745422963
 20
-170.3922114873497
 30
0.0
 10
229.3851745422963
 20
-170.3922114873497
 30
0.0
 10
229.3851745422963
 20
-170.3922114873497
 30
0.0
 10
229.3851745422963
 20
-171.4564014827434
 30
0.0
 10
229.3851745422963
 20
-171.4564014827434
 30
0.0
 10
229.3851745422963
 20
-171.4564014827434
 30
0.0
 10
222.9642055768877
 20
-171.6214215564868
 30
0.0
 10
222.9642055768877
 20
-171.6214215564868
 30
0.0
 10
222.9642055768877
 20
-171.6214215564868
 30
0.0
 10
222.9642055768877
 20
-170.768415914339
 30
0.0
 10
222.9642055768877
 20
-170.768415914339
 30
0.0
 10
222.9642055768877
 20
-170.768415914339
 30
0.0
 10
224.4776360235579
 20
-170.7591141565288
 30
0.0
 10
224.4776360235579
 20
-170.7591141565288
 30
0.0
  0
SPLINE
  5
A9
330
A3
100
AcDbEntity
  8
Layer 1
 62
   250
420
  1907995
370
    35
100
AcDbSpline
210
0.0
220
0.0
230
1.0
 70
     9
 71
     3
 72
    38
 73
    34
 74
     0
 42
0.0000000001
 43
0.0000000001
 40
0.0
 40
0.0
 40
0.0
 40
0.0
 40
1.0
 40
1.0
 40
1.0
 40
2.0
 40
2.0
 40
2.0
 40
3.0
 40
3.0
 40
3.0
 40
4.0
 40
4.0
 40
4.0
 40
5.0
 40
5.0
 40
5.0
 40
6.0
 40
6.0
 40
6.0
 40
7.0
 40
7.0
 40
7.0
 40
8.0
 40
8.0
 40
8.0
 40
9.0
 40
9.0
 40
9.0
 40
10.0
 40
10.0
 40
10.0
 40
11.0
 40
11.0
 40
11.0
 40
11.0
 10
224.2485371737888
 20
-175.5374615945703
 30
0.0
 10
223.2852884761129
 20
-175.3724415208269
 30
0.0
 10
222.8908250430518
 20
-174.8222597718324
 30
0.0
 10
222.8908250430518
 20
-173.7580697764388
 30
0.0
 10
222.8908250430518
 20
-173.7580697764388
 30
0.0
 10
222.8908250430518
 20
-173.7215517642951
 30
0.0
 10
222.8908250430518
 20
-173.7215517642951
 30
0.0
 10
222.8908250430518
 20
-172.8409853582653
 30
0.0
 10
223.2759867183028
 20
-172.2353375719584
 30
0.0
 10
224.2485371737888
 20
-172.4189611613222
 30
0.0
 10
224.2485371737888
 20
-172.4189611613222
 30
0.0
 10
229.3851745422963
 20
-173.3177865734239
 30
0.0
 10
229.3851745422963
 20
-173.3177865734239
 30
0.0
 10
229.3851745422963
 20
-173.3177865734239
 30
0.0
 10
229.3851745422963
 20
-174.1800939733819
 30
0.0
 10
229.3851745422963
 20
-174.1800939733819
 30
0.0
 10
229.3851745422963
 20
-174.1800939733819
 30
0.0
 10
224.4135572475323
 20
-173.3084848156137
 30
0.0
 10
224.4135572475323
 20
-173.3084848156137
 30
0.0
 10
223.8447719829175
 20
-173.2078880274444
 30
0.0
 10
223.652191145292
 20
-173.3911671072597
 30
0.0
 10
223.652191145292
 20
-173.8772700802284
 30
0.0
 10
223.652191145292
 20
-174.3544158049355
 30
0.0
 10
223.8447719829175
 20
-174.602118170325
 30
0.0
 10
224.4135572475323
 20
-174.7030594680428
 30
0.0
 10
224.4135572475323
 20
-174.7030594680428
 30
0.0
 10
229.3851745422963
 20
-175.5743241162625
 30
0.0
 10
229.3851745422963
 20
-175.5743241162625
 30
0.0
 10
229.3851745422963
 20
-175.5743241162625
 30
0.0
 10
229.3851745422963
 20
-176.4366315162205
 30
0.0
 10
229.3851745422963
 20
-176.4366315162205
 30
0.0
 10
229.3851745422963
 20
-176.4366315162205
 30
0.0
 10
224.2485371737888
 20
-175.5374615945703
 30
0.0
 10
224.2485371737888
 20
-175.5374615945703
 30
0.0
  0
SPLINE
  5
AA
330
A3
100
AcDbEntity
  8
Layer 1
 62
   250
420
  1907995
370
    35
100
AcDbSpline
210
0.0
220
0.0
230
1.0
 70
     9
 71
     3
 72
    23
 73
    19
 74
     0
 42
0.0000000001
 43
0.0000000001
 40
0.0
 40
0.0
 40
0.0
 40
0.0
 40
1.0
 40
1.0
 40
1.0
 40
2.0
 40
2.0
 40
2.0
 40
3.0
 40
3.0
 40
3.0
 40
4.0
 40
4.0
 40
4.0
 40
5.0
 40
5.0
 40
5.0
 40
6.0
 40
6.0
 40
6.0
 40
6.0
 10
228.6238084400561
 20
-178.8581891328026
 30
0.0
 10
228.6238084400561
 20
-178.8581891328026
 30
0.0
 10
228.6238084400561
 20
-178.1702035643983
 30
0.0
 10
228.6238084400561
 20
-178.1702035643983
 30
0.0
 10
228.6238084400561
 20
-178.1702035643983
 30
0.0
 10
223.7255716791278
 20
-177.3171979222504
 30
0.0
 10
223.7255716791278
 20
-177.3171979222504
 30
0.0
 10
223.7255716791278
 20
-177.3171979222504
 30
0.0
 10
223.7255716791278
 20
-178.0048389811063
 30
0.0
 10
223.7255716791278
 20
-178.0048389811063
 30
0.0
 10
223.7255716791278
 20
-178.4819847058134
 30
0.0
 10
223.9181525167533
 20
-178.7662050833465
 30
0.0
 10
224.4869377813681
 20
-178.8671463810643
 30
0.0
 10
224.4869377813681
 20
-178.8671463810643
 30
0.0
 10
227.8624423378158
 20
-179.463492409561
 30
0.0
 10
227.8624423378158
 20
-179.463492409561
 30
0.0
 10
228.4308830928821
 20
-179.5644337072789
 30
0.0
 10
228.6238084400561
 20
-179.3442921057714
 30
0.0
 10
228.6238084400561
 20
-178.8581891328026
 30
0.0
  0
SPLINE
  5
AB
330
A3
100
AcDbEntity
  8
Layer 1
 62
   250
420
  1907995
370
    35
100
AcDbSpline
210
0.0
220
0.0
230
1.0
 70
     9
 71
     3
 72
    23
 73
    19
 74
     0
 42
0.0000000001
 43
0.0000000001
 40
0.0
 40
0.0
 40
0.0
 40
0.0
 40
1.0
 40
1.0
 40
1.0
 40
2.0
 40
2.0
 40
2.0
 40
3.0
 40
3.0
 40
3.0
 40
4.0
 40
4.0
 40
4.0
 40
5.0
 40
5.0
 40
5.0
 40
6.0
 40
6.0
 40
6.0
 40
6.0
 10
228.0274624115593
 20
-180.3530160638526
 30
0.0
 10
228.0274624115593
 20
-180.3530160638526
 30
0.0
 10
224.3215731980761
 20
-179.7018930171403
 30
0.0
 10
224.3215731980761
 20
-179.7018930171403
 30
0.0
 10
223.3769280160206
 20
-179.5368729433969
 30
0.0
 10
222.9642055768877
 20
-178.9680876787821
 30
0.0
 10
222.9642055768877
 20
-177.904242192937
 30
0.0
 10
222.9642055768877
 20
-177.904242192937
 30
0.0
 10
222.9642055768877
 20
-176.3174312124309
 30
0.0
 10
222.9642055768877
 20
-176.3174312124309
 30
0.0
 10
222.9642055768877
 20
-176.3174312124309
 30
0.0
 10
229.3851745422963
 20
-177.4453554743017
 30
0.0
 10
229.3851745422963
 20
-177.4453554743017
 30
0.0
 10
229.3851745422963
 20
-177.4453554743017
 30
0.0
 10
229.3851745422963
 20
-179.0321664548078
 30
0.0
 10
229.3851745422963
 20
-179.0321664548078
 30
0.0
 10
229.3851745422963
 20
-179.9127328608376
 30
0.0
 10
228.9721075936148
 20
-180.5273378954062
 30
0.0
 10
228.0274624115593
 20
-180.3530160638526
 30
0.0
  0
SPLINE
  5
AC
330
A3
100
AcDbEntity
  8
Layer 1
 62
   250
420
  1907995
370
    35
100
AcDbSpline
210
0.0
220
0.0
230
1.0
 70
    11
 71
     3
 72
    17
 73
    13
 74
     0
 42
0.0000000001
 43
0.0000000001
 40
0.0
 40
0.0
 40
0.0
 40
0.0
 40
1.0
 40
1.0
 40
1.0
 40
2.0
 40
2.0
 40
2.0
 40
3.0
 40
3.0
 40
3.0
 40
4.0
 40
4.0
 40
4.0
 40
4.0
 10
222.9642055768877
 20
-180.490475373714
 30
0.0
 10
222.9642055768877
 20
-180.490475373714
 30
0.0
 10
229.3851745422963
 20
-181.6187441451333
 30
0.0
 10
229.3851745422963
 20
-181.6187441451333
 30
0.0
 10
229.3851745422963
 20
-181.6187441451333
 30
0.0
 10
229.3851745422963
 20
-182.4810515450914
 30
0.0
 10
229.3851745422963
 20
-182.4810515450914
 30
0.0
 10
229.3851745422963
 20
-182.4810515450914
 30
0.0
 10
222.9642055768877
 20
-181.352782773672
 30
0.0
 10
222.9642055768877
 20
-181.352782773672
 30
0.0
 10
222.9642055768877
 20
-181.352782773672
 30
0.0
 10
222.9642055768877
 20
-180.490475373714
 30
0.0
 10
222.9642055768877
 20
-180.490475373714
 30
0.0
  0
SPLINE
  5
AD
330
A3
100
AcDbEntity
  8
Layer 1
 62
   250
420
  1907995
370
    35
100
AcDbSpline
210
0.0
220
0.0
230
1.0
 70
     9
 71
     3
 72
    23
 73
    19
 74
     0
 42
0.0000000001
 43
0.0000000001
 40
0.0
 40
0.0
 40
0.0
 40
0.0
 40
1.0
 40
1.0
 40
1.0
 40
2.0
 40
2.0
 40
2.0
 40
3.0
 40
3.0
 40
3.0
 40
4.0
 40
4.0
 40
4.0
 40
5.0
 40
5.0
 40
5.0
 40
6.0
 40
6.0
 40
6.0
 40
6.0
 10
223.652191145292
 20
-184.1040360281926
 30
0.0
 10
223.652191145292
 20
-184.5811817528997
 30
0.0
 10
223.8447719829175
 20
-184.8654021304328
 30
0.0
 10
224.4135572475323
 20
-184.9663434281506
 30
0.0
 10
224.4135572475323
 20
-184.9663434281506
 30
0.0
 10
227.9358228716517
 20
-185.5902502205294
 30
0.0
 10
227.9358228716517
 20
-185.5902502205294
 30
0.0
 10
228.5046081362664
 20
-185.681889760437
 30
0.0
 10
228.6971889738919
 20
-185.4710499167397
 30
0.0
 10
228.6971889738919
 20
-184.9846024342225
 30
0.0
 10
228.6971889738919
 20
-184.5078012190638
 30
0.0
 10
228.5046081362664
 20
-184.2142790837206
 30
0.0
 10
227.9358228716517
 20
-184.1226395438129
 30
0.0
 10
227.9358228716517
 20
-184.1226395438129
 30
0.0
 10
224.4135572475323
 20
-183.4987327514342
 30
0.0
 10
224.4135572475323
 20
-183.4987327514342
 30
0.0
 10
223.8447719829175
 20
-183.3977914537164
 30
0.0
 10
223.652191145292
 20
-183.6179330552239
 30
0.0
 10
223.652191145292
 20
-184.1040360281926
 30
0.0
  0
SPLINE
  5
AE
330
A3
100
AcDbEntity
  8
Layer 1
 62
   250
420
  1907995
370
    35
100
AcDbSpline
210
0.0
220
0.0
230
1.0
 70
     9
 71
     3
 72
    29
 73
    25
 74
     0
 42
0.0000000001
 43
0.0000000001
 40
0.0
 40
0.0
 40
0.0
 40
0.0
 40
1.0
 40
1.0
 40
1.0
 40
2.0
 40
2.0
 40
2.0
 40
3.0
 40
3.0
 40
3.0
 40
4.0
 40
4.0
 40
4.0
 40
5.0
 40
5.0
 40
5.0
 40
6.0
 40
6.0
 40
6.0
 40
7.0
 40
7.0
 40
7.0
 40
8.0
 40
8.0
 40
8.0
 40
8.0
 10
229.4582105665836
 20
-185.0855437319403
 30
0.0
 10
229.4582105665836
 20
-185.0855437319403
 30
0.0
 10
229.4582105665836
 20
-185.1589242657761
 30
0.0
 10
229.4582105665836
 20
-185.1589242657761
 30
0.0
 10
229.4582105665836
 20
-186.0394906718059
 30
0.0
 10
229.0454881274507
 20
-186.6451384581129
 30
0.0
 10
228.1008429453951
 20
-186.4797738748208
 30
0.0
 10
228.1008429453951
 20
-186.4797738748208
 30
0.0
 10
224.2485371737888
 20
-185.8010900642266
 30
0.0
 10
224.2485371737888
 20
-185.8010900642266
 30
0.0
 10
223.3035474821847
 20
-185.6360699904832
 30
0.0
 10
222.8908250430518
 20
-185.0672847258684
 30
0.0
 10
222.8908250430518
 20
-184.0034392400233
 30
0.0
 10
222.8908250430518
 20
-184.0034392400233
 30
0.0
 10
222.8908250430518
 20
-183.9300587061875
 30
0.0
 10
222.8908250430518
 20
-183.9300587061875
 30
0.0
 10
222.8908250430518
 20
-183.0494923001576
 30
0.0
 10
223.3035474821847
 20
-182.434887265589
 30
0.0
 10
224.2485371737888
 20
-182.6092090971427
 30
0.0
 10
224.2485371737888
 20
-182.6092090971427
 30
0.0
 10
228.1008429453951
 20
-183.2878929077369
 30
0.0
 10
228.1008429453951
 20
-183.2878929077369
 30
0.0
 10
229.0547898852608
 20
-183.4529129814804
 30
0.0
 10
229.4582105665836
 20
-184.0216982460951
 30
0.0
 10
229.4582105665836
 20
-185.0855437319403
 30
0.0
  0
SPLINE
  5
AF
330
A3
100
AcDbEntity
  8
Layer 1
 62
   250
420
  1907995
370
    35
100
AcDbSpline
210
0.0
220
0.0
230
1.0
 70
     9
 71
     3
 72
    23
 73
    19
 74
     0
 42
0.0000000001
 43
0.0000000001
 40
0.0
 40
0.0
 40
0.0
 40
0.0
 40
1.0
 40
1.0
 40
1.0
 40
2.0
 40
2.0
 40
2.0
 40
3.0
 40
3.0
 40
3.0
 40
4.0
 40
4.0
 40
4.0
 40
5.0
 40
5.0
 40
5.0
 40
6.0
 40
6.0
 40
6.0
 40
6.0
 10
223.652191145292
 20
-189.7174746118587
 30
0.0
 10
223.652191145292
 20
-190.1946203365658
 30
0.0
 10
223.8447719829175
 20
-190.4788407140989
 30
0.0
 10
224.4135572475323
 20
-190.5797820118167
 30
0.0
 10
224.4135572475323
 20
-190.5797820118167
 30
0.0
 10
227.9358228716517
 20
-191.2036888041954
 30
0.0
 10
227.9358228716517
 20
-191.2036888041954
 30
0.0
 10
228.5046081362664
 20
-191.2953283441031
 30
0.0
 10
228.6971889738919
 20
-191.0844885004058
 30
0.0
 10
228.6971889738919
 20
-190.5980410178885
 30
0.0
 10
228.6971889738919
 20
-190.1212398027299
 30
0.0
 10
228.5046081362664
 20
-189.8277176673867
 30
0.0
 10
227.9358228716517
 20
-189.736078127479
 30
0.0
 10
227.9358228716517
 20
-189.736078127479
 30
0.0
 10
224.4135572475323
 20
-189.1121713351003
 30
0.0
 10
224.4135572475323
 20
-189.1121713351003
 30
0.0
 10
223.8447719829175
 20
-189.0112300373824
 30
0.0
 10
223.652191145292
 20
-189.2313716388899
 30
0.0
 10
223.652191145292
 20
-189.7174746118587
 30
0.0
  0
SPLINE
  5
B0
330
A3
100
AcDbEntity
  8
Layer 1
 62
   250
420
  1907995
370
    35
100
AcDbSpline
210
0.0
220
0.0
230
1.0
 70
     9
 71
     3
 72
    29
 73
    25
 74
     0
 42
0.0000000001
 43
0.0000000001
 40
0.0
 40
0.0
 40
0.0
 40
0.0
 40
1.0
 40
1.0
 40
1.0
 40
2.0
 40
2.0
 40
2.0
 40
3.0
 40
3.0
 40
3.0
 40
4.0
 40
4.0
 40
4.0
 40
5.0
 40
5.0
 40
5.0
 40
6.0
 40
6.0
 40
6.0
 40
7.0
 40
7.0
 40
7.0
 40
8.0
 40
8.0
 40
8.0
 40
8.0
 10
229.4582105665836
 20
-190.6989823156063
 30
0.0
 10
229.4582105665836
 20
-190.6989823156063
 30
0.0
 10
229.4582105665836
 20
-190.7723628494421
 30
0.0
 10
229.4582105665836
 20
-190.7723628494421
 30
0.0
 10
229.4582105665836
 20
-191.652929255472
 30
0.0
 10
229.0454881274507
 20
-192.2585770417789
 30
0.0
 10
228.1008429453951
 20
-192.0932124584869
 30
0.0
 10
228.1008429453951
 20
-192.0932124584869
 30
0.0
 10
224.2485371737888
 20
-191.4145286478927
 30
0.0
 10
224.2485371737888
 20
-191.4145286478927
 30
0.0
 10
223.3035474821847
 20
-191.2495085741493
 30
0.0
 10
222.8908250430518
 20
-190.6807233095345
 30
0.0
 10
222.8908250430518
 20
-189.6168778236894
 30
0.0
 10
222.8908250430518
 20
-189.6168778236894
 30
0.0
 10
222.8908250430518
 20
-189.5434972898535
 30
0.0
 10
222.8908250430518
 20
-189.5434972898535
 30
0.0
 10
222.8908250430518
 20
-188.6629308838237
 30
0.0
 10
223.3035474821847
 20
-188.0483258492551
 30
0.0
 10
224.2485371737888
 20
-188.2226476808088
 30
0.0
 10
224.2485371737888
 20
-188.2226476808088
 30
0.0
 10
228.1008429453951
 20
-188.901331491403
 30
0.0
 10
228.1008429453951
 20
-188.901331491403
 30
0.0
 10
229.0547898852608
 20
-189.0663515651464
 30
0.0
 10
229.4582105665836
 20
-189.6351368297612
 30
0.0
 10
229.4582105665836
 20
-190.6989823156063
 30
0.0
  0
SPLINE
  5
B1
330
A3
100
AcDbEntity
  8
Layer 1
 62
   250
420
  1907995
370
    35
100
AcDbSpline
210
0.0
220
0.0
230
1.0
 70
     9
 71
     3
 72
    38
 73
    34
 74
     0
 42
0.0000000001
 43
0.0000000001
 40
0.0
 40
0.0
 40
0.0
 40
0.0
 40
1.0
 40
1.0
 40
1.0
 40
2.0
 40
2.0
 40
2.0
 40
3.0
 40
3.0
 40
3.0
 40
4.0
 40
4.0
 40
4.0
 40
5.0
 40
5.0
 40
5.0
 40
6.0
 40
6.0
 40
6.0
 40
7.0
 40
7.0
 40
7.0
 40
8.0
 40
8.0
 40
8.0
 40
9.0
 40
9.0
 40
9.0
 40
10.0
 40
10.0
 40
10.0
 40
11.0
 40
11.0
 40
11.0
 40
11.0
 10
224.2485371737888
 20
-195.5052350270784
 30
0.0
 10
223.2852884761129
 20
-195.3402149533349
 30
0.0
 10
222.8908250430518
 20
-194.7900332043405
 30
0.0
 10
222.8908250430518
 20
-193.7258432089468
 30
0.0
 10
222.8908250430518
 20
-193.7258432089468
 30
0.0
 10
222.8908250430518
 20
-193.6893251968032
 30
0.0
 10
222.8908250430518
 20
-193.6893251968032
 30
0.0
 10
222.8908250430518
 20
-192.8087587907733
 30
0.0
 10
223.2759867183028
 20
-192.2031110044664
 30
0.0
 10
224.2485371737888
 20
-192.3867345938302
 30
0.0
 10
224.2485371737888
 20
-192.3867345938302
 30
0.0
 10
229.3851745422963
 20
-193.2855600059319
 30
0.0
 10
229.3851745422963
 20
-193.2855600059319
 30
0.0
 10
229.3851745422963
 20
-193.2855600059319
 30
0.0
 10
229.3851745422963
 20
-194.1478674058899
 30
0.0
 10
229.3851745422963
 20
-194.1478674058899
 30
0.0
 10
229.3851745422963
 20
-194.1478674058899
 30
0.0
 10
224.4135572475323
 20
-193.2762582481217
 30
0.0
 10
224.4135572475323
 20
-193.2762582481217
 30
0.0
 10
223.8447719829175
 20
-193.1756614599524
 30
0.0
 10
223.652191145292
 20
-193.3589405397677
 30
0.0
 10
223.652191145292
 20
-193.8450435127365
 30
0.0
 10
223.652191145292
 20
-194.3221892374436
 30
0.0
 10
223.8447719829175
 20
-194.5698916028331
 30
0.0
 10
224.4135572475323
 20
-194.6708329005509
 30
0.0
 10
224.4135572475323
 20
-194.6708329005509
 30
0.0
 10
229.3851745422963
 20
-195.5420975487706
 30
0.0
 10
229.3851745422963
 20
-195.5420975487706
 30
0.0
 10
229.3851745422963
 20
-195.5420975487706
 30
0.0
 10
229.3851745422963
 20
-196.4044049487286
 30
0.0
 10
229.3851745422963
 20
-196.4044049487286
 30
0.0
 10
229.3851745422963
 20
-196.4044049487286
 30
0.0
 10
224.2485371737888
 20
-195.5052350270784
 30
0.0
 10
224.2485371737888
 20
-195.5052350270784
 30
0.0
  0
SPLINE
  5
B2
330
A3
100
AcDbEntity
  8
Layer 1
 62
   250
420
  1907995
370
    35
100
AcDbSpline
210
0.0
220
0.0
230
1.0
 70
    11
 71
     3
 72
    29
 73
    25
 74
     0
 42
0.0000000001
 43
0.0000000001
 40
0.0
 40
0.0
 40
0.0
 40
0.0
 40
1.0
 40
1.0
 40
1.0
 40
2.0
 40
2.0
 40
2.0
 40
3.0
 40
3.0
 40
3.0
 40
4.0
 40
4.0
 40
4.0
 40
5.0
 40
5.0
 40
5.0
 40
6.0
 40
6.0
 40
6.0
 40
7.0
 40
7.0
 40
7.0
 40
8.0
 40
8.0
 40
8.0
 40
8.0
 10
228.6238084400561
 20
-199.9907493488737
 30
0.0
 10
228.6238084400561
 20
-199.9907493488737
 30
0.0
 10
228.6238084400561
 20
-198.8717823352645
 30
0.0
 10
228.6238084400561
 20
-198.8717823352645
 30
0.0
 10
228.6238084400561
 20
-198.8717823352645
 30
0.0
 10
222.9642055768877
 20
-197.872015625445
 30
0.0
 10
222.9642055768877
 20
-197.872015625445
 30
0.0
 10
222.9642055768877
 20
-197.872015625445
 30
0.0
 10
222.9642055768877
 20
-197.009708225487
 30
0.0
 10
222.9642055768877
 20
-197.009708225487
 30
0.0
 10
222.9642055768877
 20
-197.009708225487
 30
0.0
 10
228.6238084400561
 20
-198.0094749353065
 30
0.0
 10
228.6238084400561
 20
-198.0094749353065
 30
0.0
 10
228.6238084400561
 20
-198.0094749353065
 30
0.0
 10
228.6238084400561
 20
-196.8812061638871
 30
0.0
 10
228.6238084400561
 20
-196.8812061638871
 30
0.0
 10
228.6238084400561
 20
-196.8812061638871
 30
0.0
 10
229.3851745422963
 20
-197.0190099832972
 30
0.0
 10
229.3851745422963
 20
-197.0190099832972
 30
0.0
 10
229.3851745422963
 20
-197.0190099832972
 30
0.0
 10
229.3851745422963
 20
-200.1192514104735
 30
0.0
 10
229.3851745422963
 20
-200.1192514104735
 30
0.0
 10
229.3851745422963
 20
-200.1192514104735
 30
0.0
 10
228.6238084400561
 20
-199.9907493488737
 30
0.0
 10
228.6238084400561
 20
-199.9907493488737
 30
0.0
  0
ENDBLK
  5
A6
330
A3
100
AcDbEntity
  8
0
100
AcDbBlockEnd
  0
ENDSEC
  0
SECTION
  2
ENTITIES
  0
LWPOLYLINE
  5
79
330
70
100
AcDbEntity
  8
Layer 1
 62
    12
420
 14878227
370
     9
100
AcDbPolyline
 90
       56
 70
     1
 43
0.0
 10
164.2685466837607
 20
-249.7294440894096
 10
180.2624886014202
 20
-249.7294440894096
 10
180.268560582213
 20
-203.729409514321
 10
184.2685317590558
 20
-203.729409514321
 10
184.2685317590558
 20
-153.7294468260832
 10
180.268560582213
 20
-153.7294468260832
 10
180.268560582213
 20
-103.7293980104575
 10
184.2685317590558
 20
-103.7293980104575
 10
184.2685317590558
 20
-53.7294353222197
 10
180.268560582213
 20
-53.7294353222197
 10
180.268560582213
 20
-7.729400747131162
 10
180.2624886014202
 20
-7.729400747131162
 10
168.9563311742337
 20
-7.729400747131162
 10
164.2685466837607
 20
-7.729400747131162
 10
164.2685466837607
 20
-3.729429570288272
 10
164.2624747029679
 20
-3.729429570288272
 10
148.2685327853084
 20
-3.729429570288272
 10
148.2685327853084
 20
-7.729400747131162
 10
132.2685619505498
 20
-7.729400747131162
 10
132.2685619505498
 20
-3.729429570288272
 10
116.2685480520975
 20
-3.729429570288272
 10
116.2685480520975
 20
-7.729400747131162
 10
100.2685341536452
 20
-7.729400747131162
 10
100.2685341536452
 20
-3.729429570288272
 10
84.26856331888657
 20
-3.729429570288272
 10
84.26856331888657
 20
-7.729400747131162
 10
68.26854942043432
 20
-7.729400747131162
 10
68.26854942043432
 20
-3.729429570288272
 10
52.26853552198207
 20
-3.729429570288272
 10
52.26853552198207
 20
-7.729400747131162
 10
36.26856468722338
 20
-7.729400747131162
 10
36.26856468722338
 20
-3.729429570288272
 10
20.26855078877113
 20
-3.729429570288272
 10
20.26855078877113
 20
-7.729400747131162
 10
4.268536890318871
 20
-7.729400747131162
 10
4.268536890318871
 20
-249.7294440894096
 10
20.26855078877113
 20
-249.7294440894096
 10
20.26855078877113
 20
-253.7294152662525
 10
36.26856468722338
 20
-253.7294152662525
 10
36.26856468722338
 20
-249.7294440894096
 10
52.26853552198207
 20
-249.7294440894096
 10
52.26853552198207
 20
-253.7294152662525
 10
68.26854942043432
 20
-253.7294152662525
 10
68.26854942043432
 20
-249.7294440894096
 10
84.26856331888657
 20
-249.7294440894096
 10
84.26856331888657
 20
-253.7294152662525
 10
100.2685341536452
 20
-253.7294152662525
 10
100.2685341536452
 20
-249.7294440894096
 10
116.2685480520975
 20
-249.7294440894096
 10
116.2685480520975
 20
-253.7294152662525
 10
132.2685619505498
 20
-253.7294152662525
 10
132.2685619505498
 20
-249.7294440894096
 10
148.2685327853084
 20
-249.7294440894096
 10
148.2685327853084
 20
-253.7294152662525
 10
164.2624747029679
 20
-253.7294152662525
 10
164.2685466837607
 20
-253.7294152662525
  0
INSERT
  5
7B
330
70
100
AcDbEntity
  8
Layer 1
100
AcDbBlockReference
  2
Block_0
 10
0.0
 20
0.0
 30
0.0
  0
INSERT
  5
89
330
70
100
AcDbEntity
  8
Layer 1
100
AcDbBlockReference
  2
Block_2
 10
0.0
 20
0.0
 30
0.0
  0
CIRCLE
  5
94
330
70
100
AcDbEntity
  8
Layer 1
 62
    12
420
 14878227
370
     9
100
AcDbCircle
 10
211.0862516791645
 20
-73.72945705251743
 30
0.0
 40
6.89700374359411
  0
INSERT
  5
96
330
70
100
AcDbEntity
  8
Layer 1
100
AcDbBlockReference
  2
Block_3
 10
0.0
 20
0.0
 30
0.0
  0
INSERT
  5
A4
330
70
100
AcDbEntity
  8
Layer 1
100
AcDbBlockReference
  2
Block_4
 10
0.0
 20
0.0
 30
0.0
  0
CIRCLE
  5
B3
330
70
100
AcDbEntity
  8
Layer 1
 62
    12
420
 14878227
370
     9
100
AcDbCircle
 10
211.0862516791645
 20
-128.7294224182704
 30
0.0
 40
6.89700374359415
  0
CIRCLE
  5
B4
330
70
100
AcDbEntity
  8
Layer 1
 62
    12
420
 14878227
370
     9
100
AcDbCircle
 10
211.0862516791645
 20
-184.7564570247604
 30
0.0
 40
6.897003743594271
  0
LWPOLYLINE
  5
B5
330
70
100
AcDbEntity
  8
Layer 1
 62
    12
420
 14878227
370
     9
100
AcDbPolyline
 90
       69
 70
     1
 43
0.0
 10
380.9798591200536
 20
-3.519384957958632
 10
380.9798522301849
 20
-23.40871787263595
 10
380.9798497610072
 20
-30.53662043161786
 10
380.9798219780646
 20
-110.7390462199696
 10
370.4203651191547
 20
-117.5122415736913
 10
370.4203529937278
 20
-152.5153254766959
 10
370.4203510744534
 20
-158.0557926316151
 10
370.4203425126161
 20
-182.7716827892803
 10
370.4203405948478
 20
-188.3078005111468
 10
370.4203301137432
 20
-218.5641362918831
 10
374.2021621508294
 20
-218.5641376019489
 10
379.0342106239783
 20
-216.8054395624463
 10
379.0342113238275
 20
-214.7851494425099
 10
374.2021640691496
 20
-213.0264265234179
 10
374.2021647709675
 20
-211.0004519959296
 10
379.0342132441169
 20
-209.2417539564283
 10
379.0342139439661
 20
-207.2214638364907
 10
374.2021666892869
 20
-205.4627409173987
 10
374.2021673911054
 20
-203.4367663899117
 10
379.0342158642626
 20
-201.6780468185623
 10
379.0342165641041
 20
-199.6577782304714
 10
374.2021693094256
 20
-197.899055311382
 10
374.2021700112435
 20
-195.8730807838937
 10
379.0342184844
 20
-194.114361212543
 10
379.0342191842421
 20
-192.0940926244522
 10
374.2021719295643
 20
-190.3353697053628
 10
374.2021726313822
 20
-188.3093951778745
 10
379.0342211045387
 20
-186.5506756065251
 10
379.0342211050906
 20
-186.5490822498632
 10
379.0342218043802
 20
-184.5304070184342
 10
379.0342218049397
 20
-184.5287921299255
 10
374.2021745502612
 20
-182.7700692108361
 10
374.2021752520721
 20
-180.7441162151946
 10
379.0342237252286
 20
-178.9853966438452
 10
379.0342244250778
 20
-176.9651065239089
 10
374.2021771703992
 20
-175.2063836048182
 10
374.2021778722107
 20
-173.1804306091767
 10
379.0342263453666
 20
-171.421711037826
 10
379.0342270452164
 20
-169.4014209178883
 10
374.2021797905373
 20
-167.6426979987989
 10
374.2021804923481
 20
-165.6167450031574
 10
379.0342289655053
 20
-163.858025431808
 10
379.0342296653538
 20
-161.8377353118704
 10
374.2021824106759
 20
-160.0790123927797
 10
374.202183111539
 20
-158.0557939416796
 10
379.0342315846962
 20
-156.2970743703302
 10
379.0342315856433
 20
-156.2943398257888
 10
379.0342322845453
 20
-154.2767842503926
 10
379.0342322854925
 20
-154.2740497058512
 10
374.202185030814
 20
-152.5153267867617
 10
374.2021857316777
 20
-150.4921083356616
 10
379.0342342048336
 20
-148.7333887643123
 10
379.0342349046828
 20
-146.7130986443746
 10
374.2021876500049
 20
-144.9543757252839
 10
374.2021883518157
 20
-142.9284227296424
 10
379.0342368249723
 20
-141.169703158293
 10
379.0342375248215
 20
-139.149413038356
 10
374.2021902701429
 20
-137.3906901192653
 10
374.2021909719538
 20
-135.3647371236238
 10
379.0342394451103
 20
-133.6060175522751
 10
379.0342401449595
 20
-131.5857274323374
 10
374.2021928902809
 20
-129.8270045132461
 10
374.2021935920917
 20
-127.8010515176052
 10
379.0342420652483
 20
-126.0423319462558
 10
389.0393696828975
 20
-120.3600929977032
 10
405.979824854029
 20
-110.7390548802263
 10
405.9798526369709
 20
-30.53662909187452
 10
405.9798551061493
 20
-23.40872653289324
 10
405.9798619960179
 20
-3.519393618215608
  0
ENDSEC
  0
SECTION
  2
OBJECTS
  0
DICTIONARY
  5
C
330
0
100
AcDbDictionary
281
     1
  3
ACAD_COLOR
350
63
  3
ACAD_DETAILVIEWSTYLE
350
6A
  3
ACAD_GROUP
350
D
  3
ACAD_LAYOUT
350
62
  3
ACAD_MATERIAL
350
10
  3
ACAD_MLEADERSTYLE
350
66
  3
ACAD_MLINESTYLE
350
5F
  3
ACAD_PLOTSETTINGS
350
61
  3
ACAD_PLOTSTYLENAME
350
E
  3
ACAD_SCALELIST
350
42
  3
ACAD_SECTIONVIEWSTYLE
350
68
  3
ACAD_TABLESTYLE
350
64
  3
ACAD_VISUALSTYLE
350
29
  3
ACDB_RECOMPOSE_DATA
350
BE
  3
AcDbVariableDictionary
350
B6
  0
DICTIONARY
  5
63
102
{ACAD_REACTORS
330
C
102
}
330
C
100
AcDbDictionary
281
     1
  0
DICTIONARY
  5
6A
102
{ACAD_REACTORS
330
C
102
}
330
C
100
AcDbDictionary
281
     1
  3
Imperial24
350
6B
  0
DICTIONARY
  5
D
102
{ACAD_REACTORS
330
C
102
}
330
C
100
AcDbDictionary
281
     1
  0
DICTIONARY
  5
62
102
{ACAD_REACTORS
330
C
102
}
330
C
100
AcDbDictionary
281
     1
  3
Layout1
350
6F
  3
Layout2
350
77
  3
Model
350
73
  0
DICTIONARY
  5
10
102
{ACAD_REACTORS
330
C
102
}
330
C
100
AcDbDictionary
281
     1
  3
ByBlock
350
19
  3
ByLayer
350
11
  3
Global
350
21
  0
DICTIONARY
  5
66
102
{ACAD_REACTORS
330
C
102
}
330
C
100
AcDbDictionary
281
     1
  3
Standard
350
67
  0
DICTIONARY
  5
5F
102
{ACAD_REACTORS
330
C
102
}
330
C
100
AcDbDictionary
281
     1
  3
Standard
350
60
  0
DICTIONARY
  5
61
102
{ACAD_REACTORS
330
C
102
}
330
C
100
AcDbDictionary
281
     1
  0
ACDBDICTIONARYWDFLT
  5
E
102
{ACAD_REACTORS
330
C
102
}
330
C
100
AcDbDictionary
281
     1
  3
Normal
350
F
100
AcDbDictionaryWithDefault
340
F
  0
DICTIONARY
  5
42
102
{ACAD_REACTORS
330
C
102
}
330
C
100
AcDbDictionary
281
     1
  3
A0
350
43
  3
A1
350
44
  3
A2
350
45
  3
A3
350
46
  3
A4
350
47
  3
A5
350
48
  3
A6
350
49
  3
A7
350
4A
  3
A8
350
4B
  3
A9
350
4C
  3
B0
350
4D
  3
B1
350
4E
  3
B2
350
4F
  3
B3
350
50
  3
B4
350
51
  3
B5
350
52
  3
B6
350
53
  0
DICTIONARY
  5
68
102
{ACAD_REACTORS
330
C
102
}
330
C
100
AcDbDictionary
281
     1
  3
Imperial24
350
69
  0
DICTIONARY
  5
64
102
{ACAD_REACTORS
330
C
102
}
330
C
100
AcDbDictionary
281
     1
  3
Standard
350
65
  0
DICTIONARY
  5
29
102
{ACAD_REACTORS
330
C
102
}
330
C
100
AcDbDictionary
281
     1
  3
2dWireframe
350
2F
  3
Basic
350
2E
  3
Brighten
350
35
  3
ColorChange
350
39
  3
Conceptual
350
32
  3
Dim
350
34
  3
EdgeColorOff
350
41
  3
Facepattern
350
38
  3
Flat
350
2A
  3
FlatWithEdges
350
2B
  3
Gouraud
350
2C
  3
GouraudWithEdges
350
2D
  3
Hidden
350
31
  3
JitterOff
350
3F
  3
Linepattern
350
37
  3
OverhangOff
350
40
  3
Realistic
350
33
  3
Shaded
350
3E
  3
Shaded with edges
350
3D
  3
Shades of Gray
350
3A
  3
Sketchy
350
3B
  3
Thicken
350
36
  3
Wireframe
350
30
  3
X-Ray
350
3C
  0
XRECORD
  5
BE
102
{ACAD_REACTORS
330
C
102
}
330
C
100
AcDbXrecord
280
     1
 90
        1
330
65
  0
DICTIONARY
  5
B6
102
{ACAD_REACTORS
330
C
102
}
330
C
100
AcDbDictionary
281
     1
  3
CANNOSCALE
350
BB
  3
CMLEADERSTYLE
350
B8
  3
CTABLESTYLE
350
B7
  3
CVIEWDETAILSTYLE
350
B9
  3
CVIEWSECTIONSTYLE
350
BA
  0
ACDBDETAILVIEWSTYLE
  5
6B
102
{ACAD_REACTORS
330
6A
102
}
330
6A
100
AcDbModelDocViewStyle
 70
     0
  3
Imperial24
290
     1
300
Imperial24
 90
        0
100
AcDbDetailViewStyle
 70
     0
 71
     0
 90
        3
 71
     1
340
55
 62
   256
 40
0.24
340
0
 62
   256
 40
0.24
300

 40
0.36
280
     3
 71
     2
340
5D
 90
       25
 62
   256
 71
     3
340
55
 62
   256
 40
0.24
 90
        1
 40
0.75
 90
        1
300
%<\AcVar ViewType \f "%tc1">% %<\AcVar ViewDetailId>%\PSCALE %<\AcVar ViewScale \f "%sn">%
 71
     4
340
5D
 90
       25
 62
   256
340
5D
 90
       25
 62
   256
280
     0
  0
LAYOUT
  5
6F
102
{ACAD_REACTORS
330
62
102
}
330
62
100
AcDbPlotSettings
  1

  2

  4

  6

 40
0.0
 41
0.0
 42
0.0
 43
0.0
 44
0.0
 45
0.0
 46
0.0
 47
0.0
 48
0.0
 49
0.0
140
0.0
141
0.0
142
1.0
143
1.0
 70
   688
 72
     0
 73
     0
 74
     5
  7

 75
    16
147
1.0
 76
     0
 77
     2
 78
   300
148
0.0
149
0.0
100
AcDbLayout
  1
Layout1
 70
     1
 71
     1
 10
0.0
 20
0.0
 11
12.0
 21
9.0
 12
0.0
 22
0.0
 32
0.0
 14
0.0
 24
0.0
 34
0.0
 15
0.0
 25
0.0
 35
0.0
146
0.0
 13
0.0
 23
0.0
 33
0.0
 16
1.0
 26
0.0
 36
0.0
 17
0.0
 27
1.0
 37
0.0
 76
     0
330
6C
  0
LAYOUT
  5
77
102
{ACAD_REACTORS
330
62
102
}
330
62
100
AcDbPlotSettings
  1

  2

  4

  6

 40
0.0
 41
0.0
 42
0.0
 43
0.0
 44
0.0
 45
0.0
 46
0.0
 47
0.0
 48
0.0
 49
0.0
140
0.0
141
0.0
142
1.0
143
1.0
 70
   688
 72
     0
 73
     0
 74
     5
  7

 75
    16
147
1.0
 76
     0
 77
     2
 78
   300
148
0.0
149
0.0
100
AcDbLayout
  1
Layout2
 70
     1
 71
     2
 10
0.0
 20
0.0
 11
12.0
 21
9.0
 12
0.0
 22
0.0
 32
0.0
 14
0.0
 24
0.0
 34
0.0
 15
0.0
 25
0.0
 35
0.0
146
0.0
 13
0.0
 23
0.0
 33
0.0
 16
1.0
 26
0.0
 36
0.0
 17
0.0
 27
1.0
 37
0.0
 76
     0
330
74
  0
LAYOUT
  5
73
102
{ACAD_REACTORS
330
62
102
}
330
62
100
AcDbPlotSettings
  1

  2

  4

  6

 40
0.0
 41
0.0
 42
0.0
 43
0.0
 44
0.0
 45
0.0
 46
0.0
 47
0.0
 48
0.0
 49
0.0
140
0.0
141
0.0
142
1.0
143
1.0
 70
  1712
 72
     0
 73
     0
 74
     0
  7

 75
     0
147
1.0
 76
     0
 77
     2
 78
   300
148
0.0
149
0.0
100
AcDbLayout
  1
Model
 70
     1
 71
     0
 10
0.0
 20
0.0
 11
12.0
 21
9.0
 12
0.0
 22
0.0
 32
0.0
 14
0.0
 24
0.0
 34
0.0
 15
0.0
 25
0.0
 35
0.0
146
0.0
 13
0.0
 23
0.0
 33
0.0
 16
1.0
 26
0.0
 36
0.0
 17
0.0
 27
1.0
 37
0.0
 76
     0
330
70
  0
MATERIAL
  5
19
102
{ACAD_XDICTIONARY
360
1A
102
}
102
{ACAD_REACTORS
330
10
102
}
330
10
100
AcDbMaterial
  1
ByBlock
 72
     0
 43
0.0208333333333333
 43
0.0
 43
0.0
 43
0.0
 43
0.0
 43
0.0208333333333333
 43
0.0
 43
0.0
 43
0.0
 43
0.0
 43
1.0
 43
0.0
 43
0.0
 43
0.0
 43
0.0
 43
1.0
 77
     0
 47
0.0208333333333333
 47
0.0
 47
0.0
 47
0.0
 47
0.0
 47
0.0208333333333333
 47
0.0
 47
0.0
 47
0.0
 47
0.0
 47
1.0
 47
0.0
 47
0.0
 47
0.0
 47
0.0
 47
1.0
171
     0
 49
0.0208333333333333
 49
0.0
 49
0.0
 49
0.0
 49
0.0
 49
0.0208333333333333
 49
0.0
 49
0.0
 49
0.0
 49
0.0
 49
1.0
 49
0.0
 49
0.0
 49
0.0
 49
0.0
 49
1.0
175
     0
142
0.0208333333333333
142
0.0
142
0.0
142
0.0
142
0.0
142
0.0208333333333333
142
0.0
142
0.0
142
0.0
142
0.0
142
1.0
142
0.0
142
0.0
142
0.0
142
0.0
142
1.0
179
     0
144
0.0208333333333333
144
0.0
144
0.0
144
0.0
144
0.0
144
0.0208333333333333
144
0.0
144
0.0
144
0.0
144
0.0
144
1.0
144
0.0
144
0.0
144
0.0
144
0.0
144
1.0
147
0.0208333333333333
147
0.0
147
0.0
147
0.0
147
0.0
147
0.0208333333333333
147
0.0
147
0.0
147
0.0
147
0.0
147
1.0
147
0.0
147
0.0
147
0.0
147
0.0
147
1.0
  0
MATERIAL
  5
11
102
{ACAD_XDICTIONARY
360
12
102
}
102
{ACAD_REACTORS
330
10
102
}
330
10
100
AcDbMaterial
  1
ByLayer
 72
     0
 43
0.0208333333333333
 43
0.0
 43
0.0
 43
0.0
 43
0.0
 43
0.0208333333333333
 43
0.0
 43
0.0
 43
0.0
 43
0.0
 43
1.0
 43
0.0
 43
0.0
 43
0.0
 43
0.0
 43
1.0
 77
     0
 47
0.0208333333333333
 47
0.0
 47
0.0
 47
0.0
 47
0.0
 47
0.0208333333333333
 47
0.0
 47
0.0
 47
0.0
 47
0.0
 47
1.0
 47
0.0
 47
0.0
 47
0.0
 47
0.0
 47
1.0
171
     0
 49
0.0208333333333333
 49
0.0
 49
0.0
 49
0.0
 49
0.0
 49
0.0208333333333333
 49
0.0
 49
0.0
 49
0.0
 49
0.0
 49
1.0
 49
0.0
 49
0.0
 49
0.0
 49
0.0
 49
1.0
175
     0
142
0.0208333333333333
142
0.0
142
0.0
142
0.0
142
0.0
142
0.0208333333333333
142
0.0
142
0.0
142
0.0
142
0.0
142
1.0
142
0.0
142
0.0
142
0.0
142
0.0
142
1.0
179
     0
144
0.0208333333333333
144
0.0
144
0.0
144
0.0
144
0.0
144
0.0208333333333333
144
0.0
144
0.0
144
0.0
144
0.0
144
1.0
144
0.0
144
0.0
144
0.0
144
0.0
144
1.0
147
0.0208333333333333
147
0.0
147
0.0
147
0.0
147
0.0
147
0.0208333333333333
147
0.0
147
0.0
147
0.0
147
0.0
147
1.0
147
0.0
147
0.0
147
0.0
147
0.0
147
1.0
  0
MATERIAL
  5
21
102
{ACAD_XDICTIONARY
360
22
102
}
102
{ACAD_REACTORS
330
10
102
}
330
10
100
AcDbMaterial
  1
Global
 72
     0
 43
0.0208333333333333
 43
0.0
 43
0.0
 43
0.0
 43
0.0
 43
0.0208333333333333
 43
0.0
 43
0.0
 43
0.0
 43
0.0
 43
1.0
 43
0.0
 43
0.0
 43
0.0
 43
0.0
 43
1.0
 77
     0
 47
0.0208333333333333
 47
0.0
 47
0.0
 47
0.0
 47
0.0
 47
0.0208333333333333
 47
0.0
 47
0.0
 47
0.0
 47
0.0
 47
1.0
 47
0.0
 47
0.0
 47
0.0
 47
0.0
 47
1.0
171
     0
 49
0.0208333333333333
 49
0.0
 49
0.0
 49
0.0
 49
0.0
 49
0.0208333333333333
 49
0.0
 49
0.0
 49
0.0
 49
0.0
 49
1.0
 49
0.0
 49
0.0
 49
0.0
 49
0.0
 49
1.0
175
     0
142
0.0208333333333333
142
0.0
142
0.0
142
0.0
142
0.0
142
0.0208333333333333
142
0.0
142
0.0
142
0.0
142
0.0
142
1.0
142
0.0
142
0.0
142
0.0
142
0.0
142
1.0
179
     0
144
0.0208333333333333
144
0.0
144
0.0
144
0.0
144
0.0
144
0.0208333333333333
144
0.0
144
0.0
144
0.0
144
0.0
144
1.0
144
0.0
144
0.0
144
0.0
144
0.0
144
1.0
147
0.0208333333333333
147
0.0
147
0.0
147
0.0
147
0.0
147
0.0208333333333333
147
0.0
147
0.0
147
0.0
147
0.0
147
1.0
147
0.0
147
0.0
147
0.0
147
0.0
147
1.0
  0
MLEADERSTYLE
  5
67
102
{ACAD_REACTORS
330
66
102
}
330
66
100
AcDbMLeaderStyle
179
     2
170
     2
171
     1
172
     0
 90
        2
 40
0.0
 41
0.0
173
     1
 91
-1056964608
340
5B
 92
       -2
290
     1
 42
0.09
291
     1
 43
0.36
  3
Standard
 44
0.18
300

342
55
174
     1
178
     6
175
     1
176
     0
 93
-1056964608
 45
0.18
292
     0
297
     0
 46
0.18
 94
-1056964608
 47
1.0
 49
1.0
140
1.0
293
     1
141
0.0
294
     1
177
     0
142
1.0
295
     1
296
     0
143
0.125
271
     0
272
     9
273
     9
298
     1
  0
MLINESTYLE
  5
60
102
{ACAD_REACTORS
330
5F
102
}
330
5F
100
AcDbMlineStyle
  2
STANDARD
 70
     0
  3

 62
   256
 51
90.0
 52
90.0
 71
     2
 49
0.5
 62
   256
  6
BYLAYER
 49
-0.5
 62
   256
  6
BYLAYER
  0
ACDBPLACEHOLDER
  5
F
102
{ACAD_REACTORS
330
E
102
}
330
E
  0
SCALE
  5
43
102
{ACAD_REACTORS
330
42
102
}
330
42
100
AcDbScale
 70
     0
300
1:1
140
1.0
141
1.0
290
     1
  0
SCALE
  5
44
102
{ACAD_REACTORS
330
42
102
}
330
42
100
AcDbScale
 70
     0
300
1/128" = 1'-0"
140
0.0078125
141
12.0
290
     0
  0
SCALE
  5
45
102
{ACAD_REACTORS
330
42
102
}
330
42
100
AcDbScale
 70
     0
300
1/64" = 1'-0"
140
0.015625
141
12.0
290
     0
  0
SCALE
  5
46
102
{ACAD_REACTORS
330
42
102
}
330
42
100
AcDbScale
 70
     0
300
1/32" = 1'-0"
140
0.03125
141
12.0
290
     0
  0
SCALE
  5
47
102
{ACAD_REACTORS
330
42
102
}
330
42
100
AcDbScale
 70
     0
300
1/16" = 1'-0"
140
0.0625
141
12.0
290
     0
  0
SCALE
  5
48
102
{ACAD_REACTORS
330
42
102
}
330
42
100
AcDbScale
 70
     0
300
3/32" = 1'-0"
140
0.09375
141
12.0
290
     0
  0
SCALE
  5
49
102
{ACAD_REACTORS
330
42
102
}
330
42
100
AcDbScale
 70
     0
300
1/8" = 1'-0"
140
0.125
141
12.0
290
     0
  0
SCALE
  5
4A
102
{ACAD_REACTORS
330
42
102
}
330
42
100
AcDbScale
 70
     0
300
3/16" = 1'-0"
140
0.1875
141
12.0
290
     0
  0
SCALE
  5
4B
102
{ACAD_REACTORS
330
42
102
}
330
42
100
AcDbScale
 70
     0
300
1/4" = 1'-0"
140
0.25
141
12.0
290
     0
  0
SCALE
  5
4C
102
{ACAD_REACTORS
330
42
102
}
330
42
100
AcDbScale
 70
     0
300
3/8" = 1'-0"
140
0.375
141
12.0
290
     0
  0
SCALE
  5
4D
102
{ACAD_REACTORS
330
42
102
}
330
42
100
AcDbScale
 70
     0
300
1/2" = 1'-0"
140
0.5
141
12.0
290
     0
  0
SCALE
  5
4E
102
{ACAD_REACTORS
330
42
102
}
330
42
100
AcDbScale
 70
     0
300
3/4" = 1'-0"
140
0.75
141
12.0
290
     0
  0
SCALE
  5
4F
102
{ACAD_REACTORS
330
42
102
}
330
42
100
AcDbScale
 70
     0
300
1" = 1'-0"
140
1.0
141
12.0
290
     0
  0
SCALE
  5
50
102
{ACAD_REACTORS
330
42
102
}
330
42
100
AcDbScale
 70
     0
300
1-1/2" = 1'-0"
140
1.5
141
12.0
290
     0
  0
SCALE
  5
51
102
{ACAD_REACTORS
330
42
102
}
330
42
100
AcDbScale
 70
     0
300
3" = 1'-0"
140
3.0
141
12.0
290
     0
  0
SCALE
  5
52
102
{ACAD_REACTORS
330
42
102
}
330
42
100
AcDbScale
 70
     0
300
6" = 1'-0"
140
6.0
141
12.0
290
     0
  0
SCALE
  5
53
102
{ACAD_REACTORS
330
42
102
}
330
42
100
AcDbScale
 70
     0
300
1'-0" = 1'-0"
140
12.0
141
12.0
290
     0
  0
ACDBSECTIONVIEWSTYLE
  5
69
102
{ACAD_REACTORS
330
68
102
}
330
68
100
AcDbModelDocViewStyle
 70
     0
  3
Imperial24
290
     1
300
Imperial24
 90
        0
100
AcDbSectionViewStyle
 70
     0
 71
     0
 90
       78
 71
     1
340
55
 62
   256
 40
0.24
340
0
340
0
 62
   256
 40
0.24
300
I, O, Q, S, X, Z
 40
0.48
 90
        3
 40
0.18
 90
        1
 71
     2
340
5D
 90
       25
 62
   256
340
5D
 90
       50
 62
   256
 40
0.24
 40
0.0
 40
0.24
 71
     3
340
55
 62
   256
 40
0.24
 90
        1
 40
0.75
 90
        1
300
%<\AcVar ViewType \f "%tc1">% %<\AcVar ViewSectionStartId>%-%<\AcVar ViewSectionEndId>%\PSCALE %<\AcVar ViewScale \f "%sn">%
 71
     4
 62
   256
 62
   257
300
ANSI31
 40
1.0
 90
        0
290
     0
290
     0
 90
        6
 40
0.0
 40
1.570796326794896
 40
0.2617993877991494
 40
1.308996938995747
 40
-0.2617993877991494
 40
1.832595714594046
  0
TABLESTYLE
  5
65
102
{ACAD_XDICTIONARY
360
BC
102
}
102
{ACAD_REACTORS
330
64
102
}
330
64
100
AcDbTableStyle
280
     0
  3
Standard
 70
     0
 71
     0
 40
0.06
 41
0.06
280
     0
281
     0
  7
Standard
140
0.18
170
     2
 62
     0
 63
     7
283
     0
 90
      512
 91
        0
  1

274
    -2
284
     1
 64
     0
275
    -2
285
     1
 65
     0
276
    -2
286
     1
 66
     0
277
    -2
287
     1
 67
     0
278
    -2
288
     1
 68
     0
279
    -2
289
     1
 69
     0
  7
Standard
140
0.25
170
     5
 62
     0
 63
     7
283
     0
 90
      512
 91
        0
  1

274
    -2
284
     1
 64
     0
275
    -2
285
     1
 65
     0
276
    -2
286
     1
 66
     0
277
    -2
287
     1
 67
     0
278
    -2
288
     1
 68
     0
279
    -2
289
     1
 69
     0
  7
Standard
140
0.18
170
     5
 62
     0
 63
     7
283
     0
 90
      512
 91
        0
  1

274
    -2
284
     1
 64
     0
275
    -2
285
     1
 65
     0
276
    -2
286
     1
 66
     0
277
    -2
287
     1
 67
     0
278
    -2
288
     1
 68
     0
279
    -2
289
     1
 69
     0
  0
VISUALSTYLE
  5
2F
102
{ACAD_REACTORS
330
29
102
}
330
29
100
AcDbVisualStyle
  2
2dWireframe
 70
     4
177
     3
291
     0
 70
    58
 90
        0
176
     1
 90
        2
176
     1
 90
        0
176
     1
 90
        0
176
     1
 40
0.6
176
     1
 40
30.0
176
     1
 62
     7
420
 16777215
176
     1
 90
        1
176
     1
 90
        4
176
     1
 62
     7
176
     1
 62
   257
176
     1
 90
        1
176
     1
 90
        1
176
     1
 40
1.0
176
     1
 90
        0
176
     1
 62
   257
176
     1
 40
1.0
176
     1
 90
        1
176
     1
 90
        6
176
     1
 90
        2
176
     1
 62
     7
176
     1
 90
        5
176
     1
 90
        0
176
     1
 90
        0
176
     1
290
     0
176
     1
 90
        1
176
     1
 40
0.0
176
     1
 90
        0
176
     1
290
     1
176
     1
290
     1
176
     1
290
     0
176
     1
290
     0
176
     1
290
     0
176
     1
290
     0
176
     1
290
     0
176
     1
290
     0
176
     1
290
     0
176
     1
 90
       50
176
     1
 40
0.0
176
     1
 40
1.0
176
     1
 90
        0
176
     1
 62
    18
420
        0
176
     1
 90
       50
176
     1
 90
        3
176
     1
 62
     5
420
      255
176
     1
290
     0
176
     1
 90
       50
176
     1
 90
       50
176
     1
 90
       50
176
     1
290
     0
176
     1
 90
       50
176
     1
 62
   256
176
     0
 40
1.0
176
     0
 90
        2
176
     1
  1
strokes_ogs.tif
176
     1
290
     0
176
     1
 40
1.0
176
     1
 40
1.0
176
     1
  0
VISUALSTYLE
  5
2E
102
{ACAD_REACTORS
330
29
102
}
330
29
100
AcDbVisualStyle
  2
Basic
 70
     7
177
     3
291
     1
 70
    58
 90
        1
176
     1
 90
        0
176
     1
 90
        1
176
     1
 90
        0
176
     1
 40
0.6
176
     1
 40
30.0
176
     1
 62
     7
420
 16777215
176
     1
 90
        0
176
     1
 90
        4
176
     1
 62
     7
176
     1
 62
   257
176
     1
 90
        1
176
     1
 90
        1
176
     1
 40
1.0
176
     1
 90
        8
176
     1
 62
     7
176
     1
 40
1.0
176
     1
 90
        1
176
     1
 90
        6
176
     1
 90
        2
176
     1
 62
     7
176
     1
 90
        5
176
     1
 90
        0
176
     1
 90
        0
176
     1
290
     0
176
     1
 90
        1
176
     1
 40
0.0
176
     1
 90
        0
176
     1
290
     0
176
     1
290
     1
176
     1
290
     1
176
     1
290
     0
176
     1
290
     0
176
     1
290
     0
176
     1
290
     0
176
     1
290
     0
176
     1
290
     0
176
     1
 90
       50
176
     1
 40
0.0
176
     1
 40
1.0
176
     1
 90
        0
176
     1
 62
    18
420
        0
176
     1
 90
       50
176
     1
 90
        3
176
     1
 62
     5
420
      255
176
     1
290
     0
176
     1
 90
       50
176
     1
 90
       50
176
     1
 90
       50
176
     1
290
     0
176
     1
 90
       50
176
     1
 62
   256
176
     0
 40
1.0
176
     0
 90
        2
176
     1
  1
strokes_ogs.tif
176
     1
290
     0
176
     1
 40
1.0
176
     1
 40
1.0
176
     1
  0
VISUALSTYLE
  5
35
102
{ACAD_REACTORS
330
29
102
}
330
29
100
AcDbVisualStyle
  2
Brighten
 70
    12
177
     3
291
     1
 70
    58
 90
        2
176
     1
 90
        2
176
     1
 90
        0
176
     1
 90
        0
176
     1
 40
0.6
176
     1
 40
30.0
176
     1
 62
     7
420
 16777215
176
     1
 90
        1
176
     1
 90
        4
176
     1
 62
     7
176
     1
 62
   257
176
     1
 90
        1
176
     1
 90
        1
176
     1
 40
1.0
176
     1
 90
        8
176
     1
 62
     7
176
     1
 40
1.0
176
     1
 90
        1
176
     1
 90
        6
176
     1
 90
        2
176
     1
 62
     7
176
     1
 90
        5
176
     1
 90
        0
176
     1
 90
        0
176
     1
290
     0
176
     1
 90
        1
176
     1
 40
50.0
176
     1
 90
        0
176
     1
290
     0
176
     1
290
     1
176
     1
290
     1
176
     1
290
     0
176
     1
290
     0
176
     1
290
     0
176
     1
290
     0
176
     1
290
     0
176
     1
290
     0
176
     1
 90
       50
176
     1
 40
0.0
176
     1
 40
1.0
176
     1
 90
        0
176
     1
 62
    18
420
        0
176
     1
 90
       50
176
     1
 90
        3
176
     1
 62
     5
420
      255
176
     1
290
     0
176
     1
 90
       50
176
     1
 90
       50
176
     1
 90
       50
176
     1
290
     0
176
     1
 90
       50
176
     1
 62
   256
176
     0
 40
1.0
176
     0
 90
        2
176
     1
  1
strokes_ogs.tif
176
     1
290
     0
176
     1
 40
1.0
176
     1
 40
1.0
176
     1
  0
VISUALSTYLE
  5
39
102
{ACAD_REACTORS
330
29
102
}
330
29
100
AcDbVisualStyle
  2
ColorChange
 70
    16
177
     3
291
     1
 70
    58
 90
        2
176
     1
 90
        2
176
     1
 90
        3
176
     1
 90
        0
176
     1
 40
0.6
176
     1
 40
30.0
176
     1
 62
     8
420
  8421504
176
     1
 90
        1
176
     1
 90
        4
176
     1
 62
     7
176
     1
 62
   257
176
     1
 90
        1
176
     1
 90
        1
176
     1
 40
1.0
176
     1
 90
        8
176
     1
 62
     8
420
  8421504
176
     1
 40
1.0
176
     1
 90
        1
176
     1
 90
        6
176
     1
 90
        2
176
     1
 62
     7
176
     1
 90
        5
176
     1
 90
        0
176
     1
 90
        0
176
     1
290
     0
176
     1
 90
        1
176
     1
 40
0.0
176
     1
 90
        0
176
     1
290
     0
176
     1
290
     1
176
     1
290
     1
176
     1
290
     0
176
     1
290
     0
176
     1
290
     0
176
     1
290
     0
176
     1
290
     0
176
     1
290
     0
176
     1
 90
       50
176
     1
 40
0.0
176
     1
 40
1.0
176
     1
 90
        0
176
     1
 62
    18
420
        0
176
     1
 90
       50
176
     1
 90
        3
176
     1
 62
     5
420
      255
176
     1
290
     0
176
     1
 90
       50
176
     1
 90
       50
176
     1
 90
       50
176
     1
290
     0
176
     1
 90
       50
176
     1
 62
   256
176
     0
 40
1.0
176
     0
 90
        2
176
     1
  1
strokes_ogs.tif
176
     1
290
     0
176
     1
 40
1.0
176
     1
 40
1.0
176
     1
  0
VISUALSTYLE
  5
32
102
{ACAD_REACTORS
330
29
102
}
330
29
100
AcDbVisualStyle
  2
Conceptual
 70
     9
177
     3
291
     0
 70
    58
 90
        3
176
     1
 90
        2
176
     1
 90
        0
176
     1
 90
        0
176
     1
 40
0.6
176
     1
 40
30.0
176
     1
 62
     7
420
 16777215
176
     1
 90
        2
176
     1
 90
        2
176
     1
 62
     7
176
     1
 62
   257
176
     1
 90
        1
176
     1
 90
        1
176
     1
 40
179.0
176
     1
 90
        8
176
     1
 62
     7
176
     1
 40
1.0
176
     1
 90
        1
176
     1
 90
        6
176
     1
 90
        2
176
     1
 62
     7
176
     1
 90
        3
176
     1
 90
        0
176
     1
 90
        0
176
     1
290
     0
176
     1
 90
        1
176
     1
 40
0.0
176
     1
 90
        0
176
     1
290
     0
176
     1
290
     1
176
     1
290
     1
176
     1
290
     0
176
     1
290
     0
176
     1
290
     0
176
     1
290
     0
176
     1
290
     0
176
     1
290
     0
176
     1
 90
       50
176
     1
 40
0.0
176
     1
 40
1.0
176
     1
 90
        0
176
     1
 62
    18
420
        0
176
     1
 90
       50
176
     1
 90
        3
176
     1
 62
     5
420
      255
176
     1
290
     0
176
     1
 90
       50
176
     1
 90
       50
176
     1
 90
       50
176
     1
290
     0
176
     1
 90
       50
176
     1
 62
   256
176
     0
 40
1.0
176
     0
 90
        2
176
     1
  1
strokes_ogs.tif
176
     1
290
     0
176
     1
 40
1.0
176
     1
 40
1.0
176
     1
  0
VISUALSTYLE
  5
34
102
{ACAD_REACTORS
330
29
102
}
330
29
100
AcDbVisualStyle
  2
Dim
 70
    11
177
     3
291
     1
 70
    58
 90
        2
176
     1
 90
        2
176
     1
 90
        0
176
     1
 90
        0
176
     1
 40
0.6
176
     1
 40
30.0
176
     1
 62
     7
420
 16777215
176
     1
 90
        1
176
     1
 90
        4
176
     1
 62
     7
176
     1
 62
   257
176
     1
 90
        1
176
     1
 90
        1
176
     1
 40
1.0
176
     1
 90
        8
176
     1
 62
     7
176
     1
 40
1.0
176
     1
 90
        1
176
     1
 90
        6
176
     1
 90
        2
176
     1
 62
     7
176
     1
 90
        5
176
     1
 90
        0
176
     1
 90
        0
176
     1
290
     0
176
     1
 90
        1
176
     1
 40
-50.0
176
     1
 90
        0
176
     1
290
     0
176
     1
290
     1
176
     1
290
     1
176
     1
290
     0
176
     1
290
     0
176
     1
290
     0
176
     1
290
     0
176
     1
290
     0
176
     1
290
     0
176
     1
 90
       50
176
     1
 40
0.0
176
     1
 40
1.0
176
     1
 90
        0
176
     1
 62
    18
420
        0
176
     1
 90
       50
176
     1
 90
        3
176
     1
 62
     5
420
      255
176
     1
290
     0
176
     1
 90
       50
176
     1
 90
       50
176
     1
 90
       50
176
     1
290
     0
176
     1
 90
       50
176
     1
 62
   256
176
     0
 40
1.0
176
     0
 90
        2
176
     1
  1
strokes_ogs.tif
176
     1
290
     0
176
     1
 40
1.0
176
     1
 40
1.0
176
     1
  0
VISUALSTYLE
  5
41
102
{ACAD_REACTORS
330
29
102
}
330
29
100
AcDbVisualStyle
  2
EdgeColorOff
 70
    22
177
     3
291
     1
 70
    58
 90
        2
176
     0
 90
        2
176
     0
 90
        0
176
     0
 90
        0
176
     0
 40
0.6
176
     0
 40
30.0
176
     0
 62
     7
420
 16777215
176
     0
 90
        1
176
     0
 90
        4
176
     0
 62
     7
176
     0
 62
   257
176
     0
 90
        1
176
     0
 90
        1
176
     0
 40
1.0
176
     0
 90
        8
176
     2
 62
     7
176
     0
 40
1.0
176
     0
 90
        1
176
     0
 90
        6
176
     0
 90
        2
176
     0
 62
     7
176
     0
 90
        5
176
     0
 90
        0
176
     0
 90
        0
176
     0
290
     0
176
     0
 90
        1
176
     0
 40
0.0
176
     0
 90
        0
176
     0
290
     0
176
     0
290
     1
176
     0
290
     1
176
     0
290
     0
176
     0
290
     0
176
     0
290
     0
176
     0
290
     0
176
     0
290
     0
176
     0
290
     0
176
     0
 90
       50
176
     0
 40
0.0
176
     0
 40
1.0
176
     0
 90
        0
176
     0
 62
    18
420
        0
176
     0
 90
       50
176
     0
 90
        3
176
     0
 62
     5
420
      255
176
     0
290
     0
176
     0
 90
       50
176
     0
 90
       50
176
     0
 90
       50
176
     0
290
     0
176
     0
 90
       50
176
     0
 62
   256
176
     0
 40
1.0
176
     0
 90
        2
176
     0
  1
strokes_ogs.tif
176
     0
290
     0
176
     0
 40
1.0
176
     0
 40
1.0
176
     0
  0
VISUALSTYLE
  5
38
102
{ACAD_REACTORS
330
29
102
}
330
29
100
AcDbVisualStyle
  2
Facepattern
 70
    15
177
     3
291
     1
 70
    58
 90
        2
176
     1
 90
        2
176
     1
 90
        0
176
     1
 90
        0
176
     1
 40
0.6
176
     1
 40
30.0
176
     1
 62
     7
420
 16777215
176
     1
 90
        1
176
     1
 90
        4
176
     1
 62
     7
176
     1
 62
   257
176
     1
 90
        1
176
     1
 90
        1
176
     1
 40
1.0
176
     1
 90
        8
176
     1
 62
     7
176
     1
 40
1.0
176
     1
 90
        1
176
     1
 90
        6
176
     1
 90
        2
176
     1
 62
     7
176
     1
 90
        5
176
     1
 90
        0
176
     1
 90
        0
176
     1
290
     0
176
     1
 90
        1
176
     1
 40
0.0
176
     1
 90
        0
176
     1
290
     0
176
     1
290
     1
176
     1
290
     1
176
     1
290
     0
176
     1
290
     0
176
     1
290
     0
176
     1
290
     0
176
     1
290
     0
176
     1
290
     0
176
     1
 90
       50
176
     1
 40
0.0
176
     1
 40
1.0
176
     1
 90
        0
176
     1
 62
    18
420
        0
176
     1
 90
       50
176
     1
 90
        3
176
     1
 62
     5
420
      255
176
     1
290
     0
176
     1
 90
       50
176
     1
 90
       50
176
     1
 90
       50
176
     1
290
     0
176
     1
 90
       50
176
     1
 62
   256
176
     0
 40
1.0
176
     0
 90
        2
176
     1
  1
strokes_ogs.tif
176
     1
290
     0
176
     1
 40
1.0
176
     1
 40
1.0
176
     1
  0
VISUALSTYLE
  5
2A
102
{ACAD_REACTORS
330
29
102
}
330
29
100
AcDbVisualStyle
  2
Flat
 70
     0
177
     3
291
     1
 70
    58
 90
        2
176
     1
 90
        1
176
     1
 90
        1
176
     1
 90
        2
176
     1
 40
0.6
176
     1
 40
30.0
176
     1
 62
     7
420
 16777215
176
     1
 90
        0
176
     1
 90
        0
176
     1
 62
     7
176
     1
 62
   257
176
     1
 90
        1
176
     1
 90
        1
176
     1
 40
1.0
176
     1
 90
        8
176
     1
 62
     7
176
     1
 40
1.0
176
     1
 90
        1
176
     1
 90
        6
176
     1
 90
        2
176
     1
 62
     7
176
     1
 90
        5
176
     1
 90
        0
176
     1
 90
        0
176
     1
290
     0
176
     1
 90
       13
176
     1
 40
0.0
176
     1
 90
        0
176
     1
290
     0
176
     1
290
     1
176
     1
290
     1
176
     1
290
     0
176
     1
290
     0
176
     1
290
     0
176
     1
290
     0
176
     1
290
     0
176
     1
290
     0
176
     1
 90
       50
176
     1
 40
0.0
176
     1
 40
1.0
176
     1
 90
        0
176
     1
 62
    18
420
        0
176
     1
 90
       50
176
     1
 90
        3
176
     1
 62
     5
420
      255
176
     1
290
     0
176
     1
 90
       50
176
     1
 90
       50
176
     1
 90
       50
176
     1
290
     0
176
     1
 90
       50
176
     1
 62
   256
176
     0
 40
1.0
176
     0
 90
        2
176
     1
  1
strokes_ogs.tif
176
     1
290
     0
176
     1
 40
1.0
176
     1
 40
1.0
176
     1
  0
VISUALSTYLE
  5
2B
102
{ACAD_REACTORS
330
29
102
}
330
29
100
AcDbVisualStyle
  2
FlatWithEdges
 70
     1
177
     3
291
     1
 70
    58
 90
        2
176
     1
 90
        1
176
     1
 90
        1
176
     1
 90
        2
176
     1
 40
0.6
176
     1
 40
30.0
176
     1
 62
     7
420
 16777215
176
     1
 90
        1
176
     1
 90
        0
176
     1
 62
     7
176
     1
 62
   257
176
     1
 90
        1
176
     1
 90
        1
176
     1
 40
1.0
176
     1
 90
        0
176
     1
 62
   257
176
     1
 40
1.0
176
     1
 90
        1
176
     1
 90
        6
176
     1
 90
        2
176
     1
 62
     7
176
     1
 90
        5
176
     1
 90
        0
176
     1
 90
        0
176
     1
290
     0
176
     1
 90
       13
176
     1
 40
0.0
176
     1
 90
        0
176
     1
290
     0
176
     1
290
     1
176
     1
290
     1
176
     1
290
     0
176
     1
290
     0
176
     1
290
     0
176
     1
290
     0
176
     1
290
     0
176
     1
290
     0
176
     1
 90
       50
176
     1
 40
0.0
176
     1
 40
1.0
176
     1
 90
        0
176
     1
 62
    18
420
        0
176
     1
 90
       50
176
     1
 90
        3
176
     1
 62
     5
420
      255
176
     1
290
     0
176
     1
 90
       50
176
     1
 90
       50
176
     1
 90
       50
176
     1
290
     0
176
     1
 90
       50
176
     1
 62
   256
176
     0
 40
1.0
176
     0
 90
        2
176
     1
  1
strokes_ogs.tif
176
     1
290
     0
176
     1
 40
1.0
176
     1
 40
1.0
176
     1
  0
VISUALSTYLE
  5
2C
102
{ACAD_REACTORS
330
29
102
}
330
29
100
AcDbVisualStyle
  2
Gouraud
 70
     2
177
     3
291
     1
 70
    58
 90
        2
176
     1
 90
        2
176
     1
 90
        1
176
     1
 90
        2
176
     1
 40
0.6
176
     1
 40
30.0
176
     1
 62
     7
420
 16777215
176
     1
 90
        0
176
     1
 90
        0
176
     1
 62
     7
176
     1
 62
   257
176
     1
 90
        1
176
     1
 90
        1
176
     1
 40
1.0
176
     1
 90
        0
176
     1
 62
     7
176
     1
 40
1.0
176
     1
 90
        1
176
     1
 90
        6
176
     1
 90
        2
176
     1
 62
     7
176
     1
 90
        5
176
     1
 90
        0
176
     1
 90
        0
176
     1
290
     0
176
     1
 90
       13
176
     1
 40
0.0
176
     1
 90
        0
176
     1
290
     0
176
     1
290
     1
176
     1
290
     1
176
     1
290
     0
176
     1
290
     0
176
     1
290
     0
176
     1
290
     0
176
     1
290
     0
176
     1
290
     0
176
     1
 90
       50
176
     1
 40
0.0
176
     1
 40
1.0
176
     1
 90
        0
176
     1
 62
    18
420
        0
176
     1
 90
       50
176
     1
 90
        3
176
     1
 62
     5
420
      255
176
     1
290
     0
176
     1
 90
       50
176
     1
 90
       50
176
     1
 90
       50
176
     1
290
     0
176
     1
 90
       50
176
     1
 62
   256
176
     0
 40
1.0
176
     0
 90
        2
176
     1
  1
strokes_ogs.tif
176
     1
290
     0
176
     1
 40
1.0
176
     1
 40
1.0
176
     1
  0
VISUALSTYLE
  5
2D
102
{ACAD_REACTORS
330
29
102
}
330
29
100
AcDbVisualStyle
  2
GouraudWithEdges
 70
     3
177
     3
291
     1
 70
    58
 90
        2
176
     1
 90
        2
176
     1
 90
        1
176
     1
 90
        2
176
     1
 40
0.6
176
     1
 40
30.0
176
     1
 62
     7
420
 16777215
176
     1
 90
        1
176
     1
 90
        0
176
     1
 62
     7
176
     1
 62
   257
176
     1
 90
        1
176
     1
 90
        1
176
     1
 40
1.0
176
     1
 90
        0
176
     1
 62
   257
176
     1
 40
1.0
176
     1
 90
        1
176
     1
 90
        6
176
     1
 90
        2
176
     1
 62
     7
176
     1
 90
        5
176
     1
 90
        0
176
     1
 90
        0
176
     1
290
     0
176
     1
 90
       13
176
     1
 40
0.0
176
     1
 90
        0
176
     1
290
     0
176
     1
290
     1
176
     1
290
     1
176
     1
290
     0
176
     1
290
     0
176
     1
290
     0
176
     1
290
     0
176
     1
290
     0
176
     1
290
     0
176
     1
 90
       50
176
     1
 40
0.0
176
     1
 40
1.0
176
     1
 90
        0
176
     1
 62
    18
420
        0
176
     1
 90
       50
176
     1
 90
        3
176
     1
 62
     5
420
      255
176
     1
290
     0
176
     1
 90
       50
176
     1
 90
       50
176
     1
 90
       50
176
     1
290
     0
176
     1
 90
       50
176
     1
 62
   256
176
     0
 40
1.0
176
     0
 90
        2
176
     1
  1
strokes_ogs.tif
176
     1
290
     0
176
     1
 40
1.0
176
     1
 40
1.0
176
     1
  0
VISUALSTYLE
  5
31
102
{ACAD_REACTORS
330
29
102
}
330
29
100
AcDbVisualStyle
  2
Hidden
 70
     6
177
     3
291
     0
 70
    58
 90
        1
176
     1
 90
        2
176
     1
 90
        2
176
     1
 90
        0
176
     1
 40
0.6
176
     1
 40
30.0
176
     1
 62
     7
420
 16777215
176
     1
 90
        2
176
     1
 90
        2
176
     1
 62
     7
176
     1
 62
   257
176
     1
 90
        2
176
     1
 90
        1
176
     1
 40
40.0
176
     1
 90
        0
176
     1
 62
   257
176
     1
 40
1.0
176
     1
 90
        1
176
     1
 90
        6
176
     1
 90
        2
176
     1
 62
     7
176
     1
 90
        3
176
     1
 90
        0
176
     1
 90
        0
176
     1
290
     0
176
     1
 90
        1
176
     1
 40
0.0
176
     1
 90
        0
176
     1
290
     0
176
     1
290
     1
176
     1
290
     1
176
     1
290
     0
176
     1
290
     0
176
     1
290
     0
176
     1
290
     0
176
     1
290
     0
176
     1
290
     0
176
     1
 90
       50
176
     1
 40
0.0
176
     1
 40
1.0
176
     1
 90
        0
176
     1
 62
    18
420
        0
176
     1
 90
       50
176
     1
 90
        3
176
     1
 62
     5
420
      255
176
     1
290
     0
176
     1
 90
       50
176
     1
 90
       50
176
     1
 90
       50
176
     1
290
     0
176
     1
 90
       50
176
     1
 62
   256
176
     0
 40
1.0
176
     0
 90
        2
176
     1
  1
strokes_ogs.tif
176
     1
290
     0
176
     1
 40
1.0
176
     1
 40
1.0
176
     1
  0
VISUALSTYLE
  5
3F
102
{ACAD_REACTORS
330
29
102
}
330
29
100
AcDbVisualStyle
  2
JitterOff
 70
    20
177
     3
291
     1
 70
    58
 90
        2
176
     0
 90
        2
176
     0
 90
        0
176
     0
 90
        0
176
     0
 40
0.6
176
     0
 40
30.0
176
     0
 62
     7
420
 16777215
176
     0
 90
        1
176
     0
 90
        4
176
     0
 62
     7
176
     0
 62
   257
176
     0
 90
        1
176
     0
 90
        1
176
     0
 40
1.0
176
     0
 90
       10
176
     2
 62
     7
176
     0
 40
1.0
176
     0
 90
        1
176
     0
 90
        6
176
     0
 90
        2
176
     0
 62
     7
176
     0
 90
        5
176
     0
 90
        0
176
     0
 90
        0
176
     0
290
     0
176
     0
 90
        1
176
     0
 40
0.0
176
     0
 90
        0
176
     0
290
     0
176
     0
290
     1
176
     0
290
     1
176
     0
290
     0
176
     0
290
     0
176
     0
290
     0
176
     0
290
     0
176
     0
290
     0
176
     0
290
     0
176
     0
 90
       50
176
     0
 40
0.0
176
     0
 40
1.0
176
     0
 90
        0
176
     0
 62
    18
420
        0
176
     0
 90
       50
176
     0
 90
        3
176
     0
 62
     5
420
      255
176
     0
290
     0
176
     0
 90
       50
176
     0
 90
       50
176
     0
 90
       50
176
     0
290
     0
176
     0
 90
       50
176
     0
 62
   256
176
     0
 40
1.0
176
     0
 90
        2
176
     0
  1
strokes_ogs.tif
176
     0
290
     0
176
     0
 40
1.0
176
     0
 40
1.0
176
     0
  0
VISUALSTYLE
  5
37
102
{ACAD_REACTORS
330
29
102
}
330
29
100
AcDbVisualStyle
  2
Linepattern
 70
    14
177
     3
291
     1
 70
    58
 90
        2
176
     1
 90
        2
176
     1
 90
        0
176
     1
 90
        0
176
     1
 40
0.6
176
     1
 40
30.0
176
     1
 62
     7
420
 16777215
176
     1
 90
        1
176
     1
 90
        4
176
     1
 62
     7
176
     1
 62
   257
176
     1
 90
        7
176
     1
 90
        7
176
     1
 40
1.0
176
     1
 90
        8
176
     1
 62
     7
176
     1
 40
1.0
176
     1
 90
        1
176
     1
 90
        6
176
     1
 90
        2
176
     1
 62
     7
176
     1
 90
        5
176
     1
 90
        0
176
     1
 90
        0
176
     1
290
     0
176
     1
 90
        1
176
     1
 40
0.0
176
     1
 90
        0
176
     1
290
     0
176
     1
290
     1
176
     1
290
     1
176
     1
290
     0
176
     1
290
     0
176
     1
290
     0
176
     1
290
     0
176
     1
290
     0
176
     1
290
     0
176
     1
 90
       50
176
     1
 40
0.0
176
     1
 40
1.0
176
     1
 90
        0
176
     1
 62
    18
420
        0
176
     1
 90
       50
176
     1
 90
        3
176
     1
 62
     5
420
      255
176
     1
290
     0
176
     1
 90
       50
176
     1
 90
       50
176
     1
 90
       50
176
     1
290
     0
176
     1
 90
       50
176
     1
 62
   256
176
     0
 40
1.0
176
     0
 90
        2
176
     1
  1
strokes_ogs.tif
176
     1
290
     0
176
     1
 40
1.0
176
     1
 40
1.0
176
     1
  0
VISUALSTYLE
  5
40
102
{ACAD_REACTORS
330
29
102
}
330
29
100
AcDbVisualStyle
  2
OverhangOff
 70
    21
177
     3
291
     1
 70
    58
 90
        2
176
     0
 90
        2
176
     0
 90
        0
176
     0
 90
        0
176
     0
 40
0.6
176
     0
 40
30.0
176
     0
 62
     7
420
 16777215
176
     0
 90
        1
176
     0
 90
        4
176
     0
 62
     7
176
     0
 62
   257
176
     0
 90
        1
176
     0
 90
        1
176
     0
 40
1.0
176
     0
 90
        9
176
     2
 62
     7
176
     0
 40
1.0
176
     0
 90
        1
176
     0
 90
        6
176
     0
 90
        2
176
     0
 62
     7
176
     0
 90
        5
176
     0
 90
        0
176
     0
 90
        0
176
     0
290
     0
176
     0
 90
        1
176
     0
 40
0.0
176
     0
 90
        0
176
     0
290
     0
176
     0
290
     1
176
     0
290
     1
176
     0
290
     0
176
     0
290
     0
176
     0
290
     0
176
     0
290
     0
176
     0
290
     0
176
     0
290
     0
176
     0
 90
       50
176
     0
 40
0.0
176
     0
 40
1.0
176
     0
 90
        0
176
     0
 62
    18
420
        0
176
     0
 90
       50
176
     0
 90
        3
176
     0
 62
     5
420
      255
176
     0
290
     0
176
     0
 90
       50
176
     0
 90
       50
176
     0
 90
       50
176
     0
290
     0
176
     0
 90
       50
176
     0
 62
   256
176
     0
 40
1.0
176
     0
 90
        2
176
     0
  1
strokes_ogs.tif
176
     0
290
     0
176
     0
 40
1.0
176
     0
 40
1.0
176
     0
  0
VISUALSTYLE
  5
33
102
{ACAD_REACTORS
330
29
102
}
330
29
100
AcDbVisualStyle
  2
Realistic
 70
     8
177
     3
291
     0
 70
    58
 90
        2
176
     1
 90
        3
176
     1
 90
        0
176
     1
 90
        2
176
     1
 40
0.6
176
     1
 40
30.0
176
     1
 62
     7
420
 16777215
176
     1
 90
        0
176
     1
 90
        0
176
     1
 62
     7
176
     1
 62
   257
176
     1
 90
        1
176
     1
 90
        1
176
     1
 40
1.0
176
     1
 90
        8
176
     1
 62
   257
176
     1
 40
1.0
176
     1
 90
        1
176
     1
 90
        6
176
     1
 90
        2
176
     1
 62
     7
176
     1
 90
        3
176
     1
 90
        0
176
     1
 90
        0
176
     1
290
     0
176
     1
 90
       13
176
     1
 40
0.0
176
     1
 90
        0
176
     1
290
     0
176
     1
290
     1
176
     1
290
     1
176
     1
290
     0
176
     1
290
     0
176
     1
290
     0
176
     1
290
     0
176
     1
290
     0
176
     1
290
     0
176
     1
 90
       50
176
     1
 40
0.0
176
     1
 40
1.0
176
     1
 90
        0
176
     1
 62
    18
420
        0
176
     1
 90
       50
176
     1
 90
        3
176
     1
 62
     5
420
      255
176
     1
290
     0
176
     1
 90
       50
176
     1
 90
       50
176
     1
 90
       50
176
     1
290
     0
176
     1
 90
       50
176
     1
 62
   256
176
     0
 40
1.0
176
     0
 90
        2
176
     1
  1
strokes_ogs.tif
176
     1
290
     0
176
     1
 40
1.0
176
     1
 40
1.0
176
     1
  0
VISUALSTYLE
  5
3E
102
{ACAD_REACTORS
330
29
102
}
330
29
100
AcDbVisualStyle
  2
Shaded
 70
    27
177
     3
291
     0
 70
    58
 90
        2
176
     1
 90
        2
176
     1
 90
        1
176
     1
 90
        2
176
     1
 40
0.6
176
     1
 40
30.0
176
     1
 62
     7
420
 16777215
176
     1
 90
        0
176
     1
 90
        4
176
     1
 62
     7
176
     1
 62
   257
176
     1
 90
        1
176
     1
 90
        1
176
     1
 40
1.0
176
     1
 90
        8
176
     1
 62
   257
176
     1
 40
1.0
176
     1
 90
        1
176
     1
 90
        6
176
     1
 90
        2
176
     1
 62
     8
420
  7895160
176
     1
 90
        3
176
     1
 90
        0
176
     1
 90
        0
176
     1
290
     0
176
     1
 90
        5
176
     1
 40
0.0
176
     1
 90
        0
176
     1
290
     0
176
     1
290
     1
176
     1
290
     1
176
     1
290
     0
176
     1
290
     0
176
     1
290
     0
176
     1
290
     0
176
     1
290
     0
176
     1
290
     0
176
     1
 90
       50
176
     1
 40
0.0
176
     1
 40
1.0
176
     1
 90
        0
176
     1
 62
    18
420
        0
176
     1
 90
       50
176
     1
 90
        3
176
     1
 62
     5
420
      255
176
     1
290
     0
176
     1
 90
       50
176
     1
 90
       50
176
     1
 90
       50
176
     1
290
     0
176
     1
 90
       50
176
     1
 62
   256
176
     0
 40
1.0
176
     0
 90
        2
176
     1
  1
strokes_ogs.tif
176
     1
290
     0
176
     1
 40
1.0
176
     1
 40
1.0
176
     1
  0
VISUALSTYLE
  5
3D
102
{ACAD_REACTORS
330
29
102
}
330
29
100
AcDbVisualStyle
  2
Shaded with edges
 70
    26
177
     3
291
     0
 70
    58
 90
        2
176
     1
 90
        2
176
     1
 90
        1
176
     1
 90
        2
176
     1
 40
0.6
176
     1
 40
30.0
176
     1
 62
     7
420
 16777215
176
     1
 90
        1
176
     1
 90
        2
176
     1
 62
     7
176
     1
 62
   257
176
     1
 90
        2
176
     1
 90
        1
176
     1
 40
1.0
176
     1
 90
        8
176
     1
 62
   257
176
     1
 40
1.0
176
     1
 90
        1
176
     1
 90
        6
176
     1
 90
        2
176
     1
 62
     7
176
     1
 90
        3
176
     1
 90
        0
176
     1
 90
        0
176
     1
290
     0
176
     1
 90
        5
176
     1
 40
0.0
176
     1
 90
        0
176
     1
290
     0
176
     1
290
     1
176
     1
290
     1
176
     1
290
     0
176
     1
290
     0
176
     1
290
     0
176
     1
290
     0
176
     1
290
     0
176
     1
290
     0
176
     1
 90
       50
176
     1
 40
0.0
176
     1
 40
1.0
176
     1
 90
        0
176
     1
 62
    18
420
        0
176
     1
 90
       50
176
     1
 90
        3
176
     1
 62
     5
420
      255
176
     1
290
     0
176
     1
 90
       50
176
     1
 90
       50
176
     1
 90
       50
176
     1
290
     0
176
     1
 90
       50
176
     1
 62
   256
176
     0
 40
1.0
176
     0
 90
        2
176
     1
  1
strokes_ogs.tif
176
     1
290
     0
176
     1
 40
1.0
176
     1
 40
1.0
176
     1
  0
VISUALSTYLE
  5
3A
102
{ACAD_REACTORS
330
29
102
}
330
29
100
AcDbVisualStyle
  2
Shades of Gray
 70
    23
177
     3
291
     0
 70
    58
 90
        2
176
     1
 90
        2
176
     1
 90
        3
176
     1
 90
        0
176
     1
 40
0.6
176
     1
 40
30.0
176
     1
 62
     7
420
 16777215
176
     1
 90
        2
176
     1
 90
        2
176
     1
 62
     7
176
     1
 62
     7
176
     1
 90
        1
176
     1
 90
        1
176
     1
 40
40.0
176
     1
 90
        8
176
     1
 62
     7
176
     1
 40
1.0
176
     1
 90
        1
176
     1
 90
        6
176
     1
 90
        2
176
     1
 62
     7
176
     1
 90
        3
176
     1
 90
        0
176
     1
 90
        0
176
     1
290
     0
176
     1
 90
        1
176
     1
 40
0.0
176
     1
 90
        0
176
     1
290
     0
176
     1
290
     1
176
     1
290
     1
176
     1
290
     0
176
     1
290
     0
176
     1
290
     0
176
     1
290
     0
176
     1
290
     0
176
     1
290
     0
176
     1
 90
       50
176
     1
 40
0.0
176
     1
 40
1.0
176
     1
 90
        0
176
     1
 62
    18
420
        0
176
     1
 90
       50
176
     1
 90
        3
176
     1
 62
     5
420
      255
176
     1
290
     0
176
     1
 90
       50
176
     1
 90
       50
176
     1
 90
       50
176
     1
290
     0
176
     1
 90
       50
176
     1
 62
   256
176
     0
 40
1.0
176
     0
 90
        2
176
     1
  1
strokes_ogs.tif
176
     1
290
     0
176
     1
 40
1.0
176
     1
 40
1.0
176
     1
  0
VISUALSTYLE
  5
3B
102
{ACAD_REACTORS
330
29
102
}
330
29
100
AcDbVisualStyle
  2
Sketchy
 70
    24
177
     3
291
     0
 70
    58
 90
        1
176
     1
 90
        2
176
     1
 90
        2
176
     1
 90
        0
176
     1
 40
0.6
176
     1
 40
30.0
176
     1
 62
     7
420
 16777215
176
     1
 90
        2
176
     1
 90
        2
176
     1
 62
     7
176
     1
 62
     7
176
     1
 90
        1
176
     1
 90
        1
176
     1
 40
40.0
176
     1
 90
       11
176
     1
 62
     7
176
     1
 40
1.0
176
     1
 90
        1
176
     1
 90
        6
176
     1
 90
        2
176
     1
 62
     7
176
     1
 90
        6
176
     1
 90
        0
176
     1
 90
        0
176
     1
290
     0
176
     1
 90
        1
176
     1
 40
0.0
176
     1
 90
        0
176
     1
290
     0
176
     1
290
     1
176
     1
290
     1
176
     1
290
     0
176
     1
290
     0
176
     1
290
     0
176
     1
290
     0
176
     1
290
     0
176
     1
290
     0
176
     1
 90
       50
176
     1
 40
0.0
176
     1
 40
1.0
176
     1
 90
        0
176
     1
 62
    18
420
        0
176
     1
 90
       50
176
     1
 90
        3
176
     1
 62
     5
420
      255
176
     1
290
     0
176
     1
 90
       50
176
     1
 90
       50
176
     1
 90
       50
176
     1
290
     0
176
     1
 90
       50
176
     1
 62
   256
176
     0
 40
1.0
176
     0
 90
        2
176
     1
  1
strokes_ogs.tif
176
     1
290
     0
176
     1
 40
1.0
176
     1
 40
1.0
176
     1
  0
VISUALSTYLE
  5
36
102
{ACAD_REACTORS
330
29
102
}
330
29
100
AcDbVisualStyle
  2
Thicken
 70
    13
177
     3
291
     1
 70
    58
 90
        2
176
     1
 90
        2
176
     1
 90
        0
176
     1
 90
        0
176
     1
 40
0.6
176
     1
 40
30.0
176
     1
 62
     7
420
 16777215
176
     1
 90
        1
176
     1
 90
        4
176
     1
 62
     7
176
     1
 62
   257
176
     1
 90
        1
176
     1
 90
        1
176
     1
 40
1.0
176
     1
 90
       12
176
     1
 62
     7
176
     1
 40
1.0
176
     1
 90
        1
176
     1
 90
        6
176
     1
 90
        2
176
     1
 62
     7
176
     1
 90
        5
176
     1
 90
        0
176
     1
 90
        0
176
     1
290
     0
176
     1
 90
        1
176
     1
 40
0.0
176
     1
 90
        0
176
     1
290
     0
176
     1
290
     1
176
     1
290
     1
176
     1
290
     0
176
     1
290
     0
176
     1
290
     0
176
     1
290
     0
176
     1
290
     0
176
     1
290
     0
176
     1
 90
       50
176
     1
 40
0.0
176
     1
 40
1.0
176
     1
 90
        0
176
     1
 62
    18
420
        0
176
     1
 90
       50
176
     1
 90
        3
176
     1
 62
     5
420
      255
176
     1
290
     0
176
     1
 90
       50
176
     1
 90
       50
176
     1
 90
       50
176
     1
290
     0
176
     1
 90
       50
176
     1
 62
   256
176
     0
 40
1.0
176
     0
 90
        2
176
     1
  1
strokes_ogs.tif
176
     1
290
     0
176
     1
 40
1.0
176
     1
 40
1.0
176
     1
  0
VISUALSTYLE
  5
30
102
{ACAD_REACTORS
330
29
102
}
330
29
100
AcDbVisualStyle
  2
Wireframe
 70
     5
177
     3
291
     0
 70
    58
 90
        0
176
     1
 90
        2
176
     1
 90
        0
176
     1
 90
        0
176
     1
 40
0.6
176
     1
 40
30.0
176
     1
 62
     7
420
 16777215
176
     1
 90
        1
176
     1
 90
        4
176
     1
 62
     7
176
     1
 62
   257
176
     1
 90
        1
176
     1
 90
        1
176
     1
 40
1.0
176
     1
 90
        0
176
     1
 62
   257
176
     1
 40
1.0
176
     1
 90
        1
176
     1
 90
        6
176
     1
 90
        2
176
     1
 62
     7
176
     1
 90
        3
176
     1
 90
        0
176
     1
 90
        0
176
     1
290
     0
176
     1
 90
        1
176
     1
 40
0.0
176
     1
 90
        0
176
     1
290
     0
176
     1
290
     1
176
     1
290
     1
176
     1
290
     0
176
     1
290
     0
176
     1
290
     0
176
     1
290
     0
176
     1
290
     0
176
     1
290
     0
176
     1
 90
       50
176
     1
 40
0.0
176
     1
 40
1.0
176
     1
 90
        0
176
     1
 62
    18
420
        0
176
     1
 90
       50
176
     1
 90
        3
176
     1
 62
     5
420
      255
176
     1
290
     0
176
     1
 90
       50
176
     1
 90
       50
176
     1
 90
       50
176
     1
290
     0
176
     1
 90
       50
176
     1
 62
   256
176
     0
 40
1.0
176
     0
 90
        2
176
     1
  1
strokes_ogs.tif
176
     1
290
     0
176
     1
 40
1.0
176
     1
 40
1.0
176
     1
  0
VISUALSTYLE
  5
3C
102
{ACAD_REACTORS
330
29
102
}
330
29
100
AcDbVisualStyle
  2
X-Ray
 70
    25
177
     3
291
     0
 70
    58
 90
        2
176
     1
 90
        2
176
     1
 90
        1
176
     1
 90
        1
176
     1
 40
0.5
176
     1
 40
30.0
176
     1
 62
     7
420
 16777215
176
     1
 90
        1
176
     1
 90
        0
176
     1
 62
     7
176
     1
 62
   257
176
     1
 90
        1
176
     1
 90
        1
176
     1
 40
1.0
176
     1
 90
        8
176
     1
 62
     7
176
     1
 40
1.0
176
     1
 90
        1
176
     1
 90
        6
176
     1
 90
        2
176
     1
 62
     7
176
     1
 90
        3
176
     1
 90
        0
176
     1
 90
        0
176
     1
290
     0
176
     1
 90
       13
176
     1
 40
0.0
176
     1
 90
        0
176
     1
290
     0
176
     1
290
     1
176
     1
290
     1
176
     1
290
     0
176
     1
290
     0
176
     1
290
     0
176
     1
290
     0
176
     1
290
     0
176
     1
290
     0
176
     1
 90
       50
176
     1
 40
0.0
176
     1
 40
1.0
176
     1
 90
        0
176
     1
 62
    18
420
        0
176
     1
 90
       50
176
     1
 90
        3
176
     1
 62
     5
420
      255
176
     1
290
     0
176
     1
 90
       50
176
     1
 90
       50
176
     1
 90
       50
176
     1
290
     0
176
     1
 90
       50
176
     1
 62
   256
176
     0
 40
1.0
176
     0
 90
        2
176
     1
  1
strokes_ogs.tif
176
     1
290
     0
176
     1
 40
1.0
176
     1
 40
1.0
176
     1
  0
DICTIONARYVAR
  5
BB
102
{ACAD_REACTORS
330
B6
102
}
330
B6
100
DictionaryVariables
280
     0
  1
1:1
  0
DICTIONARYVAR
  5
B8
102
{ACAD_REACTORS
330
B6
102
}
330
B6
100
DictionaryVariables
280
     0
  1
STANDARD
  0
DICTIONARYVAR
  5
B7
102
{ACAD_REACTORS
330
B6
102
}
330
B6
100
DictionaryVariables
280
     0
  1
STANDARD
  0
DICTIONARYVAR
  5
B9
102
{ACAD_REACTORS
330
B6
102
}
330
B6
100
DictionaryVariables
280
     0
  1
Imperial24
  0
DICTIONARYVAR
  5
BA
102
{ACAD_REACTORS
330
B6
102
}
330
B6
100
DictionaryVariables
280
     0
  1
Imperial24
  0
DICTIONARY
  5
1A
330
19
100
AcDbDictionary
280
     1
281
     1
  3
BUMPTILE
360
1C
  3
DIFFUSETILE
360
1B
  3
OPACITYTILE
360
1F
  3
REFLECTIONTILE
360
1E
  3
REFRACTIONTILE
360
20
  3
SPECULARTILE
360
1D
  0
DICTIONARY
  5
12
330
11
100
AcDbDictionary
280
     1
281
     1
  3
BUMPTILE
360
14
  3
DIFFUSETILE
360
13
  3
OPACITYTILE
360
17
  3
REFLECTIONTILE
360
16
  3
REFRACTIONTILE
360
18
  3
SPECULARTILE
360
15
  0
DICTIONARY
  5
22
330
21
100
AcDbDictionary
280
     1
281
     1
  3
BUMPTILE
360
24
  3
DIFFUSETILE
360
23
  3
OPACITYTILE
360
27
  3
REFLECTIONTILE
360
26
  3
REFRACTIONTILE
360
28
  3
SPECULARTILE
360
25
  0
DICTIONARY
  5
BC
330
65
100
AcDbDictionary
280
     1
281
     1
  3
ACAD_ROUNDTRIP_2008_TABLESTYLE_CELLSTYLEMAP
360
BD
  0
XRECORD
  5
1C
102
{ACAD_REACTORS
330
1A
102
}
330
1A
100
AcDbXrecord
280
     1
270
     1
271
     1
  0
XRECORD
  5
1B
102
{ACAD_REACTORS
330
1A
102
}
330
1A
100
AcDbXrecord
280
     1
270
     1
271
     1
  0
XRECORD
  5
1F
102
{ACAD_REACTORS
330
1A
102
}
330
1A
100
AcDbXrecord
280
     1
270
     1
271
     1
  0
XRECORD
  5
1E
102
{ACAD_REACTORS
330
1A
102
}
330
1A
100
AcDbXrecord
280
     1
270
     1
271
     1
  0
XRECORD
  5
20
102
{ACAD_REACTORS
330
1A
102
}
330
1A
100
AcDbXrecord
280
     1
270
     1
271
     1
  0
XRECORD
  5
1D
102
{ACAD_REACTORS
330
1A
102
}
330
1A
100
AcDbXrecord
280
     1
270
     1
271
     1
  0
XRECORD
  5
14
102
{ACAD_REACTORS
330
12
102
}
330
12
100
AcDbXrecord
280
     1
270
     1
271
     1
  0
XRECORD
  5
13
102
{ACAD_REACTORS
330
12
102
}
330
12
100
AcDbXrecord
280
     1
270
     1
271
     1
  0
XRECORD
  5
17
102
{ACAD_REACTORS
330
12
102
}
330
12
100
AcDbXrecord
280
     1
270
     1
271
     1
  0
XRECORD
  5
16
102
{ACAD_REACTORS
330
12
102
}
330
12
100
AcDbXrecord
280
     1
270
     1
271
     1
  0
XRECORD
  5
18
102
{ACAD_REACTORS
330
12
102
}
330
12
100
AcDbXrecord
280
     1
270
     1
271
     1
  0
XRECORD
  5
15
102
{ACAD_REACTORS
330
12
102
}
330
12
100
AcDbXrecord
280
     1
270
     1
271
     1
  0
XRECORD
  5
24
102
{ACAD_REACTORS
330
22
102
}
330
22
100
AcDbXrecord
280
     1
270
     1
271
     1
  0
XRECORD
  5
23
102
{ACAD_REACTORS
330
22
102
}
330
22
100
AcDbXrecord
280
     1
270
     1
271
     1
  0
XRECORD
  5
27
102
{ACAD_REACTORS
330
22
102
}
330
22
100
AcDbXrecord
280
     1
270
     1
271
     1
  0
XRECORD
  5
26
102
{ACAD_REACTORS
330
22
102
}
330
22
100
AcDbXrecord
280
     1
270
     1
271
     1
  0
XRECORD
  5
28
102
{ACAD_REACTORS
330
22
102
}
330
22
100
AcDbXrecord
280
     1
270
     1
271
     1
  0
XRECORD
  5
25
102
{ACAD_REACTORS
330
22
102
}
330
22
100
AcDbXrecord
280
     1
270
     1
271
     1
  0
CELLSTYLEMAP
  5
BD
102
{ACAD_REACTORS
330
BC
102
}
330
BC
100
AcDbCellStyleMap
 90
        3
300
CELLSTYLE
  1
TABLEFORMAT_BEGIN
 90
        5
170
     1
 91
        0
 92
    32768
 62
   257
 93
        1
300
CONTENTFORMAT
  1
CONTENTFORMAT_BEGIN
 90
        0
 91
        0
 92
      512
 93
        0
300

 40
0.0
140
1.0
 94
        5
 62
     0
340
55
144
0.25
309
CONTENTFORMAT_END
171
     0
 94
        0
309
TABLEFORMAT_END
  1
CELLSTYLE_BEGIN
 90
        1
 91
        1
300
_TITLE
309
CELLSTYLE_END
300
CELLSTYLE
  1
TABLEFORMAT_BEGIN
 90
        5
170
     1
 91
        0
 92
        0
 62
   257
 93
        1
300
CONTENTFORMAT
  1
CONTENTFORMAT_BEGIN
 90
        0
 91
        0
 92
      512
 93
        0
300

 40
0.0
140
1.0
 94
        5
 62
     0
340
55
144
0.18
309
CONTENTFORMAT_END
171
     0
 94
        0
309
TABLEFORMAT_END
  1
CELLSTYLE_BEGIN
 90
        2
 91
        1
300
_HEADER
309
CELLSTYLE_END
300
CELLSTYLE
  1
TABLEFORMAT_BEGIN
 90
        5
170
     1
 91
        0
 92
        0
 62
   257
 93
        1
300
CONTENTFORMAT
  1
CONTENTFORMAT_BEGIN
 90
        0
 91
        0
 92
      512
 93
        0
300

 40
0.0
140
1.0
 94
        2
 62
     0
340
55
144
0.18
309
CONTENTFORMAT_END
171
     0
 94
        0
309
TABLEFORMAT_END
  1
CELLSTYLE_BEGIN
 90
        3
 91
        2
300
_DATA
309
CELLSTYLE_END
  0
ENDSEC
  0
EOF
