  0
SECTION
  2
HEADER
  9
$ACADVER
  1
AC1032
  9
$ACADMAINTVER
 90
      197
  9
$DWGCODEPAGE
  3
ANSI_1252
  9
$REQUIREDVERSIONS
160
                 0
  9
$INSBASE
 10
0.0
 20
0.0
 30
0.0
  9
$EXTMIN
 10
1.000000000000000E+20
 20
1.000000000000000E+20
 30
1.000000000000000E+20
  9
$EXTMAX
 10
-1.000000000000000E+20
 20
-1.000000000000000E+20
 30
-1.000000000000000E+20
  9
$LIMMIN
 10
0.0
 20
0.0
  9
$LIMMAX
 10
12.0
 20
9.0
  9
$ORTHOMODE
 70
     0
  9
$REGENMODE
 70
     1
  9
$FILLMODE
 70
     1
  9
$QTEXTMODE
 70
     0
  9
$MIRRTEXT
 70
     0
  9
$LTSCALE
 40
1.0
  9
$ATTMODE
 70
     1
  9
$TEXTSIZE
 40
0.2
  9
$TRACEWID
 40
0.05
  9
$TEXTSTYLE
  7
Standard
  9
$CLAYER
  8
0
  9
$CELTYPE
  6
ByLayer
  9
$CECOLOR
 62
   256
  9
$CELTSCALE
 40
1.0
  9
$DISPSILH
 70
     0
  9
$DIMSCALE
 40
1.0
  9
$DIMASZ
 40
0.18
  9
$DIMEXO
 40
0.0625
  9
$DIMDLI
 40
0.38
  9
$DIMRND
 40
0.0
  9
$DIMDLE
 40
0.0
  9
$DIMEXE
 40
0.18
  9
$DIMTP
 40
0.0
  9
$DIMTM
 40
0.0
  9
$DIMTXT
 40
0.18
  9
$DIMCEN
 40
0.09
  9
$DIMTSZ
 40
0.0
  9
$DIMTOL
 70
     0
  9
$DIMLIM
 70
     0
  9
$DIMTIH
 70
     1
  9
$DIMTOH
 70
     1
  9
$DIMSE1
 70
     0
  9
$DIMSE2
 70
     0
  9
$DIMTAD
 70
     0
  9
$DIMZIN
 70
     0
  9
$DIMBLK
  1

  9
$DIMASO
 70
     1
  9
$DIMSHO
 70
     1
  9
$DIMPOST
  1

  9
$DIMAPOST
  1

  9
$DIMALT
 70
     0
  9
$DIMALTD
 70
     2
  9
$DIMALTF
 40
25.4
  9
$DIMLFAC
 40
1.0
  9
$DIMTOFL
 70
     0
  9
$DIMTVP
 40
0.0
  9
$DIMTIX
 70
     0
  9
$DIMSOXD
 70
     0
  9
$DIMSAH
 70
     0
  9
$DIMBLK1
  1

  9
$DIMBLK2
  1

  9
$DIMSTYLE
  2
Standard
  9
$DIMCLRD
 70
     0
  9
$DIMCLRE
 70
     0
  9
$DIMCLRT
 70
     0
  9
$DIMTFAC
 40
1.0
  9
$DIMGAP
 40
0.09
  9
$DIMJUST
 70
     0
  9
$DIMSD1
 70
     0
  9
$DIMSD2
 70
     0
  9
$DIMTOLJ
 70
     1
  9
$DIMTZIN
 70
     0
  9
$DIMALTZ
 70
     0
  9
$DIMALTTZ
 70
     0
  9
$DIMUPT
 70
     0
  9
$DIMDEC
 70
     4
  9
$DIMTDEC
 70
     4
  9
$DIMALTU
 70
     2
  9
$DIMALTTD
 70
     2
  9
$DIMTXSTY
  7
Standard
  9
$DIMAUNIT
 70
     0
  9
$DIMADEC
 70
     0
  9
$DIMALTRND
 40
0.0
  9
$DIMAZIN
 70
     0
  9
$DIMDSEP
 70
    46
  9
$DIMATFIT
 70
     3
  9
$DIMFRAC
 70
     0
  9
$DIMLDRBLK
  1

  9
$DIMLUNIT
 70
     2
  9
$DIMLWD
 70
    -2
  9
$DIMLWE
 70
    -2
  9
$DIMTMOVE
 70
     0
  9
$DIMFXL
 40
1.0
  9
$DIMFXLON
 70
     0
  9
$DIMJOGANG
 40
0.7853981633974483
  9
$DIMTFILL
 70
     0
  9
$DIMTFILLCLR
 70
     0
  9
$DIMARCSYM
 70
     0
  9
$DIMLTYPE
  6

  9
$DIMLTEX1
  6

  9
$DIMLTEX2
  6

  9
$DIMTXTDIRECTION
 70
     0
  9
$LUNITS
 70
     2
  9
$LUPREC
 70
     4
  9
$SKETCHINC
 40
0.1
  9
$FILLETRAD
 40
0.0
  9
$AUNITS
 70
     0
  9
$AUPREC
 70
     0
  9
$MENU
  1
.
  9
$ELEVATION
 40
0.0
  9
$PELEVATION
 40
0.0
  9
$THICKNESS
 40
0.0
  9
$LIMCHECK
 70
     0
  9
$CHAMFERA
 40
0.0
  9
$CHAMFERB
 40
0.0
  9
$CHAMFERC
 40
0.0
  9
$CHAMFERD
 40
0.0
  9
$SKPOLY
 70
     0
  9
$TDCREATE
 40
2459550.667372685
  9
$TDUCREATE
 40
2459550.667372685
  9
$TDUPDATE
 40
2459550.667372685
  9
$TDUUPDATE
 40
2459550.667372685
  9
$TDINDWG
 40
0.0000000000
  9
$TDUSRTIMER
 40
0.0000000000
  9
$USRTIMER
 70
     1
  9
$ANGBASE
 50
0.0
  9
$ANGDIR
 70
     0
  9
$PDMODE
 70
     0
  9
$PDSIZE
 40
0.0
  9
$PLINEWID
 40
0.0
  9
$SPLFRAME
 70
     0
  9
$SPLINETYPE
 70
     6
  9
$SPLINESEGS
 70
     8
  9
$HANDSEED
  5
D2
  9
$SURFTAB1
 70
     6
  9
$SURFTAB2
 70
     6
  9
$SURFTYPE
 70
     6
  9
$SURFU
 70
     6
  9
$SURFV
 70
     6
  9
$UCSBASE
  2

  9
$UCSNAME
  2

  9
$UCSORG
 10
0.0
 20
0.0
 30
0.0
  9
$UCSXDIR
 10
1.0
 20
0.0
 30
0.0
  9
$UCSYDIR
 10
0.0
 20
1.0
 30
0.0
  9
$UCSORTHOREF
  2

  9
$UCSORTHOVIEW
 70
     0
  9
$UCSORGTOP
 10
0.0
 20
0.0
 30
0.0
  9
$UCSORGBOTTOM
 10
0.0
 20
0.0
 30
0.0
  9
$UCSORGLEFT
 10
0.0
 20
0.0
 30
0.0
  9
$UCSORGRIGHT
 10
0.0
 20
0.0
 30
0.0
  9
$UCSORGFRONT
 10
0.0
 20
0.0
 30
0.0
  9
$UCSORGBACK
 10
0.0
 20
0.0
 30
0.0
  9
$PUCSBASE
  2

  9
$PUCSNAME
  2

  9
$PUCSORG
 10
0.0
 20
0.0
 30
0.0
  9
$PUCSXDIR
 10
1.0
 20
0.0
 30
0.0
  9
$PUCSYDIR
 10
0.0
 20
1.0
 30
0.0
  9
$PUCSORTHOREF
  2

  9
$PUCSORTHOVIEW
 70
     0
  9
$PUCSORGTOP
 10
0.0
 20
0.0
 30
0.0
  9
$PUCSORGBOTTOM
 10
0.0
 20
0.0
 30
0.0
  9
$PUCSORGLEFT
 10
0.0
 20
0.0
 30
0.0
  9
$PUCSORGRIGHT
 10
0.0
 20
0.0
 30
0.0
  9
$PUCSORGFRONT
 10
0.0
 20
0.0
 30
0.0
  9
$PUCSORGBACK
 10
0.0
 20
0.0
 30
0.0
  9
$USERI1
 70
     0
  9
$USERI2
 70
     0
  9
$USERI3
 70
     0
  9
$USERI4
 70
     0
  9
$USERI5
 70
     0
  9
$USERR1
 40
0.0
  9
$USERR2
 40
0.0
  9
$USERR3
 40
0.0
  9
$USERR4
 40
0.0
  9
$USERR5
 40
0.0
  9
$WORLDVIEW
 70
     1
  9
$SHADEDGE
 70
     3
  9
$SHADEDIF
 70
    70
  9
$TILEMODE
 70
     1
  9
$MAXACTVP
 70
    64
  9
$PINSBASE
 10
0.0
 20
0.0
 30
0.0
  9
$PLIMCHECK
 70
     0
  9
$PEXTMIN
 10
1.000000000000000E+20
 20
1.000000000000000E+20
 30
1.000000000000000E+20
  9
$PEXTMAX
 10
-1.000000000000000E+20
 20
-1.000000000000000E+20
 30
-1.000000000000000E+20
  9
$PLIMMIN
 10
0.0
 20
0.0
  9
$PLIMMAX
 10
12.0
 20
9.0
  9
$UNITMODE
 70
     0
  9
$VISRETAIN
 70
     1
  9
$PLINEGEN
 70
     0
  9
$PSLTSCALE
 70
     1
  9
$TREEDEPTH
 70
  3020
  9
$CMLSTYLE
  2
Standard
  9
$CMLJUST
 70
     0
  9
$CMLSCALE
 40
1.0
  9
$PROXYGRAPHICS
 70
     1
  9
$MEASUREMENT
 70
     0
  9
$CELWEIGHT
370
    -1
  9
$ENDCAPS
280
     0
  9
$JOINSTYLE
280
     0
  9
$LWDISPLAY
290
     1
  9
$INSUNITS
 70
     4
  9
$HYPERLINKBASE
  1

  9
$STYLESHEET
  1

  9
$XEDIT
290
     1
  9
$CEPSNTYPE
380
     0
  9
$PSTYLEMODE
290
     1
  9
$FINGERPRINTGUID
  2
{D5F01B9F-8EA5-3647-8F4D-10ED36D2FC2F}
  9
$VERSIONGUID
  2
{4F2E23CC-037B-C746-8D6B-D13DEEBFCAEC}
  9
$EXTNAMES
290
     1
  9
$PSVPSCALE
 40
0.0
  9
$OLESTARTUP
290
     0
  9
$SORTENTS
280
   127
  9
$INDEXCTL
280
     0
  9
$HIDETEXT
280
     1
  9
$XCLIPFRAME
280
     2
  9
$HALOGAP
280
     0
  9
$OBSCOLOR
 70
   257
  9
$OBSLTYPE
280
     0
  9
$INTERSECTIONDISPLAY
280
     0
  9
$INTERSECTIONCOLOR
 70
   257
  9
$DIMASSOC
280
     2
  9
$PROJECTNAME
  1

  9
$CAMERADISPLAY
290
     0
  9
$LENSLENGTH
 40
50.0
  9
$CAMERAHEIGHT
 40
0.0
  9
$STEPSPERSEC
 40
2.0
  9
$STEPSIZE
 40
6.0
  9
$3DDWFPREC
 40
2.0
  9
$PSOLWIDTH
 40
0.25
  9
$PSOLHEIGHT
 40
4.0
  9
$LOFTANG1
 40
1.570796326794896
  9
$LOFTANG2
 40
1.570796326794896
  9
$LOFTMAG1
 40
0.0
  9
$LOFTMAG2
 40
0.0
  9
$LOFTPARAM
 70
     7
  9
$LOFTNORMALS
280
     1
  9
$LATITUDE
 40
37.795
  9
$LONGITUDE
 40
-122.394
  9
$NORTHDIRECTION
 40
0.0
  9
$TIMEZONE
 70
 -8000
  9
$LIGHTGLYPHDISPLAY
280
     1
  9
$TILEMODELIGHTSYNCH
280
     1
  9
$CMATERIAL
347
11
  9
$SOLIDHIST
280
     0
  9
$SHOWHIST
280
     1
  9
$DWFFRAME
280
     2
  9
$DGNFRAME
280
     0
  9
$REALWORLDSCALE
290
     1
  9
$INTERFERECOLOR
 62
     1
  9
$INTERFEREOBJVS
345
33
  9
$INTERFEREVPVS
346
30
  9
$CSHADOW
280
     0
  9
$SHADOWPLANELOCATION
 40
0.0
  0
ENDSEC
  0
SECTION
  2
CLASSES
  0
CLASS
  1
ACDBDICTIONARYWDFLT
  2
AcDbDictionaryWithDefault
  3
ObjectDBX Classes
 90
        0
 91
        1
280
     0
281
     0
  0
CLASS
  1
MATERIAL
  2
AcDbMaterial
  3
ObjectDBX Classes
 90
     1153
 91
        3
280
     0
281
     0
  0
CLASS
  1
VISUALSTYLE
  2
AcDbVisualStyle
  3
ObjectDBX Classes
 90
     4095
 91
       24
280
     0
281
     0
  0
CLASS
  1
SCALE
  2
AcDbScale
  3
ObjectDBX Classes
 90
     1153
 91
       17
280
     0
281
     0
  0
CLASS
  1
TABLESTYLE
  2
AcDbTableStyle
  3
ObjectDBX Classes
 90
     4095
 91
        1
280
     0
281
     0
  0
CLASS
  1
MLEADERSTYLE
  2
AcDbMLeaderStyle
  3
ACDB_MLEADERSTYLE_CLASS
 90
     4095
 91
        1
280
     0
281
     0
  0
CLASS
  1
ACDBSECTIONVIEWSTYLE
  2
AcDbSectionViewStyle
  3
ObjectDBX Classes
 90
     1025
 91
        1
280
     0
281
     0
  0
CLASS
  1
ACDBDETAILVIEWSTYLE
  2
AcDbDetailViewStyle
  3
ObjectDBX Classes
 90
     1025
 91
        1
280
     0
281
     0
  0
CLASS
  1
DICTIONARYVAR
  2
AcDbDictionaryVar
  3
ObjectDBX Classes
 90
        0
 91
        5
280
     0
281
     0
  0
CLASS
  1
CELLSTYLEMAP
  2
AcDbCellStyleMap
  3
ObjectDBX Classes
 90
     1152
 91
        1
280
     0
281
     0
  0
ENDSEC
  0
SECTION
  2
TABLES
  0
TABLE
  2
VPORT
  5
8
330
0
100
AcDbSymbolTable
 70
     1
  0
VPORT
  5
57
330
8
100
AcDbSymbolTableRecord
100
AcDbViewportTableRecord
  2
*Active
 70
     0
 10
0.0
 20
0.0
 11
1.0
 21
1.0
 12
0.0
 22
0.0
 13
0.0
 23
0.0
 14
1.0
 24
1.0
 15
0.0
 25
0.0
 16
0.0
 26
0.0
 36
1.0
 17
204.9999999487499
 27
-139.9999999649999
 37
0.0
 40
285.5999999285999
 41
1.464285714285714
 42
50.0
 43
0.0
 44
0.0
 50
0.0
 51
0.0
 71
     0
 72
   100
 73
     1
 74
     1
 75
     0
 76
     0
 77
     0
 78
     0
281
     0
 65
     1
110
0.0
120
0.0
130
0.0
111
1.0
121
0.0
131
0.0
112
0.0
122
1.0
132
0.0
 79
     0
146
0.0
 60
     3
 61
     5
292
     1
282
     1
141
0.0
142
0.0
 63
   250
421
  3355443
  0
ENDTAB
  0
TABLE
  2
LTYPE
  5
5
330
0
100
AcDbSymbolTable
 70
     1
  0
LTYPE
  5
5B
330
5
100
AcDbSymbolTableRecord
100
AcDbLinetypeTableRecord
  2
ByBlock
 70
     0
  3

 72
    65
 73
     0
 40
0.0
  0
LTYPE
  5
5C
330
5
100
AcDbSymbolTableRecord
100
AcDbLinetypeTableRecord
  2
ByLayer
 70
     0
  3

 72
    65
 73
     0
 40
0.0
  0
LTYPE
  5
5D
330
5
100
AcDbSymbolTableRecord
100
AcDbLinetypeTableRecord
  2
Continuous
 70
     0
  3
Solid line
 72
    65
 73
     0
 40
0.0
  0
ENDTAB
  0
TABLE
  2
LAYER
  5
2
330
0
100
AcDbSymbolTable
 70
     2
  0
LAYER
  5
54
330
2
100
AcDbSymbolTableRecord
100
AcDbLayerTableRecord
  2
0
 70
     0
 62
     7
  6
Continuous
370
    -3
390
F
347
21
348
0
  0
LAYER
  5
78
330
2
100
AcDbSymbolTableRecord
100
AcDbLayerTableRecord
  2
Layer 1
 70
     0
 62
     7
  6
Continuous
370
     0
390
F
347
21
348
0
  0
ENDTAB
  0
TABLE
  2
STYLE
  5
3
330
0
100
AcDbSymbolTable
 70
     2
  0
STYLE
  5
55
330
3
100
AcDbSymbolTableRecord
100
AcDbTextStyleTableRecord
  2
Standard
 70
     0
 40
0.0
 41
1.0
 50
0.0
 71
     0
 42
0.2
  3
txt
  4

  0
STYLE
  5
5A
330
3
100
AcDbSymbolTableRecord
100
AcDbTextStyleTableRecord
  2
Annotative
 70
     0
 40
0.0
 41
1.0
 50
0.0
 71
     0
 42
0.2
  3
txt
  4

1001
AcadAnnotative
1000
AnnotativeData
1002
{
1070
     1
1070
     1
1002
}
  0
ENDTAB
  0
TABLE
  2
VIEW
  5
6
330
0
100
AcDbSymbolTable
 70
     0
  0
ENDTAB
  0
TABLE
  2
UCS
  5
7
330
0
100
AcDbSymbolTable
 70
     0
  0
ENDTAB
  0
TABLE
  2
APPID
  5
9
330
0
100
AcDbSymbolTable
 70
     2
  0
APPID
  5
56
330
9
100
AcDbSymbolTableRecord
100
AcDbRegAppTableRecord
  2
ACAD
 70
     0
  0
APPID
  5
5E
330
9
100
AcDbSymbolTableRecord
100
AcDbRegAppTableRecord
  2
AcadAnnotative
 70
     0
  0
ENDTAB
  0
TABLE
  2
DIMSTYLE
  5
A
330
0
100
AcDbSymbolTable
 70
     2
100
AcDbDimStyleTable
 71
     0
  0
DIMSTYLE
105
58
330
A
100
AcDbSymbolTableRecord
100
AcDbDimStyleTableRecord
  2
Standard
 70
     0
340
55
  0
DIMSTYLE
105
59
330
A
100
AcDbSymbolTableRecord
100
AcDbDimStyleTableRecord
  2
Annotative
 70
     0
340
55
1001
AcadAnnotative
1000
AnnotativeData
1002
{
1070
     1
1070
     1
1002
}
  0
ENDTAB
  0
TABLE
  2
BLOCK_RECORD
  5
1
330
0
100
AcDbSymbolTable
 70
     6
  0
BLOCK_RECORD
  5
70
330
1
100
AcDbSymbolTableRecord
100
AcDbBlockTableRecord
  2
*Model_Space
340
73
 70
     0
280
     1
281
     0
  0
BLOCK_RECORD
  5
6C
330
1
100
AcDbSymbolTableRecord
100
AcDbBlockTableRecord
  2
*Paper_Space
340
6F
 70
     0
280
     1
281
     0
  0
BLOCK_RECORD
  5
74
330
1
100
AcDbSymbolTableRecord
100
AcDbBlockTableRecord
  2
*Paper_Space0
340
77
 70
     0
280
     1
281
     0
  0
BLOCK_RECORD
  5
7A
330
1
100
AcDbSymbolTableRecord
100
AcDbBlockTableRecord
  2
Block_0
340
0
102
{BLKREFS
331
7B
102
}
 70
     0
280
     1
281
     0
  0
BLOCK_RECORD
  5
81
330
1
100
AcDbSymbolTableRecord
100
AcDbBlockTableRecord
  2
Block_1
340
0
102
{BLKREFS
331
82
102
}
 70
     0
280
     1
281
     0
  0
BLOCK_RECORD
  5
88
330
1
100
AcDbSymbolTableRecord
100
AcDbBlockTableRecord
  2
Block_2
340
0
102
{BLKREFS
331
89
102
}
 70
     0
280
     1
281
     0
  0
BLOCK_RECORD
  5
9A
330
1
100
AcDbSymbolTableRecord
100
AcDbBlockTableRecord
  2
Block_3
340
0
102
{BLKREFS
331
9B
102
}
 70
     0
280
     1
281
     0
  0
BLOCK_RECORD
  5
AF
330
1
100
AcDbSymbolTableRecord
100
AcDbBlockTableRecord
  2
Block_4
340
0
102
{BLKREFS
331
B0
102
}
 70
     0
280
     1
281
     0
  0
ENDTAB
  0
ENDSEC
  0
SECTION
  2
BLOCKS
  0
BLOCK
  5
71
330
70
100
AcDbEntity
  8
0
100
AcDbBlockBegin
  2
*Model_Space
 70
     0
 10
0.0
 20
0.0
 30
0.0
  3
*Model_Space
  1

  0
ENDBLK
  5
72
330
70
100
AcDbEntity
  8
0
100
AcDbBlockEnd
  0
BLOCK
  5
6D
330
6C
100
AcDbEntity
 67
     1
  8
0
100
AcDbBlockBegin
  2
*Paper_Space
 70
     0
 10
0.0
 20
0.0
 30
0.0
  3
*Paper_Space
  1

  0
ENDBLK
  5
6E
330
6C
100
AcDbEntity
 67
     1
  8
0
100
AcDbBlockEnd
  0
BLOCK
  5
75
330
74
100
AcDbEntity
 67
     1
  8
0
100
AcDbBlockBegin
  2
*Paper_Space0
 70
     0
 10
0.0
 20
0.0
 30
0.0
  3
*Paper_Space0
  1

  0
ENDBLK
  5
76
330
74
100
AcDbEntity
 67
     1
  8
0
100
AcDbBlockEnd
  0
BLOCK
  5
7C
330
7A
100
AcDbEntity
  8
0
100
AcDbBlockBegin
  2
Block_0
 70
     0
 10
0.0
 20
0.0
 30
0.0
  3
Block_0
  1

  0
LWPOLYLINE
  5
7E
330
7A
100
AcDbEntity
  8
Layer 1
 62
    12
420
 14878227
370
     9
100
AcDbPolyline
 90
        4
 70
     1
 43
0.0
 10
293.5744309841695
 20
-157.2119463603233
 10
293.5744309841695
 20
-127.2119463678228
 10
297.5744309831699
 20
-127.2119463678228
 10
297.5744309831699
 20
-157.2119463603233
  0
LWPOLYLINE
  5
7F
330
7A
100
AcDbEntity
  8
Layer 1
 62
    12
420
 14878227
370
     9
100
AcDbPolyline
 90
        4
 70
     1
 43
0.0
 10
293.5744309841695
 20
-87.21198238985875
 10
293.5744309841695
 20
-57.21198239735851
 10
297.5744309831699
 20
-57.21198239735851
 10
297.5744309831699
 20
-87.21198238985875
  0
LWPOLYLINE
  5
80
330
7A
100
AcDbEntity
  8
Layer 1
 62
    12
420
 14878227
370
     9
100
AcDbPolyline
 90
        4
 70
     1
 43
0.0
 10
293.5744309841695
 20
-228.2389823546016
 10
293.5744309841695
 20
-198.238982362102
 10
297.5744309831699
 20
-198.238982362102
 10
297.5744309831699
 20
-228.2389823546016
  0
INSERT
  5
82
330
7A
100
AcDbEntity
  8
Layer 1
100
AcDbBlockReference
  2
Block_1
 10
0.0
 20
0.0
 30
0.0
  0
ENDBLK
  5
7D
330
7A
100
AcDbEntity
  8
0
100
AcDbBlockEnd
  0
BLOCK
  5
83
330
81
100
AcDbEntity
  8
0
100
AcDbBlockBegin
  2
Block_1
 70
     0
 10
0.0
 20
0.0
 30
0.0
  3
Block_1
  1

  0
LWPOLYLINE
  5
85
330
81
100
AcDbEntity
  8
Layer 1
 62
    12
420
 14878227
370
     9
100
AcDbPolyline
 90
       80
 70
     1
 43
0.0
 10
375.5684304166938
 20
-263.2119478949042
 10
387.5623796256637
 20
-263.2119478949042
 10
387.5623796256637
 20
-241.2122140815021
 10
391.5623723343533
 20
-241.2122140815021
 10
391.5623723343533
 20
-219.212200354092
 10
387.5623796256637
 20
-219.212200354092
 10
387.5623796256637
 20
-197.2122081585286
 10
391.5623723343533
 20
-197.2122081585286
 10
391.5623723343533
 20
-175.2122159629652
 10
387.5623796256637
 20
-175.2122159629652
 10
387.5623796256637
 20
-153.2122022355551
 10
391.5623723343533
 20
-153.2122022355551
 10
391.5623723343533
 20
-131.2122100399914
 10
391.5623723343533
 20
-131.2117578712089
 10
387.5623796256637
 20
-131.2117578712089
 10
387.5623796256637
 20
-109.2117656756456
 10
391.5623723343533
 20
-109.2117656756456
 10
391.5623723343533
 20
-87.21175194823544
 10
387.5623796256637
 20
-87.21175194823544
 10
387.5623796256637
 20
-65.21175975267206
 10
391.5623723343533
 20
-65.21175975267206
 10
391.5623723343533
 20
-43.2117675571087
 10
387.5623796256637
 20
-43.2117675571087
 10
387.5623796256637
 20
-21.21192608447281
 10
375.5684304166938
 20
-21.21192608447281
 10
375.5684304166938
 20
-17.21193337578313
 10
375.5623799677479
 20
-17.21193337578313
 10
359.5684165182416
 20
-17.21193337578313
 10
359.5684165182416
 20
-21.21192608447281
 10
343.5683810879425
 20
-21.21192608447281
 10
343.5683810879425
 20
-17.21193337578313
 10
327.5684102531839
 20
-17.21193337578313
 10
327.5684102531839
 20
-21.21192608447281
 10
311.5684394184252
 20
-21.21192608447281
 10
311.5684394184252
 20
-17.21193337578313
 10
295.5683824562793
 20
-17.21193337578313
 10
295.5683824562793
 20
-21.21192608447281
 10
279.5684116215206
 20
-21.21192608447281
 10
279.5684116215206
 20
-17.21193337578313
 10
263.568440786762
 20
-17.21193337578313
 10
263.568440786762
 20
-21.21192608447281
 10
247.5683838246161
 20
-21.21192608447281
 10
247.5683838246161
 20
-17.21193337578313
 10
231.5684129898575
 20
-17.21193337578313
 10
231.5684129898575
 20
-21.21192608447281
 10
215.5684421550988
 20
-21.21192608447281
 10
215.5684421550988
 20
-17.21193337578313
 10
215.5624132379996
 20
-17.21193337578313
 10
211.5623989974631
 20
-17.21193337578313
 10
211.5623989974631
 20
-67.21191759586777
 10
215.5624132379996
 20
-67.21191759586777
 10
215.5624132379996
 20
-117.2119233477992
 10
211.5623989974631
 20
-117.2119233477992
 10
211.5623989974631
 20
-167.2119290997309
 10
215.5624132379996
 20
-167.2119290997309
 10
215.5624132379996
 20
-217.2119348516623
 10
211.5623989974631
 20
-217.2119348516623
 10
211.5623989974631
 20
-267.2119621354406
 10
215.5684421550988
 20
-267.2119621354406
 10
215.5684421550988
 20
-263.2119478949042
 10
231.5684129898575
 20
-263.2119478949042
 10
231.5684129898575
 20
-267.2119621354406
 10
247.5683838246161
 20
-267.2119621354406
 10
247.5683838246161
 20
-263.2119478949042
 10
263.568440786762
 20
-263.2119478949042
 10
263.568440786762
 20
-267.2119621354406
 10
279.5684116215206
 20
-267.2119621354406
 10
279.5684116215206
 20
-263.2119478949042
 10
295.5683824562793
 20
-263.2119478949042
 10
295.5683824562793
 20
-267.2119621354406
 10
311.5684394184252
 20
-267.2119621354406
 10
311.5684394184252
 20
-263.2119478949042
 10
327.5684102531839
 20
-263.2119478949042
 10
327.5684102531839
 20
-267.2119621354406
 10
343.5683810879425
 20
-267.2119621354406
 10
343.5683810879425
 20
-263.2119478949042
 10
359.5684165182416
 20
-263.2119478949042
 10
359.5684165182416
 20
-267.2119621354406
 10
375.5623799677479
 20
-267.2119621354406
 10
375.5684304166938
 20
-267.2119621354406
  0
LINE
  5
86
330
81
100
AcDbEntity
  8
Layer 1
 62
    12
420
 14878227
370
     9
100
AcDbLine
 10
387.5623796256637
 20
-21.21175382969854
 30
0.0
 11
387.5623796256637
 21
-21.21192608447281
 31
0.0
  0
LINE
  5
87
330
81
100
AcDbEntity
  8
Layer 1
 62
    12
420
 14878227
370
     9
100
AcDbLine
 10
387.5623796256637
 20
-263.2119478949042
 30
0.0
 11
387.5623796256637
 21
-263.2122062770655
 31
0.0
  0
ENDBLK
  5
84
330
81
100
AcDbEntity
  8
0
100
AcDbBlockEnd
  0
BLOCK
  5
8A
330
88
100
AcDbEntity
  8
0
100
AcDbBlockBegin
  2
Block_2
 70
     0
 10
0.0
 20
0.0
 30
0.0
  3
Block_2
  1

  0
SPLINE
  5
8C
330
88
100
AcDbEntity
  8
Layer 1
100
AcDbSpline
210
0.0
220
0.0
230
1.0
 70
     9
 71
     3
 72
    23
 73
    19
 74
     0
 42
0.0000000001
 43
0.0000000001
 40
0.0
 40
0.0
 40
0.0
 40
0.0
 40
1.0
 40
1.0
 40
1.0
 40
2.0
 40
2.0
 40
2.0
 40
3.0
 40
3.0
 40
3.0
 40
4.0
 40
4.0
 40
4.0
 40
5.0
 40
5.0
 40
5.0
 40
6.0
 40
6.0
 40
6.0
 40
6.0
 10
251.1271348113502
 20
-134.3614800011318
 30
0.0
 10
251.6959200759649
 20
-134.4624212988497
 30
0.0
 10
251.8885009135904
 20
-134.2422796973422
 30
0.0
 10
251.8885009135904
 20
-133.7561767243734
 30
0.0
 10
251.8885009135904
 20
-133.7561767243734
 30
0.0
 10
251.8885009135904
 20
-133.0499321498972
 30
0.0
 10
251.8885009135904
 20
-133.0499321498972
 30
0.0
 10
251.8885009135904
 20
-133.0499321498972
 30
0.0
 10
249.5585828369159
 20
-132.646166959026
 30
0.0
 10
249.5585828369159
 20
-132.646166959026
 30
0.0
 10
249.5585828369159
 20
-132.646166959026
 30
0.0
 10
249.5585828369159
 20
-133.3524115335022
 30
0.0
 10
249.5585828369159
 20
-133.3524115335022
 30
0.0
 10
249.5585828369159
 20
-133.8295572582093
 30
0.0
 10
249.7511636745414
 20
-134.1230793935525
 30
0.0
 10
250.310647181346
 20
-134.2240206912704
 30
0.0
 10
250.310647181346
 20
-134.2240206912704
 30
0.0
 10
251.1271348113502
 20
-134.3614800011318
 30
0.0
 10
251.1271348113502
 20
-134.3614800011318
 30
0.0
  0
SPLINE
  5
8D
330
88
100
AcDbEntity
  8
Layer 1
100
AcDbSpline
210
0.0
220
0.0
230
1.0
 70
     9
 71
     3
 72
    29
 73
    25
 74
     0
 42
0.0000000001
 43
0.0000000001
 40
0.0
 40
0.0
 40
0.0
 40
0.0
 40
1.0
 40
1.0
 40
1.0
 40
2.0
 40
2.0
 40
2.0
 40
3.0
 40
3.0
 40
3.0
 40
4.0
 40
4.0
 40
4.0
 40
5.0
 40
5.0
 40
5.0
 40
6.0
 40
6.0
 40
6.0
 40
7.0
 40
7.0
 40
7.0
 40
8.0
 40
8.0
 40
8.0
 40
8.0
 10
251.2921548850937
 20
-135.2513481649719
 30
0.0
 10
251.2921548850937
 20
-135.2513481649719
 30
0.0
 10
250.1456271076025
 20
-135.0587673273464
 30
0.0
 10
250.1456271076025
 20
-135.0587673273464
 30
0.0
 10
249.200981925547
 20
-134.8844454957928
 30
0.0
 10
248.7879149768655
 20
-134.315660231178
 30
0.0
 10
248.7879149768655
 20
-133.2518147453329
 30
0.0
 10
248.7879149768655
 20
-133.2518147453329
 30
0.0
 10
248.7879149768655
 20
-132.5087076491645
 30
0.0
 10
248.7879149768655
 20
-132.5087076491645
 30
0.0
 10
248.7879149768655
 20
-132.5087076491645
 30
0.0
 10
246.228898050422
 20
-132.0591226883394
 30
0.0
 10
246.228898050422
 20
-132.0591226883394
 30
0.0
 10
246.228898050422
 20
-132.0591226883394
 30
0.0
 10
246.228898050422
 20
-131.1971597979299
 30
0.0
 10
246.228898050422
 20
-131.1971597979299
 30
0.0
 10
246.228898050422
 20
-131.1971597979299
 30
0.0
 10
252.649522506282
 20
-132.3250840598007
 30
0.0
 10
252.649522506282
 20
-132.3250840598007
 30
0.0
 10
252.649522506282
 20
-132.3250840598007
 30
0.0
 10
252.649522506282
 20
-133.9304985559271
 30
0.0
 10
252.649522506282
 20
-133.9304985559271
 30
0.0
 10
252.649522506282
 20
-134.8110649619569
 30
0.0
 10
252.2368000671491
 20
-135.4256699965255
 30
0.0
 10
251.2921548850937
 20
-135.2513481649719
 30
0.0
  0
HATCH
  5
8E
330
88
100
AcDbEntity
  8
Layer 1
 62
   250
420
  1907995
440
 33554687
100
AcDbHatch
 10
0.0
 20
0.0
 30
0.0
210
0.0
220
0.0
230
1.0
  2
SOLID
 70
     1
 71
     1
 91
        2
 92
        1
 93
        1
 72
     4
 94
        3
 73
     0
 74
     0
 95
       23
 96
       19
 40
0.0
 40
0.0
 40
0.0
 40
0.0
 40
1.0
 40
1.0
 40
1.0
 40
2.0
 40
2.0
 40
2.0
 40
3.0
 40
3.0
 40
3.0
 40
4.0
 40
4.0
 40
4.0
 40
5.0
 40
5.0
 40
5.0
 40
6.0
 40
6.0
 40
6.0
 40
6.0
 10
251.1271348113502
 20
-134.3614800011318
 10
251.6959200759649
 20
-134.4624212988497
 10
251.8885009135904
 20
-134.2422796973422
 10
251.8885009135904
 20
-133.7561767243734
 10
251.8885009135904
 20
-133.7561767243734
 10
251.8885009135904
 20
-133.0499321498972
 10
251.8885009135904
 20
-133.0499321498972
 10
251.8885009135904
 20
-133.0499321498972
 10
249.5585828369159
 20
-132.646166959026
 10
249.5585828369159
 20
-132.646166959026
 10
249.5585828369159
 20
-132.646166959026
 10
249.5585828369159
 20
-133.3524115335022
 10
249.5585828369159
 20
-133.3524115335022
 10
249.5585828369159
 20
-133.8295572582093
 10
249.7511636745414
 20
-134.1230793935525
 10
250.310647181346
 20
-134.2240206912704
 10
250.310647181346
 20
-134.2240206912704
 10
251.1271348113502
 20
-134.3614800011318
 10
251.1271348113502
 20
-134.3614800011318
 97
        0
 97
        1
330
8C
 92
        1
 93
        1
 72
     4
 94
        3
 73
     0
 74
     0
 95
       29
 96
       25
 40
0.0
 40
0.0
 40
0.0
 40
0.0
 40
1.0
 40
1.0
 40
1.0
 40
2.0
 40
2.0
 40
2.0
 40
3.0
 40
3.0
 40
3.0
 40
4.0
 40
4.0
 40
4.0
 40
5.0
 40
5.0
 40
5.0
 40
6.0
 40
6.0
 40
6.0
 40
7.0
 40
7.0
 40
7.0
 40
8.0
 40
8.0
 40
8.0
 40
8.0
 10
251.2921548850937
 20
-135.2513481649719
 10
251.2921548850937
 20
-135.2513481649719
 10
250.1456271076025
 20
-135.0587673273464
 10
250.1456271076025
 20
-135.0587673273464
 10
249.200981925547
 20
-134.8844454957928
 10
248.7879149768655
 20
-134.315660231178
 10
248.7879149768655
 20
-133.2518147453329
 10
248.7879149768655
 20
-133.2518147453329
 10
248.7879149768655
 20
-132.5087076491645
 10
248.7879149768655
 20
-132.5087076491645
 10
248.7879149768655
 20
-132.5087076491645
 10
246.228898050422
 20
-132.0591226883394
 10
246.228898050422
 20
-132.0591226883394
 10
246.228898050422
 20
-132.0591226883394
 10
246.228898050422
 20
-131.1971597979299
 10
246.228898050422
 20
-131.1971597979299
 10
246.228898050422
 20
-131.1971597979299
 10
252.649522506282
 20
-132.3250840598007
 10
252.649522506282
 20
-132.3250840598007
 10
252.649522506282
 20
-132.3250840598007
 10
252.649522506282
 20
-133.9304985559271
 10
252.649522506282
 20
-133.9304985559271
 10
252.649522506282
 20
-134.8110649619569
 10
252.2368000671491
 20
-135.4256699965255
 10
251.2921548850937
 20
-135.2513481649719
 97
        0
 97
        1
330
8D
 75
     2
 76
     1
 98
        1
 10
0.0
 20
0.0
450
        0
451
        0
460
0.0
461
0.0
452
        0
462
0.0
453
        0
470

  0
SPLINE
  5
8F
330
88
100
AcDbEntity
  8
Layer 1
100
AcDbSpline
210
0.0
220
0.0
230
1.0
 70
     9
 71
     3
 72
    23
 73
    19
 74
     0
 42
0.0000000001
 43
0.0000000001
 40
0.0
 40
0.0
 40
0.0
 40
0.0
 40
1.0
 40
1.0
 40
1.0
 40
2.0
 40
2.0
 40
2.0
 40
3.0
 40
3.0
 40
3.0
 40
4.0
 40
4.0
 40
4.0
 40
5.0
 40
5.0
 40
5.0
 40
6.0
 40
6.0
 40
6.0
 40
6.0
 10
246.9168836188263
 20
-136.8381591454779
 30
0.0
 10
246.9168836188263
 20
-137.3149603606365
 30
0.0
 10
247.1094644564518
 20
-137.5991807381696
 30
0.0
 10
247.6782497210666
 20
-137.7001220358875
 30
0.0
 10
247.6782497210666
 20
-137.7001220358875
 30
0.0
 10
251.200515345186
 20
-138.3240288282662
 30
0.0
 10
251.200515345186
 20
-138.3240288282662
 30
0.0
 10
251.7689561002522
 20
-138.4156683681738
 30
0.0
 10
251.9618814474262
 20
-138.2048285244765
 30
0.0
 10
251.9618814474262
 20
-137.7187255515078
 30
0.0
 10
251.9618814474262
 20
-137.2415798268007
 30
0.0
 10
251.7689561002522
 20
-136.9480576914574
 30
0.0
 10
251.200515345186
 20
-136.8564181515498
 30
0.0
 10
251.200515345186
 20
-136.8564181515498
 30
0.0
 10
247.6782497210666
 20
-136.232511359171
 30
0.0
 10
247.6782497210666
 20
-136.232511359171
 30
0.0
 10
247.1094644564518
 20
-136.1315700614532
 30
0.0
 10
246.9168836188263
 20
-136.3517116629607
 30
0.0
 10
246.9168836188263
 20
-136.8381591454779
 30
0.0
  0
SPLINE
  5
90
330
88
100
AcDbEntity
  8
Layer 1
100
AcDbSpline
210
0.0
220
0.0
230
1.0
 70
     9
 71
     3
 72
    29
 73
    25
 74
     0
 42
0.0000000001
 43
0.0000000001
 40
0.0
 40
0.0
 40
0.0
 40
0.0
 40
1.0
 40
1.0
 40
1.0
 40
2.0
 40
2.0
 40
2.0
 40
3.0
 40
3.0
 40
3.0
 40
4.0
 40
4.0
 40
4.0
 40
5.0
 40
5.0
 40
5.0
 40
6.0
 40
6.0
 40
6.0
 40
7.0
 40
7.0
 40
7.0
 40
8.0
 40
8.0
 40
8.0
 40
8.0
 10
252.7232475496664
 20
-137.8193223396771
 30
0.0
 10
252.7232475496664
 20
-137.8193223396771
 30
0.0
 10
252.7232475496664
 20
-137.8927028735129
 30
0.0
 10
252.7232475496664
 20
-137.8927028735129
 30
0.0
 10
252.7232475496664
 20
-138.7732692795428
 30
0.0
 10
252.310180600985
 20
-139.3789170658497
 30
0.0
 10
251.3655354189295
 20
-139.2135524825577
 30
0.0
 10
251.3655354189295
 20
-139.2135524825577
 30
0.0
 10
247.5128851377746
 20
-138.5348686719635
 30
0.0
 10
247.5128851377746
 20
-138.5348686719635
 30
0.0
 10
246.5682399557191
 20
-138.36984859822
 30
0.0
 10
246.1555175165861
 20
-137.8010633336053
 30
0.0
 10
246.1555175165861
 20
-136.7372178477601
 30
0.0
 10
246.1555175165861
 20
-136.7372178477601
 30
0.0
 10
246.1555175165861
 20
-136.6638373139243
 30
0.0
 10
246.1555175165861
 20
-136.6638373139243
 30
0.0
 10
246.1555175165861
 20
-135.7832709078944
 30
0.0
 10
246.5682399557191
 20
-135.1686658733259
 30
0.0
 10
247.5128851377746
 20
-135.3429877048795
 30
0.0
 10
247.5128851377746
 20
-135.3429877048795
 30
0.0
 10
251.3655354189295
 20
-136.0216715154737
 30
0.0
 10
251.3655354189295
 20
-136.0216715154737
 30
0.0
 10
252.3194823587951
 20
-136.1866915892172
 30
0.0
 10
252.7232475496664
 20
-136.7554768538319
 30
0.0
 10
252.7232475496664
 20
-137.8193223396771
 30
0.0
  0
HATCH
  5
91
330
88
100
AcDbEntity
  8
Layer 1
 62
   250
420
  1907995
440
 33554687
100
AcDbHatch
 10
0.0
 20
0.0
 30
0.0
210
0.0
220
0.0
230
1.0
  2
SOLID
 70
     1
 71
     1
 91
        2
 92
        1
 93
        1
 72
     4
 94
        3
 73
     0
 74
     0
 95
       23
 96
       19
 40
0.0
 40
0.0
 40
0.0
 40
0.0
 40
1.0
 40
1.0
 40
1.0
 40
2.0
 40
2.0
 40
2.0
 40
3.0
 40
3.0
 40
3.0
 40
4.0
 40
4.0
 40
4.0
 40
5.0
 40
5.0
 40
5.0
 40
6.0
 40
6.0
 40
6.0
 40
6.0
 10
246.9168836188263
 20
-136.8381591454779
 10
246.9168836188263
 20
-137.3149603606365
 10
247.1094644564518
 20
-137.5991807381696
 10
247.6782497210666
 20
-137.7001220358875
 10
247.6782497210666
 20
-137.7001220358875
 10
251.200515345186
 20
-138.3240288282662
 10
251.200515345186
 20
-138.3240288282662
 10
251.7689561002522
 20
-138.4156683681738
 10
251.9618814474262
 20
-138.2048285244765
 10
251.9618814474262
 20
-137.7187255515078
 10
251.9618814474262
 20
-137.2415798268007
 10
251.7689561002522
 20
-136.9480576914574
 10
251.200515345186
 20
-136.8564181515498
 10
251.200515345186
 20
-136.8564181515498
 10
247.6782497210666
 20
-136.232511359171
 10
247.6782497210666
 20
-136.232511359171
 10
247.1094644564518
 20
-136.1315700614532
 10
246.9168836188263
 20
-136.3517116629607
 10
246.9168836188263
 20
-136.8381591454779
 97
        0
 97
        1
330
8F
 92
        1
 93
        1
 72
     4
 94
        3
 73
     0
 74
     0
 95
       29
 96
       25
 40
0.0
 40
0.0
 40
0.0
 40
0.0
 40
1.0
 40
1.0
 40
1.0
 40
2.0
 40
2.0
 40
2.0
 40
3.0
 40
3.0
 40
3.0
 40
4.0
 40
4.0
 40
4.0
 40
5.0
 40
5.0
 40
5.0
 40
6.0
 40
6.0
 40
6.0
 40
7.0
 40
7.0
 40
7.0
 40
8.0
 40
8.0
 40
8.0
 40
8.0
 10
252.7232475496664
 20
-137.8193223396771
 10
252.7232475496664
 20
-137.8193223396771
 10
252.7232475496664
 20
-137.8927028735129
 10
252.7232475496664
 20
-137.8927028735129
 10
252.7232475496664
 20
-138.7732692795428
 10
252.310180600985
 20
-139.3789170658497
 10
251.3655354189295
 20
-139.2135524825577
 10
251.3655354189295
 20
-139.2135524825577
 10
247.5128851377746
 20
-138.5348686719635
 10
247.5128851377746
 20
-138.5348686719635
 10
246.5682399557191
 20
-138.36984859822
 10
246.1555175165861
 20
-137.8010633336053
 10
246.1555175165861
 20
-136.7372178477601
 10
246.1555175165861
 20
-136.7372178477601
 10
246.1555175165861
 20
-136.6638373139243
 10
246.1555175165861
 20
-136.6638373139243
 10
246.1555175165861
 20
-135.7832709078944
 10
246.5682399557191
 20
-135.1686658733259
 10
247.5128851377746
 20
-135.3429877048795
 10
247.5128851377746
 20
-135.3429877048795
 10
251.3655354189295
 20
-136.0216715154737
 10
251.3655354189295
 20
-136.0216715154737
 10
252.3194823587951
 20
-136.1866915892172
 10
252.7232475496664
 20
-136.7554768538319
 10
252.7232475496664
 20
-137.8193223396771
 97
        0
 97
        1
330
90
 75
     2
 76
     1
 98
        1
 10
0.0
 20
0.0
450
        0
451
        0
460
0.0
461
0.0
452
        0
462
0.0
453
        0
470

  0
SPLINE
  5
92
330
88
100
AcDbEntity
  8
Layer 1
100
AcDbSpline
210
0.0
220
0.0
230
1.0
 70
    11
 71
     3
 72
    44
 73
    40
 74
     0
 42
0.0000000001
 43
0.0000000001
 40
0.0
 40
0.0
 40
0.0
 40
0.0
 40
1.0
 40
1.0
 40
1.0
 40
2.0
 40
2.0
 40
2.0
 40
3.0
 40
3.0
 40
3.0
 40
4.0
 40
4.0
 40
4.0
 40
5.0
 40
5.0
 40
5.0
 40
6.0
 40
6.0
 40
6.0
 40
7.0
 40
7.0
 40
7.0
 40
8.0
 40
8.0
 40
8.0
 40
9.0
 40
9.0
 40
9.0
 40
10.0
 40
10.0
 40
10.0
 40
11.0
 40
11.0
 40
11.0
 40
12.0
 40
12.0
 40
12.0
 40
13.0
 40
13.0
 40
13.0
 40
13.0
 10
246.228898050422
 20
-143.4327609233432
 30
0.0
 10
246.228898050422
 20
-143.4327609233432
 30
0.0
 10
246.228898050422
 20
-142.616273293339
 30
0.0
 10
246.228898050422
 20
-142.616273293339
 30
0.0
 10
246.228898050422
 20
-142.616273293339
 30
0.0
 10
251.0079345075605
 20
-142.5339355112415
 30
0.0
 10
251.0079345075605
 20
-142.5339355112415
 30
0.0
 10
251.0079345075605
 20
-142.5339355112415
 30
0.0
 10
246.228898050422
 20
-140.75454369311
 30
0.0
 10
246.228898050422
 20
-140.75454369311
 30
0.0
 10
246.228898050422
 20
-140.75454369311
 30
0.0
 10
246.228898050422
 20
-139.9104952992238
 30
0.0
 10
246.228898050422
 20
-139.9104952992238
 30
0.0
 10
246.228898050422
 20
-139.9104952992238
 30
0.0
 10
252.649522506282
 20
-140.0021348391314
 30
0.0
 10
252.649522506282
 20
-140.0021348391314
 30
0.0
 10
252.649522506282
 20
-140.0021348391314
 30
0.0
 10
252.649522506282
 20
-140.8368814752074
 30
0.0
 10
252.649522506282
 20
-140.8368814752074
 30
0.0
 10
252.649522506282
 20
-140.8368814752074
 30
0.0
 10
247.7698892609742
 20
-140.6260416315101
 30
0.0
 10
247.7698892609742
 20
-140.6260416315101
 30
0.0
 10
247.7698892609742
 20
-140.6260416315101
 30
0.0
 10
252.649522506282
 20
-142.4054334496417
 30
0.0
 10
252.649522506282
 20
-142.4054334496417
 30
0.0
 10
252.649522506282
 20
-142.4054334496417
 30
0.0
 10
252.649522506282
 20
-143.1943603157639
 30
0.0
 10
252.649522506282
 20
-143.1943603157639
 30
0.0
 10
252.649522506282
 20
-143.1943603157639
 30
0.0
 10
247.7698892609742
 20
-143.2584390917895
 30
0.0
 10
247.7698892609742
 20
-143.2584390917895
 30
0.0
 10
247.7698892609742
 20
-143.2584390917895
 30
0.0
 10
252.649522506282
 20
-144.7629122901981
 30
0.0
 10
252.649522506282
 20
-144.7629122901981
 30
0.0
 10
252.649522506282
 20
-144.7629122901981
 30
0.0
 10
252.649522506282
 20
-145.5976589262742
 30
0.0
 10
252.649522506282
 20
-145.5976589262742
 30
0.0
 10
252.649522506282
 20
-145.5976589262742
 30
0.0
 10
246.228898050422
 20
-143.4327609233432
 30
0.0
 10
246.228898050422
 20
-143.4327609233432
 30
0.0
  0
HATCH
  5
93
330
88
100
AcDbEntity
  8
Layer 1
 62
   250
420
  1907995
440
 33554687
100
AcDbHatch
 10
0.0
 20
0.0
 30
0.0
210
0.0
220
0.0
230
1.0
  2
SOLID
 70
     1
 71
     1
 91
        1
 92
        1
 93
        1
 72
     4
 94
        3
 73
     0
 74
     0
 95
       44
 96
       40
 40
0.0
 40
0.0
 40
0.0
 40
0.0
 40
1.0
 40
1.0
 40
1.0
 40
2.0
 40
2.0
 40
2.0
 40
3.0
 40
3.0
 40
3.0
 40
4.0
 40
4.0
 40
4.0
 40
5.0
 40
5.0
 40
5.0
 40
6.0
 40
6.0
 40
6.0
 40
7.0
 40
7.0
 40
7.0
 40
8.0
 40
8.0
 40
8.0
 40
9.0
 40
9.0
 40
9.0
 40
10.0
 40
10.0
 40
10.0
 40
11.0
 40
11.0
 40
11.0
 40
12.0
 40
12.0
 40
12.0
 40
13.0
 40
13.0
 40
13.0
 40
13.0
 10
246.228898050422
 20
-143.4327609233432
 10
246.228898050422
 20
-143.4327609233432
 10
246.228898050422
 20
-142.616273293339
 10
246.228898050422
 20
-142.616273293339
 10
246.228898050422
 20
-142.616273293339
 10
251.0079345075605
 20
-142.5339355112415
 10
251.0079345075605
 20
-142.5339355112415
 10
251.0079345075605
 20
-142.5339355112415
 10
246.228898050422
 20
-140.75454369311
 10
246.228898050422
 20
-140.75454369311
 10
246.228898050422
 20
-140.75454369311
 10
246.228898050422
 20
-139.9104952992238
 10
246.228898050422
 20
-139.9104952992238
 10
246.228898050422
 20
-139.9104952992238
 10
252.649522506282
 20
-140.0021348391314
 10
252.649522506282
 20
-140.0021348391314
 10
252.649522506282
 20
-140.0021348391314
 10
252.649522506282
 20
-140.8368814752074
 10
252.649522506282
 20
-140.8368814752074
 10
252.649522506282
 20
-140.8368814752074
 10
247.7698892609742
 20
-140.6260416315101
 10
247.7698892609742
 20
-140.6260416315101
 10
247.7698892609742
 20
-140.6260416315101
 10
252.649522506282
 20
-142.4054334496417
 10
252.649522506282
 20
-142.4054334496417
 10
252.649522506282
 20
-142.4054334496417
 10
252.649522506282
 20
-143.1943603157639
 10
252.649522506282
 20
-143.1943603157639
 10
252.649522506282
 20
-143.1943603157639
 10
247.7698892609742
 20
-143.2584390917895
 10
247.7698892609742
 20
-143.2584390917895
 10
247.7698892609742
 20
-143.2584390917895
 10
252.649522506282
 20
-144.7629122901981
 10
252.649522506282
 20
-144.7629122901981
 10
252.649522506282
 20
-144.7629122901981
 10
252.649522506282
 20
-145.5976589262742
 10
252.649522506282
 20
-145.5976589262742
 10
252.649522506282
 20
-145.5976589262742
 10
246.228898050422
 20
-143.4327609233432
 10
246.228898050422
 20
-143.4327609233432
 97
        0
 97
        1
330
92
 75
     2
 76
     1
 98
        1
 10
0.0
 20
0.0
450
        0
451
        0
460
0.0
461
0.0
452
        0
462
0.0
453
        0
470

  0
SPLINE
  5
94
330
88
100
AcDbEntity
  8
Layer 1
100
AcDbSpline
210
0.0
220
0.0
230
1.0
 70
    11
 71
     3
 72
    41
 73
    37
 74
     0
 42
0.0000000001
 43
0.0000000001
 40
0.0
 40
0.0
 40
0.0
 40
0.0
 40
1.0
 40
1.0
 40
1.0
 40
2.0
 40
2.0
 40
2.0
 40
3.0
 40
3.0
 40
3.0
 40
4.0
 40
4.0
 40
4.0
 40
5.0
 40
5.0
 40
5.0
 40
6.0
 40
6.0
 40
6.0
 40
7.0
 40
7.0
 40
7.0
 40
8.0
 40
8.0
 40
8.0
 40
9.0
 40
9.0
 40
9.0
 40
10.0
 40
10.0
 40
10.0
 40
11.0
 40
11.0
 40
11.0
 40
12.0
 40
12.0
 40
12.0
 40
12.0
 10
246.228898050422
 20
-145.1298149593773
 30
0.0
 10
246.228898050422
 20
-145.1298149593773
 30
0.0
 10
252.649522506282
 20
-146.257739221248
 30
0.0
 10
252.649522506282
 20
-146.257739221248
 30
0.0
 10
252.649522506282
 20
-146.257739221248
 30
0.0
 10
252.649522506282
 20
-148.9638617249118
 30
0.0
 10
252.649522506282
 20
-148.9638617249118
 30
0.0
 10
252.649522506282
 20
-148.9638617249118
 30
0.0
 10
251.8885009135904
 20
-148.835359663312
 30
0.0
 10
251.8885009135904
 20
-148.835359663312
 30
0.0
 10
251.8885009135904
 20
-148.835359663312
 30
0.0
 10
251.8885009135904
 20
-146.9825873113446
 30
0.0
 10
251.8885009135904
 20
-146.9825873113446
 30
0.0
 10
251.8885009135904
 20
-146.9825873113446
 30
0.0
 10
249.870363978331
 20
-146.6339436482373
 30
0.0
 10
249.870363978331
 20
-146.6339436482373
 30
0.0
 10
249.870363978331
 20
-146.6339436482373
 30
0.0
 10
249.870363978331
 20
-148.1931938648614
 30
0.0
 10
249.870363978331
 20
-148.1931938648614
 30
0.0
 10
249.870363978331
 20
-148.1931938648614
 30
0.0
 10
249.1000406278292
 20
-148.0650363128101
 30
0.0
 10
249.1000406278292
 20
-148.0650363128101
 30
0.0
 10
249.1000406278292
 20
-148.0650363128101
 30
0.0
 10
249.1000406278292
 20
-146.4964843383759
 30
0.0
 10
249.1000406278292
 20
-146.4964843383759
 30
0.0
 10
249.1000406278292
 20
-146.4964843383759
 30
0.0
 10
246.9902641526622
 20
-146.1295816691967
 30
0.0
 10
246.9902641526622
 20
-146.1295816691967
 30
0.0
 10
246.9902641526622
 20
-146.1295816691967
 30
0.0
 10
246.9902641526622
 20
-148.0006130272359
 30
0.0
 10
246.9902641526622
 20
-148.0006130272359
 30
0.0
 10
246.9902641526622
 20
-148.0006130272359
 30
0.0
 10
246.228898050422
 20
-147.8631537173745
 30
0.0
 10
246.228898050422
 20
-147.8631537173745
 30
0.0
 10
246.228898050422
 20
-147.8631537173745
 30
0.0
 10
246.228898050422
 20
-145.1298149593773
 30
0.0
 10
246.228898050422
 20
-145.1298149593773
 30
0.0
  0
HATCH
  5
95
330
88
100
AcDbEntity
  8
Layer 1
 62
   250
420
  1907995
440
 33554687
100
AcDbHatch
 10
0.0
 20
0.0
 30
0.0
210
0.0
220
0.0
230
1.0
  2
SOLID
 70
     1
 71
     1
 91
        1
 92
        1
 93
        1
 72
     4
 94
        3
 73
     0
 74
     0
 95
       41
 96
       37
 40
0.0
 40
0.0
 40
0.0
 40
0.0
 40
1.0
 40
1.0
 40
1.0
 40
2.0
 40
2.0
 40
2.0
 40
3.0
 40
3.0
 40
3.0
 40
4.0
 40
4.0
 40
4.0
 40
5.0
 40
5.0
 40
5.0
 40
6.0
 40
6.0
 40
6.0
 40
7.0
 40
7.0
 40
7.0
 40
8.0
 40
8.0
 40
8.0
 40
9.0
 40
9.0
 40
9.0
 40
10.0
 40
10.0
 40
10.0
 40
11.0
 40
11.0
 40
11.0
 40
12.0
 40
12.0
 40
12.0
 40
12.0
 10
246.228898050422
 20
-145.1298149593773
 10
246.228898050422
 20
-145.1298149593773
 10
252.649522506282
 20
-146.257739221248
 10
252.649522506282
 20
-146.257739221248
 10
252.649522506282
 20
-146.257739221248
 10
252.649522506282
 20
-148.9638617249118
 10
252.649522506282
 20
-148.9638617249118
 10
252.649522506282
 20
-148.9638617249118
 10
251.8885009135904
 20
-148.835359663312
 10
251.8885009135904
 20
-148.835359663312
 10
251.8885009135904
 20
-148.835359663312
 10
251.8885009135904
 20
-146.9825873113446
 10
251.8885009135904
 20
-146.9825873113446
 10
251.8885009135904
 20
-146.9825873113446
 10
249.870363978331
 20
-146.6339436482373
 10
249.870363978331
 20
-146.6339436482373
 10
249.870363978331
 20
-146.6339436482373
 10
249.870363978331
 20
-148.1931938648614
 10
249.870363978331
 20
-148.1931938648614
 10
249.870363978331
 20
-148.1931938648614
 10
249.1000406278292
 20
-148.0650363128101
 10
249.1000406278292
 20
-148.0650363128101
 10
249.1000406278292
 20
-148.0650363128101
 10
249.1000406278292
 20
-146.4964843383759
 10
249.1000406278292
 20
-146.4964843383759
 10
249.1000406278292
 20
-146.4964843383759
 10
246.9902641526622
 20
-146.1295816691967
 10
246.9902641526622
 20
-146.1295816691967
 10
246.9902641526622
 20
-146.1295816691967
 10
246.9902641526622
 20
-148.0006130272359
 10
246.9902641526622
 20
-148.0006130272359
 10
246.9902641526622
 20
-148.0006130272359
 10
246.228898050422
 20
-147.8631537173745
 10
246.228898050422
 20
-147.8631537173745
 10
246.228898050422
 20
-147.8631537173745
 10
246.228898050422
 20
-145.1298149593773
 10
246.228898050422
 20
-145.1298149593773
 97
        0
 97
        1
330
94
 75
     2
 76
     1
 98
        1
 10
0.0
 20
0.0
450
        0
451
        0
460
0.0
461
0.0
452
        0
462
0.0
453
        0
470

  0
SPLINE
  5
96
330
88
100
AcDbEntity
  8
Layer 1
100
AcDbSpline
210
0.0
220
0.0
230
1.0
 70
     9
 71
     3
 72
    23
 73
    19
 74
     0
 42
0.0000000001
 43
0.0000000001
 40
0.0
 40
0.0
 40
0.0
 40
0.0
 40
1.0
 40
1.0
 40
1.0
 40
2.0
 40
2.0
 40
2.0
 40
3.0
 40
3.0
 40
3.0
 40
4.0
 40
4.0
 40
4.0
 40
5.0
 40
5.0
 40
5.0
 40
6.0
 40
6.0
 40
6.0
 40
6.0
 10
251.8885009135904
 20
-151.2569172798941
 30
0.0
 10
251.8885009135904
 20
-151.2569172798941
 30
0.0
 10
251.8885009135904
 20
-150.5506727054179
 30
0.0
 10
251.8885009135904
 20
-150.5506727054179
 30
0.0
 10
251.8885009135904
 20
-150.5506727054179
 30
0.0
 10
249.61370436468
 20
-150.1562092723568
 30
0.0
 10
249.61370436468
 20
-150.1562092723568
 30
0.0
 10
249.61370436468
 20
-150.1562092723568
 30
0.0
 10
249.61370436468
 20
-150.862453846833
 30
0.0
 10
249.61370436468
 20
-150.862453846833
 30
0.0
 10
249.61370436468
 20
-151.3485568198017
 30
0.0
 10
249.8062852023054
 20
-151.6327771973348
 30
0.0
 10
250.3750704669201
 20
-151.7337184950527
 30
0.0
 10
250.3750704669201
 20
-151.7337184950527
 30
0.0
 10
251.1271348113502
 20
-151.8622205566525
 30
0.0
 10
251.1271348113502
 20
-151.8622205566525
 30
0.0
 10
251.6959200759649
 20
-151.9631618543703
 30
0.0
 10
251.8885009135904
 20
-151.7430202528628
 30
0.0
 10
251.8885009135904
 20
-151.2569172798941
 30
0.0
  0
SPLINE
  5
97
330
88
100
AcDbEntity
  8
Layer 1
100
AcDbSpline
210
0.0
220
0.0
230
1.0
 70
     9
 71
     3
 72
    41
 73
    37
 74
     0
 42
0.0000000001
 43
0.0000000001
 40
0.0
 40
0.0
 40
0.0
 40
0.0
 40
1.0
 40
1.0
 40
1.0
 40
2.0
 40
2.0
 40
2.0
 40
3.0
 40
3.0
 40
3.0
 40
4.0
 40
4.0
 40
4.0
 40
5.0
 40
5.0
 40
5.0
 40
6.0
 40
6.0
 40
6.0
 40
7.0
 40
7.0
 40
7.0
 40
8.0
 40
8.0
 40
8.0
 40
9.0
 40
9.0
 40
9.0
 40
10.0
 40
10.0
 40
10.0
 40
11.0
 40
11.0
 40
11.0
 40
12.0
 40
12.0
 40
12.0
 40
12.0
 10
251.2921548850937
 20
-152.7520887204925
 30
0.0
 10
251.2921548850937
 20
-152.7520887204925
 30
0.0
 10
250.2190076414383
 20
-152.5684651311287
 30
0.0
 10
250.2190076414383
 20
-152.5684651311287
 30
0.0
 10
249.5585828369159
 20
-152.4492648273391
 30
0.0
 10
249.1641194038548
 20
-152.1374836859239
 30
0.0
 10
248.980495814491
 20
-151.5962591851912
 30
0.0
 10
248.980495814491
 20
-151.5962591851912
 30
0.0
 10
246.228898050422
 20
-152.08236215816
 30
0.0
 10
246.228898050422
 20
-152.08236215816
 30
0.0
 10
246.228898050422
 20
-152.08236215816
 30
0.0
 10
246.228898050422
 20
-151.2200547582019
 30
0.0
 10
246.228898050422
 20
-151.2200547582019
 30
0.0
 10
246.228898050422
 20
-151.2200547582019
 30
0.0
 10
248.8612955107014
 20
-150.7890733129972
 30
0.0
 10
248.8612955107014
 20
-150.7890733129972
 30
0.0
 10
248.8612955107014
 20
-150.7890733129972
 30
0.0
 10
248.8612955107014
 20
-150.7615125491152
 30
0.0
 10
248.8612955107014
 20
-150.7615125491152
 30
0.0
 10
248.8612955107014
 20
-150.7615125491152
 30
0.0
 10
248.8612955107014
 20
-150.0184054529468
 30
0.0
 10
248.8612955107014
 20
-150.0184054529468
 30
0.0
 10
248.8612955107014
 20
-150.0184054529468
 30
0.0
 10
246.228898050422
 20
-149.55986324386
 30
0.0
 10
246.228898050422
 20
-149.55986324386
 30
0.0
 10
246.228898050422
 20
-149.55986324386
 30
0.0
 10
246.228898050422
 20
-148.697555843902
 30
0.0
 10
246.228898050422
 20
-148.697555843902
 30
0.0
 10
246.228898050422
 20
-148.697555843902
 30
0.0
 10
252.649522506282
 20
-149.8258246153213
 30
0.0
 10
252.649522506282
 20
-149.8258246153213
 30
0.0
 10
252.649522506282
 20
-149.8258246153213
 30
0.0
 10
252.649522506282
 20
-151.4312391114477
 30
0.0
 10
252.649522506282
 20
-151.4312391114477
 30
0.0
 10
252.649522506282
 20
-152.3118055174776
 30
0.0
 10
252.2368000671491
 20
-152.9264105520462
 30
0.0
 10
251.2921548850937
 20
-152.7520887204925
 30
0.0
  0
HATCH
  5
98
330
88
100
AcDbEntity
  8
Layer 1
 62
   250
420
  1907995
440
 33554687
100
AcDbHatch
 10
0.0
 20
0.0
 30
0.0
210
0.0
220
0.0
230
1.0
  2
SOLID
 70
     1
 71
     1
 91
        2
 92
        1
 93
        1
 72
     4
 94
        3
 73
     0
 74
     0
 95
       23
 96
       19
 40
0.0
 40
0.0
 40
0.0
 40
0.0
 40
1.0
 40
1.0
 40
1.0
 40
2.0
 40
2.0
 40
2.0
 40
3.0
 40
3.0
 40
3.0
 40
4.0
 40
4.0
 40
4.0
 40
5.0
 40
5.0
 40
5.0
 40
6.0
 40
6.0
 40
6.0
 40
6.0
 10
251.8885009135904
 20
-151.2569172798941
 10
251.8885009135904
 20
-151.2569172798941
 10
251.8885009135904
 20
-150.5506727054179
 10
251.8885009135904
 20
-150.5506727054179
 10
251.8885009135904
 20
-150.5506727054179
 10
249.61370436468
 20
-150.1562092723568
 10
249.61370436468
 20
-150.1562092723568
 10
249.61370436468
 20
-150.1562092723568
 10
249.61370436468
 20
-150.862453846833
 10
249.61370436468
 20
-150.862453846833
 10
249.61370436468
 20
-151.3485568198017
 10
249.8062852023054
 20
-151.6327771973348
 10
250.3750704669201
 20
-151.7337184950527
 10
250.3750704669201
 20
-151.7337184950527
 10
251.1271348113502
 20
-151.8622205566525
 10
251.1271348113502
 20
-151.8622205566525
 10
251.6959200759649
 20
-151.9631618543703
 10
251.8885009135904
 20
-151.7430202528628
 10
251.8885009135904
 20
-151.2569172798941
 97
        0
 97
        1
330
96
 92
        1
 93
        1
 72
     4
 94
        3
 73
     0
 74
     0
 95
       41
 96
       37
 40
0.0
 40
0.0
 40
0.0
 40
0.0
 40
1.0
 40
1.0
 40
1.0
 40
2.0
 40
2.0
 40
2.0
 40
3.0
 40
3.0
 40
3.0
 40
4.0
 40
4.0
 40
4.0
 40
5.0
 40
5.0
 40
5.0
 40
6.0
 40
6.0
 40
6.0
 40
7.0
 40
7.0
 40
7.0
 40
8.0
 40
8.0
 40
8.0
 40
9.0
 40
9.0
 40
9.0
 40
10.0
 40
10.0
 40
10.0
 40
11.0
 40
11.0
 40
11.0
 40
12.0
 40
12.0
 40
12.0
 40
12.0
 10
251.2921548850937
 20
-152.7520887204925
 10
251.2921548850937
 20
-152.7520887204925
 10
250.2190076414383
 20
-152.5684651311287
 10
250.2190076414383
 20
-152.5684651311287
 10
249.5585828369159
 20
-152.4492648273391
 10
249.1641194038548
 20
-152.1374836859239
 10
248.980495814491
 20
-151.5962591851912
 10
248.980495814491
 20
-151.5962591851912
 10
246.228898050422
 20
-152.08236215816
 10
246.228898050422
 20
-152.08236215816
 10
246.228898050422
 20
-152.08236215816
 10
246.228898050422
 20
-151.2200547582019
 10
246.228898050422
 20
-151.2200547582019
 10
246.228898050422
 20
-151.2200547582019
 10
248.8612955107014
 20
-150.7890733129972
 10
248.8612955107014
 20
-150.7890733129972
 10
248.8612955107014
 20
-150.7890733129972
 10
248.8612955107014
 20
-150.7615125491152
 10
248.8612955107014
 20
-150.7615125491152
 10
248.8612955107014
 20
-150.7615125491152
 10
248.8612955107014
 20
-150.0184054529468
 10
248.8612955107014
 20
-150.0184054529468
 10
248.8612955107014
 20
-150.0184054529468
 10
246.228898050422
 20
-149.55986324386
 10
246.228898050422
 20
-149.55986324386
 10
246.228898050422
 20
-149.55986324386
 10
246.228898050422
 20
-148.697555843902
 10
246.228898050422
 20
-148.697555843902
 10
246.228898050422
 20
-148.697555843902
 10
252.649522506282
 20
-149.8258246153213
 10
252.649522506282
 20
-149.8258246153213
 10
252.649522506282
 20
-149.8258246153213
 10
252.649522506282
 20
-151.4312391114477
 10
252.649522506282
 20
-151.4312391114477
 10
252.649522506282
 20
-152.3118055174776
 10
252.2368000671491
 20
-152.9264105520462
 10
251.2921548850937
 20
-152.7520887204925
 97
        0
 97
        1
330
97
 75
     2
 76
     1
 98
        1
 10
0.0
 20
0.0
450
        0
451
        0
460
0.0
461
0.0
452
        0
462
0.0
453
        0
470

  0
ENDBLK
  5
8B
330
88
100
AcDbEntity
  8
0
100
AcDbBlockEnd
  0
BLOCK
  5
9C
330
9A
100
AcDbEntity
  8
0
100
AcDbBlockBegin
  2
Block_3
 70
     0
 10
0.0
 20
0.0
 30
0.0
  3
Block_3
  1

  0
SPLINE
  5
9E
330
9A
100
AcDbEntity
  8
Layer 1
100
AcDbSpline
210
0.0
220
0.0
230
1.0
 70
    11
 71
     3
 72
    14
 73
    10
 74
     0
 42
0.0000000001
 43
0.0000000001
 40
0.0
 40
0.0
 40
0.0
 40
0.0
 40
1.0
 40
1.0
 40
1.0
 40
2.0
 40
2.0
 40
2.0
 40
3.0
 40
3.0
 40
3.0
 40
3.0
 10
248.4671765871888
 20
-77.10399303627956
 30
0.0
 10
248.4671765871888
 20
-77.10399303627956
 30
0.0
 10
251.5674180143651
 20
-77.08573403020773
 30
0.0
 10
251.5674180143651
 20
-77.08573403020773
 30
0.0
 10
251.5674180143651
 20
-77.08573403020773
 30
0.0
 10
248.4671765871888
 20
-75.98502602267041
 30
0.0
 10
248.4671765871888
 20
-75.98502602267041
 30
0.0
 10
248.4671765871888
 20
-75.98502602267041
 30
0.0
 10
248.4671765871888
 20
-77.10399303627956
 30
0.0
 10
248.4671765871888
 20
-77.10399303627956
 30
0.0
  0
SPLINE
  5
9F
330
9A
100
AcDbEntity
  8
Layer 1
100
AcDbSpline
210
0.0
220
0.0
230
1.0
 70
    11
 71
     3
 72
    29
 73
    25
 74
     0
 42
0.0000000001
 43
0.0000000001
 40
0.0
 40
0.0
 40
0.0
 40
0.0
 40
1.0
 40
1.0
 40
1.0
 40
2.0
 40
2.0
 40
2.0
 40
3.0
 40
3.0
 40
3.0
 40
4.0
 40
4.0
 40
4.0
 40
5.0
 40
5.0
 40
5.0
 40
6.0
 40
6.0
 40
6.0
 40
7.0
 40
7.0
 40
7.0
 40
8.0
 40
8.0
 40
8.0
 40
8.0
 10
247.7423284970922
 20
-77.10399303627956
 30
0.0
 10
247.7423284970922
 20
-77.10399303627956
 30
0.0
 10
247.7423284970922
 20
-75.72802189947077
 30
0.0
 10
247.7423284970922
 20
-75.72802189947077
 30
0.0
 10
247.7423284970922
 20
-75.72802189947077
 30
0.0
 10
246.228898050422
 20
-75.18679739873802
 30
0.0
 10
246.228898050422
 20
-75.18679739873802
 30
0.0
 10
246.228898050422
 20
-75.18679739873802
 30
0.0
 10
246.228898050422
 20
-74.33379175659017
 30
0.0
 10
246.228898050422
 20
-74.33379175659017
 30
0.0
 10
246.228898050422
 20
-74.33379175659017
 30
0.0
 10
252.649522506282
 20
-76.73709036710045
 30
0.0
 10
252.649522506282
 20
-76.73709036710045
 30
0.0
 10
252.649522506282
 20
-76.73709036710045
 30
0.0
 10
252.649522506282
 20
-77.80128036249412
 30
0.0
 10
252.649522506282
 20
-77.80128036249412
 30
0.0
 10
252.649522506282
 20
-77.80128036249412
 30
0.0
 10
246.228898050422
 20
-77.96630043623759
 30
0.0
 10
246.228898050422
 20
-77.96630043623759
 30
0.0
 10
246.228898050422
 20
-77.96630043623759
 30
0.0
 10
246.228898050422
 20
-77.11329479408973
 30
0.0
 10
246.228898050422
 20
-77.11329479408973
 30
0.0
 10
246.228898050422
 20
-77.11329479408973
 30
0.0
 10
247.7423284970922
 20
-77.10399303627956
 30
0.0
 10
247.7423284970922
 20
-77.10399303627956
 30
0.0
  0
HATCH
  5
A0
330
9A
100
AcDbEntity
  8
Layer 1
 62
   250
420
  1907995
440
 33554687
100
AcDbHatch
 10
0.0
 20
0.0
 30
0.0
210
0.0
220
0.0
230
1.0
  2
SOLID
 70
     1
 71
     1
 91
        2
 92
        1
 93
        1
 72
     4
 94
        3
 73
     0
 74
     0
 95
       14
 96
       10
 40
0.0
 40
0.0
 40
0.0
 40
0.0
 40
1.0
 40
1.0
 40
1.0
 40
2.0
 40
2.0
 40
2.0
 40
3.0
 40
3.0
 40
3.0
 40
3.0
 10
248.4671765871888
 20
-77.10399303627956
 10
248.4671765871888
 20
-77.10399303627956
 10
251.5674180143651
 20
-77.08573403020773
 10
251.5674180143651
 20
-77.08573403020773
 10
251.5674180143651
 20
-77.08573403020773
 10
248.4671765871888
 20
-75.98502602267041
 10
248.4671765871888
 20
-75.98502602267041
 10
248.4671765871888
 20
-75.98502602267041
 10
248.4671765871888
 20
-77.10399303627956
 10
248.4671765871888
 20
-77.10399303627956
 97
        0
 97
        1
330
9E
 92
        1
 93
        1
 72
     4
 94
        3
 73
     0
 74
     0
 95
       29
 96
       25
 40
0.0
 40
0.0
 40
0.0
 40
0.0
 40
1.0
 40
1.0
 40
1.0
 40
2.0
 40
2.0
 40
2.0
 40
3.0
 40
3.0
 40
3.0
 40
4.0
 40
4.0
 40
4.0
 40
5.0
 40
5.0
 40
5.0
 40
6.0
 40
6.0
 40
6.0
 40
7.0
 40
7.0
 40
7.0
 40
8.0
 40
8.0
 40
8.0
 40
8.0
 10
247.7423284970922
 20
-77.10399303627956
 10
247.7423284970922
 20
-77.10399303627956
 10
247.7423284970922
 20
-75.72802189947077
 10
247.7423284970922
 20
-75.72802189947077
 10
247.7423284970922
 20
-75.72802189947077
 10
246.228898050422
 20
-75.18679739873802
 10
246.228898050422
 20
-75.18679739873802
 10
246.228898050422
 20
-75.18679739873802
 10
246.228898050422
 20
-74.33379175659017
 10
246.228898050422
 20
-74.33379175659017
 10
246.228898050422
 20
-74.33379175659017
 10
252.649522506282
 20
-76.73709036710045
 10
252.649522506282
 20
-76.73709036710045
 10
252.649522506282
 20
-76.73709036710045
 10
252.649522506282
 20
-77.80128036249412
 10
252.649522506282
 20
-77.80128036249412
 10
252.649522506282
 20
-77.80128036249412
 10
246.228898050422
 20
-77.96630043623759
 10
246.228898050422
 20
-77.96630043623759
 10
246.228898050422
 20
-77.96630043623759
 10
246.228898050422
 20
-77.11329479408973
 10
246.228898050422
 20
-77.11329479408973
 10
246.228898050422
 20
-77.11329479408973
 10
247.7423284970922
 20
-77.10399303627956
 10
247.7423284970922
 20
-77.10399303627956
 97
        0
 97
        1
330
9F
 75
     2
 76
     1
 98
        1
 10
0.0
 20
0.0
450
        0
451
        0
460
0.0
461
0.0
452
        0
462
0.0
453
        0
470

  0
SPLINE
  5
A1
330
9A
100
AcDbEntity
  8
Layer 1
100
AcDbSpline
210
0.0
220
0.0
230
1.0
 70
     9
 71
     3
 72
    38
 73
    34
 74
     0
 42
0.0000000001
 43
0.0000000001
 40
0.0
 40
0.0
 40
0.0
 40
0.0
 40
1.0
 40
1.0
 40
1.0
 40
2.0
 40
2.0
 40
2.0
 40
3.0
 40
3.0
 40
3.0
 40
4.0
 40
4.0
 40
4.0
 40
5.0
 40
5.0
 40
5.0
 40
6.0
 40
6.0
 40
6.0
 40
7.0
 40
7.0
 40
7.0
 40
8.0
 40
8.0
 40
8.0
 40
9.0
 40
9.0
 40
9.0
 40
10.0
 40
10.0
 40
10.0
 40
11.0
 40
11.0
 40
11.0
 40
11.0
 10
247.5128851377746
 20
-81.88234047432109
 30
0.0
 10
246.5499809496472
 20
-81.71732040057761
 30
0.0
 10
246.1555175165861
 20
-81.16713865158322
 30
0.0
 10
246.1555175165861
 20
-80.10294865618954
 30
0.0
 10
246.1555175165861
 20
-80.10294865618954
 30
0.0
 10
246.1555175165861
 20
-80.0664306440459
 30
0.0
 10
246.1555175165861
 20
-80.0664306440459
 30
0.0
 10
246.1555175165861
 20
-79.18586423801603
 30
0.0
 10
246.5406791918371
 20
-78.58021645170912
 30
0.0
 10
247.5128851377746
 20
-78.76384004107293
 30
0.0
 10
247.5128851377746
 20
-78.76384004107293
 30
0.0
 10
252.649522506282
 20
-79.66266545317461
 30
0.0
 10
252.649522506282
 20
-79.66266545317461
 30
0.0
 10
252.649522506282
 20
-79.66266545317461
 30
0.0
 10
252.649522506282
 20
-80.52497285313265
 30
0.0
 10
252.649522506282
 20
-80.52497285313265
 30
0.0
 10
252.649522506282
 20
-80.52497285313265
 30
0.0
 10
247.6782497210666
 20
-79.65336369536444
 30
0.0
 10
247.6782497210666
 20
-79.65336369536444
 30
0.0
 10
247.1094644564518
 20
-79.55276690719514
 30
0.0
 10
246.9168836188263
 20
-79.73604598701044
 30
0.0
 10
246.9168836188263
 20
-80.22214895997919
 30
0.0
 10
246.9168836188263
 20
-80.69929468468629
 30
0.0
 10
247.1094644564518
 20
-80.94699705007576
 30
0.0
 10
247.6782497210666
 20
-81.04793834779357
 30
0.0
 10
247.6782497210666
 20
-81.04793834779357
 30
0.0
 10
252.649522506282
 20
-81.91920299601326
 30
0.0
 10
252.649522506282
 20
-81.91920299601326
 30
0.0
 10
252.649522506282
 20
-81.91920299601326
 30
0.0
 10
252.649522506282
 20
-82.7815103959713
 30
0.0
 10
252.649522506282
 20
-82.7815103959713
 30
0.0
 10
252.649522506282
 20
-82.7815103959713
 30
0.0
 10
247.5128851377746
 20
-81.88234047432109
 30
0.0
 10
247.5128851377746
 20
-81.88234047432109
 30
0.0
  0
HATCH
  5
A2
330
9A
100
AcDbEntity
  8
Layer 1
 62
   250
420
  1907995
440
 33554687
100
AcDbHatch
 10
0.0
 20
0.0
 30
0.0
210
0.0
220
0.0
230
1.0
  2
SOLID
 70
     1
 71
     1
 91
        1
 92
        1
 93
        1
 72
     4
 94
        3
 73
     0
 74
     0
 95
       38
 96
       34
 40
0.0
 40
0.0
 40
0.0
 40
0.0
 40
1.0
 40
1.0
 40
1.0
 40
2.0
 40
2.0
 40
2.0
 40
3.0
 40
3.0
 40
3.0
 40
4.0
 40
4.0
 40
4.0
 40
5.0
 40
5.0
 40
5.0
 40
6.0
 40
6.0
 40
6.0
 40
7.0
 40
7.0
 40
7.0
 40
8.0
 40
8.0
 40
8.0
 40
9.0
 40
9.0
 40
9.0
 40
10.0
 40
10.0
 40
10.0
 40
11.0
 40
11.0
 40
11.0
 40
11.0
 10
247.5128851377746
 20
-81.88234047432109
 10
246.5499809496472
 20
-81.71732040057761
 10
246.1555175165861
 20
-81.16713865158322
 10
246.1555175165861
 20
-80.10294865618954
 10
246.1555175165861
 20
-80.10294865618954
 10
246.1555175165861
 20
-80.0664306440459
 10
246.1555175165861
 20
-80.0664306440459
 10
246.1555175165861
 20
-79.18586423801603
 10
246.5406791918371
 20
-78.58021645170912
 10
247.5128851377746
 20
-78.76384004107293
 10
247.5128851377746
 20
-78.76384004107293
 10
252.649522506282
 20
-79.66266545317461
 10
252.649522506282
 20
-79.66266545317461
 10
252.649522506282
 20
-79.66266545317461
 10
252.649522506282
 20
-80.52497285313265
 10
252.649522506282
 20
-80.52497285313265
 10
252.649522506282
 20
-80.52497285313265
 10
247.6782497210666
 20
-79.65336369536444
 10
247.6782497210666
 20
-79.65336369536444
 10
247.1094644564518
 20
-79.55276690719514
 10
246.9168836188263
 20
-79.73604598701044
 10
246.9168836188263
 20
-80.22214895997919
 10
246.9168836188263
 20
-80.69929468468629
 10
247.1094644564518
 20
-80.94699705007576
 10
247.6782497210666
 20
-81.04793834779357
 10
247.6782497210666
 20
-81.04793834779357
 10
252.649522506282
 20
-81.91920299601326
 10
252.649522506282
 20
-81.91920299601326
 10
252.649522506282
 20
-81.91920299601326
 10
252.649522506282
 20
-82.7815103959713
 10
252.649522506282
 20
-82.7815103959713
 10
252.649522506282
 20
-82.7815103959713
 10
247.5128851377746
 20
-81.88234047432109
 10
247.5128851377746
 20
-81.88234047432109
 97
        0
 97
        1
330
A1
 75
     2
 76
     1
 98
        1
 10
0.0
 20
0.0
450
        0
451
        0
460
0.0
461
0.0
452
        0
462
0.0
453
        0
470

  0
SPLINE
  5
A3
330
9A
100
AcDbEntity
  8
Layer 1
100
AcDbSpline
210
0.0
220
0.0
230
1.0
 70
     9
 71
     3
 72
    23
 73
    19
 74
     0
 42
0.0000000001
 43
0.0000000001
 40
0.0
 40
0.0
 40
0.0
 40
0.0
 40
1.0
 40
1.0
 40
1.0
 40
2.0
 40
2.0
 40
2.0
 40
3.0
 40
3.0
 40
3.0
 40
4.0
 40
4.0
 40
4.0
 40
5.0
 40
5.0
 40
5.0
 40
6.0
 40
6.0
 40
6.0
 40
6.0
 10
251.8885009135904
 20
-85.2030680125534
 30
0.0
 10
251.8885009135904
 20
-85.2030680125534
 30
0.0
 10
251.8885009135904
 20
-84.51508244414901
 30
0.0
 10
251.8885009135904
 20
-84.51508244414901
 30
0.0
 10
251.8885009135904
 20
-84.51508244414901
 30
0.0
 10
246.9902641526622
 20
-83.66207680200115
 30
0.0
 10
246.9902641526622
 20
-83.66207680200115
 30
0.0
 10
246.9902641526622
 20
-83.66207680200115
 30
0.0
 10
246.9902641526622
 20
-84.34971786085702
 30
0.0
 10
246.9902641526622
 20
-84.34971786085702
 30
0.0
 10
246.9902641526622
 20
-84.82686358556412
 30
0.0
 10
247.1828449902876
 20
-85.11108396309722
 30
0.0
 10
247.7516302549024
 20
-85.21202526081506
 30
0.0
 10
247.7516302549024
 20
-85.21202526081506
 30
0.0
 10
251.1271348113502
 20
-85.80837128931179
 30
0.0
 10
251.1271348113502
 20
-85.80837128931179
 30
0.0
 10
251.6959200759649
 20
-85.90931258702962
 30
0.0
 10
251.8885009135904
 20
-85.68917098552216
 30
0.0
 10
251.8885009135904
 20
-85.2030680125534
 30
0.0
  0
SPLINE
  5
A4
330
9A
100
AcDbEntity
  8
Layer 1
100
AcDbSpline
210
0.0
220
0.0
230
1.0
 70
     9
 71
     3
 72
    23
 73
    19
 74
     0
 42
0.0000000001
 43
0.0000000001
 40
0.0
 40
0.0
 40
0.0
 40
0.0
 40
1.0
 40
1.0
 40
1.0
 40
2.0
 40
2.0
 40
2.0
 40
3.0
 40
3.0
 40
3.0
 40
4.0
 40
4.0
 40
4.0
 40
5.0
 40
5.0
 40
5.0
 40
6.0
 40
6.0
 40
6.0
 40
6.0
 10
251.2921548850937
 20
-86.6978949436033
 30
0.0
 10
251.2921548850937
 20
-86.6978949436033
 30
0.0
 10
247.5866101811589
 20
-86.04677189689109
 30
0.0
 10
247.5866101811589
 20
-86.04677189689109
 30
0.0
 10
246.6416204895549
 20
-85.88175182314762
 30
0.0
 10
246.228898050422
 20
-85.31296655853287
 30
0.0
 10
246.228898050422
 20
-84.24912107268772
 30
0.0
 10
246.228898050422
 20
-84.24912107268772
 30
0.0
 10
246.228898050422
 20
-82.66231009218165
 30
0.0
 10
246.228898050422
 20
-82.66231009218165
 30
0.0
 10
246.228898050422
 20
-82.66231009218165
 30
0.0
 10
252.649522506282
 20
-83.79023435405244
 30
0.0
 10
252.649522506282
 20
-83.79023435405244
 30
0.0
 10
252.649522506282
 20
-83.79023435405244
 30
0.0
 10
252.649522506282
 20
-85.37704533455851
 30
0.0
 10
252.649522506282
 20
-85.37704533455851
 30
0.0
 10
252.649522506282
 20
-86.25761174058837
 30
0.0
 10
252.2368000671491
 20
-86.87221677515694
 30
0.0
 10
251.2921548850937
 20
-86.6978949436033
 30
0.0
  0
HATCH
  5
A5
330
9A
100
AcDbEntity
  8
Layer 1
 62
   250
420
  1907995
440
 33554687
100
AcDbHatch
 10
0.0
 20
0.0
 30
0.0
210
0.0
220
0.0
230
1.0
  2
SOLID
 70
     1
 71
     1
 91
        2
 92
        1
 93
        1
 72
     4
 94
        3
 73
     0
 74
     0
 95
       23
 96
       19
 40
0.0
 40
0.0
 40
0.0
 40
0.0
 40
1.0
 40
1.0
 40
1.0
 40
2.0
 40
2.0
 40
2.0
 40
3.0
 40
3.0
 40
3.0
 40
4.0
 40
4.0
 40
4.0
 40
5.0
 40
5.0
 40
5.0
 40
6.0
 40
6.0
 40
6.0
 40
6.0
 10
251.8885009135904
 20
-85.2030680125534
 10
251.8885009135904
 20
-85.2030680125534
 10
251.8885009135904
 20
-84.51508244414901
 10
251.8885009135904
 20
-84.51508244414901
 10
251.8885009135904
 20
-84.51508244414901
 10
246.9902641526622
 20
-83.66207680200115
 10
246.9902641526622
 20
-83.66207680200115
 10
246.9902641526622
 20
-83.66207680200115
 10
246.9902641526622
 20
-84.34971786085702
 10
246.9902641526622
 20
-84.34971786085702
 10
246.9902641526622
 20
-84.82686358556412
 10
247.1828449902876
 20
-85.11108396309722
 10
247.7516302549024
 20
-85.21202526081506
 10
247.7516302549024
 20
-85.21202526081506
 10
251.1271348113502
 20
-85.80837128931179
 10
251.1271348113502
 20
-85.80837128931179
 10
251.6959200759649
 20
-85.90931258702962
 10
251.8885009135904
 20
-85.68917098552216
 10
251.8885009135904
 20
-85.2030680125534
 97
        0
 97
        1
330
A3
 92
        1
 93
        1
 72
     4
 94
        3
 73
     0
 74
     0
 95
       23
 96
       19
 40
0.0
 40
0.0
 40
0.0
 40
0.0
 40
1.0
 40
1.0
 40
1.0
 40
2.0
 40
2.0
 40
2.0
 40
3.0
 40
3.0
 40
3.0
 40
4.0
 40
4.0
 40
4.0
 40
5.0
 40
5.0
 40
5.0
 40
6.0
 40
6.0
 40
6.0
 40
6.0
 10
251.2921548850937
 20
-86.6978949436033
 10
251.2921548850937
 20
-86.6978949436033
 10
247.5866101811589
 20
-86.04677189689109
 10
247.5866101811589
 20
-86.04677189689109
 10
246.6416204895549
 20
-85.88175182314762
 10
246.228898050422
 20
-85.31296655853287
 10
246.228898050422
 20
-84.24912107268772
 10
246.228898050422
 20
-84.24912107268772
 10
246.228898050422
 20
-82.66231009218165
 10
246.228898050422
 20
-82.66231009218165
 10
246.228898050422
 20
-82.66231009218165
 10
252.649522506282
 20
-83.79023435405244
 10
252.649522506282
 20
-83.79023435405244
 10
252.649522506282
 20
-83.79023435405244
 10
252.649522506282
 20
-85.37704533455851
 10
252.649522506282
 20
-85.37704533455851
 10
252.649522506282
 20
-86.25761174058837
 10
252.2368000671491
 20
-86.87221677515694
 10
251.2921548850937
 20
-86.6978949436033
 97
        0
 97
        1
330
A4
 75
     2
 76
     1
 98
        1
 10
0.0
 20
0.0
450
        0
451
        0
460
0.0
461
0.0
452
        0
462
0.0
453
        0
470

  0
SPLINE
  5
A6
330
9A
100
AcDbEntity
  8
Layer 1
100
AcDbSpline
210
0.0
220
0.0
230
1.0
 70
    11
 71
     3
 72
    17
 73
    13
 74
     0
 42
0.0000000001
 43
0.0000000001
 40
0.0
 40
0.0
 40
0.0
 40
0.0
 40
1.0
 40
1.0
 40
1.0
 40
2.0
 40
2.0
 40
2.0
 40
3.0
 40
3.0
 40
3.0
 40
4.0
 40
4.0
 40
4.0
 40
4.0
 10
246.228898050422
 20
-86.83535425346477
 30
0.0
 10
246.228898050422
 20
-86.83535425346477
 30
0.0
 10
252.649522506282
 20
-87.96362302488409
 30
0.0
 10
252.649522506282
 20
-87.96362302488409
 30
0.0
 10
252.649522506282
 20
-87.96362302488409
 30
0.0
 10
252.649522506282
 20
-88.82593042484213
 30
0.0
 10
252.649522506282
 20
-88.82593042484213
 30
0.0
 10
252.649522506282
 20
-88.82593042484213
 30
0.0
 10
246.228898050422
 20
-87.6976616534228
 30
0.0
 10
246.228898050422
 20
-87.6976616534228
 30
0.0
 10
246.228898050422
 20
-87.6976616534228
 30
0.0
 10
246.228898050422
 20
-86.83535425346477
 30
0.0
 10
246.228898050422
 20
-86.83535425346477
 30
0.0
  0
HATCH
  5
A7
330
9A
100
AcDbEntity
  8
Layer 1
 62
   250
420
  1907995
440
 33554687
100
AcDbHatch
 10
0.0
 20
0.0
 30
0.0
210
0.0
220
0.0
230
1.0
  2
SOLID
 70
     1
 71
     1
 91
        1
 92
        1
 93
        1
 72
     4
 94
        3
 73
     0
 74
     0
 95
       17
 96
       13
 40
0.0
 40
0.0
 40
0.0
 40
0.0
 40
1.0
 40
1.0
 40
1.0
 40
2.0
 40
2.0
 40
2.0
 40
3.0
 40
3.0
 40
3.0
 40
4.0
 40
4.0
 40
4.0
 40
4.0
 10
246.228898050422
 20
-86.83535425346477
 10
246.228898050422
 20
-86.83535425346477
 10
252.649522506282
 20
-87.96362302488409
 10
252.649522506282
 20
-87.96362302488409
 10
252.649522506282
 20
-87.96362302488409
 10
252.649522506282
 20
-88.82593042484213
 10
252.649522506282
 20
-88.82593042484213
 10
252.649522506282
 20
-88.82593042484213
 10
246.228898050422
 20
-87.6976616534228
 10
246.228898050422
 20
-87.6976616534228
 10
246.228898050422
 20
-87.6976616534228
 10
246.228898050422
 20
-86.83535425346477
 10
246.228898050422
 20
-86.83535425346477
 97
        0
 97
        1
330
A6
 75
     2
 76
     1
 98
        1
 10
0.0
 20
0.0
450
        0
451
        0
460
0.0
461
0.0
452
        0
462
0.0
453
        0
470

  0
SPLINE
  5
A8
330
9A
100
AcDbEntity
  8
Layer 1
100
AcDbSpline
210
0.0
220
0.0
230
1.0
 70
     9
 71
     3
 72
    23
 73
    19
 74
     0
 42
0.0000000001
 43
0.0000000001
 40
0.0
 40
0.0
 40
0.0
 40
0.0
 40
1.0
 40
1.0
 40
1.0
 40
2.0
 40
2.0
 40
2.0
 40
3.0
 40
3.0
 40
3.0
 40
4.0
 40
4.0
 40
4.0
 40
5.0
 40
5.0
 40
5.0
 40
6.0
 40
6.0
 40
6.0
 40
6.0
 10
246.9168836188263
 20
-90.44891490794332
 30
0.0
 10
246.9168836188263
 20
-90.92606063265042
 30
0.0
 10
247.1094644564518
 20
-91.21028101018355
 30
0.0
 10
247.6782497210666
 20
-91.31122230790136
 30
0.0
 10
247.6782497210666
 20
-91.31122230790136
 30
0.0
 10
251.200515345186
 20
-91.9351291002801
 30
0.0
 10
251.200515345186
 20
-91.9351291002801
 30
0.0
 10
251.7689561002522
 20
-92.02676864018775
 30
0.0
 10
251.9618814474262
 20
-91.81592879649047
 30
0.0
 10
251.9618814474262
 20
-91.32948131397318
 30
0.0
 10
251.9618814474262
 20
-90.85268009881461
 30
0.0
 10
251.7689561002522
 20
-90.55915796347132
 30
0.0
 10
251.200515345186
 20
-90.46751842356368
 30
0.0
 10
251.200515345186
 20
-90.46751842356368
 30
0.0
 10
247.6782497210666
 20
-89.84361163118492
 30
0.0
 10
247.6782497210666
 20
-89.84361163118492
 30
0.0
 10
247.1094644564518
 20
-89.74267033346711
 30
0.0
 10
246.9168836188263
 20
-89.96281193497457
 30
0.0
 10
246.9168836188263
 20
-90.44891490794332
 30
0.0
  0
SPLINE
  5
A9
330
9A
100
AcDbEntity
  8
Layer 1
100
AcDbSpline
210
0.0
220
0.0
230
1.0
 70
     9
 71
     3
 72
    29
 73
    25
 74
     0
 42
0.0000000001
 43
0.0000000001
 40
0.0
 40
0.0
 40
0.0
 40
0.0
 40
1.0
 40
1.0
 40
1.0
 40
2.0
 40
2.0
 40
2.0
 40
3.0
 40
3.0
 40
3.0
 40
4.0
 40
4.0
 40
4.0
 40
5.0
 40
5.0
 40
5.0
 40
6.0
 40
6.0
 40
6.0
 40
7.0
 40
7.0
 40
7.0
 40
8.0
 40
8.0
 40
8.0
 40
8.0
 10
252.7232475496664
 20
-91.43042261169101
 30
0.0
 10
252.7232475496664
 20
-91.43042261169101
 30
0.0
 10
252.7232475496664
 20
-91.50380314552682
 30
0.0
 10
252.7232475496664
 20
-91.50380314552682
 30
0.0
 10
252.7232475496664
 20
-92.38436955155668
 30
0.0
 10
252.310180600985
 20
-92.9900173378636
 30
0.0
 10
251.3655354189295
 20
-92.82465275457161
 30
0.0
 10
251.3655354189295
 20
-92.82465275457161
 30
0.0
 10
247.5128851377746
 20
-92.1459689439774
 30
0.0
 10
247.5128851377746
 20
-92.1459689439774
 30
0.0
 10
246.5682399557191
 20
-91.98094887023392
 30
0.0
 10
246.1555175165861
 20
-91.41216360561918
 30
0.0
 10
246.1555175165861
 20
-90.34831811977403
 30
0.0
 10
246.1555175165861
 20
-90.34831811977403
 30
0.0
 10
246.1555175165861
 20
-90.27493758593822
 30
0.0
 10
246.1555175165861
 20
-90.27493758593822
 30
0.0
 10
246.1555175165861
 20
-89.39437117990836
 30
0.0
 10
246.5682399557191
 20
-88.77976614533977
 30
0.0
 10
247.5128851377746
 20
-88.95408797689343
 30
0.0
 10
247.5128851377746
 20
-88.95408797689343
 30
0.0
 10
251.3655354189295
 20
-89.63277178748764
 30
0.0
 10
251.3655354189295
 20
-89.63277178748764
 30
0.0
 10
252.3194823587951
 20
-89.79779186123112
 30
0.0
 10
252.7232475496664
 20
-90.36657712584586
 30
0.0
 10
252.7232475496664
 20
-91.43042261169101
 30
0.0
  0
HATCH
  5
AA
330
9A
100
AcDbEntity
  8
Layer 1
 62
   250
420
  1907995
440
 33554687
100
AcDbHatch
 10
0.0
 20
0.0
 30
0.0
210
0.0
220
0.0
230
1.0
  2
SOLID
 70
     1
 71
     1
 91
        2
 92
        1
 93
        1
 72
     4
 94
        3
 73
     0
 74
     0
 95
       23
 96
       19
 40
0.0
 40
0.0
 40
0.0
 40
0.0
 40
1.0
 40
1.0
 40
1.0
 40
2.0
 40
2.0
 40
2.0
 40
3.0
 40
3.0
 40
3.0
 40
4.0
 40
4.0
 40
4.0
 40
5.0
 40
5.0
 40
5.0
 40
6.0
 40
6.0
 40
6.0
 40
6.0
 10
246.9168836188263
 20
-90.44891490794332
 10
246.9168836188263
 20
-90.92606063265042
 10
247.1094644564518
 20
-91.21028101018355
 10
247.6782497210666
 20
-91.31122230790136
 10
247.6782497210666
 20
-91.31122230790136
 10
251.200515345186
 20
-91.9351291002801
 10
251.200515345186
 20
-91.9351291002801
 10
251.7689561002522
 20
-92.02676864018775
 10
251.9618814474262
 20
-91.81592879649047
 10
251.9618814474262
 20
-91.32948131397318
 10
251.9618814474262
 20
-90.85268009881461
 10
251.7689561002522
 20
-90.55915796347132
 10
251.200515345186
 20
-90.46751842356368
 10
251.200515345186
 20
-90.46751842356368
 10
247.6782497210666
 20
-89.84361163118492
 10
247.6782497210666
 20
-89.84361163118492
 10
247.1094644564518
 20
-89.74267033346711
 10
246.9168836188263
 20
-89.96281193497457
 10
246.9168836188263
 20
-90.44891490794332
 97
        0
 97
        1
330
A8
 92
        1
 93
        1
 72
     4
 94
        3
 73
     0
 74
     0
 95
       29
 96
       25
 40
0.0
 40
0.0
 40
0.0
 40
0.0
 40
1.0
 40
1.0
 40
1.0
 40
2.0
 40
2.0
 40
2.0
 40
3.0
 40
3.0
 40
3.0
 40
4.0
 40
4.0
 40
4.0
 40
5.0
 40
5.0
 40
5.0
 40
6.0
 40
6.0
 40
6.0
 40
7.0
 40
7.0
 40
7.0
 40
8.0
 40
8.0
 40
8.0
 40
8.0
 10
252.7232475496664
 20
-91.43042261169101
 10
252.7232475496664
 20
-91.43042261169101
 10
252.7232475496664
 20
-91.50380314552682
 10
252.7232475496664
 20
-91.50380314552682
 10
252.7232475496664
 20
-92.38436955155668
 10
252.310180600985
 20
-92.9900173378636
 10
251.3655354189295
 20
-92.82465275457161
 10
251.3655354189295
 20
-92.82465275457161
 10
247.5128851377746
 20
-92.1459689439774
 10
247.5128851377746
 20
-92.1459689439774
 10
246.5682399557191
 20
-91.98094887023392
 10
246.1555175165861
 20
-91.41216360561918
 10
246.1555175165861
 20
-90.34831811977403
 10
246.1555175165861
 20
-90.34831811977403
 10
246.1555175165861
 20
-90.27493758593822
 10
246.1555175165861
 20
-90.27493758593822
 10
246.1555175165861
 20
-89.39437117990836
 10
246.5682399557191
 20
-88.77976614533977
 10
247.5128851377746
 20
-88.95408797689343
 10
247.5128851377746
 20
-88.95408797689343
 10
251.3655354189295
 20
-89.63277178748764
 10
251.3655354189295
 20
-89.63277178748764
 10
252.3194823587951
 20
-89.79779186123112
 10
252.7232475496664
 20
-90.36657712584586
 10
252.7232475496664
 20
-91.43042261169101
 97
        0
 97
        1
330
A9
 75
     2
 76
     1
 98
        1
 10
0.0
 20
0.0
450
        0
451
        0
460
0.0
461
0.0
452
        0
462
0.0
453
        0
470

  0
SPLINE
  5
AB
330
9A
100
AcDbEntity
  8
Layer 1
100
AcDbSpline
210
0.0
220
0.0
230
1.0
 70
    11
 71
     3
 72
    17
 73
    13
 74
     0
 42
0.0000000001
 43
0.0000000001
 40
0.0
 40
0.0
 40
0.0
 40
0.0
 40
1.0
 40
1.0
 40
1.0
 40
2.0
 40
2.0
 40
2.0
 40
3.0
 40
3.0
 40
3.0
 40
4.0
 40
4.0
 40
4.0
 40
4.0
 10
246.228898050422
 20
-94.41146373507768
 30
0.0
 10
246.228898050422
 20
-94.41146373507768
 30
0.0
 10
252.649522506282
 20
-95.53973250649702
 30
0.0
 10
252.649522506282
 20
-95.53973250649702
 30
0.0
 10
252.649522506282
 20
-95.53973250649702
 30
0.0
 10
252.649522506282
 20
-96.40203990645504
 30
0.0
 10
252.649522506282
 20
-96.40203990645504
 30
0.0
 10
252.649522506282
 20
-96.40203990645504
 30
0.0
 10
246.228898050422
 20
-95.27377113503574
 30
0.0
 10
246.228898050422
 20
-95.27377113503574
 30
0.0
 10
246.228898050422
 20
-95.27377113503574
 30
0.0
 10
246.228898050422
 20
-94.41146373507768
 30
0.0
 10
246.228898050422
 20
-94.41146373507768
 30
0.0
  0
HATCH
  5
AC
330
9A
100
AcDbEntity
  8
Layer 1
 62
   250
420
  1907995
440
 33554687
100
AcDbHatch
 10
0.0
 20
0.0
 30
0.0
210
0.0
220
0.0
230
1.0
  2
SOLID
 70
     1
 71
     1
 91
        1
 92
        1
 93
        1
 72
     4
 94
        3
 73
     0
 74
     0
 95
       17
 96
       13
 40
0.0
 40
0.0
 40
0.0
 40
0.0
 40
1.0
 40
1.0
 40
1.0
 40
2.0
 40
2.0
 40
2.0
 40
3.0
 40
3.0
 40
3.0
 40
4.0
 40
4.0
 40
4.0
 40
4.0
 10
246.228898050422
 20
-94.41146373507768
 10
246.228898050422
 20
-94.41146373507768
 10
252.649522506282
 20
-95.53973250649702
 10
252.649522506282
 20
-95.53973250649702
 10
252.649522506282
 20
-95.53973250649702
 10
252.649522506282
 20
-96.40203990645504
 10
252.649522506282
 20
-96.40203990645504
 10
252.649522506282
 20
-96.40203990645504
 10
246.228898050422
 20
-95.27377113503574
 10
246.228898050422
 20
-95.27377113503574
 10
246.228898050422
 20
-95.27377113503574
 10
246.228898050422
 20
-94.41146373507768
 10
246.228898050422
 20
-94.41146373507768
 97
        0
 97
        1
330
AB
 75
     2
 76
     1
 98
        1
 10
0.0
 20
0.0
450
        0
451
        0
460
0.0
461
0.0
452
        0
462
0.0
453
        0
470

  0
SPLINE
  5
AD
330
9A
100
AcDbEntity
  8
Layer 1
100
AcDbSpline
210
0.0
220
0.0
230
1.0
 70
    11
 71
     3
 72
    35
 73
    31
 74
     0
 42
0.0000000001
 43
0.0000000001
 40
0.0
 40
0.0
 40
0.0
 40
0.0
 40
1.0
 40
1.0
 40
1.0
 40
2.0
 40
2.0
 40
2.0
 40
3.0
 40
3.0
 40
3.0
 40
4.0
 40
4.0
 40
4.0
 40
5.0
 40
5.0
 40
5.0
 40
6.0
 40
6.0
 40
6.0
 40
7.0
 40
7.0
 40
7.0
 40
8.0
 40
8.0
 40
8.0
 40
9.0
 40
9.0
 40
9.0
 40
10.0
 40
10.0
 40
10.0
 40
10.0
 10
246.228898050422
 20
-96.33727211133235
 30
0.0
 10
246.228898050422
 20
-96.33727211133235
 30
0.0
 10
252.649522506282
 20
-97.46554088275168
 30
0.0
 10
252.649522506282
 20
-97.46554088275168
 30
0.0
 10
252.649522506282
 20
-97.46554088275168
 30
0.0
 10
252.649522506282
 20
-98.31889103444806
 30
0.0
 10
252.649522506282
 20
-98.31889103444806
 30
0.0
 10
252.649522506282
 20
-98.31889103444806
 30
0.0
 10
248.228431470061
 20
-99.17189667659592
 30
0.0
 10
248.228431470061
 20
-99.17189667659592
 30
0.0
 10
248.228431470061
 20
-99.17189667659592
 30
0.0
 10
252.649522506282
 20
-99.94222002709779
 30
0.0
 10
252.649522506282
 20
-99.94222002709779
 30
0.0
 10
252.649522506282
 20
-99.94222002709779
 30
0.0
 10
252.649522506282
 20
-100.7401041414816
 30
0.0
 10
252.649522506282
 20
-100.7401041414816
 30
0.0
 10
252.649522506282
 20
-100.7401041414816
 30
0.0
 10
246.228898050422
 20
-99.61217987961084
 30
0.0
 10
246.228898050422
 20
-99.61217987961084
 30
0.0
 10
246.228898050422
 20
-99.61217987961084
 30
0.0
 10
246.228898050422
 20
-98.80499400741681
 30
0.0
 10
246.228898050422
 20
-98.80499400741681
 30
0.0
 10
246.228898050422
 20
-98.80499400741681
 30
0.0
 10
250.7967501543147
 20
-97.93338484964861
 30
0.0
 10
250.7967501543147
 20
-97.93338484964861
 30
0.0
 10
250.7967501543147
 20
-97.93338484964861
 30
0.0
 10
246.228898050422
 20
-97.13550073526475
 30
0.0
 10
246.228898050422
 20
-97.13550073526475
 30
0.0
 10
246.228898050422
 20
-97.13550073526475
 30
0.0
 10
246.228898050422
 20
-96.33727211133235
 30
0.0
 10
246.228898050422
 20
-96.33727211133235
 30
0.0
  0
HATCH
  5
AE
330
9A
100
AcDbEntity
  8
Layer 1
 62
   250
420
  1907995
440
 33554687
100
AcDbHatch
 10
0.0
 20
0.0
 30
0.0
210
0.0
220
0.0
230
1.0
  2
SOLID
 70
     1
 71
     1
 91
        1
 92
        1
 93
        1
 72
     4
 94
        3
 73
     0
 74
     0
 95
       35
 96
       31
 40
0.0
 40
0.0
 40
0.0
 40
0.0
 40
1.0
 40
1.0
 40
1.0
 40
2.0
 40
2.0
 40
2.0
 40
3.0
 40
3.0
 40
3.0
 40
4.0
 40
4.0
 40
4.0
 40
5.0
 40
5.0
 40
5.0
 40
6.0
 40
6.0
 40
6.0
 40
7.0
 40
7.0
 40
7.0
 40
8.0
 40
8.0
 40
8.0
 40
9.0
 40
9.0
 40
9.0
 40
10.0
 40
10.0
 40
10.0
 40
10.0
 10
246.228898050422
 20
-96.33727211133235
 10
246.228898050422
 20
-96.33727211133235
 10
252.649522506282
 20
-97.46554088275168
 10
252.649522506282
 20
-97.46554088275168
 10
252.649522506282
 20
-97.46554088275168
 10
252.649522506282
 20
-98.31889103444806
 10
252.649522506282
 20
-98.31889103444806
 10
252.649522506282
 20
-98.31889103444806
 10
248.228431470061
 20
-99.17189667659592
 10
248.228431470061
 20
-99.17189667659592
 10
248.228431470061
 20
-99.17189667659592
 10
252.649522506282
 20
-99.94222002709779
 10
252.649522506282
 20
-99.94222002709779
 10
252.649522506282
 20
-99.94222002709779
 10
252.649522506282
 20
-100.7401041414816
 10
252.649522506282
 20
-100.7401041414816
 10
252.649522506282
 20
-100.7401041414816
 10
246.228898050422
 20
-99.61217987961084
 10
246.228898050422
 20
-99.61217987961084
 10
246.228898050422
 20
-99.61217987961084
 10
246.228898050422
 20
-98.80499400741681
 10
246.228898050422
 20
-98.80499400741681
 10
246.228898050422
 20
-98.80499400741681
 10
250.7967501543147
 20
-97.93338484964861
 10
250.7967501543147
 20
-97.93338484964861
 10
250.7967501543147
 20
-97.93338484964861
 10
246.228898050422
 20
-97.13550073526475
 10
246.228898050422
 20
-97.13550073526475
 10
246.228898050422
 20
-97.13550073526475
 10
246.228898050422
 20
-96.33727211133235
 10
246.228898050422
 20
-96.33727211133235
 97
        0
 97
        1
330
AD
 75
     2
 76
     1
 98
        1
 10
0.0
 20
0.0
450
        0
451
        0
460
0.0
461
0.0
452
        0
462
0.0
453
        0
470

  0
ENDBLK
  5
9D
330
9A
100
AcDbEntity
  8
0
100
AcDbBlockEnd
  0
BLOCK
  5
B1
330
AF
100
AcDbEntity
  8
0
100
AcDbBlockBegin
  2
Block_4
 70
     0
 10
0.0
 20
0.0
 30
0.0
  3
Block_4
  1

  0
SPLINE
  5
B3
330
AF
100
AcDbEntity
  8
Layer 1
100
AcDbSpline
210
0.0
220
0.0
230
1.0
 70
    11
 71
     3
 72
    14
 73
    10
 74
     0
 42
0.0000000001
 43
0.0000000001
 40
0.0
 40
0.0
 40
0.0
 40
0.0
 40
1.0
 40
1.0
 40
1.0
 40
2.0
 40
2.0
 40
2.0
 40
3.0
 40
3.0
 40
3.0
 40
3.0
 10
248.6614799725569
 20
-184.2416394938702
 30
0.0
 10
248.6614799725569
 20
-184.2416394938702
 30
0.0
 10
251.7620659092817
 20
-184.2233804877983
 30
0.0
 10
251.7620659092817
 20
-184.2233804877983
 30
0.0
 10
251.7620659092817
 20
-184.2233804877983
 30
0.0
 10
248.6614799725569
 20
-183.122672480261
 30
0.0
 10
248.6614799725569
 20
-183.122672480261
 30
0.0
 10
248.6614799725569
 20
-183.122672480261
 30
0.0
 10
248.6614799725569
 20
-184.2416394938702
 30
0.0
 10
248.6614799725569
 20
-184.2416394938702
 30
0.0
  0
SPLINE
  5
B4
330
AF
100
AcDbEntity
  8
Layer 1
100
AcDbSpline
210
0.0
220
0.0
230
1.0
 70
    11
 71
     3
 72
    29
 73
    25
 74
     0
 42
0.0000000001
 43
0.0000000001
 40
0.0
 40
0.0
 40
0.0
 40
0.0
 40
1.0
 40
1.0
 40
1.0
 40
2.0
 40
2.0
 40
2.0
 40
3.0
 40
3.0
 40
3.0
 40
4.0
 40
4.0
 40
4.0
 40
5.0
 40
5.0
 40
5.0
 40
6.0
 40
6.0
 40
6.0
 40
7.0
 40
7.0
 40
7.0
 40
8.0
 40
8.0
 40
8.0
 40
8.0
 10
247.9369763920088
 20
-184.2416394938702
 30
0.0
 10
247.9369763920088
 20
-184.2416394938702
 30
0.0
 10
247.9369763920088
 20
-182.8656683570613
 30
0.0
 10
247.9369763920088
 20
-182.8656683570613
 30
0.0
 10
247.9369763920088
 20
-182.8656683570613
 30
0.0
 10
246.4235459453385
 20
-182.3244438563286
 30
0.0
 10
246.4235459453385
 20
-182.3244438563286
 30
0.0
 10
246.4235459453385
 20
-182.3244438563286
 30
0.0
 10
246.4235459453385
 20
-181.4714382141807
 30
0.0
 10
246.4235459453385
 20
-181.4714382141807
 30
0.0
 10
246.4235459453385
 20
-181.4714382141807
 30
0.0
 10
252.8445149107472
 20
-183.874736824691
 30
0.0
 10
252.8445149107472
 20
-183.874736824691
 30
0.0
 10
252.8445149107472
 20
-183.874736824691
 30
0.0
 10
252.8445149107472
 20
-184.9389268200847
 30
0.0
 10
252.8445149107472
 20
-184.9389268200847
 30
0.0
 10
252.8445149107472
 20
-184.9389268200847
 30
0.0
 10
246.4235459453385
 20
-185.1039468938282
 30
0.0
 10
246.4235459453385
 20
-185.1039468938282
 30
0.0
 10
246.4235459453385
 20
-185.1039468938282
 30
0.0
 10
246.4235459453385
 20
-184.2509412516803
 30
0.0
 10
246.4235459453385
 20
-184.2509412516803
 30
0.0
 10
246.4235459453385
 20
-184.2509412516803
 30
0.0
 10
247.9369763920088
 20
-184.2416394938702
 30
0.0
 10
247.9369763920088
 20
-184.2416394938702
 30
0.0
  0
HATCH
  5
B5
330
AF
100
AcDbEntity
  8
Layer 1
 62
   250
420
  1907995
440
 33554687
100
AcDbHatch
 10
0.0
 20
0.0
 30
0.0
210
0.0
220
0.0
230
1.0
  2
SOLID
 70
     1
 71
     1
 91
        2
 92
        1
 93
        1
 72
     4
 94
        3
 73
     0
 74
     0
 95
       14
 96
       10
 40
0.0
 40
0.0
 40
0.0
 40
0.0
 40
1.0
 40
1.0
 40
1.0
 40
2.0
 40
2.0
 40
2.0
 40
3.0
 40
3.0
 40
3.0
 40
3.0
 10
248.6614799725569
 20
-184.2416394938702
 10
248.6614799725569
 20
-184.2416394938702
 10
251.7620659092817
 20
-184.2233804877983
 10
251.7620659092817
 20
-184.2233804877983
 10
251.7620659092817
 20
-184.2233804877983
 10
248.6614799725569
 20
-183.122672480261
 10
248.6614799725569
 20
-183.122672480261
 10
248.6614799725569
 20
-183.122672480261
 10
248.6614799725569
 20
-184.2416394938702
 10
248.6614799725569
 20
-184.2416394938702
 97
        0
 97
        1
330
B3
 92
        1
 93
        1
 72
     4
 94
        3
 73
     0
 74
     0
 95
       29
 96
       25
 40
0.0
 40
0.0
 40
0.0
 40
0.0
 40
1.0
 40
1.0
 40
1.0
 40
2.0
 40
2.0
 40
2.0
 40
3.0
 40
3.0
 40
3.0
 40
4.0
 40
4.0
 40
4.0
 40
5.0
 40
5.0
 40
5.0
 40
6.0
 40
6.0
 40
6.0
 40
7.0
 40
7.0
 40
7.0
 40
8.0
 40
8.0
 40
8.0
 40
8.0
 10
247.9369763920088
 20
-184.2416394938702
 10
247.9369763920088
 20
-184.2416394938702
 10
247.9369763920088
 20
-182.8656683570613
 10
247.9369763920088
 20
-182.8656683570613
 10
247.9369763920088
 20
-182.8656683570613
 10
246.4235459453385
 20
-182.3244438563286
 10
246.4235459453385
 20
-182.3244438563286
 10
246.4235459453385
 20
-182.3244438563286
 10
246.4235459453385
 20
-181.4714382141807
 10
246.4235459453385
 20
-181.4714382141807
 10
246.4235459453385
 20
-181.4714382141807
 10
252.8445149107472
 20
-183.874736824691
 10
252.8445149107472
 20
-183.874736824691
 10
252.8445149107472
 20
-183.874736824691
 10
252.8445149107472
 20
-184.9389268200847
 10
252.8445149107472
 20
-184.9389268200847
 10
252.8445149107472
 20
-184.9389268200847
 10
246.4235459453385
 20
-185.1039468938282
 10
246.4235459453385
 20
-185.1039468938282
 10
246.4235459453385
 20
-185.1039468938282
 10
246.4235459453385
 20
-184.2509412516803
 10
246.4235459453385
 20
-184.2509412516803
 10
246.4235459453385
 20
-184.2509412516803
 10
247.9369763920088
 20
-184.2416394938702
 10
247.9369763920088
 20
-184.2416394938702
 97
        0
 97
        1
330
B4
 75
     2
 76
     1
 98
        1
 10
0.0
 20
0.0
450
        0
451
        0
460
0.0
461
0.0
452
        0
462
0.0
453
        0
470

  0
SPLINE
  5
B6
330
AF
100
AcDbEntity
  8
Layer 1
100
AcDbSpline
210
0.0
220
0.0
230
1.0
 70
     9
 71
     3
 72
    38
 73
    34
 74
     0
 42
0.0000000001
 43
0.0000000001
 40
0.0
 40
0.0
 40
0.0
 40
0.0
 40
1.0
 40
1.0
 40
1.0
 40
2.0
 40
2.0
 40
2.0
 40
3.0
 40
3.0
 40
3.0
 40
4.0
 40
4.0
 40
4.0
 40
5.0
 40
5.0
 40
5.0
 40
6.0
 40
6.0
 40
6.0
 40
7.0
 40
7.0
 40
7.0
 40
8.0
 40
8.0
 40
8.0
 40
9.0
 40
9.0
 40
9.0
 40
10.0
 40
10.0
 40
10.0
 40
11.0
 40
11.0
 40
11.0
 40
11.0
 10
247.7078775422397
 20
-189.0199869319117
 30
0.0
 10
246.7446288445639
 20
-188.8549668581682
 30
0.0
 10
246.3501654115027
 20
-188.3047851091738
 30
0.0
 10
246.3501654115027
 20
-187.2405951137801
 30
0.0
 10
246.3501654115027
 20
-187.2405951137801
 30
0.0
 10
246.3501654115027
 20
-187.2040771016365
 30
0.0
 10
246.3501654115027
 20
-187.2040771016365
 30
0.0
 10
246.3501654115027
 20
-186.3235106956066
 30
0.0
 10
246.7353270867537
 20
-185.7178629092997
 30
0.0
 10
247.7078775422397
 20
-185.9014864986635
 30
0.0
 10
247.7078775422397
 20
-185.9014864986635
 30
0.0
 10
252.8445149107472
 20
-186.8003119107652
 30
0.0
 10
252.8445149107472
 20
-186.8003119107652
 30
0.0
 10
252.8445149107472
 20
-186.8003119107652
 30
0.0
 10
252.8445149107472
 20
-187.6626193107232
 30
0.0
 10
252.8445149107472
 20
-187.6626193107232
 30
0.0
 10
252.8445149107472
 20
-187.6626193107232
 30
0.0
 10
247.8728976159832
 20
-186.791010152955
 30
0.0
 10
247.8728976159832
 20
-186.791010152955
 30
0.0
 10
247.3041123513684
 20
-186.6904133647857
 30
0.0
 10
247.111531513743
 20
-186.873692444601
 30
0.0
 10
247.111531513743
 20
-187.3597954175698
 30
0.0
 10
247.111531513743
 20
-187.8369411422769
 30
0.0
 10
247.3041123513684
 20
-188.0846435076663
 30
0.0
 10
247.8728976159832
 20
-188.1855848053841
 30
0.0
 10
247.8728976159832
 20
-188.1855848053841
 30
0.0
 10
252.8445149107472
 20
-189.0568494536038
 30
0.0
 10
252.8445149107472
 20
-189.0568494536038
 30
0.0
 10
252.8445149107472
 20
-189.0568494536038
 30
0.0
 10
252.8445149107472
 20
-189.9191568535618
 30
0.0
 10
252.8445149107472
 20
-189.9191568535618
 30
0.0
 10
252.8445149107472
 20
-189.9191568535618
 30
0.0
 10
247.7078775422397
 20
-189.0199869319117
 30
0.0
 10
247.7078775422397
 20
-189.0199869319117
 30
0.0
  0
HATCH
  5
B7
330
AF
100
AcDbEntity
  8
Layer 1
 62
   250
420
  1907995
440
 33554687
100
AcDbHatch
 10
0.0
 20
0.0
 30
0.0
210
0.0
220
0.0
230
1.0
  2
SOLID
 70
     1
 71
     1
 91
        1
 92
        1
 93
        1
 72
     4
 94
        3
 73
     0
 74
     0
 95
       38
 96
       34
 40
0.0
 40
0.0
 40
0.0
 40
0.0
 40
1.0
 40
1.0
 40
1.0
 40
2.0
 40
2.0
 40
2.0
 40
3.0
 40
3.0
 40
3.0
 40
4.0
 40
4.0
 40
4.0
 40
5.0
 40
5.0
 40
5.0
 40
6.0
 40
6.0
 40
6.0
 40
7.0
 40
7.0
 40
7.0
 40
8.0
 40
8.0
 40
8.0
 40
9.0
 40
9.0
 40
9.0
 40
10.0
 40
10.0
 40
10.0
 40
11.0
 40
11.0
 40
11.0
 40
11.0
 10
247.7078775422397
 20
-189.0199869319117
 10
246.7446288445639
 20
-188.8549668581682
 10
246.3501654115027
 20
-188.3047851091738
 10
246.3501654115027
 20
-187.2405951137801
 10
246.3501654115027
 20
-187.2405951137801
 10
246.3501654115027
 20
-187.2040771016365
 10
246.3501654115027
 20
-187.2040771016365
 10
246.3501654115027
 20
-186.3235106956066
 10
246.7353270867537
 20
-185.7178629092997
 10
247.7078775422397
 20
-185.9014864986635
 10
247.7078775422397
 20
-185.9014864986635
 10
252.8445149107472
 20
-186.8003119107652
 10
252.8445149107472
 20
-186.8003119107652
 10
252.8445149107472
 20
-186.8003119107652
 10
252.8445149107472
 20
-187.6626193107232
 10
252.8445149107472
 20
-187.6626193107232
 10
252.8445149107472
 20
-187.6626193107232
 10
247.8728976159832
 20
-186.791010152955
 10
247.8728976159832
 20
-186.791010152955
 10
247.3041123513684
 20
-186.6904133647857
 10
247.111531513743
 20
-186.873692444601
 10
247.111531513743
 20
-187.3597954175698
 10
247.111531513743
 20
-187.8369411422769
 10
247.3041123513684
 20
-188.0846435076663
 10
247.8728976159832
 20
-188.1855848053841
 10
247.8728976159832
 20
-188.1855848053841
 10
252.8445149107472
 20
-189.0568494536038
 10
252.8445149107472
 20
-189.0568494536038
 10
252.8445149107472
 20
-189.0568494536038
 10
252.8445149107472
 20
-189.9191568535618
 10
252.8445149107472
 20
-189.9191568535618
 10
252.8445149107472
 20
-189.9191568535618
 10
247.7078775422397
 20
-189.0199869319117
 10
247.7078775422397
 20
-189.0199869319117
 97
        0
 97
        1
330
B6
 75
     2
 76
     1
 98
        1
 10
0.0
 20
0.0
450
        0
451
        0
460
0.0
461
0.0
452
        0
462
0.0
453
        0
470

  0
SPLINE
  5
B8
330
AF
100
AcDbEntity
  8
Layer 1
100
AcDbSpline
210
0.0
220
0.0
230
1.0
 70
     9
 71
     3
 72
    23
 73
    19
 74
     0
 42
0.0000000001
 43
0.0000000001
 40
0.0
 40
0.0
 40
0.0
 40
0.0
 40
1.0
 40
1.0
 40
1.0
 40
2.0
 40
2.0
 40
2.0
 40
3.0
 40
3.0
 40
3.0
 40
4.0
 40
4.0
 40
4.0
 40
5.0
 40
5.0
 40
5.0
 40
6.0
 40
6.0
 40
6.0
 40
6.0
 10
252.083148808507
 20
-192.340714470144
 30
0.0
 10
252.083148808507
 20
-192.340714470144
 30
0.0
 10
252.083148808507
 20
-191.6527289017396
 30
0.0
 10
252.083148808507
 20
-191.6527289017396
 30
0.0
 10
252.083148808507
 20
-191.6527289017396
 30
0.0
 10
247.1849120475788
 20
-190.7997232595917
 30
0.0
 10
247.1849120475788
 20
-190.7997232595917
 30
0.0
 10
247.1849120475788
 20
-190.7997232595917
 30
0.0
 10
247.1849120475788
 20
-191.4873643184476
 30
0.0
 10
247.1849120475788
 20
-191.4873643184476
 30
0.0
 10
247.1849120475788
 20
-191.9645100431547
 30
0.0
 10
247.3774928852042
 20
-192.2487304206878
 30
0.0
 10
247.946278149819
 20
-192.3496717184056
 30
0.0
 10
247.946278149819
 20
-192.3496717184056
 30
0.0
 10
251.3217827062668
 20
-192.9460177469024
 30
0.0
 10
251.3217827062668
 20
-192.9460177469024
 30
0.0
 10
251.890223461333
 20
-193.0469590446202
 30
0.0
 10
252.083148808507
 20
-192.8268174431127
 30
0.0
 10
252.083148808507
 20
-192.340714470144
 30
0.0
  0
SPLINE
  5
B9
330
AF
100
AcDbEntity
  8
Layer 1
100
AcDbSpline
210
0.0
220
0.0
230
1.0
 70
     9
 71
     3
 72
    23
 73
    19
 74
     0
 42
0.0000000001
 43
0.0000000001
 40
0.0
 40
0.0
 40
0.0
 40
0.0
 40
1.0
 40
1.0
 40
1.0
 40
2.0
 40
2.0
 40
2.0
 40
3.0
 40
3.0
 40
3.0
 40
4.0
 40
4.0
 40
4.0
 40
5.0
 40
5.0
 40
5.0
 40
6.0
 40
6.0
 40
6.0
 40
6.0
 10
251.4868027800102
 20
-193.8355414011939
 30
0.0
 10
251.4868027800102
 20
-193.8355414011939
 30
0.0
 10
247.780913566527
 20
-193.1844183544817
 30
0.0
 10
247.780913566527
 20
-193.1844183544817
 30
0.0
 10
246.8362683844715
 20
-193.0193982807382
 30
0.0
 10
246.4235459453385
 20
-192.4506130161234
 30
0.0
 10
246.4235459453385
 20
-191.3867675302783
 30
0.0
 10
246.4235459453385
 20
-191.3867675302783
 30
0.0
 10
246.4235459453385
 20
-189.7999565497722
 30
0.0
 10
246.4235459453385
 20
-189.7999565497722
 30
0.0
 10
246.4235459453385
 20
-189.7999565497722
 30
0.0
 10
252.8445149107472
 20
-190.927880811643
 30
0.0
 10
252.8445149107472
 20
-190.927880811643
 30
0.0
 10
252.8445149107472
 20
-190.927880811643
 30
0.0
 10
252.8445149107472
 20
-192.5146917921491
 30
0.0
 10
252.8445149107472
 20
-192.5146917921491
 30
0.0
 10
252.8445149107472
 20
-193.395258198179
 30
0.0
 10
252.4314479620658
 20
-194.0098632327475
 30
0.0
 10
251.4868027800102
 20
-193.8355414011939
 30
0.0
  0
HATCH
  5
BA
330
AF
100
AcDbEntity
  8
Layer 1
 62
   250
420
  1907995
440
 33554687
100
AcDbHatch
 10
0.0
 20
0.0
 30
0.0
210
0.0
220
0.0
230
1.0
  2
SOLID
 70
     1
 71
     1
 91
        2
 92
        1
 93
        1
 72
     4
 94
        3
 73
     0
 74
     0
 95
       23
 96
       19
 40
0.0
 40
0.0
 40
0.0
 40
0.0
 40
1.0
 40
1.0
 40
1.0
 40
2.0
 40
2.0
 40
2.0
 40
3.0
 40
3.0
 40
3.0
 40
4.0
 40
4.0
 40
4.0
 40
5.0
 40
5.0
 40
5.0
 40
6.0
 40
6.0
 40
6.0
 40
6.0
 10
252.083148808507
 20
-192.340714470144
 10
252.083148808507
 20
-192.340714470144
 10
252.083148808507
 20
-191.6527289017396
 10
252.083148808507
 20
-191.6527289017396
 10
252.083148808507
 20
-191.6527289017396
 10
247.1849120475788
 20
-190.7997232595917
 10
247.1849120475788
 20
-190.7997232595917
 10
247.1849120475788
 20
-190.7997232595917
 10
247.1849120475788
 20
-191.4873643184476
 10
247.1849120475788
 20
-191.4873643184476
 10
247.1849120475788
 20
-191.9645100431547
 10
247.3774928852042
 20
-192.2487304206878
 10
247.946278149819
 20
-192.3496717184056
 10
247.946278149819
 20
-192.3496717184056
 10
251.3217827062668
 20
-192.9460177469024
 10
251.3217827062668
 20
-192.9460177469024
 10
251.890223461333
 20
-193.0469590446202
 10
252.083148808507
 20
-192.8268174431127
 10
252.083148808507
 20
-192.340714470144
 97
        0
 97
        1
330
B8
 92
        1
 93
        1
 72
     4
 94
        3
 73
     0
 74
     0
 95
       23
 96
       19
 40
0.0
 40
0.0
 40
0.0
 40
0.0
 40
1.0
 40
1.0
 40
1.0
 40
2.0
 40
2.0
 40
2.0
 40
3.0
 40
3.0
 40
3.0
 40
4.0
 40
4.0
 40
4.0
 40
5.0
 40
5.0
 40
5.0
 40
6.0
 40
6.0
 40
6.0
 40
6.0
 10
251.4868027800102
 20
-193.8355414011939
 10
251.4868027800102
 20
-193.8355414011939
 10
247.780913566527
 20
-193.1844183544817
 10
247.780913566527
 20
-193.1844183544817
 10
246.8362683844715
 20
-193.0193982807382
 10
246.4235459453385
 20
-192.4506130161234
 10
246.4235459453385
 20
-191.3867675302783
 10
246.4235459453385
 20
-191.3867675302783
 10
246.4235459453385
 20
-189.7999565497722
 10
246.4235459453385
 20
-189.7999565497722
 10
246.4235459453385
 20
-189.7999565497722
 10
252.8445149107472
 20
-190.927880811643
 10
252.8445149107472
 20
-190.927880811643
 10
252.8445149107472
 20
-190.927880811643
 10
252.8445149107472
 20
-192.5146917921491
 10
252.8445149107472
 20
-192.5146917921491
 10
252.8445149107472
 20
-193.395258198179
 10
252.4314479620658
 20
-194.0098632327475
 10
251.4868027800102
 20
-193.8355414011939
 97
        0
 97
        1
330
B9
 75
     2
 76
     1
 98
        1
 10
0.0
 20
0.0
450
        0
451
        0
460
0.0
461
0.0
452
        0
462
0.0
453
        0
470

  0
SPLINE
  5
BB
330
AF
100
AcDbEntity
  8
Layer 1
100
AcDbSpline
210
0.0
220
0.0
230
1.0
 70
    11
 71
     3
 72
    17
 73
    13
 74
     0
 42
0.0000000001
 43
0.0000000001
 40
0.0
 40
0.0
 40
0.0
 40
0.0
 40
1.0
 40
1.0
 40
1.0
 40
2.0
 40
2.0
 40
2.0
 40
3.0
 40
3.0
 40
3.0
 40
4.0
 40
4.0
 40
4.0
 40
4.0
 10
246.4235459453385
 20
-193.9730007110553
 30
0.0
 10
246.4235459453385
 20
-193.9730007110553
 30
0.0
 10
252.8445149107472
 20
-195.1012694824747
 30
0.0
 10
252.8445149107472
 20
-195.1012694824747
 30
0.0
 10
252.8445149107472
 20
-195.1012694824747
 30
0.0
 10
252.8445149107472
 20
-195.9635768824327
 30
0.0
 10
252.8445149107472
 20
-195.9635768824327
 30
0.0
 10
252.8445149107472
 20
-195.9635768824327
 30
0.0
 10
246.4235459453385
 20
-194.8353081110134
 30
0.0
 10
246.4235459453385
 20
-194.8353081110134
 30
0.0
 10
246.4235459453385
 20
-194.8353081110134
 30
0.0
 10
246.4235459453385
 20
-193.9730007110553
 30
0.0
 10
246.4235459453385
 20
-193.9730007110553
 30
0.0
  0
HATCH
  5
BC
330
AF
100
AcDbEntity
  8
Layer 1
 62
   250
420
  1907995
440
 33554687
100
AcDbHatch
 10
0.0
 20
0.0
 30
0.0
210
0.0
220
0.0
230
1.0
  2
SOLID
 70
     1
 71
     1
 91
        1
 92
        1
 93
        1
 72
     4
 94
        3
 73
     0
 74
     0
 95
       17
 96
       13
 40
0.0
 40
0.0
 40
0.0
 40
0.0
 40
1.0
 40
1.0
 40
1.0
 40
2.0
 40
2.0
 40
2.0
 40
3.0
 40
3.0
 40
3.0
 40
4.0
 40
4.0
 40
4.0
 40
4.0
 10
246.4235459453385
 20
-193.9730007110553
 10
246.4235459453385
 20
-193.9730007110553
 10
252.8445149107472
 20
-195.1012694824747
 10
252.8445149107472
 20
-195.1012694824747
 10
252.8445149107472
 20
-195.1012694824747
 10
252.8445149107472
 20
-195.9635768824327
 10
252.8445149107472
 20
-195.9635768824327
 10
252.8445149107472
 20
-195.9635768824327
 10
246.4235459453385
 20
-194.8353081110134
 10
246.4235459453385
 20
-194.8353081110134
 10
246.4235459453385
 20
-194.8353081110134
 10
246.4235459453385
 20
-193.9730007110553
 10
246.4235459453385
 20
-193.9730007110553
 97
        0
 97
        1
330
BB
 75
     2
 76
     1
 98
        1
 10
0.0
 20
0.0
450
        0
451
        0
460
0.0
461
0.0
452
        0
462
0.0
453
        0
470

  0
SPLINE
  5
BD
330
AF
100
AcDbEntity
  8
Layer 1
100
AcDbSpline
210
0.0
220
0.0
230
1.0
 70
     9
 71
     3
 72
    23
 73
    19
 74
     0
 42
0.0000000001
 43
0.0000000001
 40
0.0
 40
0.0
 40
0.0
 40
0.0
 40
1.0
 40
1.0
 40
1.0
 40
2.0
 40
2.0
 40
2.0
 40
3.0
 40
3.0
 40
3.0
 40
4.0
 40
4.0
 40
4.0
 40
5.0
 40
5.0
 40
5.0
 40
6.0
 40
6.0
 40
6.0
 40
6.0
 10
247.111531513743
 20
-197.5865613655339
 30
0.0
 10
247.111531513743
 20
-198.063707090241
 30
0.0
 10
247.3041123513684
 20
-198.3479274677741
 30
0.0
 10
247.8728976159832
 20
-198.448868765492
 30
0.0
 10
247.8728976159832
 20
-198.448868765492
 30
0.0
 10
251.3951632401026
 20
-199.0727755578707
 30
0.0
 10
251.3951632401026
 20
-199.0727755578707
 30
0.0
 10
251.9639485047174
 20
-199.1644150977783
 30
0.0
 10
252.1565293423428
 20
-198.9535752540811
 30
0.0
 10
252.1565293423428
 20
-198.4671277715638
 30
0.0
 10
252.1565293423428
 20
-197.9903265564052
 30
0.0
 10
251.9639485047174
 20
-197.6968044210619
 30
0.0
 10
251.3951632401026
 20
-197.6051648811543
 30
0.0
 10
251.3951632401026
 20
-197.6051648811543
 30
0.0
 10
247.8728976159832
 20
-196.9812580887755
 30
0.0
 10
247.8728976159832
 20
-196.9812580887755
 30
0.0
 10
247.3041123513684
 20
-196.8803167910577
 30
0.0
 10
247.111531513743
 20
-197.1004583925651
 30
0.0
 10
247.111531513743
 20
-197.5865613655339
 30
0.0
  0
SPLINE
  5
BE
330
AF
100
AcDbEntity
  8
Layer 1
100
AcDbSpline
210
0.0
220
0.0
230
1.0
 70
     9
 71
     3
 72
    29
 73
    25
 74
     0
 42
0.0000000001
 43
0.0000000001
 40
0.0
 40
0.0
 40
0.0
 40
0.0
 40
1.0
 40
1.0
 40
1.0
 40
2.0
 40
2.0
 40
2.0
 40
3.0
 40
3.0
 40
3.0
 40
4.0
 40
4.0
 40
4.0
 40
5.0
 40
5.0
 40
5.0
 40
6.0
 40
6.0
 40
6.0
 40
7.0
 40
7.0
 40
7.0
 40
8.0
 40
8.0
 40
8.0
 40
8.0
 10
252.9175509350345
 20
-198.5680690692816
 30
0.0
 10
252.9175509350345
 20
-198.5680690692816
 30
0.0
 10
252.9175509350345
 20
-198.6414496031174
 30
0.0
 10
252.9175509350345
 20
-198.6414496031174
 30
0.0
 10
252.9175509350345
 20
-199.5220160091473
 30
0.0
 10
252.5048284959016
 20
-200.1276637954542
 30
0.0
 10
251.5601833138461
 20
-199.9622992121622
 30
0.0
 10
251.5601833138461
 20
-199.9622992121622
 30
0.0
 10
247.7078775422397
 20
-199.283615401568
 30
0.0
 10
247.7078775422397
 20
-199.283615401568
 30
0.0
 10
246.7628878506357
 20
-199.1185953278245
 30
0.0
 10
246.3501654115027
 20
-198.5498100632097
 30
0.0
 10
246.3501654115027
 20
-197.4859645773646
 30
0.0
 10
246.3501654115027
 20
-197.4859645773646
 30
0.0
 10
246.3501654115027
 20
-197.4125840435288
 30
0.0
 10
246.3501654115027
 20
-197.4125840435288
 30
0.0
 10
246.3501654115027
 20
-196.5320176374989
 30
0.0
 10
246.7628878506357
 20
-195.9174126029303
 30
0.0
 10
247.7078775422397
 20
-196.091734434484
 30
0.0
 10
247.7078775422397
 20
-196.091734434484
 30
0.0
 10
251.5601833138461
 20
-196.7704182450782
 30
0.0
 10
251.5601833138461
 20
-196.7704182450782
 30
0.0
 10
252.5141302537118
 20
-196.9354383188217
 30
0.0
 10
252.9175509350345
 20
-197.5042235834364
 30
0.0
 10
252.9175509350345
 20
-198.5680690692816
 30
0.0
  0
HATCH
  5
BF
330
AF
100
AcDbEntity
  8
Layer 1
 62
   250
420
  1907995
440
 33554687
100
AcDbHatch
 10
0.0
 20
0.0
 30
0.0
210
0.0
220
0.0
230
1.0
  2
SOLID
 70
     1
 71
     1
 91
        2
 92
        1
 93
        1
 72
     4
 94
        3
 73
     0
 74
     0
 95
       23
 96
       19
 40
0.0
 40
0.0
 40
0.0
 40
0.0
 40
1.0
 40
1.0
 40
1.0
 40
2.0
 40
2.0
 40
2.0
 40
3.0
 40
3.0
 40
3.0
 40
4.0
 40
4.0
 40
4.0
 40
5.0
 40
5.0
 40
5.0
 40
6.0
 40
6.0
 40
6.0
 40
6.0
 10
247.111531513743
 20
-197.5865613655339
 10
247.111531513743
 20
-198.063707090241
 10
247.3041123513684
 20
-198.3479274677741
 10
247.8728976159832
 20
-198.448868765492
 10
247.8728976159832
 20
-198.448868765492
 10
251.3951632401026
 20
-199.0727755578707
 10
251.3951632401026
 20
-199.0727755578707
 10
251.9639485047174
 20
-199.1644150977783
 10
252.1565293423428
 20
-198.9535752540811
 10
252.1565293423428
 20
-198.4671277715638
 10
252.1565293423428
 20
-197.9903265564052
 10
251.9639485047174
 20
-197.6968044210619
 10
251.3951632401026
 20
-197.6051648811543
 10
251.3951632401026
 20
-197.6051648811543
 10
247.8728976159832
 20
-196.9812580887755
 10
247.8728976159832
 20
-196.9812580887755
 10
247.3041123513684
 20
-196.8803167910577
 10
247.111531513743
 20
-197.1004583925651
 10
247.111531513743
 20
-197.5865613655339
 97
        0
 97
        1
330
BD
 92
        1
 93
        1
 72
     4
 94
        3
 73
     0
 74
     0
 95
       29
 96
       25
 40
0.0
 40
0.0
 40
0.0
 40
0.0
 40
1.0
 40
1.0
 40
1.0
 40
2.0
 40
2.0
 40
2.0
 40
3.0
 40
3.0
 40
3.0
 40
4.0
 40
4.0
 40
4.0
 40
5.0
 40
5.0
 40
5.0
 40
6.0
 40
6.0
 40
6.0
 40
7.0
 40
7.0
 40
7.0
 40
8.0
 40
8.0
 40
8.0
 40
8.0
 10
252.9175509350345
 20
-198.5680690692816
 10
252.9175509350345
 20
-198.5680690692816
 10
252.9175509350345
 20
-198.6414496031174
 10
252.9175509350345
 20
-198.6414496031174
 10
252.9175509350345
 20
-199.5220160091473
 10
252.5048284959016
 20
-200.1276637954542
 10
251.5601833138461
 20
-199.9622992121622
 10
251.5601833138461
 20
-199.9622992121622
 10
247.7078775422397
 20
-199.283615401568
 10
247.7078775422397
 20
-199.283615401568
 10
246.7628878506357
 20
-199.1185953278245
 10
246.3501654115027
 20
-198.5498100632097
 10
246.3501654115027
 20
-197.4859645773646
 10
246.3501654115027
 20
-197.4859645773646
 10
246.3501654115027
 20
-197.4125840435288
 10
246.3501654115027
 20
-197.4125840435288
 10
246.3501654115027
 20
-196.5320176374989
 10
246.7628878506357
 20
-195.9174126029303
 10
247.7078775422397
 20
-196.091734434484
 10
247.7078775422397
 20
-196.091734434484
 10
251.5601833138461
 20
-196.7704182450782
 10
251.5601833138461
 20
-196.7704182450782
 10
252.5141302537118
 20
-196.9354383188217
 10
252.9175509350345
 20
-197.5042235834364
 10
252.9175509350345
 20
-198.5680690692816
 97
        0
 97
        1
330
BE
 75
     2
 76
     1
 98
        1
 10
0.0
 20
0.0
450
        0
451
        0
460
0.0
461
0.0
452
        0
462
0.0
453
        0
470

  0
SPLINE
  5
C0
330
AF
100
AcDbEntity
  8
Layer 1
100
AcDbSpline
210
0.0
220
0.0
230
1.0
 70
     9
 71
     3
 72
    23
 73
    19
 74
     0
 42
0.0000000001
 43
0.0000000001
 40
0.0
 40
0.0
 40
0.0
 40
0.0
 40
1.0
 40
1.0
 40
1.0
 40
2.0
 40
2.0
 40
2.0
 40
3.0
 40
3.0
 40
3.0
 40
4.0
 40
4.0
 40
4.0
 40
5.0
 40
5.0
 40
5.0
 40
6.0
 40
6.0
 40
6.0
 40
6.0
 10
247.111531513743
 20
-203.1999999492
 30
0.0
 10
247.111531513743
 20
-203.6771456739071
 30
0.0
 10
247.3041123513684
 20
-203.9613660514402
 30
0.0
 10
247.8728976159832
 20
-204.062307349158
 30
0.0
 10
247.8728976159832
 20
-204.062307349158
 30
0.0
 10
251.3951632401026
 20
-204.6862141415368
 30
0.0
 10
251.3951632401026
 20
-204.6862141415368
 30
0.0
 10
251.9639485047174
 20
-204.7778536814444
 30
0.0
 10
252.1565293423428
 20
-204.5670138377472
 30
0.0
 10
252.1565293423428
 20
-204.0805663552299
 30
0.0
 10
252.1565293423428
 20
-203.6037651400713
 30
0.0
 10
251.9639485047174
 20
-203.310243004728
 30
0.0
 10
251.3951632401026
 20
-203.2186034648204
 30
0.0
 10
251.3951632401026
 20
-203.2186034648204
 30
0.0
 10
247.8728976159832
 20
-202.5946966724416
 30
0.0
 10
247.8728976159832
 20
-202.5946966724416
 30
0.0
 10
247.3041123513684
 20
-202.4937553747238
 30
0.0
 10
247.111531513743
 20
-202.7138969762313
 30
0.0
 10
247.111531513743
 20
-203.1999999492
 30
0.0
  0
SPLINE
  5
C1
330
AF
100
AcDbEntity
  8
Layer 1
100
AcDbSpline
210
0.0
220
0.0
230
1.0
 70
     9
 71
     3
 72
    29
 73
    25
 74
     0
 42
0.0000000001
 43
0.0000000001
 40
0.0
 40
0.0
 40
0.0
 40
0.0
 40
1.0
 40
1.0
 40
1.0
 40
2.0
 40
2.0
 40
2.0
 40
3.0
 40
3.0
 40
3.0
 40
4.0
 40
4.0
 40
4.0
 40
5.0
 40
5.0
 40
5.0
 40
6.0
 40
6.0
 40
6.0
 40
7.0
 40
7.0
 40
7.0
 40
8.0
 40
8.0
 40
8.0
 40
8.0
 10
252.9175509350345
 20
-204.1815076529477
 30
0.0
 10
252.9175509350345
 20
-204.1815076529477
 30
0.0
 10
252.9175509350345
 20
-204.2548881867835
 30
0.0
 10
252.9175509350345
 20
-204.2548881867835
 30
0.0
 10
252.9175509350345
 20
-205.1354545928134
 30
0.0
 10
252.5048284959016
 20
-205.7411023791203
 30
0.0
 10
251.5601833138461
 20
-205.5757377958283
 30
0.0
 10
251.5601833138461
 20
-205.5757377958283
 30
0.0
 10
247.7078775422397
 20
-204.8970539852341
 30
0.0
 10
247.7078775422397
 20
-204.8970539852341
 30
0.0
 10
246.7628878506357
 20
-204.7320339114906
 30
0.0
 10
246.3501654115027
 20
-204.1632486468759
 30
0.0
 10
246.3501654115027
 20
-203.0994031610307
 30
0.0
 10
246.3501654115027
 20
-203.0994031610307
 30
0.0
 10
246.3501654115027
 20
-203.0260226271949
 30
0.0
 10
246.3501654115027
 20
-203.0260226271949
 30
0.0
 10
246.3501654115027
 20
-202.145456221165
 30
0.0
 10
246.7628878506357
 20
-201.5308511865965
 30
0.0
 10
247.7078775422397
 20
-201.7051730181501
 30
0.0
 10
247.7078775422397
 20
-201.7051730181501
 30
0.0
 10
251.5601833138461
 20
-202.3838568287443
 30
0.0
 10
251.5601833138461
 20
-202.3838568287443
 30
0.0
 10
252.5141302537118
 20
-202.5488769024878
 30
0.0
 10
252.9175509350345
 20
-203.1176621671025
 30
0.0
 10
252.9175509350345
 20
-204.1815076529477
 30
0.0
  0
HATCH
  5
C2
330
AF
100
AcDbEntity
  8
Layer 1
 62
   250
420
  1907995
440
 33554687
100
AcDbHatch
 10
0.0
 20
0.0
 30
0.0
210
0.0
220
0.0
230
1.0
  2
SOLID
 70
     1
 71
     1
 91
        2
 92
        1
 93
        1
 72
     4
 94
        3
 73
     0
 74
     0
 95
       23
 96
       19
 40
0.0
 40
0.0
 40
0.0
 40
0.0
 40
1.0
 40
1.0
 40
1.0
 40
2.0
 40
2.0
 40
2.0
 40
3.0
 40
3.0
 40
3.0
 40
4.0
 40
4.0
 40
4.0
 40
5.0
 40
5.0
 40
5.0
 40
6.0
 40
6.0
 40
6.0
 40
6.0
 10
247.111531513743
 20
-203.1999999492
 10
247.111531513743
 20
-203.6771456739071
 10
247.3041123513684
 20
-203.9613660514402
 10
247.8728976159832
 20
-204.062307349158
 10
247.8728976159832
 20
-204.062307349158
 10
251.3951632401026
 20
-204.6862141415368
 10
251.3951632401026
 20
-204.6862141415368
 10
251.9639485047174
 20
-204.7778536814444
 10
252.1565293423428
 20
-204.5670138377472
 10
252.1565293423428
 20
-204.0805663552299
 10
252.1565293423428
 20
-203.6037651400713
 10
251.9639485047174
 20
-203.310243004728
 10
251.3951632401026
 20
-203.2186034648204
 10
251.3951632401026
 20
-203.2186034648204
 10
247.8728976159832
 20
-202.5946966724416
 10
247.8728976159832
 20
-202.5946966724416
 10
247.3041123513684
 20
-202.4937553747238
 10
247.111531513743
 20
-202.7138969762313
 10
247.111531513743
 20
-203.1999999492
 97
        0
 97
        1
330
C0
 92
        1
 93
        1
 72
     4
 94
        3
 73
     0
 74
     0
 95
       29
 96
       25
 40
0.0
 40
0.0
 40
0.0
 40
0.0
 40
1.0
 40
1.0
 40
1.0
 40
2.0
 40
2.0
 40
2.0
 40
3.0
 40
3.0
 40
3.0
 40
4.0
 40
4.0
 40
4.0
 40
5.0
 40
5.0
 40
5.0
 40
6.0
 40
6.0
 40
6.0
 40
7.0
 40
7.0
 40
7.0
 40
8.0
 40
8.0
 40
8.0
 40
8.0
 10
252.9175509350345
 20
-204.1815076529477
 10
252.9175509350345
 20
-204.1815076529477
 10
252.9175509350345
 20
-204.2548881867835
 10
252.9175509350345
 20
-204.2548881867835
 10
252.9175509350345
 20
-205.1354545928134
 10
252.5048284959016
 20
-205.7411023791203
 10
251.5601833138461
 20
-205.5757377958283
 10
251.5601833138461
 20
-205.5757377958283
 10
247.7078775422397
 20
-204.8970539852341
 10
247.7078775422397
 20
-204.8970539852341
 10
246.7628878506357
 20
-204.7320339114906
 10
246.3501654115027
 20
-204.1632486468759
 10
246.3501654115027
 20
-203.0994031610307
 10
246.3501654115027
 20
-203.0994031610307
 10
246.3501654115027
 20
-203.0260226271949
 10
246.3501654115027
 20
-203.0260226271949
 10
246.3501654115027
 20
-202.145456221165
 10
246.7628878506357
 20
-201.5308511865965
 10
247.7078775422397
 20
-201.7051730181501
 10
247.7078775422397
 20
-201.7051730181501
 10
251.5601833138461
 20
-202.3838568287443
 10
251.5601833138461
 20
-202.3838568287443
 10
252.5141302537118
 20
-202.5488769024878
 10
252.9175509350345
 20
-203.1176621671025
 10
252.9175509350345
 20
-204.1815076529477
 97
        0
 97
        1
330
C1
 75
     2
 76
     1
 98
        1
 10
0.0
 20
0.0
450
        0
451
        0
460
0.0
461
0.0
452
        0
462
0.0
453
        0
470

  0
SPLINE
  5
C3
330
AF
100
AcDbEntity
  8
Layer 1
100
AcDbSpline
210
0.0
220
0.0
230
1.0
 70
     9
 71
     3
 72
    38
 73
    34
 74
     0
 42
0.0000000001
 43
0.0000000001
 40
0.0
 40
0.0
 40
0.0
 40
0.0
 40
1.0
 40
1.0
 40
1.0
 40
2.0
 40
2.0
 40
2.0
 40
3.0
 40
3.0
 40
3.0
 40
4.0
 40
4.0
 40
4.0
 40
5.0
 40
5.0
 40
5.0
 40
6.0
 40
6.0
 40
6.0
 40
7.0
 40
7.0
 40
7.0
 40
8.0
 40
8.0
 40
8.0
 40
9.0
 40
9.0
 40
9.0
 40
10.0
 40
10.0
 40
10.0
 40
11.0
 40
11.0
 40
11.0
 40
11.0
 10
247.7078775422397
 20
-208.9877603644197
 30
0.0
 10
246.7446288445639
 20
-208.8227402906763
 30
0.0
 10
246.3501654115027
 20
-208.2725585416818
 30
0.0
 10
246.3501654115027
 20
-207.2083685462882
 30
0.0
 10
246.3501654115027
 20
-207.2083685462882
 30
0.0
 10
246.3501654115027
 20
-207.1718505341445
 30
0.0
 10
246.3501654115027
 20
-207.1718505341445
 30
0.0
 10
246.3501654115027
 20
-206.2912841281147
 30
0.0
 10
246.7353270867537
 20
-205.6856363418078
 30
0.0
 10
247.7078775422397
 20
-205.8692599311715
 30
0.0
 10
247.7078775422397
 20
-205.8692599311715
 30
0.0
 10
252.8445149107472
 20
-206.7680853432733
 30
0.0
 10
252.8445149107472
 20
-206.7680853432733
 30
0.0
 10
252.8445149107472
 20
-206.7680853432733
 30
0.0
 10
252.8445149107472
 20
-207.6303927432313
 30
0.0
 10
252.8445149107472
 20
-207.6303927432313
 30
0.0
 10
252.8445149107472
 20
-207.6303927432313
 30
0.0
 10
247.8728976159832
 20
-206.7587835854631
 30
0.0
 10
247.8728976159832
 20
-206.7587835854631
 30
0.0
 10
247.3041123513684
 20
-206.6581867972938
 30
0.0
 10
247.111531513743
 20
-206.8414658771091
 30
0.0
 10
247.111531513743
 20
-207.3275688500778
 30
0.0
 10
247.111531513743
 20
-207.8047145747849
 30
0.0
 10
247.3041123513684
 20
-208.0524169401744
 30
0.0
 10
247.8728976159832
 20
-208.1533582378922
 30
0.0
 10
247.8728976159832
 20
-208.1533582378922
 30
0.0
 10
252.8445149107472
 20
-209.0246228861119
 30
0.0
 10
252.8445149107472
 20
-209.0246228861119
 30
0.0
 10
252.8445149107472
 20
-209.0246228861119
 30
0.0
 10
252.8445149107472
 20
-209.8869302860699
 30
0.0
 10
252.8445149107472
 20
-209.8869302860699
 30
0.0
 10
252.8445149107472
 20
-209.8869302860699
 30
0.0
 10
247.7078775422397
 20
-208.9877603644197
 30
0.0
 10
247.7078775422397
 20
-208.9877603644197
 30
0.0
  0
HATCH
  5
C4
330
AF
100
AcDbEntity
  8
Layer 1
 62
   250
420
  1907995
440
 33554687
100
AcDbHatch
 10
0.0
 20
0.0
 30
0.0
210
0.0
220
0.0
230
1.0
  2
SOLID
 70
     1
 71
     1
 91
        1
 92
        1
 93
        1
 72
     4
 94
        3
 73
     0
 74
     0
 95
       38
 96
       34
 40
0.0
 40
0.0
 40
0.0
 40
0.0
 40
1.0
 40
1.0
 40
1.0
 40
2.0
 40
2.0
 40
2.0
 40
3.0
 40
3.0
 40
3.0
 40
4.0
 40
4.0
 40
4.0
 40
5.0
 40
5.0
 40
5.0
 40
6.0
 40
6.0
 40
6.0
 40
7.0
 40
7.0
 40
7.0
 40
8.0
 40
8.0
 40
8.0
 40
9.0
 40
9.0
 40
9.0
 40
10.0
 40
10.0
 40
10.0
 40
11.0
 40
11.0
 40
11.0
 40
11.0
 10
247.7078775422397
 20
-208.9877603644197
 10
246.7446288445639
 20
-208.8227402906763
 10
246.3501654115027
 20
-208.2725585416818
 10
246.3501654115027
 20
-207.2083685462882
 10
246.3501654115027
 20
-207.2083685462882
 10
246.3501654115027
 20
-207.1718505341445
 10
246.3501654115027
 20
-207.1718505341445
 10
246.3501654115027
 20
-206.2912841281147
 10
246.7353270867537
 20
-205.6856363418078
 10
247.7078775422397
 20
-205.8692599311715
 10
247.7078775422397
 20
-205.8692599311715
 10
252.8445149107472
 20
-206.7680853432733
 10
252.8445149107472
 20
-206.7680853432733
 10
252.8445149107472
 20
-206.7680853432733
 10
252.8445149107472
 20
-207.6303927432313
 10
252.8445149107472
 20
-207.6303927432313
 10
252.8445149107472
 20
-207.6303927432313
 10
247.8728976159832
 20
-206.7587835854631
 10
247.8728976159832
 20
-206.7587835854631
 10
247.3041123513684
 20
-206.6581867972938
 10
247.111531513743
 20
-206.8414658771091
 10
247.111531513743
 20
-207.3275688500778
 10
247.111531513743
 20
-207.8047145747849
 10
247.3041123513684
 20
-208.0524169401744
 10
247.8728976159832
 20
-208.1533582378922
 10
247.8728976159832
 20
-208.1533582378922
 10
252.8445149107472
 20
-209.0246228861119
 10
252.8445149107472
 20
-209.0246228861119
 10
252.8445149107472
 20
-209.0246228861119
 10
252.8445149107472
 20
-209.8869302860699
 10
252.8445149107472
 20
-209.8869302860699
 10
252.8445149107472
 20
-209.8869302860699
 10
247.7078775422397
 20
-208.9877603644197
 10
247.7078775422397
 20
-208.9877603644197
 97
        0
 97
        1
330
C3
 75
     2
 76
     1
 98
        1
 10
0.0
 20
0.0
450
        0
451
        0
460
0.0
461
0.0
452
        0
462
0.0
453
        0
470

  0
SPLINE
  5
C5
330
AF
100
AcDbEntity
  8
Layer 1
100
AcDbSpline
210
0.0
220
0.0
230
1.0
 70
    11
 71
     3
 72
    29
 73
    25
 74
     0
 42
0.0000000001
 43
0.0000000001
 40
0.0
 40
0.0
 40
0.0
 40
0.0
 40
1.0
 40
1.0
 40
1.0
 40
2.0
 40
2.0
 40
2.0
 40
3.0
 40
3.0
 40
3.0
 40
4.0
 40
4.0
 40
4.0
 40
5.0
 40
5.0
 40
5.0
 40
6.0
 40
6.0
 40
6.0
 40
7.0
 40
7.0
 40
7.0
 40
8.0
 40
8.0
 40
8.0
 40
8.0
 10
252.083148808507
 20
-213.473274686215
 30
0.0
 10
252.083148808507
 20
-213.473274686215
 30
0.0
 10
252.083148808507
 20
-212.3543076726059
 30
0.0
 10
252.083148808507
 20
-212.3543076726059
 30
0.0
 10
252.083148808507
 20
-212.3543076726059
 30
0.0
 10
246.4235459453385
 20
-211.3545409627864
 30
0.0
 10
246.4235459453385
 20
-211.3545409627864
 30
0.0
 10
246.4235459453385
 20
-211.3545409627864
 30
0.0
 10
246.4235459453385
 20
-210.4922335628284
 30
0.0
 10
246.4235459453385
 20
-210.4922335628284
 30
0.0
 10
246.4235459453385
 20
-210.4922335628284
 30
0.0
 10
252.083148808507
 20
-211.4920002726478
 30
0.0
 10
252.083148808507
 20
-211.4920002726478
 30
0.0
 10
252.083148808507
 20
-211.4920002726478
 30
0.0
 10
252.083148808507
 20
-210.3637315012285
 30
0.0
 10
252.083148808507
 20
-210.3637315012285
 30
0.0
 10
252.083148808507
 20
-210.3637315012285
 30
0.0
 10
252.8445149107472
 20
-210.5015353206385
 30
0.0
 10
252.8445149107472
 20
-210.5015353206385
 30
0.0
 10
252.8445149107472
 20
-210.5015353206385
 30
0.0
 10
252.8445149107472
 20
-213.6017767478148
 30
0.0
 10
252.8445149107472
 20
-213.6017767478148
 30
0.0
 10
252.8445149107472
 20
-213.6017767478148
 30
0.0
 10
252.083148808507
 20
-213.473274686215
 30
0.0
 10
252.083148808507
 20
-213.473274686215
 30
0.0
  0
HATCH
  5
C6
330
AF
100
AcDbEntity
  8
Layer 1
 62
   250
420
  1907995
440
 33554687
100
AcDbHatch
 10
0.0
 20
0.0
 30
0.0
210
0.0
220
0.0
230
1.0
  2
SOLID
 70
     1
 71
     1
 91
        1
 92
        1
 93
        1
 72
     4
 94
        3
 73
     0
 74
     0
 95
       29
 96
       25
 40
0.0
 40
0.0
 40
0.0
 40
0.0
 40
1.0
 40
1.0
 40
1.0
 40
2.0
 40
2.0
 40
2.0
 40
3.0
 40
3.0
 40
3.0
 40
4.0
 40
4.0
 40
4.0
 40
5.0
 40
5.0
 40
5.0
 40
6.0
 40
6.0
 40
6.0
 40
7.0
 40
7.0
 40
7.0
 40
8.0
 40
8.0
 40
8.0
 40
8.0
 10
252.083148808507
 20
-213.473274686215
 10
252.083148808507
 20
-213.473274686215
 10
252.083148808507
 20
-212.3543076726059
 10
252.083148808507
 20
-212.3543076726059
 10
252.083148808507
 20
-212.3543076726059
 10
246.4235459453385
 20
-211.3545409627864
 10
246.4235459453385
 20
-211.3545409627864
 10
246.4235459453385
 20
-211.3545409627864
 10
246.4235459453385
 20
-210.4922335628284
 10
246.4235459453385
 20
-210.4922335628284
 10
246.4235459453385
 20
-210.4922335628284
 10
252.083148808507
 20
-211.4920002726478
 10
252.083148808507
 20
-211.4920002726478
 10
252.083148808507
 20
-211.4920002726478
 10
252.083148808507
 20
-210.3637315012285
 10
252.083148808507
 20
-210.3637315012285
 10
252.083148808507
 20
-210.3637315012285
 10
252.8445149107472
 20
-210.5015353206385
 10
252.8445149107472
 20
-210.5015353206385
 10
252.8445149107472
 20
-210.5015353206385
 10
252.8445149107472
 20
-213.6017767478148
 10
252.8445149107472
 20
-213.6017767478148
 10
252.8445149107472
 20
-213.6017767478148
 10
252.083148808507
 20
-213.473274686215
 10
252.083148808507
 20
-213.473274686215
 97
        0
 97
        1
330
C5
 75
     2
 76
     1
 98
        1
 10
0.0
 20
0.0
450
        0
451
        0
460
0.0
461
0.0
452
        0
462
0.0
453
        0
470

  0
ENDBLK
  5
B2
330
AF
100
AcDbEntity
  8
0
100
AcDbBlockEnd
  0
ENDSEC
  0
SECTION
  2
ENTITIES
  0
LWPOLYLINE
  5
79
330
70
100
AcDbEntity
  8
Layer 1
 62
    12
420
 14878227
370
     9
100
AcDbPolyline
 90
       56
 70
     1
 43
0.0
 10
174.542703984563
 20
-263.2119694267509
 10
190.5366459022225
 20
-263.2119694267509
 10
190.5427178830153
 20
-217.2119348516623
 10
194.5426890598581
 20
-217.2119348516623
 10
194.5426890598581
 20
-167.2119721634245
 10
190.5427178830153
 20
-167.2119721634245
 10
190.5427178830153
 20
-117.2119233477989
 10
194.5426890598581
 20
-117.2119233477989
 10
194.5426890598581
 20
-67.21196065956103
 10
190.5427178830153
 20
-67.21196065956103
 10
190.5427178830153
 20
-21.21192608447249
 10
190.5366459022225
 20
-21.21192608447249
 10
179.230488475036
 20
-21.21192608447249
 10
174.542703984563
 20
-21.21192608447249
 10
174.542703984563
 20
-17.2119549076296
 10
174.5366320037702
 20
-17.2119549076296
 10
158.5426900861108
 20
-17.2119549076296
 10
158.5426900861108
 20
-21.21192608447249
 10
142.5427192513521
 20
-21.21192608447249
 10
142.5427192513521
 20
-17.2119549076296
 10
126.5427053528998
 20
-17.2119549076296
 10
126.5427053528998
 20
-21.21192608447249
 10
110.5426914544475
 20
-21.21192608447249
 10
110.5426914544475
 20
-17.2119549076296
 10
94.54272061968888
 20
-17.2119549076296
 10
94.54272061968888
 20
-21.21192608447249
 10
78.54270672123663
 20
-21.21192608447249
 10
78.54270672123663
 20
-17.2119549076296
 10
62.54269282278437
 20
-17.2119549076296
 10
62.54269282278437
 20
-21.21192608447249
 10
46.54272198802568
 20
-21.21192608447249
 10
46.54272198802568
 20
-17.2119549076296
 10
30.54270808957343
 20
-17.2119549076296
 10
30.54270808957343
 20
-21.21192608447249
 10
14.54269419112117
 20
-21.21192608447249
 10
14.54269419112117
 20
-263.2119694267509
 10
30.54270808957343
 20
-263.2119694267509
 10
30.54270808957343
 20
-267.2119406035938
 10
46.54272198802568
 20
-267.2119406035938
 10
46.54272198802568
 20
-263.2119694267509
 10
62.54269282278437
 20
-263.2119694267509
 10
62.54269282278437
 20
-267.2119406035938
 10
78.54270672123663
 20
-267.2119406035938
 10
78.54270672123663
 20
-263.2119694267509
 10
94.54272061968888
 20
-263.2119694267509
 10
94.54272061968888
 20
-267.2119406035938
 10
110.5426914544475
 20
-267.2119406035938
 10
110.5426914544475
 20
-263.2119694267509
 10
126.5427053528998
 20
-263.2119694267509
 10
126.5427053528998
 20
-267.2119406035938
 10
142.5427192513521
 20
-267.2119406035938
 10
142.5427192513521
 20
-263.2119694267509
 10
158.5426900861108
 20
-263.2119694267509
 10
158.5426900861108
 20
-267.2119406035938
 10
174.5366320037702
 20
-267.2119406035938
 10
174.542703984563
 20
-267.2119406035938
  0
INSERT
  5
7B
330
70
100
AcDbEntity
  8
Layer 1
100
AcDbBlockReference
  2
Block_0
 10
0.0
 20
0.0
 30
0.0
  0
INSERT
  5
89
330
70
100
AcDbEntity
  8
Layer 1
100
AcDbBlockReference
  2
Block_2
 10
0.0
 20
0.0
 30
0.0
  0
CIRCLE
  5
99
330
70
100
AcDbEntity
  8
Layer 1
 62
    12
420
 14878227
370
     9
100
AcDbCircle
 10
234.5455920476166
 20
-87.21198238985875
 30
0.0
 40
6.897003743593869
  0
INSERT
  5
9B
330
70
100
AcDbEntity
  8
Layer 1
100
AcDbBlockReference
  2
Block_3
 10
0.0
 20
0.0
 30
0.0
  0
INSERT
  5
B0
330
70
100
AcDbEntity
  8
Layer 1
100
AcDbBlockReference
  2
Block_4
 10
0.0
 20
0.0
 30
0.0
  0
CIRCLE
  5
C7
330
70
100
AcDbEntity
  8
Layer 1
 62
    12
420
 14878227
370
     9
100
AcDbCircle
 10
234.5455920476166
 20
-142.2119477556118
 30
0.0
 40
6.897003743593909
  0
CIRCLE
  5
C8
330
70
100
AcDbEntity
  8
Layer 1
 62
    12
420
 14878227
370
     9
100
AcDbCircle
 10
234.5455920476166
 20
-198.2389823621017
 30
0.0
 40
6.89700374359403
  0
ENDSEC
  0
SECTION
  2
OBJECTS
  0
DICTIONARY
  5
C
330
0
100
AcDbDictionary
281
     1
  3
ACAD_COLOR
350
63
  3
ACAD_DETAILVIEWSTYLE
350
6A
  3
ACAD_GROUP
350
D
  3
ACAD_LAYOUT
350
62
  3
ACAD_MATERIAL
350
10
  3
ACAD_MLEADERSTYLE
350
66
  3
ACAD_MLINESTYLE
350
5F
  3
ACAD_PLOTSETTINGS
350
61
  3
ACAD_PLOTSTYLENAME
350
E
  3
ACAD_SCALELIST
350
42
  3
ACAD_SECTIONVIEWSTYLE
350
68
  3
ACAD_TABLESTYLE
350
64
  3
ACAD_VISUALSTYLE
350
29
  3
ACDB_RECOMPOSE_DATA
350
D1
  3
AcDbVariableDictionary
350
C9
  0
DICTIONARY
  5
63
102
{ACAD_REACTORS
330
C
102
}
330
C
100
AcDbDictionary
281
     1
  0
DICTIONARY
  5
6A
102
{ACAD_REACTORS
330
C
102
}
330
C
100
AcDbDictionary
281
     1
  3
Imperial24
350
6B
  0
DICTIONARY
  5
D
102
{ACAD_REACTORS
330
C
102
}
330
C
100
AcDbDictionary
281
     1
  0
DICTIONARY
  5
62
102
{ACAD_REACTORS
330
C
102
}
330
C
100
AcDbDictionary
281
     1
  3
Layout1
350
6F
  3
Layout2
350
77
  3
Model
350
73
  0
DICTIONARY
  5
10
102
{ACAD_REACTORS
330
C
102
}
330
C
100
AcDbDictionary
281
     1
  3
ByBlock
350
19
  3
ByLayer
350
11
  3
Global
350
21
  0
DICTIONARY
  5
66
102
{ACAD_REACTORS
330
C
102
}
330
C
100
AcDbDictionary
281
     1
  3
Standard
350
67
  0
DICTIONARY
  5
5F
102
{ACAD_REACTORS
330
C
102
}
330
C
100
AcDbDictionary
281
     1
  3
Standard
350
60
  0
DICTIONARY
  5
61
102
{ACAD_REACTORS
330
C
102
}
330
C
100
AcDbDictionary
281
     1
  0
ACDBDICTIONARYWDFLT
  5
E
102
{ACAD_REACTORS
330
C
102
}
330
C
100
AcDbDictionary
281
     1
  3
Normal
350
F
100
AcDbDictionaryWithDefault
340
F
  0
DICTIONARY
  5
42
102
{ACAD_REACTORS
330
C
102
}
330
C
100
AcDbDictionary
281
     1
  3
A0
350
43
  3
A1
350
44
  3
A2
350
45
  3
A3
350
46
  3
A4
350
47
  3
A5
350
48
  3
A6
350
49
  3
A7
350
4A
  3
A8
350
4B
  3
A9
350
4C
  3
B0
350
4D
  3
B1
350
4E
  3
B2
350
4F
  3
B3
350
50
  3
B4
350
51
  3
B5
350
52
  3
B6
350
53
  0
DICTIONARY
  5
68
102
{ACAD_REACTORS
330
C
102
}
330
C
100
AcDbDictionary
281
     1
  3
Imperial24
350
69
  0
DICTIONARY
  5
64
102
{ACAD_REACTORS
330
C
102
}
330
C
100
AcDbDictionary
281
     1
  3
Standard
350
65
  0
DICTIONARY
  5
29
102
{ACAD_REACTORS
330
C
102
}
330
C
100
AcDbDictionary
281
     1
  3
2dWireframe
350
2F
  3
Basic
350
2E
  3
Brighten
350
35
  3
ColorChange
350
39
  3
Conceptual
350
32
  3
Dim
350
34
  3
EdgeColorOff
350
41
  3
Facepattern
350
38
  3
Flat
350
2A
  3
FlatWithEdges
350
2B
  3
Gouraud
350
2C
  3
GouraudWithEdges
350
2D
  3
Hidden
350
31
  3
JitterOff
350
3F
  3
Linepattern
350
37
  3
OverhangOff
350
40
  3
Realistic
350
33
  3
Shaded
350
3E
  3
Shaded with edges
350
3D
  3
Shades of Gray
350
3A
  3
Sketchy
350
3B
  3
Thicken
350
36
  3
Wireframe
350
30
  3
X-Ray
350
3C
  0
XRECORD
  5
D1
102
{ACAD_REACTORS
330
C
102
}
330
C
100
AcDbXrecord
280
     1
 90
        1
330
65
  0
DICTIONARY
  5
C9
102
{ACAD_REACTORS
330
C
102
}
330
C
100
AcDbDictionary
281
     1
  3
CANNOSCALE
350
CE
  3
CMLEADERSTYLE
350
CB
  3
CTABLESTYLE
350
CA
  3
CVIEWDETAILSTYLE
350
CC
  3
CVIEWSECTIONSTYLE
350
CD
  0
ACDBDETAILVIEWSTYLE
  5
6B
102
{ACAD_REACTORS
330
6A
102
}
330
6A
100
AcDbModelDocViewStyle
 70
     0
  3
Imperial24
290
     1
300
Imperial24
 90
        0
100
AcDbDetailViewStyle
 70
     0
 71
     0
 90
        3
 71
     1
340
55
 62
   256
 40
0.24
340
0
 62
   256
 40
0.24
300

 40
0.36
280
     3
 71
     2
340
5D
 90
       25
 62
   256
 71
     3
340
55
 62
   256
 40
0.24
 90
        1
 40
0.75
 90
        1
300
%<\AcVar ViewType \f "%tc1">% %<\AcVar ViewDetailId>%\PSCALE %<\AcVar ViewScale \f "%sn">%
 71
     4
340
5D
 90
       25
 62
   256
340
5D
 90
       25
 62
   256
280
     0
  0
LAYOUT
  5
6F
102
{ACAD_REACTORS
330
62
102
}
330
62
100
AcDbPlotSettings
  1

  2

  4

  6

 40
0.0
 41
0.0
 42
0.0
 43
0.0
 44
0.0
 45
0.0
 46
0.0
 47
0.0
 48
0.0
 49
0.0
140
0.0
141
0.0
142
1.0
143
1.0
 70
   688
 72
     0
 73
     0
 74
     5
  7

 75
    16
147
1.0
 76
     0
 77
     2
 78
   300
148
0.0
149
0.0
100
AcDbLayout
  1
Layout1
 70
     1
 71
     1
 10
0.0
 20
0.0
 11
12.0
 21
9.0
 12
0.0
 22
0.0
 32
0.0
 14
0.0
 24
0.0
 34
0.0
 15
0.0
 25
0.0
 35
0.0
146
0.0
 13
0.0
 23
0.0
 33
0.0
 16
1.0
 26
0.0
 36
0.0
 17
0.0
 27
1.0
 37
0.0
 76
     0
330
6C
  0
LAYOUT
  5
77
102
{ACAD_REACTORS
330
62
102
}
330
62
100
AcDbPlotSettings
  1

  2

  4

  6

 40
0.0
 41
0.0
 42
0.0
 43
0.0
 44
0.0
 45
0.0
 46
0.0
 47
0.0
 48
0.0
 49
0.0
140
0.0
141
0.0
142
1.0
143
1.0
 70
   688
 72
     0
 73
     0
 74
     5
  7

 75
    16
147
1.0
 76
     0
 77
     2
 78
   300
148
0.0
149
0.0
100
AcDbLayout
  1
Layout2
 70
     1
 71
     2
 10
0.0
 20
0.0
 11
12.0
 21
9.0
 12
0.0
 22
0.0
 32
0.0
 14
0.0
 24
0.0
 34
0.0
 15
0.0
 25
0.0
 35
0.0
146
0.0
 13
0.0
 23
0.0
 33
0.0
 16
1.0
 26
0.0
 36
0.0
 17
0.0
 27
1.0
 37
0.0
 76
     0
330
74
  0
LAYOUT
  5
73
102
{ACAD_REACTORS
330
62
102
}
330
62
100
AcDbPlotSettings
  1

  2

  4

  6

 40
0.0
 41
0.0
 42
0.0
 43
0.0
 44
0.0
 45
0.0
 46
0.0
 47
0.0
 48
0.0
 49
0.0
140
0.0
141
0.0
142
1.0
143
1.0
 70
  1712
 72
     0
 73
     0
 74
     0
  7

 75
     0
147
1.0
 76
     0
 77
     2
 78
   300
148
0.0
149
0.0
100
AcDbLayout
  1
Model
 70
     1
 71
     0
 10
0.0
 20
0.0
 11
12.0
 21
9.0
 12
0.0
 22
0.0
 32
0.0
 14
0.0
 24
0.0
 34
0.0
 15
0.0
 25
0.0
 35
0.0
146
0.0
 13
0.0
 23
0.0
 33
0.0
 16
1.0
 26
0.0
 36
0.0
 17
0.0
 27
1.0
 37
0.0
 76
     0
330
70
  0
MATERIAL
  5
19
102
{ACAD_XDICTIONARY
360
1A
102
}
102
{ACAD_REACTORS
330
10
102
}
330
10
100
AcDbMaterial
  1
ByBlock
 72
     0
 43
0.0208333333333333
 43
0.0
 43
0.0
 43
0.0
 43
0.0
 43
0.0208333333333333
 43
0.0
 43
0.0
 43
0.0
 43
0.0
 43
1.0
 43
0.0
 43
0.0
 43
0.0
 43
0.0
 43
1.0
 77
     0
 47
0.0208333333333333
 47
0.0
 47
0.0
 47
0.0
 47
0.0
 47
0.0208333333333333
 47
0.0
 47
0.0
 47
0.0
 47
0.0
 47
1.0
 47
0.0
 47
0.0
 47
0.0
 47
0.0
 47
1.0
171
     0
 49
0.0208333333333333
 49
0.0
 49
0.0
 49
0.0
 49
0.0
 49
0.0208333333333333
 49
0.0
 49
0.0
 49
0.0
 49
0.0
 49
1.0
 49
0.0
 49
0.0
 49
0.0
 49
0.0
 49
1.0
175
     0
142
0.0208333333333333
142
0.0
142
0.0
142
0.0
142
0.0
142
0.0208333333333333
142
0.0
142
0.0
142
0.0
142
0.0
142
1.0
142
0.0
142
0.0
142
0.0
142
0.0
142
1.0
179
     0
144
0.0208333333333333
144
0.0
144
0.0
144
0.0
144
0.0
144
0.0208333333333333
144
0.0
144
0.0
144
0.0
144
0.0
144
1.0
144
0.0
144
0.0
144
0.0
144
0.0
144
1.0
147
0.0208333333333333
147
0.0
147
0.0
147
0.0
147
0.0
147
0.0208333333333333
147
0.0
147
0.0
147
0.0
147
0.0
147
1.0
147
0.0
147
0.0
147
0.0
147
0.0
147
1.0
  0
MATERIAL
  5
11
102
{ACAD_XDICTIONARY
360
12
102
}
102
{ACAD_REACTORS
330
10
102
}
330
10
100
AcDbMaterial
  1
ByLayer
 72
     0
 43
0.0208333333333333
 43
0.0
 43
0.0
 43
0.0
 43
0.0
 43
0.0208333333333333
 43
0.0
 43
0.0
 43
0.0
 43
0.0
 43
1.0
 43
0.0
 43
0.0
 43
0.0
 43
0.0
 43
1.0
 77
     0
 47
0.0208333333333333
 47
0.0
 47
0.0
 47
0.0
 47
0.0
 47
0.0208333333333333
 47
0.0
 47
0.0
 47
0.0
 47
0.0
 47
1.0
 47
0.0
 47
0.0
 47
0.0
 47
0.0
 47
1.0
171
     0
 49
0.0208333333333333
 49
0.0
 49
0.0
 49
0.0
 49
0.0
 49
0.0208333333333333
 49
0.0
 49
0.0
 49
0.0
 49
0.0
 49
1.0
 49
0.0
 49
0.0
 49
0.0
 49
0.0
 49
1.0
175
     0
142
0.0208333333333333
142
0.0
142
0.0
142
0.0
142
0.0
142
0.0208333333333333
142
0.0
142
0.0
142
0.0
142
0.0
142
1.0
142
0.0
142
0.0
142
0.0
142
0.0
142
1.0
179
     0
144
0.0208333333333333
144
0.0
144
0.0
144
0.0
144
0.0
144
0.0208333333333333
144
0.0
144
0.0
144
0.0
144
0.0
144
1.0
144
0.0
144
0.0
144
0.0
144
0.0
144
1.0
147
0.0208333333333333
147
0.0
147
0.0
147
0.0
147
0.0
147
0.0208333333333333
147
0.0
147
0.0
147
0.0
147
0.0
147
1.0
147
0.0
147
0.0
147
0.0
147
0.0
147
1.0
  0
MATERIAL
  5
21
102
{ACAD_XDICTIONARY
360
22
102
}
102
{ACAD_REACTORS
330
10
102
}
330
10
100
AcDbMaterial
  1
Global
 72
     0
 43
0.0208333333333333
 43
0.0
 43
0.0
 43
0.0
 43
0.0
 43
0.0208333333333333
 43
0.0
 43
0.0
 43
0.0
 43
0.0
 43
1.0
 43
0.0
 43
0.0
 43
0.0
 43
0.0
 43
1.0
 77
     0
 47
0.0208333333333333
 47
0.0
 47
0.0
 47
0.0
 47
0.0
 47
0.0208333333333333
 47
0.0
 47
0.0
 47
0.0
 47
0.0
 47
1.0
 47
0.0
 47
0.0
 47
0.0
 47
0.0
 47
1.0
171
     0
 49
0.0208333333333333
 49
0.0
 49
0.0
 49
0.0
 49
0.0
 49
0.0208333333333333
 49
0.0
 49
0.0
 49
0.0
 49
0.0
 49
1.0
 49
0.0
 49
0.0
 49
0.0
 49
0.0
 49
1.0
175
     0
142
0.0208333333333333
142
0.0
142
0.0
142
0.0
142
0.0
142
0.0208333333333333
142
0.0
142
0.0
142
0.0
142
0.0
142
1.0
142
0.0
142
0.0
142
0.0
142
0.0
142
1.0
179
     0
144
0.0208333333333333
144
0.0
144
0.0
144
0.0
144
0.0
144
0.0208333333333333
144
0.0
144
0.0
144
0.0
144
0.0
144
1.0
144
0.0
144
0.0
144
0.0
144
0.0
144
1.0
147
0.0208333333333333
147
0.0
147
0.0
147
0.0
147
0.0
147
0.0208333333333333
147
0.0
147
0.0
147
0.0
147
0.0
147
1.0
147
0.0
147
0.0
147
0.0
147
0.0
147
1.0
  0
MLEADERSTYLE
  5
67
102
{ACAD_REACTORS
330
66
102
}
330
66
100
AcDbMLeaderStyle
179
     2
170
     2
171
     1
172
     0
 90
        2
 40
0.0
 41
0.0
173
     1
 91
-1056964608
340
5B
 92
       -2
290
     1
 42
0.09
291
     1
 43
0.36
  3
Standard
 44
0.18
300

342
55
174
     1
178
     6
175
     1
176
     0
 93
-1056964608
 45
0.18
292
     0
297
     0
 46
0.18
 94
-1056964608
 47
1.0
 49
1.0
140
1.0
293
     1
141
0.0
294
     1
177
     0
142
1.0
295
     1
296
     0
143
0.125
271
     0
272
     9
273
     9
298
     1
  0
MLINESTYLE
  5
60
102
{ACAD_REACTORS
330
5F
102
}
330
5F
100
AcDbMlineStyle
  2
STANDARD
 70
     0
  3

 62
   256
 51
90.0
 52
90.0
 71
     2
 49
0.5
 62
   256
  6
BYLAYER
 49
-0.5
 62
   256
  6
BYLAYER
  0
ACDBPLACEHOLDER
  5
F
102
{ACAD_REACTORS
330
E
102
}
330
E
  0
SCALE
  5
43
102
{ACAD_REACTORS
330
42
102
}
330
42
100
AcDbScale
 70
     0
300
1:1
140
1.0
141
1.0
290
     1
  0
SCALE
  5
44
102
{ACAD_REACTORS
330
42
102
}
330
42
100
AcDbScale
 70
     0
300
1/128" = 1'-0"
140
0.0078125
141
12.0
290
     0
  0
SCALE
  5
45
102
{ACAD_REACTORS
330
42
102
}
330
42
100
AcDbScale
 70
     0
300
1/64" = 1'-0"
140
0.015625
141
12.0
290
     0
  0
SCALE
  5
46
102
{ACAD_REACTORS
330
42
102
}
330
42
100
AcDbScale
 70
     0
300
1/32" = 1'-0"
140
0.03125
141
12.0
290
     0
  0
SCALE
  5
47
102
{ACAD_REACTORS
330
42
102
}
330
42
100
AcDbScale
 70
     0
300
1/16" = 1'-0"
140
0.0625
141
12.0
290
     0
  0
SCALE
  5
48
102
{ACAD_REACTORS
330
42
102
}
330
42
100
AcDbScale
 70
     0
300
3/32" = 1'-0"
140
0.09375
141
12.0
290
     0
  0
SCALE
  5
49
102
{ACAD_REACTORS
330
42
102
}
330
42
100
AcDbScale
 70
     0
300
1/8" = 1'-0"
140
0.125
141
12.0
290
     0
  0
SCALE
  5
4A
102
{ACAD_REACTORS
330
42
102
}
330
42
100
AcDbScale
 70
     0
300
3/16" = 1'-0"
140
0.1875
141
12.0
290
     0
  0
SCALE
  5
4B
102
{ACAD_REACTORS
330
42
102
}
330
42
100
AcDbScale
 70
     0
300
1/4" = 1'-0"
140
0.25
141
12.0
290
     0
  0
SCALE
  5
4C
102
{ACAD_REACTORS
330
42
102
}
330
42
100
AcDbScale
 70
     0
300
3/8" = 1'-0"
140
0.375
141
12.0
290
     0
  0
SCALE
  5
4D
102
{ACAD_REACTORS
330
42
102
}
330
42
100
AcDbScale
 70
     0
300
1/2" = 1'-0"
140
0.5
141
12.0
290
     0
  0
SCALE
  5
4E
102
{ACAD_REACTORS
330
42
102
}
330
42
100
AcDbScale
 70
     0
300
3/4" = 1'-0"
140
0.75
141
12.0
290
     0
  0
SCALE
  5
4F
102
{ACAD_REACTORS
330
42
102
}
330
42
100
AcDbScale
 70
     0
300
1" = 1'-0"
140
1.0
141
12.0
290
     0
  0
SCALE
  5
50
102
{ACAD_REACTORS
330
42
102
}
330
42
100
AcDbScale
 70
     0
300
1-1/2" = 1'-0"
140
1.5
141
12.0
290
     0
  0
SCALE
  5
51
102
{ACAD_REACTORS
330
42
102
}
330
42
100
AcDbScale
 70
     0
300
3" = 1'-0"
140
3.0
141
12.0
290
     0
  0
SCALE
  5
52
102
{ACAD_REACTORS
330
42
102
}
330
42
100
AcDbScale
 70
     0
300
6" = 1'-0"
140
6.0
141
12.0
290
     0
  0
SCALE
  5
53
102
{ACAD_REACTORS
330
42
102
}
330
42
100
AcDbScale
 70
     0
300
1'-0" = 1'-0"
140
12.0
141
12.0
290
     0
  0
ACDBSECTIONVIEWSTYLE
  5
69
102
{ACAD_REACTORS
330
68
102
}
330
68
100
AcDbModelDocViewStyle
 70
     0
  3
Imperial24
290
     1
300
Imperial24
 90
        0
100
AcDbSectionViewStyle
 70
     0
 71
     0
 90
       78
 71
     1
340
55
 62
   256
 40
0.24
340
0
340
0
 62
   256
 40
0.24
300
I, O, Q, S, X, Z
 40
0.48
 90
        3
 40
0.18
 90
        1
 71
     2
340
5D
 90
       25
 62
   256
340
5D
 90
       50
 62
   256
 40
0.24
 40
0.0
 40
0.24
 71
     3
340
55
 62
   256
 40
0.24
 90
        1
 40
0.75
 90
        1
300
%<\AcVar ViewType \f "%tc1">% %<\AcVar ViewSectionStartId>%-%<\AcVar ViewSectionEndId>%\PSCALE %<\AcVar ViewScale \f "%sn">%
 71
     4
 62
   256
 62
   257
300
ANSI31
 40
1.0
 90
        0
290
     0
290
     0
 90
        6
 40
0.0
 40
1.570796326794896
 40
0.2617993877991494
 40
1.308996938995747
 40
-0.2617993877991494
 40
1.832595714594046
  0
TABLESTYLE
  5
65
102
{ACAD_XDICTIONARY
360
CF
102
}
102
{ACAD_REACTORS
330
64
102
}
330
64
100
AcDbTableStyle
280
     0
  3
Standard
 70
     0
 71
     0
 40
0.06
 41
0.06
280
     0
281
     0
  7
Standard
140
0.18
170
     2
 62
     0
 63
     7
283
     0
 90
      512
 91
        0
  1

274
    -2
284
     1
 64
     0
275
    -2
285
     1
 65
     0
276
    -2
286
     1
 66
     0
277
    -2
287
     1
 67
     0
278
    -2
288
     1
 68
     0
279
    -2
289
     1
 69
     0
  7
Standard
140
0.25
170
     5
 62
     0
 63
     7
283
     0
 90
      512
 91
        0
  1

274
    -2
284
     1
 64
     0
275
    -2
285
     1
 65
     0
276
    -2
286
     1
 66
     0
277
    -2
287
     1
 67
     0
278
    -2
288
     1
 68
     0
279
    -2
289
     1
 69
     0
  7
Standard
140
0.18
170
     5
 62
     0
 63
     7
283
     0
 90
      512
 91
        0
  1

274
    -2
284
     1
 64
     0
275
    -2
285
     1
 65
     0
276
    -2
286
     1
 66
     0
277
    -2
287
     1
 67
     0
278
    -2
288
     1
 68
     0
279
    -2
289
     1
 69
     0
  0
VISUALSTYLE
  5
2F
102
{ACAD_REACTORS
330
29
102
}
330
29
100
AcDbVisualStyle
  2
2dWireframe
 70
     4
177
     3
291
     0
 70
    58
 90
        0
176
     1
 90
        2
176
     1
 90
        0
176
     1
 90
        0
176
     1
 40
0.6
176
     1
 40
30.0
176
     1
 62
     7
420
 16777215
176
     1
 90
        1
176
     1
 90
        4
176
     1
 62
     7
176
     1
 62
   257
176
     1
 90
        1
176
     1
 90
        1
176
     1
 40
1.0
176
     1
 90
        0
176
     1
 62
   257
176
     1
 40
1.0
176
     1
 90
        1
176
     1
 90
        6
176
     1
 90
        2
176
     1
 62
     7
176
     1
 90
        5
176
     1
 90
        0
176
     1
 90
        0
176
     1
290
     0
176
     1
 90
        1
176
     1
 40
0.0
176
     1
 90
        0
176
     1
290
     1
176
     1
290
     1
176
     1
290
     0
176
     1
290
     0
176
     1
290
     0
176
     1
290
     0
176
     1
290
     0
176
     1
290
     0
176
     1
290
     0
176
     1
 90
       50
176
     1
 40
0.0
176
     1
 40
1.0
176
     1
 90
        0
176
     1
 62
    18
420
        0
176
     1
 90
       50
176
     1
 90
        3
176
     1
 62
     5
420
      255
176
     1
290
     0
176
     1
 90
       50
176
     1
 90
       50
176
     1
 90
       50
176
     1
290
     0
176
     1
 90
       50
176
     1
 62
   256
176
     0
 40
1.0
176
     0
 90
        2
176
     1
  1
strokes_ogs.tif
176
     1
290
     0
176
     1
 40
1.0
176
     1
 40
1.0
176
     1
  0
VISUALSTYLE
  5
2E
102
{ACAD_REACTORS
330
29
102
}
330
29
100
AcDbVisualStyle
  2
Basic
 70
     7
177
     3
291
     1
 70
    58
 90
        1
176
     1
 90
        0
176
     1
 90
        1
176
     1
 90
        0
176
     1
 40
0.6
176
     1
 40
30.0
176
     1
 62
     7
420
 16777215
176
     1
 90
        0
176
     1
 90
        4
176
     1
 62
     7
176
     1
 62
   257
176
     1
 90
        1
176
     1
 90
        1
176
     1
 40
1.0
176
     1
 90
        8
176
     1
 62
     7
176
     1
 40
1.0
176
     1
 90
        1
176
     1
 90
        6
176
     1
 90
        2
176
     1
 62
     7
176
     1
 90
        5
176
     1
 90
        0
176
     1
 90
        0
176
     1
290
     0
176
     1
 90
        1
176
     1
 40
0.0
176
     1
 90
        0
176
     1
290
     0
176
     1
290
     1
176
     1
290
     1
176
     1
290
     0
176
     1
290
     0
176
     1
290
     0
176
     1
290
     0
176
     1
290
     0
176
     1
290
     0
176
     1
 90
       50
176
     1
 40
0.0
176
     1
 40
1.0
176
     1
 90
        0
176
     1
 62
    18
420
        0
176
     1
 90
       50
176
     1
 90
        3
176
     1
 62
     5
420
      255
176
     1
290
     0
176
     1
 90
       50
176
     1
 90
       50
176
     1
 90
       50
176
     1
290
     0
176
     1
 90
       50
176
     1
 62
   256
176
     0
 40
1.0
176
     0
 90
        2
176
     1
  1
strokes_ogs.tif
176
     1
290
     0
176
     1
 40
1.0
176
     1
 40
1.0
176
     1
  0
VISUALSTYLE
  5
35
102
{ACAD_REACTORS
330
29
102
}
330
29
100
AcDbVisualStyle
  2
Brighten
 70
    12
177
     3
291
     1
 70
    58
 90
        2
176
     1
 90
        2
176
     1
 90
        0
176
     1
 90
        0
176
     1
 40
0.6
176
     1
 40
30.0
176
     1
 62
     7
420
 16777215
176
     1
 90
        1
176
     1
 90
        4
176
     1
 62
     7
176
     1
 62
   257
176
     1
 90
        1
176
     1
 90
        1
176
     1
 40
1.0
176
     1
 90
        8
176
     1
 62
     7
176
     1
 40
1.0
176
     1
 90
        1
176
     1
 90
        6
176
     1
 90
        2
176
     1
 62
     7
176
     1
 90
        5
176
     1
 90
        0
176
     1
 90
        0
176
     1
290
     0
176
     1
 90
        1
176
     1
 40
50.0
176
     1
 90
        0
176
     1
290
     0
176
     1
290
     1
176
     1
290
     1
176
     1
290
     0
176
     1
290
     0
176
     1
290
     0
176
     1
290
     0
176
     1
290
     0
176
     1
290
     0
176
     1
 90
       50
176
     1
 40
0.0
176
     1
 40
1.0
176
     1
 90
        0
176
     1
 62
    18
420
        0
176
     1
 90
       50
176
     1
 90
        3
176
     1
 62
     5
420
      255
176
     1
290
     0
176
     1
 90
       50
176
     1
 90
       50
176
     1
 90
       50
176
     1
290
     0
176
     1
 90
       50
176
     1
 62
   256
176
     0
 40
1.0
176
     0
 90
        2
176
     1
  1
strokes_ogs.tif
176
     1
290
     0
176
     1
 40
1.0
176
     1
 40
1.0
176
     1
  0
VISUALSTYLE
  5
39
102
{ACAD_REACTORS
330
29
102
}
330
29
100
AcDbVisualStyle
  2
ColorChange
 70
    16
177
     3
291
     1
 70
    58
 90
        2
176
     1
 90
        2
176
     1
 90
        3
176
     1
 90
        0
176
     1
 40
0.6
176
     1
 40
30.0
176
     1
 62
     8
420
  8421504
176
     1
 90
        1
176
     1
 90
        4
176
     1
 62
     7
176
     1
 62
   257
176
     1
 90
        1
176
     1
 90
        1
176
     1
 40
1.0
176
     1
 90
        8
176
     1
 62
     8
420
  8421504
176
     1
 40
1.0
176
     1
 90
        1
176
     1
 90
        6
176
     1
 90
        2
176
     1
 62
     7
176
     1
 90
        5
176
     1
 90
        0
176
     1
 90
        0
176
     1
290
     0
176
     1
 90
        1
176
     1
 40
0.0
176
     1
 90
        0
176
     1
290
     0
176
     1
290
     1
176
     1
290
     1
176
     1
290
     0
176
     1
290
     0
176
     1
290
     0
176
     1
290
     0
176
     1
290
     0
176
     1
290
     0
176
     1
 90
       50
176
     1
 40
0.0
176
     1
 40
1.0
176
     1
 90
        0
176
     1
 62
    18
420
        0
176
     1
 90
       50
176
     1
 90
        3
176
     1
 62
     5
420
      255
176
     1
290
     0
176
     1
 90
       50
176
     1
 90
       50
176
     1
 90
       50
176
     1
290
     0
176
     1
 90
       50
176
     1
 62
   256
176
     0
 40
1.0
176
     0
 90
        2
176
     1
  1
strokes_ogs.tif
176
     1
290
     0
176
     1
 40
1.0
176
     1
 40
1.0
176
     1
  0
VISUALSTYLE
  5
32
102
{ACAD_REACTORS
330
29
102
}
330
29
100
AcDbVisualStyle
  2
Conceptual
 70
     9
177
     3
291
     0
 70
    58
 90
        3
176
     1
 90
        2
176
     1
 90
        0
176
     1
 90
        0
176
     1
 40
0.6
176
     1
 40
30.0
176
     1
 62
     7
420
 16777215
176
     1
 90
        2
176
     1
 90
        2
176
     1
 62
     7
176
     1
 62
   257
176
     1
 90
        1
176
     1
 90
        1
176
     1
 40
179.0
176
     1
 90
        8
176
     1
 62
     7
176
     1
 40
1.0
176
     1
 90
        1
176
     1
 90
        6
176
     1
 90
        2
176
     1
 62
     7
176
     1
 90
        3
176
     1
 90
        0
176
     1
 90
        0
176
     1
290
     0
176
     1
 90
        1
176
     1
 40
0.0
176
     1
 90
        0
176
     1
290
     0
176
     1
290
     1
176
     1
290
     1
176
     1
290
     0
176
     1
290
     0
176
     1
290
     0
176
     1
290
     0
176
     1
290
     0
176
     1
290
     0
176
     1
 90
       50
176
     1
 40
0.0
176
     1
 40
1.0
176
     1
 90
        0
176
     1
 62
    18
420
        0
176
     1
 90
       50
176
     1
 90
        3
176
     1
 62
     5
420
      255
176
     1
290
     0
176
     1
 90
       50
176
     1
 90
       50
176
     1
 90
       50
176
     1
290
     0
176
     1
 90
       50
176
     1
 62
   256
176
     0
 40
1.0
176
     0
 90
        2
176
     1
  1
strokes_ogs.tif
176
     1
290
     0
176
     1
 40
1.0
176
     1
 40
1.0
176
     1
  0
VISUALSTYLE
  5
34
102
{ACAD_REACTORS
330
29
102
}
330
29
100
AcDbVisualStyle
  2
Dim
 70
    11
177
     3
291
     1
 70
    58
 90
        2
176
     1
 90
        2
176
     1
 90
        0
176
     1
 90
        0
176
     1
 40
0.6
176
     1
 40
30.0
176
     1
 62
     7
420
 16777215
176
     1
 90
        1
176
     1
 90
        4
176
     1
 62
     7
176
     1
 62
   257
176
     1
 90
        1
176
     1
 90
        1
176
     1
 40
1.0
176
     1
 90
        8
176
     1
 62
     7
176
     1
 40
1.0
176
     1
 90
        1
176
     1
 90
        6
176
     1
 90
        2
176
     1
 62
     7
176
     1
 90
        5
176
     1
 90
        0
176
     1
 90
        0
176
     1
290
     0
176
     1
 90
        1
176
     1
 40
-50.0
176
     1
 90
        0
176
     1
290
     0
176
     1
290
     1
176
     1
290
     1
176
     1
290
     0
176
     1
290
     0
176
     1
290
     0
176
     1
290
     0
176
     1
290
     0
176
     1
290
     0
176
     1
 90
       50
176
     1
 40
0.0
176
     1
 40
1.0
176
     1
 90
        0
176
     1
 62
    18
420
        0
176
     1
 90
       50
176
     1
 90
        3
176
     1
 62
     5
420
      255
176
     1
290
     0
176
     1
 90
       50
176
     1
 90
       50
176
     1
 90
       50
176
     1
290
     0
176
     1
 90
       50
176
     1
 62
   256
176
     0
 40
1.0
176
     0
 90
        2
176
     1
  1
strokes_ogs.tif
176
     1
290
     0
176
     1
 40
1.0
176
     1
 40
1.0
176
     1
  0
VISUALSTYLE
  5
41
102
{ACAD_REACTORS
330
29
102
}
330
29
100
AcDbVisualStyle
  2
EdgeColorOff
 70
    22
177
     3
291
     1
 70
    58
 90
        2
176
     0
 90
        2
176
     0
 90
        0
176
     0
 90
        0
176
     0
 40
0.6
176
     0
 40
30.0
176
     0
 62
     7
420
 16777215
176
     0
 90
        1
176
     0
 90
        4
176
     0
 62
     7
176
     0
 62
   257
176
     0
 90
        1
176
     0
 90
        1
176
     0
 40
1.0
176
     0
 90
        8
176
     2
 62
     7
176
     0
 40
1.0
176
     0
 90
        1
176
     0
 90
        6
176
     0
 90
        2
176
     0
 62
     7
176
     0
 90
        5
176
     0
 90
        0
176
     0
 90
        0
176
     0
290
     0
176
     0
 90
        1
176
     0
 40
0.0
176
     0
 90
        0
176
     0
290
     0
176
     0
290
     1
176
     0
290
     1
176
     0
290
     0
176
     0
290
     0
176
     0
290
     0
176
     0
290
     0
176
     0
290
     0
176
     0
290
     0
176
     0
 90
       50
176
     0
 40
0.0
176
     0
 40
1.0
176
     0
 90
        0
176
     0
 62
    18
420
        0
176
     0
 90
       50
176
     0
 90
        3
176
     0
 62
     5
420
      255
176
     0
290
     0
176
     0
 90
       50
176
     0
 90
       50
176
     0
 90
       50
176
     0
290
     0
176
     0
 90
       50
176
     0
 62
   256
176
     0
 40
1.0
176
     0
 90
        2
176
     0
  1
strokes_ogs.tif
176
     0
290
     0
176
     0
 40
1.0
176
     0
 40
1.0
176
     0
  0
VISUALSTYLE
  5
38
102
{ACAD_REACTORS
330
29
102
}
330
29
100
AcDbVisualStyle
  2
Facepattern
 70
    15
177
     3
291
     1
 70
    58
 90
        2
176
     1
 90
        2
176
     1
 90
        0
176
     1
 90
        0
176
     1
 40
0.6
176
     1
 40
30.0
176
     1
 62
     7
420
 16777215
176
     1
 90
        1
176
     1
 90
        4
176
     1
 62
     7
176
     1
 62
   257
176
     1
 90
        1
176
     1
 90
        1
176
     1
 40
1.0
176
     1
 90
        8
176
     1
 62
     7
176
     1
 40
1.0
176
     1
 90
        1
176
     1
 90
        6
176
     1
 90
        2
176
     1
 62
     7
176
     1
 90
        5
176
     1
 90
        0
176
     1
 90
        0
176
     1
290
     0
176
     1
 90
        1
176
     1
 40
0.0
176
     1
 90
        0
176
     1
290
     0
176
     1
290
     1
176
     1
290
     1
176
     1
290
     0
176
     1
290
     0
176
     1
290
     0
176
     1
290
     0
176
     1
290
     0
176
     1
290
     0
176
     1
 90
       50
176
     1
 40
0.0
176
     1
 40
1.0
176
     1
 90
        0
176
     1
 62
    18
420
        0
176
     1
 90
       50
176
     1
 90
        3
176
     1
 62
     5
420
      255
176
     1
290
     0
176
     1
 90
       50
176
     1
 90
       50
176
     1
 90
       50
176
     1
290
     0
176
     1
 90
       50
176
     1
 62
   256
176
     0
 40
1.0
176
     0
 90
        2
176
     1
  1
strokes_ogs.tif
176
     1
290
     0
176
     1
 40
1.0
176
     1
 40
1.0
176
     1
  0
VISUALSTYLE
  5
2A
102
{ACAD_REACTORS
330
29
102
}
330
29
100
AcDbVisualStyle
  2
Flat
 70
     0
177
     3
291
     1
 70
    58
 90
        2
176
     1
 90
        1
176
     1
 90
        1
176
     1
 90
        2
176
     1
 40
0.6
176
     1
 40
30.0
176
     1
 62
     7
420
 16777215
176
     1
 90
        0
176
     1
 90
        0
176
     1
 62
     7
176
     1
 62
   257
176
     1
 90
        1
176
     1
 90
        1
176
     1
 40
1.0
176
     1
 90
        8
176
     1
 62
     7
176
     1
 40
1.0
176
     1
 90
        1
176
     1
 90
        6
176
     1
 90
        2
176
     1
 62
     7
176
     1
 90
        5
176
     1
 90
        0
176
     1
 90
        0
176
     1
290
     0
176
     1
 90
       13
176
     1
 40
0.0
176
     1
 90
        0
176
     1
290
     0
176
     1
290
     1
176
     1
290
     1
176
     1
290
     0
176
     1
290
     0
176
     1
290
     0
176
     1
290
     0
176
     1
290
     0
176
     1
290
     0
176
     1
 90
       50
176
     1
 40
0.0
176
     1
 40
1.0
176
     1
 90
        0
176
     1
 62
    18
420
        0
176
     1
 90
       50
176
     1
 90
        3
176
     1
 62
     5
420
      255
176
     1
290
     0
176
     1
 90
       50
176
     1
 90
       50
176
     1
 90
       50
176
     1
290
     0
176
     1
 90
       50
176
     1
 62
   256
176
     0
 40
1.0
176
     0
 90
        2
176
     1
  1
strokes_ogs.tif
176
     1
290
     0
176
     1
 40
1.0
176
     1
 40
1.0
176
     1
  0
VISUALSTYLE
  5
2B
102
{ACAD_REACTORS
330
29
102
}
330
29
100
AcDbVisualStyle
  2
FlatWithEdges
 70
     1
177
     3
291
     1
 70
    58
 90
        2
176
     1
 90
        1
176
     1
 90
        1
176
     1
 90
        2
176
     1
 40
0.6
176
     1
 40
30.0
176
     1
 62
     7
420
 16777215
176
     1
 90
        1
176
     1
 90
        0
176
     1
 62
     7
176
     1
 62
   257
176
     1
 90
        1
176
     1
 90
        1
176
     1
 40
1.0
176
     1
 90
        0
176
     1
 62
   257
176
     1
 40
1.0
176
     1
 90
        1
176
     1
 90
        6
176
     1
 90
        2
176
     1
 62
     7
176
     1
 90
        5
176
     1
 90
        0
176
     1
 90
        0
176
     1
290
     0
176
     1
 90
       13
176
     1
 40
0.0
176
     1
 90
        0
176
     1
290
     0
176
     1
290
     1
176
     1
290
     1
176
     1
290
     0
176
     1
290
     0
176
     1
290
     0
176
     1
290
     0
176
     1
290
     0
176
     1
290
     0
176
     1
 90
       50
176
     1
 40
0.0
176
     1
 40
1.0
176
     1
 90
        0
176
     1
 62
    18
420
        0
176
     1
 90
       50
176
     1
 90
        3
176
     1
 62
     5
420
      255
176
     1
290
     0
176
     1
 90
       50
176
     1
 90
       50
176
     1
 90
       50
176
     1
290
     0
176
     1
 90
       50
176
     1
 62
   256
176
     0
 40
1.0
176
     0
 90
        2
176
     1
  1
strokes_ogs.tif
176
     1
290
     0
176
     1
 40
1.0
176
     1
 40
1.0
176
     1
  0
VISUALSTYLE
  5
2C
102
{ACAD_REACTORS
330
29
102
}
330
29
100
AcDbVisualStyle
  2
Gouraud
 70
     2
177
     3
291
     1
 70
    58
 90
        2
176
     1
 90
        2
176
     1
 90
        1
176
     1
 90
        2
176
     1
 40
0.6
176
     1
 40
30.0
176
     1
 62
     7
420
 16777215
176
     1
 90
        0
176
     1
 90
        0
176
     1
 62
     7
176
     1
 62
   257
176
     1
 90
        1
176
     1
 90
        1
176
     1
 40
1.0
176
     1
 90
        0
176
     1
 62
     7
176
     1
 40
1.0
176
     1
 90
        1
176
     1
 90
        6
176
     1
 90
        2
176
     1
 62
     7
176
     1
 90
        5
176
     1
 90
        0
176
     1
 90
        0
176
     1
290
     0
176
     1
 90
       13
176
     1
 40
0.0
176
     1
 90
        0
176
     1
290
     0
176
     1
290
     1
176
     1
290
     1
176
     1
290
     0
176
     1
290
     0
176
     1
290
     0
176
     1
290
     0
176
     1
290
     0
176
     1
290
     0
176
     1
 90
       50
176
     1
 40
0.0
176
     1
 40
1.0
176
     1
 90
        0
176
     1
 62
    18
420
        0
176
     1
 90
       50
176
     1
 90
        3
176
     1
 62
     5
420
      255
176
     1
290
     0
176
     1
 90
       50
176
     1
 90
       50
176
     1
 90
       50
176
     1
290
     0
176
     1
 90
       50
176
     1
 62
   256
176
     0
 40
1.0
176
     0
 90
        2
176
     1
  1
strokes_ogs.tif
176
     1
290
     0
176
     1
 40
1.0
176
     1
 40
1.0
176
     1
  0
VISUALSTYLE
  5
2D
102
{ACAD_REACTORS
330
29
102
}
330
29
100
AcDbVisualStyle
  2
GouraudWithEdges
 70
     3
177
     3
291
     1
 70
    58
 90
        2
176
     1
 90
        2
176
     1
 90
        1
176
     1
 90
        2
176
     1
 40
0.6
176
     1
 40
30.0
176
     1
 62
     7
420
 16777215
176
     1
 90
        1
176
     1
 90
        0
176
     1
 62
     7
176
     1
 62
   257
176
     1
 90
        1
176
     1
 90
        1
176
     1
 40
1.0
176
     1
 90
        0
176
     1
 62
   257
176
     1
 40
1.0
176
     1
 90
        1
176
     1
 90
        6
176
     1
 90
        2
176
     1
 62
     7
176
     1
 90
        5
176
     1
 90
        0
176
     1
 90
        0
176
     1
290
     0
176
     1
 90
       13
176
     1
 40
0.0
176
     1
 90
        0
176
     1
290
     0
176
     1
290
     1
176
     1
290
     1
176
     1
290
     0
176
     1
290
     0
176
     1
290
     0
176
     1
290
     0
176
     1
290
     0
176
     1
290
     0
176
     1
 90
       50
176
     1
 40
0.0
176
     1
 40
1.0
176
     1
 90
        0
176
     1
 62
    18
420
        0
176
     1
 90
       50
176
     1
 90
        3
176
     1
 62
     5
420
      255
176
     1
290
     0
176
     1
 90
       50
176
     1
 90
       50
176
     1
 90
       50
176
     1
290
     0
176
     1
 90
       50
176
     1
 62
   256
176
     0
 40
1.0
176
     0
 90
        2
176
     1
  1
strokes_ogs.tif
176
     1
290
     0
176
     1
 40
1.0
176
     1
 40
1.0
176
     1
  0
VISUALSTYLE
  5
31
102
{ACAD_REACTORS
330
29
102
}
330
29
100
AcDbVisualStyle
  2
Hidden
 70
     6
177
     3
291
     0
 70
    58
 90
        1
176
     1
 90
        2
176
     1
 90
        2
176
     1
 90
        0
176
     1
 40
0.6
176
     1
 40
30.0
176
     1
 62
     7
420
 16777215
176
     1
 90
        2
176
     1
 90
        2
176
     1
 62
     7
176
     1
 62
   257
176
     1
 90
        2
176
     1
 90
        1
176
     1
 40
40.0
176
     1
 90
        0
176
     1
 62
   257
176
     1
 40
1.0
176
     1
 90
        1
176
     1
 90
        6
176
     1
 90
        2
176
     1
 62
     7
176
     1
 90
        3
176
     1
 90
        0
176
     1
 90
        0
176
     1
290
     0
176
     1
 90
        1
176
     1
 40
0.0
176
     1
 90
        0
176
     1
290
     0
176
     1
290
     1
176
     1
290
     1
176
     1
290
     0
176
     1
290
     0
176
     1
290
     0
176
     1
290
     0
176
     1
290
     0
176
     1
290
     0
176
     1
 90
       50
176
     1
 40
0.0
176
     1
 40
1.0
176
     1
 90
        0
176
     1
 62
    18
420
        0
176
     1
 90
       50
176
     1
 90
        3
176
     1
 62
     5
420
      255
176
     1
290
     0
176
     1
 90
       50
176
     1
 90
       50
176
     1
 90
       50
176
     1
290
     0
176
     1
 90
       50
176
     1
 62
   256
176
     0
 40
1.0
176
     0
 90
        2
176
     1
  1
strokes_ogs.tif
176
     1
290
     0
176
     1
 40
1.0
176
     1
 40
1.0
176
     1
  0
VISUALSTYLE
  5
3F
102
{ACAD_REACTORS
330
29
102
}
330
29
100
AcDbVisualStyle
  2
JitterOff
 70
    20
177
     3
291
     1
 70
    58
 90
        2
176
     0
 90
        2
176
     0
 90
        0
176
     0
 90
        0
176
     0
 40
0.6
176
     0
 40
30.0
176
     0
 62
     7
420
 16777215
176
     0
 90
        1
176
     0
 90
        4
176
     0
 62
     7
176
     0
 62
   257
176
     0
 90
        1
176
     0
 90
        1
176
     0
 40
1.0
176
     0
 90
       10
176
     2
 62
     7
176
     0
 40
1.0
176
     0
 90
        1
176
     0
 90
        6
176
     0
 90
        2
176
     0
 62
     7
176
     0
 90
        5
176
     0
 90
        0
176
     0
 90
        0
176
     0
290
     0
176
     0
 90
        1
176
     0
 40
0.0
176
     0
 90
        0
176
     0
290
     0
176
     0
290
     1
176
     0
290
     1
176
     0
290
     0
176
     0
290
     0
176
     0
290
     0
176
     0
290
     0
176
     0
290
     0
176
     0
290
     0
176
     0
 90
       50
176
     0
 40
0.0
176
     0
 40
1.0
176
     0
 90
        0
176
     0
 62
    18
420
        0
176
     0
 90
       50
176
     0
 90
        3
176
     0
 62
     5
420
      255
176
     0
290
     0
176
     0
 90
       50
176
     0
 90
       50
176
     0
 90
       50
176
     0
290
     0
176
     0
 90
       50
176
     0
 62
   256
176
     0
 40
1.0
176
     0
 90
        2
176
     0
  1
strokes_ogs.tif
176
     0
290
     0
176
     0
 40
1.0
176
     0
 40
1.0
176
     0
  0
VISUALSTYLE
  5
37
102
{ACAD_REACTORS
330
29
102
}
330
29
100
AcDbVisualStyle
  2
Linepattern
 70
    14
177
     3
291
     1
 70
    58
 90
        2
176
     1
 90
        2
176
     1
 90
        0
176
     1
 90
        0
176
     1
 40
0.6
176
     1
 40
30.0
176
     1
 62
     7
420
 16777215
176
     1
 90
        1
176
     1
 90
        4
176
     1
 62
     7
176
     1
 62
   257
176
     1
 90
        7
176
     1
 90
        7
176
     1
 40
1.0
176
     1
 90
        8
176
     1
 62
     7
176
     1
 40
1.0
176
     1
 90
        1
176
     1
 90
        6
176
     1
 90
        2
176
     1
 62
     7
176
     1
 90
        5
176
     1
 90
        0
176
     1
 90
        0
176
     1
290
     0
176
     1
 90
        1
176
     1
 40
0.0
176
     1
 90
        0
176
     1
290
     0
176
     1
290
     1
176
     1
290
     1
176
     1
290
     0
176
     1
290
     0
176
     1
290
     0
176
     1
290
     0
176
     1
290
     0
176
     1
290
     0
176
     1
 90
       50
176
     1
 40
0.0
176
     1
 40
1.0
176
     1
 90
        0
176
     1
 62
    18
420
        0
176
     1
 90
       50
176
     1
 90
        3
176
     1
 62
     5
420
      255
176
     1
290
     0
176
     1
 90
       50
176
     1
 90
       50
176
     1
 90
       50
176
     1
290
     0
176
     1
 90
       50
176
     1
 62
   256
176
     0
 40
1.0
176
     0
 90
        2
176
     1
  1
strokes_ogs.tif
176
     1
290
     0
176
     1
 40
1.0
176
     1
 40
1.0
176
     1
  0
VISUALSTYLE
  5
40
102
{ACAD_REACTORS
330
29
102
}
330
29
100
AcDbVisualStyle
  2
OverhangOff
 70
    21
177
     3
291
     1
 70
    58
 90
        2
176
     0
 90
        2
176
     0
 90
        0
176
     0
 90
        0
176
     0
 40
0.6
176
     0
 40
30.0
176
     0
 62
     7
420
 16777215
176
     0
 90
        1
176
     0
 90
        4
176
     0
 62
     7
176
     0
 62
   257
176
     0
 90
        1
176
     0
 90
        1
176
     0
 40
1.0
176
     0
 90
        9
176
     2
 62
     7
176
     0
 40
1.0
176
     0
 90
        1
176
     0
 90
        6
176
     0
 90
        2
176
     0
 62
     7
176
     0
 90
        5
176
     0
 90
        0
176
     0
 90
        0
176
     0
290
     0
176
     0
 90
        1
176
     0
 40
0.0
176
     0
 90
        0
176
     0
290
     0
176
     0
290
     1
176
     0
290
     1
176
     0
290
     0
176
     0
290
     0
176
     0
290
     0
176
     0
290
     0
176
     0
290
     0
176
     0
290
     0
176
     0
 90
       50
176
     0
 40
0.0
176
     0
 40
1.0
176
     0
 90
        0
176
     0
 62
    18
420
        0
176
     0
 90
       50
176
     0
 90
        3
176
     0
 62
     5
420
      255
176
     0
290
     0
176
     0
 90
       50
176
     0
 90
       50
176
     0
 90
       50
176
     0
290
     0
176
     0
 90
       50
176
     0
 62
   256
176
     0
 40
1.0
176
     0
 90
        2
176
     0
  1
strokes_ogs.tif
176
     0
290
     0
176
     0
 40
1.0
176
     0
 40
1.0
176
     0
  0
VISUALSTYLE
  5
33
102
{ACAD_REACTORS
330
29
102
}
330
29
100
AcDbVisualStyle
  2
Realistic
 70
     8
177
     3
291
     0
 70
    58
 90
        2
176
     1
 90
        3
176
     1
 90
        0
176
     1
 90
        2
176
     1
 40
0.6
176
     1
 40
30.0
176
     1
 62
     7
420
 16777215
176
     1
 90
        0
176
     1
 90
        0
176
     1
 62
     7
176
     1
 62
   257
176
     1
 90
        1
176
     1
 90
        1
176
     1
 40
1.0
176
     1
 90
        8
176
     1
 62
   257
176
     1
 40
1.0
176
     1
 90
        1
176
     1
 90
        6
176
     1
 90
        2
176
     1
 62
     7
176
     1
 90
        3
176
     1
 90
        0
176
     1
 90
        0
176
     1
290
     0
176
     1
 90
       13
176
     1
 40
0.0
176
     1
 90
        0
176
     1
290
     0
176
     1
290
     1
176
     1
290
     1
176
     1
290
     0
176
     1
290
     0
176
     1
290
     0
176
     1
290
     0
176
     1
290
     0
176
     1
290
     0
176
     1
 90
       50
176
     1
 40
0.0
176
     1
 40
1.0
176
     1
 90
        0
176
     1
 62
    18
420
        0
176
     1
 90
       50
176
     1
 90
        3
176
     1
 62
     5
420
      255
176
     1
290
     0
176
     1
 90
       50
176
     1
 90
       50
176
     1
 90
       50
176
     1
290
     0
176
     1
 90
       50
176
     1
 62
   256
176
     0
 40
1.0
176
     0
 90
        2
176
     1
  1
strokes_ogs.tif
176
     1
290
     0
176
     1
 40
1.0
176
     1
 40
1.0
176
     1
  0
VISUALSTYLE
  5
3E
102
{ACAD_REACTORS
330
29
102
}
330
29
100
AcDbVisualStyle
  2
Shaded
 70
    27
177
     3
291
     0
 70
    58
 90
        2
176
     1
 90
        2
176
     1
 90
        1
176
     1
 90
        2
176
     1
 40
0.6
176
     1
 40
30.0
176
     1
 62
     7
420
 16777215
176
     1
 90
        0
176
     1
 90
        4
176
     1
 62
     7
176
     1
 62
   257
176
     1
 90
        1
176
     1
 90
        1
176
     1
 40
1.0
176
     1
 90
        8
176
     1
 62
   257
176
     1
 40
1.0
176
     1
 90
        1
176
     1
 90
        6
176
     1
 90
        2
176
     1
 62
     8
420
  7895160
176
     1
 90
        3
176
     1
 90
        0
176
     1
 90
        0
176
     1
290
     0
176
     1
 90
        5
176
     1
 40
0.0
176
     1
 90
        0
176
     1
290
     0
176
     1
290
     1
176
     1
290
     1
176
     1
290
     0
176
     1
290
     0
176
     1
290
     0
176
     1
290
     0
176
     1
290
     0
176
     1
290
     0
176
     1
 90
       50
176
     1
 40
0.0
176
     1
 40
1.0
176
     1
 90
        0
176
     1
 62
    18
420
        0
176
     1
 90
       50
176
     1
 90
        3
176
     1
 62
     5
420
      255
176
     1
290
     0
176
     1
 90
       50
176
     1
 90
       50
176
     1
 90
       50
176
     1
290
     0
176
     1
 90
       50
176
     1
 62
   256
176
     0
 40
1.0
176
     0
 90
        2
176
     1
  1
strokes_ogs.tif
176
     1
290
     0
176
     1
 40
1.0
176
     1
 40
1.0
176
     1
  0
VISUALSTYLE
  5
3D
102
{ACAD_REACTORS
330
29
102
}
330
29
100
AcDbVisualStyle
  2
Shaded with edges
 70
    26
177
     3
291
     0
 70
    58
 90
        2
176
     1
 90
        2
176
     1
 90
        1
176
     1
 90
        2
176
     1
 40
0.6
176
     1
 40
30.0
176
     1
 62
     7
420
 16777215
176
     1
 90
        1
176
     1
 90
        2
176
     1
 62
     7
176
     1
 62
   257
176
     1
 90
        2
176
     1
 90
        1
176
     1
 40
1.0
176
     1
 90
        8
176
     1
 62
   257
176
     1
 40
1.0
176
     1
 90
        1
176
     1
 90
        6
176
     1
 90
        2
176
     1
 62
     7
176
     1
 90
        3
176
     1
 90
        0
176
     1
 90
        0
176
     1
290
     0
176
     1
 90
        5
176
     1
 40
0.0
176
     1
 90
        0
176
     1
290
     0
176
     1
290
     1
176
     1
290
     1
176
     1
290
     0
176
     1
290
     0
176
     1
290
     0
176
     1
290
     0
176
     1
290
     0
176
     1
290
     0
176
     1
 90
       50
176
     1
 40
0.0
176
     1
 40
1.0
176
     1
 90
        0
176
     1
 62
    18
420
        0
176
     1
 90
       50
176
     1
 90
        3
176
     1
 62
     5
420
      255
176
     1
290
     0
176
     1
 90
       50
176
     1
 90
       50
176
     1
 90
       50
176
     1
290
     0
176
     1
 90
       50
176
     1
 62
   256
176
     0
 40
1.0
176
     0
 90
        2
176
     1
  1
strokes_ogs.tif
176
     1
290
     0
176
     1
 40
1.0
176
     1
 40
1.0
176
     1
  0
VISUALSTYLE
  5
3A
102
{ACAD_REACTORS
330
29
102
}
330
29
100
AcDbVisualStyle
  2
Shades of Gray
 70
    23
177
     3
291
     0
 70
    58
 90
        2
176
     1
 90
        2
176
     1
 90
        3
176
     1
 90
        0
176
     1
 40
0.6
176
     1
 40
30.0
176
     1
 62
     7
420
 16777215
176
     1
 90
        2
176
     1
 90
        2
176
     1
 62
     7
176
     1
 62
     7
176
     1
 90
        1
176
     1
 90
        1
176
     1
 40
40.0
176
     1
 90
        8
176
     1
 62
     7
176
     1
 40
1.0
176
     1
 90
        1
176
     1
 90
        6
176
     1
 90
        2
176
     1
 62
     7
176
     1
 90
        3
176
     1
 90
        0
176
     1
 90
        0
176
     1
290
     0
176
     1
 90
        1
176
     1
 40
0.0
176
     1
 90
        0
176
     1
290
     0
176
     1
290
     1
176
     1
290
     1
176
     1
290
     0
176
     1
290
     0
176
     1
290
     0
176
     1
290
     0
176
     1
290
     0
176
     1
290
     0
176
     1
 90
       50
176
     1
 40
0.0
176
     1
 40
1.0
176
     1
 90
        0
176
     1
 62
    18
420
        0
176
     1
 90
       50
176
     1
 90
        3
176
     1
 62
     5
420
      255
176
     1
290
     0
176
     1
 90
       50
176
     1
 90
       50
176
     1
 90
       50
176
     1
290
     0
176
     1
 90
       50
176
     1
 62
   256
176
     0
 40
1.0
176
     0
 90
        2
176
     1
  1
strokes_ogs.tif
176
     1
290
     0
176
     1
 40
1.0
176
     1
 40
1.0
176
     1
  0
VISUALSTYLE
  5
3B
102
{ACAD_REACTORS
330
29
102
}
330
29
100
AcDbVisualStyle
  2
Sketchy
 70
    24
177
     3
291
     0
 70
    58
 90
        1
176
     1
 90
        2
176
     1
 90
        2
176
     1
 90
        0
176
     1
 40
0.6
176
     1
 40
30.0
176
     1
 62
     7
420
 16777215
176
     1
 90
        2
176
     1
 90
        2
176
     1
 62
     7
176
     1
 62
     7
176
     1
 90
        1
176
     1
 90
        1
176
     1
 40
40.0
176
     1
 90
       11
176
     1
 62
     7
176
     1
 40
1.0
176
     1
 90
        1
176
     1
 90
        6
176
     1
 90
        2
176
     1
 62
     7
176
     1
 90
        6
176
     1
 90
        0
176
     1
 90
        0
176
     1
290
     0
176
     1
 90
        1
176
     1
 40
0.0
176
     1
 90
        0
176
     1
290
     0
176
     1
290
     1
176
     1
290
     1
176
     1
290
     0
176
     1
290
     0
176
     1
290
     0
176
     1
290
     0
176
     1
290
     0
176
     1
290
     0
176
     1
 90
       50
176
     1
 40
0.0
176
     1
 40
1.0
176
     1
 90
        0
176
     1
 62
    18
420
        0
176
     1
 90
       50
176
     1
 90
        3
176
     1
 62
     5
420
      255
176
     1
290
     0
176
     1
 90
       50
176
     1
 90
       50
176
     1
 90
       50
176
     1
290
     0
176
     1
 90
       50
176
     1
 62
   256
176
     0
 40
1.0
176
     0
 90
        2
176
     1
  1
strokes_ogs.tif
176
     1
290
     0
176
     1
 40
1.0
176
     1
 40
1.0
176
     1
  0
VISUALSTYLE
  5
36
102
{ACAD_REACTORS
330
29
102
}
330
29
100
AcDbVisualStyle
  2
Thicken
 70
    13
177
     3
291
     1
 70
    58
 90
        2
176
     1
 90
        2
176
     1
 90
        0
176
     1
 90
        0
176
     1
 40
0.6
176
     1
 40
30.0
176
     1
 62
     7
420
 16777215
176
     1
 90
        1
176
     1
 90
        4
176
     1
 62
     7
176
     1
 62
   257
176
     1
 90
        1
176
     1
 90
        1
176
     1
 40
1.0
176
     1
 90
       12
176
     1
 62
     7
176
     1
 40
1.0
176
     1
 90
        1
176
     1
 90
        6
176
     1
 90
        2
176
     1
 62
     7
176
     1
 90
        5
176
     1
 90
        0
176
     1
 90
        0
176
     1
290
     0
176
     1
 90
        1
176
     1
 40
0.0
176
     1
 90
        0
176
     1
290
     0
176
     1
290
     1
176
     1
290
     1
176
     1
290
     0
176
     1
290
     0
176
     1
290
     0
176
     1
290
     0
176
     1
290
     0
176
     1
290
     0
176
     1
 90
       50
176
     1
 40
0.0
176
     1
 40
1.0
176
     1
 90
        0
176
     1
 62
    18
420
        0
176
     1
 90
       50
176
     1
 90
        3
176
     1
 62
     5
420
      255
176
     1
290
     0
176
     1
 90
       50
176
     1
 90
       50
176
     1
 90
       50
176
     1
290
     0
176
     1
 90
       50
176
     1
 62
   256
176
     0
 40
1.0
176
     0
 90
        2
176
     1
  1
strokes_ogs.tif
176
     1
290
     0
176
     1
 40
1.0
176
     1
 40
1.0
176
     1
  0
VISUALSTYLE
  5
30
102
{ACAD_REACTORS
330
29
102
}
330
29
100
AcDbVisualStyle
  2
Wireframe
 70
     5
177
     3
291
     0
 70
    58
 90
        0
176
     1
 90
        2
176
     1
 90
        0
176
     1
 90
        0
176
     1
 40
0.6
176
     1
 40
30.0
176
     1
 62
     7
420
 16777215
176
     1
 90
        1
176
     1
 90
        4
176
     1
 62
     7
176
     1
 62
   257
176
     1
 90
        1
176
     1
 90
        1
176
     1
 40
1.0
176
     1
 90
        0
176
     1
 62
   257
176
     1
 40
1.0
176
     1
 90
        1
176
     1
 90
        6
176
     1
 90
        2
176
     1
 62
     7
176
     1
 90
        3
176
     1
 90
        0
176
     1
 90
        0
176
     1
290
     0
176
     1
 90
        1
176
     1
 40
0.0
176
     1
 90
        0
176
     1
290
     0
176
     1
290
     1
176
     1
290
     1
176
     1
290
     0
176
     1
290
     0
176
     1
290
     0
176
     1
290
     0
176
     1
290
     0
176
     1
290
     0
176
     1
 90
       50
176
     1
 40
0.0
176
     1
 40
1.0
176
     1
 90
        0
176
     1
 62
    18
420
        0
176
     1
 90
       50
176
     1
 90
        3
176
     1
 62
     5
420
      255
176
     1
290
     0
176
     1
 90
       50
176
     1
 90
       50
176
     1
 90
       50
176
     1
290
     0
176
     1
 90
       50
176
     1
 62
   256
176
     0
 40
1.0
176
     0
 90
        2
176
     1
  1
strokes_ogs.tif
176
     1
290
     0
176
     1
 40
1.0
176
     1
 40
1.0
176
     1
  0
VISUALSTYLE
  5
3C
102
{ACAD_REACTORS
330
29
102
}
330
29
100
AcDbVisualStyle
  2
X-Ray
 70
    25
177
     3
291
     0
 70
    58
 90
        2
176
     1
 90
        2
176
     1
 90
        1
176
     1
 90
        1
176
     1
 40
0.5
176
     1
 40
30.0
176
     1
 62
     7
420
 16777215
176
     1
 90
        1
176
     1
 90
        0
176
     1
 62
     7
176
     1
 62
   257
176
     1
 90
        1
176
     1
 90
        1
176
     1
 40
1.0
176
     1
 90
        8
176
     1
 62
     7
176
     1
 40
1.0
176
     1
 90
        1
176
     1
 90
        6
176
     1
 90
        2
176
     1
 62
     7
176
     1
 90
        3
176
     1
 90
        0
176
     1
 90
        0
176
     1
290
     0
176
     1
 90
       13
176
     1
 40
0.0
176
     1
 90
        0
176
     1
290
     0
176
     1
290
     1
176
     1
290
     1
176
     1
290
     0
176
     1
290
     0
176
     1
290
     0
176
     1
290
     0
176
     1
290
     0
176
     1
290
     0
176
     1
 90
       50
176
     1
 40
0.0
176
     1
 40
1.0
176
     1
 90
        0
176
     1
 62
    18
420
        0
176
     1
 90
       50
176
     1
 90
        3
176
     1
 62
     5
420
      255
176
     1
290
     0
176
     1
 90
       50
176
     1
 90
       50
176
     1
 90
       50
176
     1
290
     0
176
     1
 90
       50
176
     1
 62
   256
176
     0
 40
1.0
176
     0
 90
        2
176
     1
  1
strokes_ogs.tif
176
     1
290
     0
176
     1
 40
1.0
176
     1
 40
1.0
176
     1
  0
DICTIONARYVAR
  5
CE
102
{ACAD_REACTORS
330
C9
102
}
330
C9
100
DictionaryVariables
280
     0
  1
1:1
  0
DICTIONARYVAR
  5
CB
102
{ACAD_REACTORS
330
C9
102
}
330
C9
100
DictionaryVariables
280
     0
  1
STANDARD
  0
DICTIONARYVAR
  5
CA
102
{ACAD_REACTORS
330
C9
102
}
330
C9
100
DictionaryVariables
280
     0
  1
STANDARD
  0
DICTIONARYVAR
  5
CC
102
{ACAD_REACTORS
330
C9
102
}
330
C9
100
DictionaryVariables
280
     0
  1
Imperial24
  0
DICTIONARYVAR
  5
CD
102
{ACAD_REACTORS
330
C9
102
}
330
C9
100
DictionaryVariables
280
     0
  1
Imperial24
  0
DICTIONARY
  5
1A
330
19
100
AcDbDictionary
280
     1
281
     1
  3
BUMPTILE
360
1C
  3
DIFFUSETILE
360
1B
  3
OPACITYTILE
360
1F
  3
REFLECTIONTILE
360
1E
  3
REFRACTIONTILE
360
20
  3
SPECULARTILE
360
1D
  0
DICTIONARY
  5
12
330
11
100
AcDbDictionary
280
     1
281
     1
  3
BUMPTILE
360
14
  3
DIFFUSETILE
360
13
  3
OPACITYTILE
360
17
  3
REFLECTIONTILE
360
16
  3
REFRACTIONTILE
360
18
  3
SPECULARTILE
360
15
  0
DICTIONARY
  5
22
330
21
100
AcDbDictionary
280
     1
281
     1
  3
BUMPTILE
360
24
  3
DIFFUSETILE
360
23
  3
OPACITYTILE
360
27
  3
REFLECTIONTILE
360
26
  3
REFRACTIONTILE
360
28
  3
SPECULARTILE
360
25
  0
DICTIONARY
  5
CF
330
65
100
AcDbDictionary
280
     1
281
     1
  3
ACAD_ROUNDTRIP_2008_TABLESTYLE_CELLSTYLEMAP
360
D0
  0
XRECORD
  5
1C
102
{ACAD_REACTORS
330
1A
102
}
330
1A
100
AcDbXrecord
280
     1
270
     1
271
     1
  0
XRECORD
  5
1B
102
{ACAD_REACTORS
330
1A
102
}
330
1A
100
AcDbXrecord
280
     1
270
     1
271
     1
  0
XRECORD
  5
1F
102
{ACAD_REACTORS
330
1A
102
}
330
1A
100
AcDbXrecord
280
     1
270
     1
271
     1
  0
XRECORD
  5
1E
102
{ACAD_REACTORS
330
1A
102
}
330
1A
100
AcDbXrecord
280
     1
270
     1
271
     1
  0
XRECORD
  5
20
102
{ACAD_REACTORS
330
1A
102
}
330
1A
100
AcDbXrecord
280
     1
270
     1
271
     1
  0
XRECORD
  5
1D
102
{ACAD_REACTORS
330
1A
102
}
330
1A
100
AcDbXrecord
280
     1
270
     1
271
     1
  0
XRECORD
  5
14
102
{ACAD_REACTORS
330
12
102
}
330
12
100
AcDbXrecord
280
     1
270
     1
271
     1
  0
XRECORD
  5
13
102
{ACAD_REACTORS
330
12
102
}
330
12
100
AcDbXrecord
280
     1
270
     1
271
     1
  0
XRECORD
  5
17
102
{ACAD_REACTORS
330
12
102
}
330
12
100
AcDbXrecord
280
     1
270
     1
271
     1
  0
XRECORD
  5
16
102
{ACAD_REACTORS
330
12
102
}
330
12
100
AcDbXrecord
280
     1
270
     1
271
     1
  0
XRECORD
  5
18
102
{ACAD_REACTORS
330
12
102
}
330
12
100
AcDbXrecord
280
     1
270
     1
271
     1
  0
XRECORD
  5
15
102
{ACAD_REACTORS
330
12
102
}
330
12
100
AcDbXrecord
280
     1
270
     1
271
     1
  0
XRECORD
  5
24
102
{ACAD_REACTORS
330
22
102
}
330
22
100
AcDbXrecord
280
     1
270
     1
271
     1
  0
XRECORD
  5
23
102
{ACAD_REACTORS
330
22
102
}
330
22
100
AcDbXrecord
280
     1
270
     1
271
     1
  0
XRECORD
  5
27
102
{ACAD_REACTORS
330
22
102
}
330
22
100
AcDbXrecord
280
     1
270
     1
271
     1
  0
XRECORD
  5
26
102
{ACAD_REACTORS
330
22
102
}
330
22
100
AcDbXrecord
280
     1
270
     1
271
     1
  0
XRECORD
  5
28
102
{ACAD_REACTORS
330
22
102
}
330
22
100
AcDbXrecord
280
     1
270
     1
271
     1
  0
XRECORD
  5
25
102
{ACAD_REACTORS
330
22
102
}
330
22
100
AcDbXrecord
280
     1
270
     1
271
     1
  0
CELLSTYLEMAP
  5
D0
102
{ACAD_REACTORS
330
CF
102
}
330
CF
100
AcDbCellStyleMap
 90
        3
300
CELLSTYLE
  1
TABLEFORMAT_BEGIN
 90
        5
170
     1
 91
        0
 92
    32768
 62
   257
 93
        1
300
CONTENTFORMAT
  1
CONTENTFORMAT_BEGIN
 90
        0
 91
        0
 92
      512
 93
        0
300

 40
0.0
140
1.0
 94
        5
 62
     0
340
55
144
0.25
309
CONTENTFORMAT_END
171
     0
 94
        0
309
TABLEFORMAT_END
  1
CELLSTYLE_BEGIN
 90
        1
 91
        1
300
_TITLE
309
CELLSTYLE_END
300
CELLSTYLE
  1
TABLEFORMAT_BEGIN
 90
        5
170
     1
 91
        0
 92
        0
 62
   257
 93
        1
300
CONTENTFORMAT
  1
CONTENTFORMAT_BEGIN
 90
        0
 91
        0
 92
      512
 93
        0
300

 40
0.0
140
1.0
 94
        5
 62
     0
340
55
144
0.18
309
CONTENTFORMAT_END
171
     0
 94
        0
309
TABLEFORMAT_END
  1
CELLSTYLE_BEGIN
 90
        2
 91
        1
300
_HEADER
309
CELLSTYLE_END
300
CELLSTYLE
  1
TABLEFORMAT_BEGIN
 90
        5
170
     1
 91
        0
 92
        0
 62
   257
 93
        1
300
CONTENTFORMAT
  1
CONTENTFORMAT_BEGIN
 90
        0
 91
        0
 92
      512
 93
        0
300

 40
0.0
140
1.0
 94
        2
 62
     0
340
55
144
0.18
309
CONTENTFORMAT_END
171
     0
 94
        0
309
TABLEFORMAT_END
  1
CELLSTYLE_BEGIN
 90
        3
 91
        2
300
_DATA
309
CELLSTYLE_END
  0
ENDSEC
  0
EOF
